<?xml version="1.0" encoding="UTF-8" standalone="no"?>
<!DOCTYPE svg PUBLIC "-//W3C//DTD SVG 1.1//EN"
 "http://www.w3.org/Graphics/SVG/1.1/DTD/svg11.dtd">
<!-- Generated by graphviz version 15.1.0 (0)
 -->
<!-- Title: installer_overview Pages: 1 -->
<svg width="670pt" height="1844pt"
 viewBox="0.00 0.00 670.00 1844.00" xmlns="http://www.w3.org/2000/svg" xmlns:xlink="http://www.w3.org/1999/xlink">
<g id="graph0" class="graph" transform="scale(1 1) rotate(0) translate(4 1839.94)">
<title>installer_overview</title>
<polygon fill="#000000" stroke="none" points="-4,4 -4,-1839.94 666,-1839.94 666,4 -4,4"/>
<text xml:space="preserve" text-anchor="middle" x="331" y="-1818.64" font-family="monospace" font-size="14.00" fill="#e8b4b4">synos&#45;install, start to finish</text>
<g id="clust1" class="cluster">
<title>cluster_stage0</title>
<path fill="#0a0a0a" stroke="#444444" d="M57,-935.64C57,-935.64 429,-935.64 429,-935.64 435,-935.64 441,-941.64 441,-947.64 441,-947.64 441,-1507.89 441,-1507.89 441,-1513.89 435,-1519.89 429,-1519.89 429,-1519.89 57,-1519.89 57,-1519.89 51,-1519.89 45,-1513.89 45,-1507.89 45,-1507.89 45,-947.64 45,-947.64 45,-941.64 51,-935.64 57,-935.64"/>
<text xml:space="preserve" text-anchor="middle" x="243" y="-1502.59" font-family="monospace" font-size="14.00" fill="white">Stage 0, live ISO environment (syn&#45;stage0.zsh)</text>
</g>
<g id="clust2" class="cluster">
<title>cluster_stage1</title>
<path fill="#0a0a0a" stroke="#444444" d="M20,-262.27C20,-262.27 367,-262.27 367,-262.27 373,-262.27 379,-268.27 379,-274.27 379,-274.27 379,-836.02 379,-836.02 379,-842.02 373,-848.02 367,-848.02 367,-848.02 20,-848.02 20,-848.02 14,-848.02 8,-842.02 8,-836.02 8,-836.02 8,-274.27 8,-274.27 8,-268.27 14,-262.27 20,-262.27"/>
<text xml:space="preserve" text-anchor="middle" x="193.5" y="-830.72" font-family="monospace" font-size="14.00" fill="white">Stage 1, inside the chroot (syn&#45;stage1.zsh)</text>
</g>
<!-- boot -->
<g id="node1" class="node">
<title>boot</title>
<ellipse fill="#400101" stroke="#800000" cx="193" cy="-1762.47" rx="147.08" ry="45.96"/>
<text xml:space="preserve" text-anchor="middle" x="193" y="-1781.47" font-family="monospace" font-size="10.00" fill="white">Boot ISO</text>
<text xml:space="preserve" text-anchor="middle" x="193" y="-1767.22" font-family="monospace" font-size="10.00" fill="white">(BIOS: syslinux menu,</text>
<text xml:space="preserve" text-anchor="middle" x="193" y="-1752.97" font-family="monospace" font-size="10.00" fill="white">UEFI: systemd&#45;boot, 1 entry)</text>
<text xml:space="preserve" text-anchor="middle" x="193" y="-1738.72" font-family="monospace" font-size="10.00" fill="white">both land in the same live shell</text>
</g>
<!-- edit -->
<g id="node2" class="node">
<title>edit</title>
<polygon fill="#260101" stroke="#800000" points="285,-1680.51 95,-1680.51 95,-1615.51 291,-1615.51 291,-1674.51 285,-1680.51"/>
<polyline fill="none" stroke="#800000" points="285,-1680.51 285,-1674.51"/>
<polyline fill="none" stroke="#800000" points="291,-1674.51 285,-1674.51"/>
<text xml:space="preserve" text-anchor="middle" x="193" y="-1667.01" font-family="monospace" font-size="10.00" fill="white">edit /etc/syn&#45;os/synos.conf</text>
<text xml:space="preserve" text-anchor="middle" x="193" y="-1652.76" font-family="monospace" font-size="10.00" fill="white">(only input, no interactive</text>
<text xml:space="preserve" text-anchor="middle" x="193" y="-1638.51" font-family="monospace" font-size="10.00" fill="white">prompts for disk/fs/encryption</text>
<text xml:space="preserve" text-anchor="middle" x="193" y="-1624.26" font-family="monospace" font-size="10.00" fill="white">once synos&#45;install starts)</text>
</g>
<!-- boot&#45;&gt;edit -->
<g id="edge13" class="edge">
<title>boot&#45;&gt;edit</title>
<path fill="none" stroke="#aaaaaa" d="M193,-1716.06C193,-1708.2 193,-1700.06 193,-1692.26"/>
<polygon fill="#aaaaaa" stroke="#aaaaaa" points="196.5,-1692.3 193,-1682.3 189.5,-1692.3 196.5,-1692.3"/>
</g>
<!-- run -->
<g id="node3" class="node">
<title>run</title>
<ellipse fill="#400101" stroke="#800000" cx="193" cy="-1553.7" rx="121.62" ry="25.81"/>
<text xml:space="preserve" text-anchor="middle" x="193" y="-1558.45" font-family="monospace" font-size="10.00" fill="white">synos&#45;install</text>
<text xml:space="preserve" text-anchor="middle" x="193" y="-1544.2" font-family="monospace" font-size="10.00" fill="white">(alias for syn&#45;stage0.zsh)</text>
</g>
<!-- edit&#45;&gt;run -->
<g id="edge14" class="edge">
<title>edit&#45;&gt;run</title>
<path fill="none" stroke="#aaaaaa" d="M193,-1615.24C193,-1607.47 193,-1599.08 193,-1591.1"/>
<polygon fill="#aaaaaa" stroke="#aaaaaa" points="196.5,-1591.34 193,-1581.34 189.5,-1591.34 196.5,-1591.34"/>
</g>
<!-- source -->
<g id="node4" class="node">
<title>source</title>
<path fill="#2c0101" stroke="#800000" d="M261,-1484.39C261,-1484.39 125,-1484.39 125,-1484.39 119,-1484.39 113,-1478.39 113,-1472.39 113,-1472.39 113,-1445.64 113,-1445.64 113,-1439.64 119,-1433.64 125,-1433.64 125,-1433.64 261,-1433.64 261,-1433.64 267,-1433.64 273,-1439.64 273,-1445.64 273,-1445.64 273,-1472.39 273,-1472.39 273,-1478.39 267,-1484.39 261,-1484.39"/>
<text xml:space="preserve" text-anchor="middle" x="193" y="-1470.89" font-family="monospace" font-size="10.00" fill="white">source syn&#45;config.zsh,</text>
<text xml:space="preserve" text-anchor="middle" x="193" y="-1456.64" font-family="monospace" font-size="10.00" fill="white">syn&#45;packages.zsh, ui.zsh</text>
<text xml:space="preserve" text-anchor="middle" x="193" y="-1442.39" font-family="monospace" font-size="10.00" fill="white">+ 5 strategy modules</text>
</g>
<!-- run&#45;&gt;source -->
<g id="edge15" class="edge">
<title>run&#45;&gt;source</title>
<path fill="none" stroke="#aaaaaa" d="M193,-1527.86C193,-1518.02 193,-1506.51 193,-1495.8"/>
<polygon fill="#aaaaaa" stroke="#aaaaaa" points="196.5,-1496.12 193,-1486.12 189.5,-1496.12 196.5,-1496.12"/>
</g>
<!-- gate -->
<g id="node5" class="node">
<title>gate</title>
<path fill="#4a1414" stroke="#d84a3f" d="M285,-1397.64C285,-1397.64 101,-1397.64 101,-1397.64 95,-1397.64 89,-1391.64 89,-1385.64 89,-1385.64 89,-1330.39 89,-1330.39 89,-1324.39 95,-1318.39 101,-1318.39 101,-1318.39 285,-1318.39 285,-1318.39 291,-1318.39 297,-1324.39 297,-1330.39 297,-1330.39 297,-1385.64 297,-1385.64 297,-1391.64 291,-1397.64 285,-1397.64"/>
<text xml:space="preserve" text-anchor="middle" x="193" y="-1384.14" font-family="monospace" font-size="10.00" fill="white">Safety gate:</text>
<text xml:space="preserve" text-anchor="middle" x="193" y="-1369.89" font-family="monospace" font-size="10.00" fill="white">RequireWipeConfirm=yes &#45;&gt;</text>
<text xml:space="preserve" text-anchor="middle" x="193" y="-1355.64" font-family="monospace" font-size="10.00" fill="white">&quot;Proceed and wipe &lt;disk&gt;? [y/N]&quot;</text>
<text xml:space="preserve" text-anchor="middle" x="193" y="-1341.39" font-family="monospace" font-size="10.00" fill="white">only interactive step in the</text>
<text xml:space="preserve" text-anchor="middle" x="193" y="-1327.14" font-family="monospace" font-size="10.00" fill="white">whole pipeline</text>
</g>
<!-- source&#45;&gt;gate -->
<g id="edge1" class="edge">
<title>source&#45;&gt;gate</title>
<path fill="none" stroke="#aaaaaa" d="M193,-1433.29C193,-1425.97 193,-1417.67 193,-1409.34"/>
<polygon fill="#aaaaaa" stroke="#aaaaaa" points="196.5,-1409.56 193,-1399.56 189.5,-1409.56 196.5,-1409.56"/>
</g>
<!-- partition -->
<g id="node6" class="node">
<title>partition</title>
<path fill="#260101" stroke="#800000" d="M228,-1282.39C228,-1282.39 158,-1282.39 158,-1282.39 152,-1282.39 146,-1276.39 146,-1270.39 146,-1270.39 146,-1258.39 146,-1258.39 146,-1252.39 152,-1246.39 158,-1246.39 158,-1246.39 228,-1246.39 228,-1246.39 234,-1246.39 240,-1252.39 240,-1258.39 240,-1258.39 240,-1270.39 240,-1270.39 240,-1276.39 234,-1282.39 228,-1282.39"/>
<text xml:space="preserve" text-anchor="middle" x="193" y="-1262.02" font-family="monospace" font-size="10.00" fill="white">partitionMain</text>
</g>
<!-- gate&#45;&gt;partition -->
<g id="edge2" class="edge">
<title>gate&#45;&gt;partition</title>
<path fill="none" stroke="#aaaaaa" d="M193,-1317.89C193,-1309.95 193,-1301.72 193,-1294.21"/>
<polygon fill="#aaaaaa" stroke="#aaaaaa" points="196.5,-1294.29 193,-1284.29 189.5,-1294.29 196.5,-1294.29"/>
</g>
<!-- volume -->
<g id="node7" class="node">
<title>volume</title>
<path fill="#260101" stroke="#800000" d="M219,-1210.39C219,-1210.39 167,-1210.39 167,-1210.39 161,-1210.39 155,-1204.39 155,-1198.39 155,-1198.39 155,-1186.39 155,-1186.39 155,-1180.39 161,-1174.39 167,-1174.39 167,-1174.39 219,-1174.39 219,-1174.39 225,-1174.39 231,-1180.39 231,-1186.39 231,-1186.39 231,-1198.39 231,-1198.39 231,-1204.39 225,-1210.39 219,-1210.39"/>
<text xml:space="preserve" text-anchor="middle" x="193" y="-1190.02" font-family="monospace" font-size="10.00" fill="white">volumeMain</text>
</g>
<!-- partition&#45;&gt;volume -->
<g id="edge3" class="edge">
<title>partition&#45;&gt;volume</title>
<path fill="none" stroke="#aaaaaa" d="M193,-1246.09C193,-1238.8 193,-1230.12 193,-1221.93"/>
<polygon fill="#aaaaaa" stroke="#aaaaaa" points="196.5,-1222.01 193,-1212.01 189.5,-1222.01 196.5,-1222.01"/>
</g>
<!-- filesystem -->
<g id="node8" class="node">
<title>filesystem</title>
<path fill="#260101" stroke="#800000" d="M231,-1138.39C231,-1138.39 155,-1138.39 155,-1138.39 149,-1138.39 143,-1132.39 143,-1126.39 143,-1126.39 143,-1114.39 143,-1114.39 143,-1108.39 149,-1102.39 155,-1102.39 155,-1102.39 231,-1102.39 231,-1102.39 237,-1102.39 243,-1108.39 243,-1114.39 243,-1114.39 243,-1126.39 243,-1126.39 243,-1132.39 237,-1138.39 231,-1138.39"/>
<text xml:space="preserve" text-anchor="middle" x="193" y="-1118.02" font-family="monospace" font-size="10.00" fill="white">filesystemMain</text>
</g>
<!-- volume&#45;&gt;filesystem -->
<g id="edge4" class="edge">
<title>volume&#45;&gt;filesystem</title>
<path fill="none" stroke="#aaaaaa" d="M193,-1174.09C193,-1166.8 193,-1158.12 193,-1149.93"/>
<polygon fill="#aaaaaa" stroke="#aaaaaa" points="196.5,-1150.01 193,-1140.01 189.5,-1150.01 196.5,-1150.01"/>
</g>
<!-- mount -->
<g id="node9" class="node">
<title>mount</title>
<path fill="#260101" stroke="#800000" d="M216,-1066.39C216,-1066.39 170,-1066.39 170,-1066.39 164,-1066.39 158,-1060.39 158,-1054.39 158,-1054.39 158,-1042.39 158,-1042.39 158,-1036.39 164,-1030.39 170,-1030.39 170,-1030.39 216,-1030.39 216,-1030.39 222,-1030.39 228,-1036.39 228,-1042.39 228,-1042.39 228,-1054.39 228,-1054.39 228,-1060.39 222,-1066.39 216,-1066.39"/>
<text xml:space="preserve" text-anchor="middle" x="193" y="-1046.02" font-family="monospace" font-size="10.00" fill="white">mountMain</text>
</g>
<!-- filesystem&#45;&gt;mount -->
<g id="edge5" class="edge">
<title>filesystem&#45;&gt;mount</title>
<path fill="none" stroke="#aaaaaa" d="M193,-1102.09C193,-1094.8 193,-1086.12 193,-1077.93"/>
<polygon fill="#aaaaaa" stroke="#aaaaaa" points="196.5,-1078.01 193,-1068.01 189.5,-1078.01 196.5,-1078.01"/>
</g>
<!-- pacstrap -->
<g id="node10" class="node">
<title>pacstrap</title>
<path fill="#260101" stroke="#800000" d="M267,-994.39C267,-994.39 119,-994.39 119,-994.39 113,-994.39 107,-988.39 107,-982.39 107,-982.39 107,-955.64 107,-955.64 107,-949.64 113,-943.64 119,-943.64 119,-943.64 267,-943.64 267,-943.64 273,-943.64 279,-949.64 279,-955.64 279,-955.64 279,-982.39 279,-982.39 279,-988.39 273,-994.39 267,-994.39"/>
<text xml:space="preserve" text-anchor="middle" x="193" y="-980.89" font-family="monospace" font-size="10.00" fill="white">pacstrapMain</text>
<text xml:space="preserve" text-anchor="middle" x="193" y="-966.64" font-family="monospace" font-size="10.00" fill="white">(pacstrap + DotfileOverlay</text>
<text xml:space="preserve" text-anchor="middle" x="193" y="-952.39" font-family="monospace" font-size="10.00" fill="white">+ writes install.state)</text>
</g>
<!-- mount&#45;&gt;pacstrap -->
<g id="edge6" class="edge">
<title>mount&#45;&gt;pacstrap</title>
<path fill="none" stroke="#aaaaaa" d="M193,-1030.22C193,-1023.06 193,-1014.45 193,-1006.02"/>
<polygon fill="#aaaaaa" stroke="#aaaaaa" points="196.5,-1006.29 193,-996.29 189.5,-1006.29 196.5,-1006.29"/>
</g>
<!-- chroot -->
<g id="node11" class="node">
<title>chroot</title>
<ellipse fill="#1a1608" stroke="#8a6a2f" cx="193" cy="-881.83" rx="130.11" ry="25.81"/>
<text xml:space="preserve" text-anchor="middle" x="193" y="-886.58" font-family="monospace" font-size="10.00" fill="#e0c896">arch&#45;chroot into target</text>
<text xml:space="preserve" text-anchor="middle" x="193" y="-872.33" font-family="monospace" font-size="10.00" fill="#e0c896">(Stage 0 &#45;&gt; Stage 1 handoff)</text>
</g>
<!-- pacstrap&#45;&gt;chroot -->
<g id="edge16" class="edge">
<title>pacstrap&#45;&gt;chroot</title>
<path fill="none" stroke="#aaaaaa" d="M193,-943.38C193,-935.92 193,-927.56 193,-919.49"/>
<polygon fill="#aaaaaa" stroke="#aaaaaa" points="196.5,-919.52 193,-909.52 189.5,-919.52 196.5,-919.52"/>
</g>
<!-- state -->
<g id="node12" class="node">
<title>state</title>
<polygon fill="#260101" stroke="#800000" points="291,-812.52 89,-812.52 89,-747.52 297,-747.52 297,-806.52 291,-812.52"/>
<polyline fill="none" stroke="#800000" points="291,-812.52 291,-806.52"/>
<polyline fill="none" stroke="#800000" points="297,-806.52 291,-806.52"/>
<text xml:space="preserve" text-anchor="middle" x="193" y="-799.02" font-family="monospace" font-size="10.00" fill="white">source /etc/syn&#45;os/install.state</text>
<text xml:space="preserve" text-anchor="middle" x="193" y="-784.77" font-family="monospace" font-size="10.00" fill="white">(RootFsDev, LuksUuid, SwapDev,</text>
<text xml:space="preserve" text-anchor="middle" x="193" y="-770.52" font-family="monospace" font-size="10.00" fill="white">resolved during Stage 0,</text>
<text xml:space="preserve" text-anchor="middle" x="193" y="-756.27" font-family="monospace" font-size="10.00" fill="white">can&#39;t be re&#45;derived safely)</text>
</g>
<!-- chroot&#45;&gt;state -->
<g id="edge17" class="edge">
<title>chroot&#45;&gt;state</title>
<path fill="none" stroke="#aaaaaa" d="M193,-855.65C193,-846.15 193,-835.05 193,-824.36"/>
<polygon fill="#aaaaaa" stroke="#aaaaaa" points="196.5,-824.53 193,-814.53 189.5,-824.53 196.5,-824.53"/>
</g>
<!-- locale -->
<g id="node13" class="node">
<title>locale</title>
<path fill="#2c0101" stroke="#800000" d="M240,-711.52C240,-711.52 146,-711.52 146,-711.52 140,-711.52 134,-705.52 134,-699.52 134,-699.52 134,-687.02 134,-687.02 134,-681.02 140,-675.02 146,-675.02 146,-675.02 240,-675.02 240,-675.02 246,-675.02 252,-681.02 252,-687.02 252,-687.02 252,-699.52 252,-699.52 252,-705.52 246,-711.52 240,-711.52"/>
<text xml:space="preserve" text-anchor="middle" x="193" y="-698.02" font-family="monospace" font-size="10.00" fill="white">locale, hostname,</text>
<text xml:space="preserve" text-anchor="middle" x="193" y="-683.77" font-family="monospace" font-size="10.00" fill="white">timezone, keymap</text>
</g>
<!-- state&#45;&gt;locale -->
<g id="edge7" class="edge">
<title>state&#45;&gt;locale</title>
<path fill="none" stroke="#aaaaaa" d="M193,-747.47C193,-739.56 193,-731.12 193,-723.34"/>
<polygon fill="#aaaaaa" stroke="#aaaaaa" points="196.5,-723.35 193,-713.35 189.5,-723.35 196.5,-723.35"/>
</g>
<!-- doas -->
<g id="node14" class="node">
<title>doas</title>
<path fill="#2c0101" stroke="#800000" d="M249,-639.02C249,-639.02 137,-639.02 137,-639.02 131,-639.02 125,-633.02 125,-627.02 125,-627.02 125,-614.52 125,-614.52 125,-608.52 131,-602.52 137,-602.52 137,-602.52 249,-602.52 249,-602.52 255,-602.52 261,-608.52 261,-614.52 261,-614.52 261,-627.02 261,-627.02 261,-633.02 255,-639.02 249,-639.02"/>
<text xml:space="preserve" text-anchor="middle" x="193" y="-625.52" font-family="monospace" font-size="10.00" fill="white">doas&#45;&gt;sudo shim,</text>
<text xml:space="preserve" text-anchor="middle" x="193" y="-611.27" font-family="monospace" font-size="10.00" fill="white">removes sudo package</text>
</g>
<!-- locale&#45;&gt;doas -->
<g id="edge8" class="edge">
<title>locale&#45;&gt;doas</title>
<path fill="none" stroke="#aaaaaa" d="M193,-674.85C193,-667.61 193,-659.02 193,-650.88"/>
<polygon fill="#aaaaaa" stroke="#aaaaaa" points="196.5,-651 193,-641 189.5,-651 196.5,-651"/>
</g>
<!-- user -->
<g id="node15" class="node">
<title>user</title>
<path fill="#2c0101" stroke="#800000" d="M282,-566.52C282,-566.52 104,-566.52 104,-566.52 98,-566.52 92,-560.52 92,-554.52 92,-554.52 92,-527.77 92,-527.77 92,-521.77 98,-515.77 104,-515.77 104,-515.77 282,-515.77 282,-515.77 288,-515.77 294,-521.77 294,-527.77 294,-527.77 294,-554.52 294,-554.52 294,-560.52 288,-566.52 282,-566.52"/>
<text xml:space="preserve" text-anchor="middle" x="193" y="-553.02" font-family="monospace" font-size="10.00" fill="white">useradd &#45;m &#45;G wheel</text>
<text xml:space="preserve" text-anchor="middle" x="193" y="-538.77" font-family="monospace" font-size="10.00" fill="white">(populates home from</text>
<text xml:space="preserve" text-anchor="middle" x="193" y="-524.52" font-family="monospace" font-size="10.00" fill="white">/etc/skel, see Dotfile Overlay)</text>
</g>
<!-- doas&#45;&gt;user -->
<g id="edge9" class="edge">
<title>doas&#45;&gt;user</title>
<path fill="none" stroke="#aaaaaa" d="M193,-602.16C193,-595.05 193,-586.56 193,-578.24"/>
<polygon fill="#aaaaaa" stroke="#aaaaaa" points="196.5,-578.27 193,-568.27 189.5,-578.27 196.5,-578.27"/>
</g>
<!-- initramfs -->
<g id="node16" class="node">
<title>initramfs</title>
<path fill="#2c0101" stroke="#800000" d="M270,-479.77C270,-479.77 116,-479.77 116,-479.77 110,-479.77 104,-473.77 104,-467.77 104,-467.77 104,-441.02 104,-441.02 104,-435.02 110,-429.02 116,-429.02 116,-429.02 270,-429.02 270,-429.02 276,-429.02 282,-435.02 282,-441.02 282,-441.02 282,-467.77 282,-467.77 282,-473.77 276,-479.77 270,-479.77"/>
<text xml:space="preserve" text-anchor="middle" x="193" y="-466.27" font-family="monospace" font-size="10.00" fill="white">mkinitcpio hooks</text>
<text xml:space="preserve" text-anchor="middle" x="193" y="-452.02" font-family="monospace" font-size="10.00" fill="white">(+encrypt, +lvm2 as needed)</text>
<text xml:space="preserve" text-anchor="middle" x="193" y="-437.77" font-family="monospace" font-size="10.00" fill="white">+ rebuild initramfs</text>
</g>
<!-- user&#45;&gt;initramfs -->
<g id="edge10" class="edge">
<title>user&#45;&gt;initramfs</title>
<path fill="none" stroke="#aaaaaa" d="M193,-515.64C193,-508.15 193,-499.75 193,-491.65"/>
<polygon fill="#aaaaaa" stroke="#aaaaaa" points="196.5,-491.66 193,-481.66 189.5,-491.66 196.5,-491.66"/>
</g>
<!-- bootloader -->
<g id="node17" class="node">
<title>bootloader</title>
<path fill="#2c0101" stroke="#800000" d="M270,-393.02C270,-393.02 116,-393.02 116,-393.02 110,-393.02 104,-387.02 104,-381.02 104,-381.02 104,-354.27 104,-354.27 104,-348.27 110,-342.27 116,-342.27 116,-342.27 270,-342.27 270,-342.27 276,-342.27 282,-348.27 282,-354.27 282,-354.27 282,-381.02 282,-381.02 282,-387.02 276,-393.02 270,-393.02"/>
<text xml:space="preserve" text-anchor="middle" x="193" y="-379.52" font-family="monospace" font-size="10.00" fill="white">install bootloader</text>
<text xml:space="preserve" text-anchor="middle" x="193" y="-365.27" font-family="monospace" font-size="10.00" fill="white">(bootctl / grub / syslinux,</text>
<text xml:space="preserve" text-anchor="middle" x="193" y="-351.02" font-family="monospace" font-size="10.00" fill="white">keyed off PartitionStrat)</text>
</g>
<!-- initramfs&#45;&gt;bootloader -->
<g id="edge11" class="edge">
<title>initramfs&#45;&gt;bootloader</title>
<path fill="none" stroke="#aaaaaa" d="M193,-428.89C193,-421.4 193,-413 193,-404.9"/>
<polygon fill="#aaaaaa" stroke="#aaaaaa" points="196.5,-404.91 193,-394.91 189.5,-404.91 196.5,-404.91"/>
</g>
<!-- services -->
<g id="node18" class="node">
<title>services</title>
<path fill="#2c0101" stroke="#800000" d="M243,-306.27C243,-306.27 143,-306.27 143,-306.27 137,-306.27 131,-300.27 131,-294.27 131,-294.27 131,-282.27 131,-282.27 131,-276.27 137,-270.27 143,-270.27 143,-270.27 243,-270.27 243,-270.27 249,-270.27 255,-276.27 255,-282.27 255,-282.27 255,-294.27 255,-294.27 255,-300.27 249,-306.27 243,-306.27"/>
<text xml:space="preserve" text-anchor="middle" x="193" y="-285.9" font-family="monospace" font-size="10.00" fill="white">enable dhcpcd, iwd</text>
</g>
<!-- bootloader&#45;&gt;services -->
<g id="edge12" class="edge">
<title>bootloader&#45;&gt;services</title>
<path fill="none" stroke="#aaaaaa" d="M193,-342.17C193,-334.52 193,-326.02 193,-318.11"/>
<polygon fill="#aaaaaa" stroke="#aaaaaa" points="196.5,-318.25 193,-308.25 189.5,-318.25 196.5,-318.25"/>
</g>
<!-- done -->
<g id="node19" class="node">
<title>done</title>
<ellipse fill="#4a1414" stroke="#d84a3f" stroke-width="2" cx="193" cy="-117.14" rx="113.14" ry="113.14"/>
<ellipse fill="none" stroke="#d84a3f" stroke-width="2" cx="193" cy="-117.14" rx="117.14" ry="117.14"/>
<text xml:space="preserve" text-anchor="middle" x="193" y="-129.01" font-family="monospace" font-size="10.00" fill="white">installed system</text>
<text xml:space="preserve" text-anchor="middle" x="193" y="-114.76" font-family="monospace" font-size="10.00" fill="white">pacman &#45;Syu from here,</text>
<text xml:space="preserve" text-anchor="middle" x="193" y="-100.51" font-family="monospace" font-size="10.00" fill="white">same as any Arch install</text>
</g>
<!-- services&#45;&gt;done -->
<g id="edge18" class="edge">
<title>services&#45;&gt;done</title>
<path fill="none" stroke="#aaaaaa" d="M193,-269.81C193,-263.27 193,-255.23 193,-246.31"/>
<polygon fill="#aaaaaa" stroke="#aaaaaa" points="196.5,-246.53 193,-236.53 189.5,-246.53 196.5,-246.53"/>
</g>
<!-- note -->
<g id="node20" class="node">
<title>note</title>
<polygon fill="#1a1608" stroke="#665522" points="656,-1787.85 358,-1787.85 358,-1737.1 662,-1737.1 662,-1781.85 656,-1787.85"/>
<polyline fill="none" stroke="#665522" points="656,-1787.85 656,-1781.85"/>
<polyline fill="none" stroke="#665522" points="662,-1781.85 656,-1781.85"/>
<text xml:space="preserve" text-anchor="middle" x="510" y="-1774.35" font-family="monospace" font-size="10.00" fill="#ccaa66">No unattended mode, no TUI, no partition&#45;picker.</text>
<text xml:space="preserve" text-anchor="middle" x="510" y="-1760.1" font-family="monospace" font-size="10.00" fill="#ccaa66">synos.conf is edited by hand before this runs.</text>
<text xml:space="preserve" text-anchor="middle" x="510" y="-1745.85" font-family="monospace" font-size="10.00" fill="#ccaa66">Deliberate, see Philosophy in the README.</text>
</g>
</g>
</svg>
