<?xml version="1.0" encoding="UTF-8" standalone="no"?>
<!DOCTYPE svg PUBLIC "-//W3C//DTD SVG 1.1//EN"
 "http://www.w3.org/Graphics/SVG/1.1/DTD/svg11.dtd">
<!-- Generated by graphviz version 15.1.0 (0)
 -->
<!-- Title: philosophy_simple Pages: 1 -->
<svg width="1036pt" height="442pt"
 viewBox="0.00 0.00 1036.00 442.00" xmlns="http://www.w3.org/2000/svg" xmlns:xlink="http://www.w3.org/1999/xlink">
<g id="graph0" class="graph" transform="scale(1 1) rotate(0) translate(4 437.5)">
<title>philosophy_simple</title>
<polygon fill="#000000" stroke="none" points="-4,4 -4,-437.5 1032.07,-437.5 1032.07,4 -4,4"/>
<text xml:space="preserve" text-anchor="middle" x="514.04" y="-415.25" font-family="monospace" font-size="15.00" fill="#e8b4b4">Where the decisions actually live</text>
<g id="clust1" class="cluster">
<title>cluster_normal</title>
<path fill="#0a0a0a" stroke="#444444" d="M112,-8C112,-8 683.82,-8 683.82,-8 689.82,-8 695.82,-14 695.82,-20 695.82,-20 695.82,-102 695.82,-102 695.82,-108 689.82,-114 683.82,-114 683.82,-114 112,-114 112,-114 106,-114 100,-108 100,-102 100,-102 100,-20 100,-20 100,-14 106,-8 112,-8"/>
<text xml:space="preserve" text-anchor="middle" x="397.91" y="-95.75" font-family="monospace" font-size="15.00" fill="white">A typical distro</text>
</g>
<g id="clust2" class="cluster">
<title>cluster_synos</title>
<path fill="#0a0a0a" stroke="#444444" d="M88.38,-208C88.38,-208 958.23,-208 958.23,-208 964.23,-208 970.23,-214 970.23,-220 970.23,-220 970.23,-313 970.23,-313 970.23,-319 964.23,-325 958.23,-325 958.23,-325 88.38,-325 88.38,-325 82.38,-325 76.38,-319 76.38,-313 76.38,-313 76.38,-220 76.38,-220 76.38,-214 82.38,-208 88.38,-208"/>
<text xml:space="preserve" text-anchor="middle" x="523.3" y="-306.75" font-family="monospace" font-size="15.00" fill="white">SYN&#45;OS</text>
</g>
<!-- normal_installer -->
<g id="node1" class="node">
<title>normal_installer</title>
<polygon fill="#1a1608" stroke="#8a6a2f" points="252.25,-71.62 112,-71.62 108,-67.62 108,-16.38 248.25,-16.38 252.25,-20.38 252.25,-71.62"/>
<polyline fill="none" stroke="#8a6a2f" points="248.25,-67.62 108,-67.62"/>
<polyline fill="none" stroke="#8a6a2f" points="248.25,-67.62 248.25,-16.38"/>
<polyline fill="none" stroke="#8a6a2f" points="248.25,-67.62 252.25,-71.62"/>
<text xml:space="preserve" text-anchor="middle" x="180.13" y="-57.17" font-family="monospace" font-size="11.00" fill="#e0c896">installer</text>
<text xml:space="preserve" text-anchor="middle" x="180.13" y="-41.42" font-family="monospace" font-size="11.00" fill="#e0c896">(a program, not</text>
<text xml:space="preserve" text-anchor="middle" x="180.13" y="-25.68" font-family="monospace" font-size="11.00" fill="#e0c896">something you read)</text>
</g>
<!-- normal_result -->
<g id="node2" class="node">
<title>normal_result</title>
<path fill="#260101" stroke="#800000" d="M675.82,-55.75C675.82,-55.75 589.32,-55.75 589.32,-55.75 583.32,-55.75 577.32,-49.75 577.32,-43.75 577.32,-43.75 577.32,-28.25 577.32,-28.25 577.32,-22.25 583.32,-16.25 589.32,-16.25 589.32,-16.25 675.82,-16.25 675.82,-16.25 681.82,-16.25 687.82,-22.25 687.82,-28.25 687.82,-28.25 687.82,-43.75 687.82,-43.75 687.82,-49.75 681.82,-55.75 675.82,-55.75"/>
<text xml:space="preserve" text-anchor="middle" x="632.57" y="-41.3" font-family="monospace" font-size="11.00" fill="white">your installed</text>
<text xml:space="preserve" text-anchor="middle" x="632.57" y="-25.55" font-family="monospace" font-size="11.00" fill="white">desktop</text>
</g>
<!-- normal_installer&#45;&gt;normal_result -->
<g id="edge1" class="edge">
<title>normal_installer&#45;&gt;normal_result</title>
<path fill="none" stroke="#8a6a2f" d="M252.5,-42.73C338.5,-41.2 481.84,-38.66 565.44,-37.17"/>
<polygon fill="#8a6a2f" stroke="#8a6a2f" points="565.37,-40.68 575.31,-37 565.25,-33.68 565.37,-40.68"/>
<text xml:space="preserve" text-anchor="middle" x="438.25" y="-73.73" font-family="monospace" font-size="10.00" fill="#8a6a2f"> &#160;decisions made</text>
<text xml:space="preserve" text-anchor="middle" x="438.25" y="-59.48" font-family="monospace" font-size="10.00" fill="#8a6a2f"> &#160;somewhere inside,</text>
<text xml:space="preserve" text-anchor="middle" x="438.25" y="-45.23" font-family="monospace" font-size="10.00" fill="#8a6a2f"> &#160;not visible to you</text>
</g>
<!-- files -->
<g id="node3" class="node">
<title>files</title>
<polygon fill="#4a1414" stroke="#d84a3f" stroke-width="2" points="269.88,-287.5 84.38,-287.5 84.38,-216.5 275.88,-216.5 275.88,-281.5 269.88,-287.5"/>
<polyline fill="none" stroke="#d84a3f" stroke-width="2" points="269.88,-287.5 269.88,-281.5"/>
<polyline fill="none" stroke="#d84a3f" stroke-width="2" points="275.88,-281.5 269.88,-281.5"/>
<text xml:space="preserve" text-anchor="middle" x="180.13" y="-273.05" font-family="monospace" font-size="11.00" fill="white">a package list</text>
<text xml:space="preserve" text-anchor="middle" x="180.13" y="-257.3" font-family="monospace" font-size="11.00" fill="white">+ a folder of config files</text>
<text xml:space="preserve" text-anchor="middle" x="180.13" y="-241.55" font-family="monospace" font-size="11.00" fill="white">(plain text, in this repo,</text>
<text xml:space="preserve" text-anchor="middle" x="180.13" y="-225.8" font-family="monospace" font-size="11.00" fill="white">open them in any editor)</text>
</g>
<!-- synos_installer -->
<g id="node4" class="node">
<title>synos_installer</title>
<path fill="#2c0101" stroke="#800000" d="M689.32,-279.62C689.32,-279.62 575.82,-279.62 575.82,-279.62 569.82,-279.62 563.82,-273.62 563.82,-267.62 563.82,-267.62 563.82,-236.38 563.82,-236.38 563.82,-230.38 569.82,-224.38 575.82,-224.38 575.82,-224.38 689.32,-224.38 689.32,-224.38 695.32,-224.38 701.32,-230.38 701.32,-236.38 701.32,-236.38 701.32,-267.62 701.32,-267.62 701.32,-273.62 695.32,-279.62 689.32,-279.62"/>
<text xml:space="preserve" text-anchor="middle" x="632.57" y="-265.18" font-family="monospace" font-size="11.00" fill="white">installer</text>
<text xml:space="preserve" text-anchor="middle" x="632.57" y="-249.43" font-family="monospace" font-size="11.00" fill="white">(just reads the</text>
<text xml:space="preserve" text-anchor="middle" x="632.57" y="-233.68" font-family="monospace" font-size="11.00" fill="white">files on the left)</text>
</g>
<!-- files&#45;&gt;synos_installer -->
<g id="edge2" class="edge">
<title>files&#45;&gt;synos_installer</title>
<path fill="none" stroke="#aaaaaa" d="M276.65,-252C358.74,-252 475.7,-252 552.59,-252"/>
<polygon fill="#aaaaaa" stroke="#aaaaaa" points="552.12,-255.5 562.12,-252 552.12,-248.5 552.12,-255.5"/>
</g>
<!-- swap -->
<g id="node6" class="node">
<title>swap</title>
<ellipse fill="#400101" stroke="#800000" cx="632.57" cy="-161" rx="116.32" ry="39.07"/>
<text xml:space="preserve" text-anchor="middle" x="632.57" y="-174.18" font-family="monospace" font-size="11.00" fill="white">edit the package list,</text>
<text xml:space="preserve" text-anchor="middle" x="632.57" y="-158.43" font-family="monospace" font-size="11.00" fill="white">swap a config file,</text>
<text xml:space="preserve" text-anchor="middle" x="632.57" y="-142.68" font-family="monospace" font-size="11.00" fill="white">rebuild</text>
</g>
<!-- files&#45;&gt;swap -->
<g id="edge4" class="edge">
<title>files&#45;&gt;swap</title>
<path fill="none" stroke="#d84a3f" stroke-dasharray="5,2" d="M276.65,-232.7C348.28,-218.23 446.46,-198.4 521.4,-183.26"/>
<polygon fill="#d84a3f" stroke="#d84a3f" points="521.69,-186.77 530.8,-181.36 520.3,-179.91 521.69,-186.77"/>
</g>
<!-- synos_result -->
<g id="node5" class="node">
<title>synos_result</title>
<path fill="#260101" stroke="#800000" d="M950.23,-271.75C950.23,-271.75 863.73,-271.75 863.73,-271.75 857.73,-271.75 851.73,-265.75 851.73,-259.75 851.73,-259.75 851.73,-244.25 851.73,-244.25 851.73,-238.25 857.73,-232.25 863.73,-232.25 863.73,-232.25 950.23,-232.25 950.23,-232.25 956.23,-232.25 962.23,-238.25 962.23,-244.25 962.23,-244.25 962.23,-259.75 962.23,-259.75 962.23,-265.75 956.23,-271.75 950.23,-271.75"/>
<text xml:space="preserve" text-anchor="middle" x="906.98" y="-257.3" font-family="monospace" font-size="11.00" fill="white">your installed</text>
<text xml:space="preserve" text-anchor="middle" x="906.98" y="-241.55" font-family="monospace" font-size="11.00" fill="white">desktop</text>
</g>
<!-- synos_installer&#45;&gt;synos_result -->
<g id="edge3" class="edge">
<title>synos_installer&#45;&gt;synos_result</title>
<path fill="none" stroke="#aaaaaa" d="M701.61,-252C743.96,-252 798.15,-252 840.09,-252"/>
<polygon fill="#aaaaaa" stroke="#aaaaaa" points="840.06,-255.5 850.06,-252 840.06,-248.5 840.06,-255.5"/>
</g>
<!-- different -->
<g id="node7" class="node">
<title>different</title>
<ellipse fill="#400101" stroke="#800000" cx="906.98" cy="-161" rx="121.09" ry="39.07"/>
<text xml:space="preserve" text-anchor="middle" x="906.98" y="-174.18" font-family="monospace" font-size="11.00" fill="white">a different desktop,</text>
<text xml:space="preserve" text-anchor="middle" x="906.98" y="-158.43" font-family="monospace" font-size="11.00" fill="white">same installer, no code</text>
<text xml:space="preserve" text-anchor="middle" x="906.98" y="-142.68" font-family="monospace" font-size="11.00" fill="white">changes required</text>
</g>
<!-- swap&#45;&gt;different -->
<g id="edge5" class="edge">
<title>swap&#45;&gt;different</title>
<path fill="none" stroke="#d84a3f" d="M749.1,-161C757.37,-161 765.75,-161 774.11,-161"/>
<polygon fill="#d84a3f" stroke="#d84a3f" points="773.96,-164.5 783.96,-161 773.96,-157.5 773.96,-164.5"/>
</g>
<!-- note -->
<g id="node8" class="node">
<title>note</title>
<polygon fill="#1a1608" stroke="#665522" points="354.25,-404.5 0,-404.5 0,-333.5 360.25,-333.5 360.25,-398.5 354.25,-404.5"/>
<polyline fill="none" stroke="#665522" points="354.25,-404.5 354.25,-398.5"/>
<polyline fill="none" stroke="#665522" points="360.25,-398.5 354.25,-398.5"/>
<text xml:space="preserve" text-anchor="middle" x="180.13" y="-390.05" font-family="monospace" font-size="11.00" fill="#ccaa66">That&#39;s the whole idea: the installer doesn&#39;t decide</text>
<text xml:space="preserve" text-anchor="middle" x="180.13" y="-374.3" font-family="monospace" font-size="11.00" fill="#ccaa66">anything by itself. It just carries out whatever&#39;s</text>
<text xml:space="preserve" text-anchor="middle" x="180.13" y="-358.55" font-family="monospace" font-size="11.00" fill="#ccaa66">written in the files. Change the files, get a</text>
<text xml:space="preserve" text-anchor="middle" x="180.13" y="-342.8" font-family="monospace" font-size="11.00" fill="#ccaa66">different result, nothing hidden either way.</text>
</g>
</g>
</svg>
