<?xml version="1.0" encoding="UTF-8" standalone="no"?>
<!DOCTYPE svg PUBLIC "-//W3C//DTD SVG 1.1//EN"
 "http://www.w3.org/Graphics/SVG/1.1/DTD/svg11.dtd">
<!-- Generated by graphviz version 15.1.0 (0)
 -->
<!-- Title: philosophy Pages: 1 -->
<svg width="710pt" height="307pt"
 viewBox="0.00 0.00 710.00 307.00" xmlns="http://www.w3.org/2000/svg" xmlns:xlink="http://www.w3.org/1999/xlink">
<g id="graph0" class="graph" transform="scale(1 1) rotate(0) translate(4 303.38)">
<title>philosophy</title>
<polygon fill="#000000" stroke="none" points="-4,4 -4,-303.38 706,-303.38 706,4 -4,4"/>
<text xml:space="preserve" text-anchor="middle" x="351" y="-282.07" font-family="monospace" font-size="14.00" fill="#e8b4b4">If something behaves oddly, here&#39;s where the file that caused it lives</text>
<!-- question -->
<g id="node1" class="node">
<title>question</title>
<ellipse fill="#400101" stroke="#800000" cx="140" cy="-138.5" rx="79.2" ry="25.81"/>
<text xml:space="preserve" text-anchor="middle" x="140" y="-143.25" font-family="monospace" font-size="10.00" fill="white">&quot;Why does my</text>
<text xml:space="preserve" text-anchor="middle" x="140" y="-129" font-family="monospace" font-size="10.00" fill="white">system do that?&quot;</text>
</g>
<!-- pkg -->
<g id="node2" class="node">
<title>pkg</title>
<path fill="#260101" stroke="#800000" d="M452,-256.75C452,-256.75 328,-256.75 328,-256.75 322,-256.75 316,-250.75 316,-244.75 316,-244.75 316,-232.25 316,-232.25 316,-226.25 322,-220.25 328,-220.25 328,-220.25 452,-220.25 452,-220.25 458,-220.25 464,-226.25 464,-232.25 464,-232.25 464,-244.75 464,-244.75 464,-250.75 458,-256.75 452,-256.75"/>
<text xml:space="preserve" text-anchor="middle" x="390" y="-243.25" font-family="monospace" font-size="10.00" fill="white">A package is installed</text>
<text xml:space="preserve" text-anchor="middle" x="390" y="-229" font-family="monospace" font-size="10.00" fill="white">(or isn&#39;t)</text>
</g>
<!-- question&#45;&gt;pkg -->
<g id="edge1" class="edge">
<title>question&#45;&gt;pkg</title>
<path fill="none" stroke="#aaaaaa" d="M210.75,-150.37C233.5,-155.72 258.44,-163.21 280,-173.5 298.05,-182.11 299.07,-189.85 316,-200.5 323.74,-205.37 332.17,-210.18 340.46,-214.65"/>
<polygon fill="#aaaaaa" stroke="#aaaaaa" points="338.64,-217.65 349.11,-219.22 341.9,-211.46 338.64,-217.65"/>
</g>
<!-- cfg -->
<g id="node4" class="node">
<title>cfg</title>
<path fill="#260101" stroke="#800000" d="M443,-191.75C443,-191.75 337,-191.75 337,-191.75 331,-191.75 325,-185.75 325,-179.75 325,-179.75 325,-167.25 325,-167.25 325,-161.25 331,-155.25 337,-155.25 337,-155.25 443,-155.25 443,-155.25 449,-155.25 455,-161.25 455,-167.25 455,-167.25 455,-179.75 455,-179.75 455,-185.75 449,-191.75 443,-191.75"/>
<text xml:space="preserve" text-anchor="middle" x="390" y="-178.25" font-family="monospace" font-size="10.00" fill="white">A config file looks</text>
<text xml:space="preserve" text-anchor="middle" x="390" y="-164" font-family="monospace" font-size="10.00" fill="white">a certain way</text>
</g>
<!-- question&#45;&gt;cfg -->
<g id="edge3" class="edge">
<title>question&#45;&gt;cfg</title>
<path fill="none" stroke="#aaaaaa" d="M213.4,-148.72C244.86,-153.16 281.71,-158.36 313.52,-162.85"/>
<polygon fill="#aaaaaa" stroke="#aaaaaa" points="312.65,-166.26 323.04,-164.19 313.62,-159.33 312.65,-166.26"/>
</g>
<!-- install -->
<g id="node6" class="node">
<title>install</title>
<path fill="#260101" stroke="#800000" d="M440,-129.75C440,-129.75 340,-129.75 340,-129.75 334,-129.75 328,-123.75 328,-117.75 328,-117.75 328,-105.25 328,-105.25 328,-99.25 334,-93.25 340,-93.25 340,-93.25 440,-93.25 440,-93.25 446,-93.25 452,-99.25 452,-105.25 452,-105.25 452,-117.75 452,-117.75 452,-123.75 446,-129.75 440,-129.75"/>
<text xml:space="preserve" text-anchor="middle" x="390" y="-116.25" font-family="monospace" font-size="10.00" fill="white">The install did</text>
<text xml:space="preserve" text-anchor="middle" x="390" y="-102" font-family="monospace" font-size="10.00" fill="white">something specific</text>
</g>
<!-- question&#45;&gt;install -->
<g id="edge5" class="edge">
<title>question&#45;&gt;install</title>
<path fill="none" stroke="#aaaaaa" d="M215.74,-130.36C247.63,-126.89 284.7,-122.86 316.35,-119.41"/>
<polygon fill="#aaaaaa" stroke="#aaaaaa" points="316.67,-122.89 326.24,-118.33 315.92,-115.94 316.67,-122.89"/>
</g>
<!-- history -->
<g id="node8" class="node">
<title>history</title>
<path fill="#260101" stroke="#800000" d="M434,-64.75C434,-64.75 346,-64.75 346,-64.75 340,-64.75 334,-58.75 334,-52.75 334,-52.75 334,-40.25 334,-40.25 334,-34.25 340,-28.25 346,-28.25 346,-28.25 434,-28.25 434,-28.25 440,-28.25 446,-34.25 446,-40.25 446,-40.25 446,-52.75 446,-52.75 446,-58.75 440,-64.75 434,-64.75"/>
<text xml:space="preserve" text-anchor="middle" x="390" y="-51.25" font-family="monospace" font-size="10.00" fill="white">&quot;Has this always</text>
<text xml:space="preserve" text-anchor="middle" x="390" y="-37" font-family="monospace" font-size="10.00" fill="white">been this way?&quot;</text>
</g>
<!-- question&#45;&gt;history -->
<g id="edge7" class="edge">
<title>question&#45;&gt;history</title>
<path fill="none" stroke="#aaaaaa" d="M193.29,-119.1C232.56,-104.54 286.44,-84.55 327.73,-69.23"/>
<polygon fill="#aaaaaa" stroke="#aaaaaa" points="328.9,-72.53 337.06,-65.77 326.46,-65.97 328.9,-72.53"/>
</g>
<!-- pkg_src -->
<g id="node3" class="node">
<title>pkg_src</title>
<polygon fill="#1a1608" stroke="#8a6a2f" points="669,-271.88 527,-271.88 527,-221.12 675,-221.12 675,-265.88 669,-271.88"/>
<polyline fill="none" stroke="#8a6a2f" points="669,-271.88 669,-265.88"/>
<polyline fill="none" stroke="#8a6a2f" points="675,-265.88 669,-265.88"/>
<text xml:space="preserve" text-anchor="middle" x="601" y="-258.38" font-family="monospace" font-size="10.00" fill="#e0c896">syn&#45;packages.zsh</text>
<text xml:space="preserve" text-anchor="middle" x="601" y="-244.12" font-family="monospace" font-size="10.00" fill="#e0c896">7 commented arrays,</text>
<text xml:space="preserve" text-anchor="middle" x="601" y="-229.88" font-family="monospace" font-size="10.00" fill="#e0c896">see Package Collection</text>
</g>
<!-- pkg&#45;&gt;pkg_src -->
<g id="edge2" class="edge">
<title>pkg&#45;&gt;pkg_src</title>
<path fill="none" stroke="#aaaaaa" d="M464.39,-241.31C480.99,-241.94 498.73,-242.62 515.74,-243.27"/>
<polygon fill="#aaaaaa" stroke="#aaaaaa" points="515.15,-246.75 525.27,-243.64 515.41,-239.76 515.15,-246.75"/>
</g>
<!-- cfg_src -->
<g id="node5" class="node">
<title>cfg_src</title>
<polygon fill="#1a1608" stroke="#8a6a2f" points="690,-202.88 506,-202.88 506,-152.12 696,-152.12 696,-196.88 690,-202.88"/>
<polyline fill="none" stroke="#8a6a2f" points="690,-202.88 690,-196.88"/>
<polyline fill="none" stroke="#8a6a2f" points="696,-196.88 690,-196.88"/>
<text xml:space="preserve" text-anchor="middle" x="601" y="-189.38" font-family="monospace" font-size="10.00" fill="#e0c896">DotfileOverlay/</text>
<text xml:space="preserve" text-anchor="middle" x="601" y="-175.12" font-family="monospace" font-size="10.00" fill="#e0c896">the actual file, not a</text>
<text xml:space="preserve" text-anchor="middle" x="601" y="-160.88" font-family="monospace" font-size="10.00" fill="#e0c896">template, see Dotfile Overlay</text>
</g>
<!-- cfg&#45;&gt;cfg_src -->
<g id="edge4" class="edge">
<title>cfg&#45;&gt;cfg_src</title>
<path fill="none" stroke="#aaaaaa" d="M455.41,-174.73C467.87,-174.97 481.23,-175.23 494.61,-175.48"/>
<polygon fill="#aaaaaa" stroke="#aaaaaa" points="494.26,-178.98 504.32,-175.67 494.39,-171.98 494.26,-178.98"/>
</g>
<!-- install_src -->
<g id="node7" class="node">
<title>install_src</title>
<polygon fill="#1a1608" stroke="#8a6a2f" points="696,-133.88 500,-133.88 500,-83.12 702,-83.12 702,-127.88 696,-133.88"/>
<polyline fill="none" stroke="#8a6a2f" points="696,-133.88 696,-127.88"/>
<polyline fill="none" stroke="#8a6a2f" points="702,-127.88 696,-127.88"/>
<text xml:space="preserve" text-anchor="middle" x="601" y="-120.38" font-family="monospace" font-size="10.00" fill="#e0c896">syn&#45;stage0.zsh / syn&#45;stage1.zsh</text>
<text xml:space="preserve" text-anchor="middle" x="601" y="-106.12" font-family="monospace" font-size="10.00" fill="#e0c896">named, sequential steps,</text>
<text xml:space="preserve" text-anchor="middle" x="601" y="-91.88" font-family="monospace" font-size="10.00" fill="#e0c896">see How the Installer Works</text>
</g>
<!-- install&#45;&gt;install_src -->
<g id="edge6" class="edge">
<title>install&#45;&gt;install_src</title>
<path fill="none" stroke="#aaaaaa" d="M452.29,-110.62C463.73,-110.46 476,-110.28 488.41,-110.1"/>
<polygon fill="#aaaaaa" stroke="#aaaaaa" points="488.36,-113.6 498.31,-109.96 488.26,-106.6 488.36,-113.6"/>
</g>
<!-- history_src -->
<g id="node9" class="node">
<title>history_src</title>
<polygon fill="#1a1608" stroke="#8a6a2f" points="672,-65 524,-65 524,0 678,0 678,-59 672,-65"/>
<polyline fill="none" stroke="#8a6a2f" points="672,-65 672,-59"/>
<polyline fill="none" stroke="#8a6a2f" points="678,-59 672,-59"/>
<text xml:space="preserve" text-anchor="middle" x="601" y="-51.5" font-family="monospace" font-size="10.00" fill="#e0c896">docs/history.md</text>
<text xml:space="preserve" text-anchor="middle" x="601" y="-37.25" font-family="monospace" font-size="10.00" fill="#e0c896">real diffs across both</text>
<text xml:space="preserve" text-anchor="middle" x="601" y="-23" font-family="monospace" font-size="10.00" fill="#e0c896">repos back to 2021,</text>
<text xml:space="preserve" text-anchor="middle" x="601" y="-8.75" font-family="monospace" font-size="10.00" fill="#e0c896">not a tidied&#45;up summary</text>
</g>
<!-- history&#45;&gt;history_src -->
<g id="edge8" class="edge">
<title>history&#45;&gt;history_src</title>
<path fill="none" stroke="#aaaaaa" d="M446.46,-42.79C466.74,-41.43 490.2,-39.86 512.59,-38.36"/>
<polygon fill="#aaaaaa" stroke="#aaaaaa" points="512.57,-41.86 522.31,-37.7 512.1,-34.88 512.57,-41.86"/>
</g>
<!-- note -->
<g id="node10" class="node">
<title>note</title>
<polygon fill="#1a1608" stroke="#665522" points="274,-232.88 0,-232.88 0,-182.12 280,-182.12 280,-226.88 274,-232.88"/>
<polyline fill="none" stroke="#665522" points="274,-232.88 274,-226.88"/>
<polyline fill="none" stroke="#665522" points="280,-226.88 274,-226.88"/>
<text xml:space="preserve" text-anchor="middle" x="140" y="-219.38" font-family="monospace" font-size="10.00" fill="#ccaa66">No layer requires trusting a summary someone</text>
<text xml:space="preserve" text-anchor="middle" x="140" y="-205.12" font-family="monospace" font-size="10.00" fill="#ccaa66">wrote about the system. Every arrow above</text>
<text xml:space="preserve" text-anchor="middle" x="140" y="-190.88" font-family="monospace" font-size="10.00" fill="#ccaa66">ends at a real file you can open.</text>
</g>
</g>
</svg>
