<?xml version="1.0" encoding="UTF-8" standalone="no"?>
<!DOCTYPE svg PUBLIC "-//W3C//DTD SVG 1.1//EN"
 "http://www.w3.org/Graphics/SVG/1.1/DTD/svg11.dtd">
<!-- Generated by graphviz version 15.1.0 (0)
 -->
<!-- Title: windows_mac_build Pages: 1 -->
<svg width="732pt" height="778pt"
 viewBox="0.00 0.00 732.00 778.00" xmlns="http://www.w3.org/2000/svg" xmlns:xlink="http://www.w3.org/1999/xlink">
<g id="graph0" class="graph" transform="scale(1 1) rotate(0) translate(4 773.52)">
<title>windows_mac_build</title>
<polygon fill="#000000" stroke="none" points="-4,4 -4,-773.52 728,-773.52 728,4 -4,4"/>
<text xml:space="preserve" text-anchor="middle" x="362" y="-752.22" font-family="monospace" font-size="14.00" fill="#e8b4b4">Building SYN&#45;OS from a Windows or Mac host</text>
<g id="clust1" class="cluster">
<title>cluster_write</title>
<path fill="#0a0a0a" stroke="#444444" d="M20,-574.77C20,-574.77 426,-574.77 426,-574.77 432,-574.77 438,-580.77 438,-586.77 438,-586.77 438,-671.27 438,-671.27 438,-677.27 432,-683.27 426,-683.27 426,-683.27 20,-683.27 20,-683.27 14,-683.27 8,-677.27 8,-671.27 8,-671.27 8,-586.77 8,-586.77 8,-580.77 14,-574.77 20,-574.77"/>
<text xml:space="preserve" text-anchor="middle" x="223" y="-665.97" font-family="monospace" font-size="14.00" fill="white">Get it running, either path</text>
</g>
<g id="clust2" class="cluster">
<title>cluster_future</title>
<path fill="#0a0a0a" stroke="#665522" stroke-dasharray="5,2" d="M458,-581.89C458,-581.89 689,-581.89 689,-581.89 695,-581.89 701,-587.89 701,-593.89 701,-593.89 701,-664.14 701,-664.14 701,-670.14 695,-676.14 689,-676.14 689,-676.14 458,-676.14 458,-676.14 452,-676.14 446,-670.14 446,-664.14 446,-664.14 446,-593.89 446,-593.89 446,-587.89 452,-581.89 458,-581.89"/>
<text xml:space="preserve" text-anchor="middle" x="573.5" y="-658.84" font-family="monospace" font-size="14.00" fill="#ccaa66">Not built yet, room for later</text>
</g>
<!-- download -->
<g id="node1" class="node">
<title>download</title>
<polygon fill="#260101" stroke="#800000" points="360,-734.89 194,-734.89 194,-698.39 366,-698.39 366,-728.89 360,-734.89"/>
<polyline fill="none" stroke="#800000" points="360,-734.89 360,-728.89"/>
<polyline fill="none" stroke="#800000" points="366,-728.89 360,-728.89"/>
<text xml:space="preserve" text-anchor="middle" x="280" y="-721.39" font-family="monospace" font-size="10.00" fill="white">Download the prebuilt ISO</text>
<text xml:space="preserve" text-anchor="middle" x="280" y="-707.14" font-family="monospace" font-size="10.00" fill="white">(github.com/syn990/SYN&#45;OS)</text>
</g>
<!-- usb_win -->
<g id="node2" class="node">
<title>usb_win</title>
<path fill="#1a1608" stroke="#8a6a2f" d="M104,-633.52C104,-633.52 28,-633.52 28,-633.52 22,-633.52 16,-627.52 16,-621.52 16,-621.52 16,-609.02 16,-609.02 16,-603.02 22,-597.02 28,-597.02 28,-597.02 104,-597.02 104,-597.02 110,-597.02 116,-603.02 116,-609.02 116,-609.02 116,-621.52 116,-621.52 116,-627.52 110,-633.52 104,-633.52"/>
<text xml:space="preserve" text-anchor="middle" x="66" y="-620.02" font-family="monospace" font-size="10.00" fill="#e0c896">Windows: Rufus</text>
<text xml:space="preserve" text-anchor="middle" x="66" y="-605.77" font-family="monospace" font-size="10.00" fill="#e0c896">USB stick</text>
</g>
<!-- download&#45;&gt;usb_win -->
<g id="edge1" class="edge">
<title>download&#45;&gt;usb_win</title>
<path fill="none" stroke="#aaaaaa" d="M193.56,-707.68C170.19,-702.9 145.67,-695.3 125,-683.27 108.24,-673.51 93.77,-657.28 83.35,-643.24"/>
<polygon fill="#aaaaaa" stroke="#aaaaaa" points="86.31,-641.36 77.69,-635.21 80.59,-645.4 86.31,-641.36"/>
</g>
<!-- usb_mac -->
<g id="node3" class="node">
<title>usb_mac</title>
<path fill="#1a1608" stroke="#8a6a2f" d="M258,-633.52C258,-633.52 146,-633.52 146,-633.52 140,-633.52 134,-627.52 134,-621.52 134,-621.52 134,-609.02 134,-609.02 134,-603.02 140,-597.02 146,-597.02 146,-597.02 258,-597.02 258,-597.02 264,-597.02 270,-603.02 270,-609.02 270,-609.02 270,-621.52 270,-621.52 270,-627.52 264,-633.52 258,-633.52"/>
<text xml:space="preserve" text-anchor="middle" x="202" y="-620.02" font-family="monospace" font-size="10.00" fill="#e0c896">macOS: diskutil + dd</text>
<text xml:space="preserve" text-anchor="middle" x="202" y="-605.77" font-family="monospace" font-size="10.00" fill="#e0c896">USB stick</text>
</g>
<!-- download&#45;&gt;usb_mac -->
<g id="edge2" class="edge">
<title>download&#45;&gt;usb_mac</title>
<path fill="none" stroke="#aaaaaa" d="M266.41,-698.33C254.3,-682.89 236.38,-660.07 222.52,-642.41"/>
<polygon fill="#aaaaaa" stroke="#aaaaaa" points="225.55,-640.61 216.63,-634.9 220.05,-644.93 225.55,-640.61"/>
</g>
<!-- vm_disk -->
<g id="node4" class="node">
<title>vm_disk</title>
<path fill="#1a1608" stroke="#8a6a2f" d="M418,-647.77C418,-647.77 300,-647.77 300,-647.77 294,-647.77 288,-641.77 288,-635.77 288,-635.77 288,-594.77 288,-594.77 288,-588.77 294,-582.77 300,-582.77 300,-582.77 418,-582.77 418,-582.77 424,-582.77 430,-588.77 430,-594.77 430,-594.77 430,-635.77 430,-635.77 430,-641.77 424,-647.77 418,-647.77"/>
<text xml:space="preserve" text-anchor="middle" x="359" y="-634.27" font-family="monospace" font-size="10.00" fill="#e0c896">Boot the ISO directly</text>
<text xml:space="preserve" text-anchor="middle" x="359" y="-620.02" font-family="monospace" font-size="10.00" fill="#e0c896">in any VM tool</text>
<text xml:space="preserve" text-anchor="middle" x="359" y="-605.77" font-family="monospace" font-size="10.00" fill="#e0c896">(Hyper&#45;V, VirtualBox,</text>
<text xml:space="preserve" text-anchor="middle" x="359" y="-591.52" font-family="monospace" font-size="10.00" fill="#e0c896">UTM, Parallels)</text>
</g>
<!-- download&#45;&gt;vm_disk -->
<g id="edge3" class="edge">
<title>download&#45;&gt;vm_disk</title>
<path fill="none" stroke="#aaaaaa" d="M293.76,-698.33C302.84,-686.91 315.13,-671.45 326.6,-657.02"/>
<polygon fill="#aaaaaa" stroke="#aaaaaa" points="329.17,-659.41 332.65,-649.41 323.69,-655.06 329.17,-659.41"/>
</g>
<!-- netboot -->
<g id="node9" class="node">
<title>netboot</title>
<polygon fill="#1a1608" stroke="#8a6a2f" points="584,-640.64 454,-640.64 454,-589.89 590,-589.89 590,-634.64 584,-640.64"/>
<polyline fill="none" stroke="#8a6a2f" points="584,-640.64 584,-634.64"/>
<polyline fill="none" stroke="#8a6a2f" points="590,-634.64 584,-634.64"/>
<text xml:space="preserve" text-anchor="middle" x="522" y="-627.14" font-family="monospace" font-size="10.00" fill="#e0c896">PXE / network boot</text>
<text xml:space="preserve" text-anchor="middle" x="522" y="-612.89" font-family="monospace" font-size="10.00" fill="#e0c896">(no USB or VM disk</text>
<text xml:space="preserve" text-anchor="middle" x="522" y="-598.64" font-family="monospace" font-size="10.00" fill="#e0c896">image needed at all)</text>
</g>
<!-- download&#45;&gt;netboot -->
<g id="edge10" class="edge">
<title>download&#45;&gt;netboot</title>
<path fill="none" stroke="#665522" stroke-dasharray="1,5" d="M344.39,-697.9C354.58,-695.44 365.04,-693.13 375,-691.27 404.48,-685.75 414.47,-695.17 442,-683.27 460.45,-675.29 477.94,-661.64 491.83,-648.73"/>
<polygon fill="#665522" stroke="#665522" points="494.14,-651.37 498.9,-641.9 489.28,-646.33 494.14,-651.37"/>
</g>
<!-- boot -->
<g id="node5" class="node">
<title>boot</title>
<ellipse fill="#400101" stroke="#800000" cx="202" cy="-510.88" rx="104.65" ry="35.89"/>
<text xml:space="preserve" text-anchor="middle" x="202" y="-522.76" font-family="monospace" font-size="10.00" fill="white">Real hardware or a VM,</text>
<text xml:space="preserve" text-anchor="middle" x="202" y="-508.51" font-family="monospace" font-size="10.00" fill="white">booted into the live</text>
<text xml:space="preserve" text-anchor="middle" x="202" y="-494.26" font-family="monospace" font-size="10.00" fill="white">SYN&#45;OS shell</text>
</g>
<!-- usb_win&#45;&gt;boot -->
<g id="edge4" class="edge">
<title>usb_win&#45;&gt;boot</title>
<path fill="none" stroke="#aaaaaa" d="M89.38,-596.67C106.12,-584.06 129.31,-566.6 150.3,-550.8"/>
<polygon fill="#aaaaaa" stroke="#aaaaaa" points="152.36,-553.63 158.24,-544.82 148.15,-548.04 152.36,-553.63"/>
</g>
<!-- usb_mac&#45;&gt;boot -->
<g id="edge5" class="edge">
<title>usb_mac&#45;&gt;boot</title>
<path fill="none" stroke="#aaaaaa" d="M202,-596.9C202,-586.29 202,-572.17 202,-558.5"/>
<polygon fill="#aaaaaa" stroke="#aaaaaa" points="205.5,-558.71 202,-548.71 198.5,-558.71 205.5,-558.71"/>
</g>
<!-- vm_disk&#45;&gt;boot -->
<g id="edge6" class="edge">
<title>vm_disk&#45;&gt;boot</title>
<path fill="none" stroke="#aaaaaa" d="M310.18,-582.43C294.16,-571.98 276.19,-560.26 259.58,-549.43"/>
<polygon fill="#aaaaaa" stroke="#aaaaaa" points="261.53,-546.53 251.24,-543.99 257.71,-552.39 261.53,-546.53"/>
</g>
<!-- arch_env -->
<g id="node6" class="node">
<title>arch_env</title>
<path fill="#4a1414" stroke="#d84a3f" stroke-width="2" d="M276,-438.99C276,-438.99 128,-438.99 128,-438.99 122,-438.99 116,-432.99 116,-426.99 116,-426.99 116,-385.99 116,-385.99 116,-379.99 122,-373.99 128,-373.99 128,-373.99 276,-373.99 276,-373.99 282,-373.99 288,-379.99 288,-385.99 288,-385.99 288,-426.99 288,-426.99 288,-432.99 282,-438.99 276,-438.99"/>
<text xml:space="preserve" text-anchor="middle" x="202" y="-425.49" font-family="monospace" font-size="10.00" fill="white">This IS a real Arch</text>
<text xml:space="preserve" text-anchor="middle" x="202" y="-411.24" font-family="monospace" font-size="10.00" fill="white">environment now:</text>
<text xml:space="preserve" text-anchor="middle" x="202" y="-396.99" font-family="monospace" font-size="10.00" fill="white">pacman, git, zsh,</text>
<text xml:space="preserve" text-anchor="middle" x="202" y="-382.74" font-family="monospace" font-size="10.00" fill="white">everything the build needs</text>
</g>
<!-- boot&#45;&gt;arch_env -->
<g id="edge7" class="edge">
<title>boot&#45;&gt;arch_env</title>
<path fill="none" stroke="#aaaaaa" d="M202,-474.65C202,-467.03 202,-458.89 202,-450.99"/>
<polygon fill="#aaaaaa" stroke="#aaaaaa" points="205.5,-451.21 202,-441.21 198.5,-451.21 205.5,-451.21"/>
</g>
<!-- build -->
<g id="node7" class="node">
<title>build</title>
<path fill="#260101" stroke="#800000" d="M294,-337.99C294,-337.99 110,-337.99 110,-337.99 104,-337.99 98,-331.99 98,-325.99 98,-325.99 98,-299.24 98,-299.24 98,-293.24 104,-287.24 110,-287.24 110,-287.24 294,-287.24 294,-287.24 300,-287.24 306,-293.24 306,-299.24 306,-299.24 306,-325.99 306,-325.99 306,-331.99 300,-337.99 294,-337.99"/>
<text xml:space="preserve" text-anchor="middle" x="202" y="-324.49" font-family="monospace" font-size="10.00" fill="white">Normal Build Your Own ISO</text>
<text xml:space="preserve" text-anchor="middle" x="202" y="-310.24" font-family="monospace" font-size="10.00" fill="white">steps, run from here</text>
<text xml:space="preserve" text-anchor="middle" x="202" y="-295.99" font-family="monospace" font-size="10.00" fill="white">(git clone, BUILD&#45;SYNOS&#45;ISO.zsh)</text>
</g>
<!-- arch_env&#45;&gt;build -->
<g id="edge8" class="edge">
<title>arch_env&#45;&gt;build</title>
<path fill="none" stroke="#aaaaaa" d="M202,-373.1C202,-365.49 202,-357.33 202,-349.56"/>
<polygon fill="#aaaaaa" stroke="#aaaaaa" points="205.5,-349.73 202,-339.73 198.5,-349.73 205.5,-349.73"/>
</g>
<!-- newiso -->
<g id="node8" class="node">
<title>newiso</title>
<ellipse fill="#4a1414" stroke="#d84a3f" stroke-width="2" cx="202" cy="-125.62" rx="121.62" ry="121.62"/>
<ellipse fill="none" stroke="#d84a3f" stroke-width="2" cx="202" cy="-125.62" rx="125.62" ry="125.62"/>
<text xml:space="preserve" text-anchor="middle" x="202" y="-130.37" font-family="monospace" font-size="10.00" fill="white">a new ISO,</text>
<text xml:space="preserve" text-anchor="middle" x="202" y="-116.12" font-family="monospace" font-size="10.00" fill="white">with your changes baked in</text>
</g>
<!-- build&#45;&gt;newiso -->
<g id="edge9" class="edge">
<title>build&#45;&gt;newiso</title>
<path fill="none" stroke="#aaaaaa" d="M202,-287.05C202,-280.14 202,-272.1 202,-263.38"/>
<polygon fill="#aaaaaa" stroke="#aaaaaa" points="205.5,-263.5 202,-253.5 198.5,-263.5 205.5,-263.5"/>
</g>
<!-- note -->
<g id="node10" class="node">
<title>note</title>
<polygon fill="#1a1608" stroke="#665522" points="718,-742.02 384,-742.02 384,-691.27 724,-691.27 724,-736.02 718,-742.02"/>
<polyline fill="none" stroke="#665522" points="718,-742.02 718,-736.02"/>
<polyline fill="none" stroke="#665522" points="724,-736.02 718,-736.02"/>
<text xml:space="preserve" text-anchor="middle" x="554" y="-728.52" font-family="monospace" font-size="10.00" fill="#ccaa66">No WSL2, no third&#45;party unofficial Arch image, no</text>
<text xml:space="preserve" text-anchor="middle" x="554" y="-714.27" font-family="monospace" font-size="10.00" fill="#ccaa66">script piped into a shell. The downloaded ISO is</text>
<text xml:space="preserve" text-anchor="middle" x="554" y="-700.02" font-family="monospace" font-size="10.00" fill="#ccaa66">already the build environment; nothing else to set up.</text>
</g>
</g>
</svg>
