<?xml version="1.0" encoding="UTF-8" standalone="no"?>
<!DOCTYPE svg PUBLIC "-//W3C//DTD SVG 1.1//EN"
 "http://www.w3.org/Graphics/SVG/1.1/DTD/svg11.dtd">
<!-- Generated by graphviz version 15.1.0 (0)
 -->
<!-- Title: partition_dispatch Pages: 1 -->
<svg width="554pt" height="458pt"
 viewBox="0.00 0.00 554.00 458.00" xmlns="http://www.w3.org/2000/svg" xmlns:xlink="http://www.w3.org/1999/xlink">
<g id="graph0" class="graph" transform="scale(1 1) rotate(0) translate(4 453.5)">
<title>partition_dispatch</title>
<polygon fill="#000000" stroke="none" points="-4,4 -4,-453.5 550,-453.5 550,4 -4,4"/>
<!-- fw -->
<g id="node1" class="node">
<title>fw</title>
<path fill="#400101" stroke="#800000" d="M166.24,-447.09C166.24,-447.09 11.76,-415.41 11.76,-415.41 5.88,-414.21 5.88,-411.79 11.76,-410.59 11.76,-410.59 166.24,-378.91 166.24,-378.91 172.12,-377.71 183.88,-377.71 189.76,-378.91 189.76,-378.91 344.24,-410.59 344.24,-410.59 350.12,-411.79 350.12,-414.21 344.24,-415.41 344.24,-415.41 189.76,-447.09 189.76,-447.09 183.88,-448.29 172.12,-448.29 166.24,-447.09"/>
<text xml:space="preserve" text-anchor="middle" x="178" y="-417.75" font-family="monospace" font-size="10.00" fill="white">firmware detected?</text>
<text xml:space="preserve" text-anchor="middle" x="178" y="-403.5" font-family="monospace" font-size="10.00" fill="white">(/sys/firmware/efi/efivars)</text>
</g>
<!-- uefi -->
<g id="node2" class="node">
<title>uefi</title>
<path fill="#2c0101" stroke="#800000" d="M148,-339.5C148,-339.5 118,-339.5 118,-339.5 112,-339.5 106,-333.5 106,-327.5 106,-327.5 106,-315.5 106,-315.5 106,-309.5 112,-303.5 118,-303.5 118,-303.5 148,-303.5 148,-303.5 154,-303.5 160,-309.5 160,-315.5 160,-315.5 160,-327.5 160,-327.5 160,-333.5 154,-339.5 148,-339.5"/>
<text xml:space="preserve" text-anchor="middle" x="133" y="-319.12" font-family="monospace" font-size="10.00" fill="white">UEFI</text>
</g>
<!-- fw&#45;&gt;uefi -->
<g id="edge1" class="edge">
<title>fw&#45;&gt;uefi</title>
<path fill="none" stroke="#aaaaaa" d="M161.63,-379.44C156.79,-369.81 151.54,-359.37 146.87,-350.08"/>
<polygon fill="#aaaaaa" stroke="#aaaaaa" points="150.02,-348.56 142.4,-341.19 143.76,-351.7 150.02,-348.56"/>
</g>
<!-- bios -->
<g id="node3" class="node">
<title>bios</title>
<path fill="#2c0101" stroke="#800000" d="M281,-339.5C281,-339.5 211,-339.5 211,-339.5 205,-339.5 199,-333.5 199,-327.5 199,-327.5 199,-315.5 199,-315.5 199,-309.5 205,-303.5 211,-303.5 211,-303.5 281,-303.5 281,-303.5 287,-303.5 293,-309.5 293,-315.5 293,-315.5 293,-327.5 293,-327.5 293,-333.5 287,-339.5 281,-339.5"/>
<text xml:space="preserve" text-anchor="middle" x="246" y="-319.12" font-family="monospace" font-size="10.00" fill="white">BIOS / legacy</text>
</g>
<!-- fw&#45;&gt;bios -->
<g id="edge2" class="edge">
<title>fw&#45;&gt;bios</title>
<path fill="none" stroke="#aaaaaa" d="M201.59,-380.95C209.5,-370.54 218.24,-359.04 225.86,-349.01"/>
<polygon fill="#aaaaaa" stroke="#aaaaaa" points="228.57,-351.22 231.84,-341.14 223,-346.99 228.57,-351.22"/>
</g>
<!-- strat_uefi -->
<g id="node4" class="node">
<title>strat_uefi</title>
<path fill="#2c0101" stroke="#800000" d="M142,-266.5C142,-266.5 42,-266.5 42,-266.5 36,-266.5 30,-260.5 30,-254.5 30,-254.5 30,-242 30,-242 30,-236 36,-230 42,-230 42,-230 142,-230 142,-230 148,-230 154,-236 154,-242 154,-242 154,-254.5 154,-254.5 154,-260.5 148,-266.5 142,-266.5"/>
<text xml:space="preserve" text-anchor="middle" x="92" y="-253" font-family="monospace" font-size="10.00" fill="white">uefi&#45;bootctl</text>
<text xml:space="preserve" text-anchor="middle" x="92" y="-238.75" font-family="monospace" font-size="10.00" fill="white">GPT + systemd&#45;boot</text>
</g>
<!-- uefi&#45;&gt;strat_uefi -->
<g id="edge3" class="edge">
<title>uefi&#45;&gt;strat_uefi</title>
<path fill="none" stroke="#aaaaaa" d="M123.08,-303.25C118.51,-295.32 112.98,-285.71 107.86,-276.81"/>
<polygon fill="#aaaaaa" stroke="#aaaaaa" points="110.89,-275.07 102.87,-268.15 104.83,-278.56 110.89,-275.07"/>
</g>
<!-- enc -->
<g id="node5" class="node">
<title>enc</title>
<path fill="#400101" stroke="#800000" d="M255.21,-264.02C255.21,-264.02 183.45,-250.48 183.45,-250.48 177.55,-249.36 177.55,-247.14 183.45,-246.02 183.45,-246.02 255.21,-232.48 255.21,-232.48 261.1,-231.36 272.9,-231.36 278.79,-232.48 278.79,-232.48 350.55,-246.02 350.55,-246.02 356.45,-247.14 356.45,-249.36 350.55,-250.48 350.55,-250.48 278.79,-264.02 278.79,-264.02 272.9,-265.14 261.1,-265.14 255.21,-264.02"/>
<text xml:space="preserve" text-anchor="middle" x="267" y="-245.88" font-family="monospace" font-size="10.00" fill="white">Encryption=yes?</text>
</g>
<!-- bios&#45;&gt;enc -->
<g id="edge4" class="edge">
<title>bios&#45;&gt;enc</title>
<path fill="none" stroke="#aaaaaa" d="M251.08,-303.25C253.47,-295.14 256.38,-285.29 259.05,-276.22"/>
<polygon fill="#aaaaaa" stroke="#aaaaaa" points="262.35,-277.4 261.82,-266.81 255.64,-275.42 262.35,-277.4"/>
</g>
<!-- strat_grub -->
<g id="node6" class="node">
<title>strat_grub</title>
<path fill="#4a1414" stroke="#d84a3f" stroke-width="2" d="M284,-174.12C284,-174.12 130,-174.12 130,-174.12 124,-174.12 118,-168.12 118,-162.12 118,-162.12 118,-135.38 118,-135.38 118,-129.38 124,-123.38 130,-123.38 130,-123.38 284,-123.38 284,-123.38 290,-123.38 296,-129.38 296,-135.38 296,-135.38 296,-162.12 296,-162.12 296,-168.12 290,-174.12 284,-174.12"/>
<text xml:space="preserve" text-anchor="middle" x="207" y="-160.62" font-family="monospace" font-size="10.00" fill="white">mbr&#45;grub</text>
<text xml:space="preserve" text-anchor="middle" x="207" y="-146.38" font-family="monospace" font-size="10.00" fill="white">MSDOS, separate unencrypted</text>
<text xml:space="preserve" text-anchor="middle" x="207" y="-132.12" font-family="monospace" font-size="10.00" fill="white">/boot, GRUB cryptomount</text>
</g>
<!-- enc&#45;&gt;strat_grub -->
<g id="edge5" class="edge">
<title>enc&#45;&gt;strat_grub</title>
<path fill="none" stroke="#aaaaaa" d="M257.36,-231.58C249.57,-218.92 238.31,-200.63 228.41,-184.54"/>
<polygon fill="#aaaaaa" stroke="#aaaaaa" points="231.48,-182.86 223.26,-176.18 225.52,-186.53 231.48,-182.86"/>
<text xml:space="preserve" text-anchor="middle" x="252.01" y="-203.45" font-family="monospace" font-size="9.00" fill="white">yes</text>
</g>
<!-- strat_syslinux -->
<g id="node7" class="node">
<title>strat_syslinux</title>
<path fill="#2c0101" stroke="#800000" d="M486,-181.25C486,-181.25 326,-181.25 326,-181.25 320,-181.25 314,-175.25 314,-169.25 314,-169.25 314,-128.25 314,-128.25 314,-122.25 320,-116.25 326,-116.25 326,-116.25 486,-116.25 486,-116.25 492,-116.25 498,-122.25 498,-128.25 498,-128.25 498,-169.25 498,-169.25 498,-175.25 492,-181.25 486,-181.25"/>
<text xml:space="preserve" text-anchor="middle" x="406" y="-167.75" font-family="monospace" font-size="10.00" fill="white">mbr&#45;syslinux</text>
<text xml:space="preserve" text-anchor="middle" x="406" y="-153.5" font-family="monospace" font-size="10.00" fill="white">MSDOS, single partition,</text>
<text xml:space="preserve" text-anchor="middle" x="406" y="-139.25" font-family="monospace" font-size="10.00" fill="white">no encryption path (syslinux</text>
<text xml:space="preserve" text-anchor="middle" x="406" y="-125" font-family="monospace" font-size="10.00" fill="white">has no LUKS support)</text>
</g>
<!-- enc&#45;&gt;strat_syslinux -->
<g id="edge6" class="edge">
<title>enc&#45;&gt;strat_syslinux</title>
<path fill="none" stroke="#aaaaaa" d="M286.62,-233.49C303.39,-221.72 328.36,-204.21 351.13,-188.24"/>
<polygon fill="#aaaaaa" stroke="#aaaaaa" points="352.97,-191.22 359.15,-182.62 348.95,-185.49 352.97,-191.22"/>
<text xml:space="preserve" text-anchor="middle" x="337.58" y="-203.45" font-family="monospace" font-size="9.00" fill="white">no</text>
</g>
<!-- mismatch -->
<g id="node8" class="node">
<title>mismatch</title>
<polygon fill="#1a1608" stroke="#c0392b" points="540,-79.25 266,-79.25 266,0 546,0 546,-73.25 540,-79.25"/>
<polyline fill="none" stroke="#c0392b" points="540,-79.25 540,-73.25"/>
<polyline fill="none" stroke="#c0392b" points="546,-73.25 540,-73.25"/>
<text xml:space="preserve" text-anchor="middle" x="406" y="-65.75" font-family="monospace" font-size="10.00" fill="#e0c896">Explicit (non&#45;auto) PartitionStrat that</text>
<text xml:space="preserve" text-anchor="middle" x="406" y="-51.5" font-family="monospace" font-size="10.00" fill="#e0c896">contradicts detected firmware: hard exit,</text>
<text xml:space="preserve" text-anchor="middle" x="406" y="-37.25" font-family="monospace" font-size="10.00" fill="#e0c896">not a warning. mbr&#45;syslinux + Encryption=yes</text>
<text xml:space="preserve" text-anchor="middle" x="406" y="-23" font-family="monospace" font-size="10.00" fill="#e0c896">also hard&#45;fails — syslinux cannot read LUKS</text>
<text xml:space="preserve" text-anchor="middle" x="406" y="-8.75" font-family="monospace" font-size="10.00" fill="#e0c896">under any circumstance.</text>
</g>
<!-- strat_syslinux&#45;&gt;mismatch -->
<g id="edge7" class="edge">
<title>strat_syslinux&#45;&gt;mismatch</title>
<path fill="none" stroke="#c0392b" stroke-dasharray="5,2" d="M406,-115.9C406,-108.1 406,-99.56 406,-91.12"/>
<polygon fill="#c0392b" stroke="#c0392b" points="409.5,-91.26 406,-81.26 402.5,-91.26 409.5,-91.26"/>
</g>
</g>
</svg>
