<?xml version="1.0" encoding="UTF-8" standalone="no"?>
<!DOCTYPE svg PUBLIC "-//W3C//DTD SVG 1.1//EN"
 "http://www.w3.org/Graphics/SVG/1.1/DTD/svg11.dtd">
<!-- Generated by graphviz version 15.1.0 (0)
 -->
<!-- Title: config_location Pages: 1 -->
<svg width="216pt" height="829pt"
 viewBox="0.00 0.00 216.00 829.00" xmlns="http://www.w3.org/2000/svg" xmlns:xlink="http://www.w3.org/1999/xlink">
<g id="graph0" class="graph" transform="scale(1 1) rotate(0) translate(4 824.5)">
<title>config_location</title>
<polygon fill="#000000" stroke="none" points="-4,4 -4,-824.5 212,-824.5 212,4 -4,4"/>
<!-- c0 -->
<g id="node1" class="node">
<title>c0</title>
<path fill="#2c0101" stroke="#800000" d="M166,-820.5C166,-820.5 42,-820.5 42,-820.5 36,-820.5 30,-814.5 30,-808.5 30,-808.5 30,-767.5 30,-767.5 30,-761.5 36,-755.5 42,-755.5 42,-755.5 166,-755.5 166,-755.5 172,-755.5 178,-761.5 178,-767.5 178,-767.5 178,-808.5 178,-808.5 178,-814.5 172,-820.5 166,-820.5"/>
<text xml:space="preserve" text-anchor="middle" x="104" y="-807" font-family="monospace" font-size="10.00" fill="white">SYN&#45;RTOS, 2021&#45;03</text>
<text xml:space="preserve" text-anchor="middle" x="104" y="-792.75" font-family="monospace" font-size="10.00" fill="white">inline shell variables</text>
<text xml:space="preserve" text-anchor="middle" x="104" y="-778.5" font-family="monospace" font-size="10.00" fill="white">no external file</text>
<text xml:space="preserve" text-anchor="middle" x="104" y="-764.25" font-family="monospace" font-size="10.00" fill="white">(/dev/sda hardcoded)</text>
</g>
<!-- cA -->
<g id="node2" class="node">
<title>cA</title>
<path fill="#2c0101" stroke="#800000" d="M175,-681.25C175,-681.25 33,-681.25 33,-681.25 27,-681.25 21,-675.25 21,-669.25 21,-669.25 21,-642.5 21,-642.5 21,-636.5 27,-630.5 33,-630.5 33,-630.5 175,-630.5 175,-630.5 181,-630.5 187,-636.5 187,-642.5 187,-642.5 187,-669.25 187,-669.25 187,-675.25 181,-681.25 175,-681.25"/>
<text xml:space="preserve" text-anchor="middle" x="104" y="-667.75" font-family="monospace" font-size="10.00" fill="white">SYN&#45;RTOS, 2022&#45;11</text>
<text xml:space="preserve" text-anchor="middle" x="104" y="-653.5" font-family="monospace" font-size="10.00" fill="white">syn.conf bootloader entry</text>
<text xml:space="preserve" text-anchor="middle" x="104" y="-639.25" font-family="monospace" font-size="10.00" fill="white">first use of the name</text>
</g>
<!-- c0&#45;&gt;cA -->
<g id="edge1" class="edge">
<title>c0&#45;&gt;cA</title>
<path fill="none" stroke="#aaaaaa" d="M104,-755.17C104,-736.35 104,-712.46 104,-692.95"/>
<polygon fill="#aaaaaa" stroke="#aaaaaa" points="107.5,-692.96 104,-682.96 100.5,-692.96 107.5,-692.96"/>
<text xml:space="preserve" text-anchor="middle" x="151.25" y="-728.95" font-family="monospace" font-size="9.00" fill="white"> &#160;copied forward,</text>
<text xml:space="preserve" text-anchor="middle" x="151.25" y="-716.2" font-family="monospace" font-size="9.00" fill="white"> &#160;format unchanged</text>
<text xml:space="preserve" text-anchor="middle" x="151.25" y="-703.45" font-family="monospace" font-size="9.00" fill="white"> &#160;at each hop</text>
</g>
<!-- c1 -->
<g id="node3" class="node">
<title>c1</title>
<path fill="#2c0101" stroke="#800000" d="M160,-556.25C160,-556.25 48,-556.25 48,-556.25 42,-556.25 36,-550.25 36,-544.25 36,-544.25 36,-517.5 36,-517.5 36,-511.5 42,-505.5 48,-505.5 48,-505.5 160,-505.5 160,-505.5 166,-505.5 172,-511.5 172,-517.5 172,-517.5 172,-544.25 172,-544.25 172,-550.25 166,-556.25 160,-556.25"/>
<text xml:space="preserve" text-anchor="middle" x="104" y="-542.75" font-family="monospace" font-size="10.00" fill="white">SYN&#45;OS&#45;V4, 2023&#45;06</text>
<text xml:space="preserve" text-anchor="middle" x="104" y="-528.5" font-family="monospace" font-size="10.00" fill="white">syn.conf (top&#45;level)</text>
<text xml:space="preserve" text-anchor="middle" x="104" y="-514.25" font-family="monospace" font-size="10.00" fill="white">flat KEY=value</text>
</g>
<!-- cA&#45;&gt;c1 -->
<g id="edge2" class="edge">
<title>cA&#45;&gt;c1</title>
<path fill="none" stroke="#aaaaaa" d="M104,-630.28C104,-612.35 104,-587.77 104,-567.66"/>
<polygon fill="#aaaaaa" stroke="#aaaaaa" points="107.5,-567.94 104,-557.94 100.5,-567.94 107.5,-567.94"/>
<text xml:space="preserve" text-anchor="middle" x="151.25" y="-603.95" font-family="monospace" font-size="9.00" fill="white"> &#160;copied forward,</text>
<text xml:space="preserve" text-anchor="middle" x="151.25" y="-591.2" font-family="monospace" font-size="9.00" fill="white"> &#160;format unchanged</text>
<text xml:space="preserve" text-anchor="middle" x="151.25" y="-578.45" font-family="monospace" font-size="9.00" fill="white"> &#160;at each hop</text>
</g>
<!-- c2 -->
<g id="node4" class="node">
<title>c2</title>
<path fill="#2c0101" stroke="#800000" d="M163,-431.25C163,-431.25 45,-431.25 45,-431.25 39,-431.25 33,-425.25 33,-419.25 33,-419.25 33,-392.5 33,-392.5 33,-386.5 39,-380.5 45,-380.5 45,-380.5 163,-380.5 163,-380.5 169,-380.5 175,-386.5 175,-392.5 175,-392.5 175,-419.25 175,-419.25 175,-425.25 169,-431.25 163,-431.25"/>
<text xml:space="preserve" text-anchor="middle" x="104" y="-417.75" font-family="monospace" font-size="10.00" fill="white">SYN&#45;OS&#45;2035, 2023&#45;09</text>
<text xml:space="preserve" text-anchor="middle" x="104" y="-403.5" font-family="monospace" font-size="10.00" fill="white">syn.conf, same format</text>
<text xml:space="preserve" text-anchor="middle" x="104" y="-389.25" font-family="monospace" font-size="10.00" fill="white">copied forward</text>
</g>
<!-- c1&#45;&gt;c2 -->
<g id="edge3" class="edge">
<title>c1&#45;&gt;c2</title>
<path fill="none" stroke="#aaaaaa" d="M104,-505.28C104,-487.35 104,-462.77 104,-442.66"/>
<polygon fill="#aaaaaa" stroke="#aaaaaa" points="107.5,-442.94 104,-432.94 100.5,-442.94 107.5,-442.94"/>
<text xml:space="preserve" text-anchor="middle" x="151.25" y="-478.95" font-family="monospace" font-size="9.00" fill="white"> &#160;copied forward,</text>
<text xml:space="preserve" text-anchor="middle" x="151.25" y="-466.2" font-family="monospace" font-size="9.00" fill="white"> &#160;format unchanged</text>
<text xml:space="preserve" text-anchor="middle" x="151.25" y="-453.45" font-family="monospace" font-size="9.00" fill="white"> &#160;at each hop</text>
</g>
<!-- c3 -->
<g id="node5" class="node">
<title>c3</title>
<path fill="#2c0101" stroke="#800000" d="M163,-306.25C163,-306.25 45,-306.25 45,-306.25 39,-306.25 33,-300.25 33,-294.25 33,-294.25 33,-267.5 33,-267.5 33,-261.5 39,-255.5 45,-255.5 45,-255.5 163,-255.5 163,-255.5 169,-255.5 175,-261.5 175,-267.5 175,-267.5 175,-294.25 175,-294.25 175,-300.25 169,-306.25 163,-306.25"/>
<text xml:space="preserve" text-anchor="middle" x="104" y="-292.75" font-family="monospace" font-size="10.00" fill="white">SYN&#45;OS, 2024&#45;01</text>
<text xml:space="preserve" text-anchor="middle" x="104" y="-278.5" font-family="monospace" font-size="10.00" fill="white">syn.conf, same format</text>
<text xml:space="preserve" text-anchor="middle" x="104" y="-264.25" font-family="monospace" font-size="10.00" fill="white">copied forward</text>
</g>
<!-- c2&#45;&gt;c3 -->
<g id="edge4" class="edge">
<title>c2&#45;&gt;c3</title>
<path fill="none" stroke="#aaaaaa" d="M104,-380.28C104,-362.35 104,-337.77 104,-317.66"/>
<polygon fill="#aaaaaa" stroke="#aaaaaa" points="107.5,-317.94 104,-307.94 100.5,-317.94 107.5,-317.94"/>
<text xml:space="preserve" text-anchor="middle" x="151.25" y="-353.95" font-family="monospace" font-size="9.00" fill="white"> &#160;copied forward,</text>
<text xml:space="preserve" text-anchor="middle" x="151.25" y="-341.2" font-family="monospace" font-size="9.00" fill="white"> &#160;format unchanged</text>
<text xml:space="preserve" text-anchor="middle" x="151.25" y="-328.45" font-family="monospace" font-size="9.00" fill="white"> &#160;at each hop</text>
</g>
<!-- c4 -->
<g id="node6" class="node">
<title>c4</title>
<path fill="#4a1414" stroke="#d84a3f" stroke-width="2" d="M181,-181.25C181,-181.25 27,-181.25 27,-181.25 21,-181.25 15,-175.25 15,-169.25 15,-169.25 15,-99.75 15,-99.75 15,-93.75 21,-87.75 27,-87.75 27,-87.75 181,-87.75 181,-87.75 187,-87.75 193,-93.75 193,-99.75 193,-99.75 193,-169.25 193,-169.25 193,-175.25 187,-181.25 181,-181.25"/>
<text xml:space="preserve" text-anchor="middle" x="104" y="-167.75" font-family="monospace" font-size="10.00" fill="white">/etc/syn&#45;os/synos.conf</text>
<text xml:space="preserve" text-anchor="middle" x="104" y="-153.5" font-family="monospace" font-size="10.00" fill="white">2026&#45;02&#45;23 (320cd47)</text>
<text xml:space="preserve" text-anchor="middle" x="104" y="-139.25" font-family="monospace" font-size="10.00" fill="white">+ syn&#45;config.zsh loader:</text>
<text xml:space="preserve" text-anchor="middle" x="104" y="-125" font-family="monospace" font-size="10.00" fill="white">toYesNo(), firmware detect,</text>
<text xml:space="preserve" text-anchor="middle" x="104" y="-110.75" font-family="monospace" font-size="10.00" fill="white">strategy derivation,</text>
<text xml:space="preserve" text-anchor="middle" x="104" y="-96.5" font-family="monospace" font-size="10.00" fill="white">hard&#45;fail validation</text>
</g>
<!-- c3&#45;&gt;c4 -->
<g id="edge5" class="edge">
<title>c3&#45;&gt;c4</title>
<path fill="none" stroke="#aaaaaa" d="M104,-255.06C104,-238.11 104,-214.92 104,-193.48"/>
<polygon fill="#aaaaaa" stroke="#aaaaaa" points="107.5,-193.64 104,-183.65 100.5,-193.65 107.5,-193.64"/>
<text xml:space="preserve" text-anchor="middle" x="151.25" y="-228.95" font-family="monospace" font-size="9.00" fill="white"> &#160;copied forward,</text>
<text xml:space="preserve" text-anchor="middle" x="151.25" y="-216.2" font-family="monospace" font-size="9.00" fill="white"> &#160;format unchanged</text>
<text xml:space="preserve" text-anchor="middle" x="151.25" y="-203.45" font-family="monospace" font-size="9.00" fill="white"> &#160;at each hop</text>
</g>
<!-- note -->
<g id="node7" class="node">
<title>note</title>
<polygon fill="#1a1608" stroke="#665522" points="202,-50.75 0,-50.75 0,0 208,0 208,-44.75 202,-50.75"/>
<polyline fill="none" stroke="#665522" points="202,-50.75 202,-44.75"/>
<polyline fill="none" stroke="#665522" points="208,-44.75 202,-44.75"/>
<text xml:space="preserve" text-anchor="middle" x="104" y="-37.25" font-family="monospace" font-size="10.00" fill="#ccaa66">Five years from &#39;no config file&#39;</text>
<text xml:space="preserve" text-anchor="middle" x="104" y="-23" font-family="monospace" font-size="10.00" fill="#ccaa66">to a validated one in the</text>
<text xml:space="preserve" text-anchor="middle" x="104" y="-8.75" font-family="monospace" font-size="10.00" fill="#ccaa66">correct FHS location.</text>
</g>
<!-- c4&#45;&gt;note -->
</g>
</svg>
