<?xml version="1.0" encoding="UTF-8" standalone="no"?>
<!DOCTYPE svg PUBLIC "-//W3C//DTD SVG 1.1//EN"
 "http://www.w3.org/Graphics/SVG/1.1/DTD/svg11.dtd">
<!-- Generated by graphviz version 15.1.0 (0)
 -->
<!-- Title: session_start Pages: 1 -->
<svg width="1911pt" height="1036pt"
 viewBox="0.00 0.00 1911.00 1036.00" xmlns="http://www.w3.org/2000/svg" xmlns:xlink="http://www.w3.org/1999/xlink">
<g id="graph0" class="graph" transform="scale(1 1) rotate(0) translate(4 1031.62)">
<title>session_start</title>
<polygon fill="#000000" stroke="none" points="-4,4 -4,-1031.62 1907,-1031.62 1907,4 -4,4"/>
<g id="clust1" class="cluster">
<title>cluster_origin</title>
<path fill="#0a0a0a" stroke="#444444" d="M20,-592.88C20,-592.88 293,-592.88 293,-592.88 299,-592.88 305,-598.88 305,-604.88 305,-604.88 305,-1007.38 305,-1007.38 305,-1013.38 299,-1019.38 293,-1019.38 293,-1019.38 20,-1019.38 20,-1019.38 14,-1019.38 8,-1013.38 8,-1007.38 8,-1007.38 8,-604.88 8,-604.88 8,-598.88 14,-592.88 20,-592.88"/>
<text xml:space="preserve" text-anchor="middle" x="156.5" y="-1002.08" font-family="monospace" font-size="14.00" fill="white">SYN&#45;RTOS, 2021&#45;04&#45;04 &#45;&gt; 2022&#45;10&#45;20</text>
</g>
<g id="clust2" class="cluster">
<title>cluster_tested</title>
<path fill="#0a0a0a" stroke="#3a8f5a" d="M412,-757C412,-757 808,-757 808,-757 814,-757 820,-763 820,-769 820,-769 820,-1007.62 820,-1007.62 820,-1013.62 814,-1019.62 808,-1019.62 808,-1019.62 412,-1019.62 412,-1019.62 406,-1019.62 400,-1013.62 400,-1007.62 400,-1007.62 400,-769 400,-769 400,-763 406,-757 412,-757"/>
<text xml:space="preserve" text-anchor="middle" x="610" y="-1002.33" font-family="monospace" font-size="14.00" fill="#8fd9ab">Tested by hand, .zsh_history, 2022&#45;09&#45;17 &#45;&gt; 09&#45;24</text>
</g>
<g id="clust3" class="cluster">
<title>cluster_break</title>
<path fill="#0a0a0a" stroke="#665522" stroke-dasharray="5,2" d="M325,-453C325,-453 672,-453 672,-453 678,-453 684,-459 684,-465 684,-465 684,-701.5 684,-701.5 684,-707.5 678,-713.5 672,-713.5 672,-713.5 325,-713.5 325,-713.5 319,-713.5 313,-707.5 313,-701.5 313,-701.5 313,-465 313,-465 313,-459 319,-453 325,-453"/>
<text xml:space="preserve" text-anchor="middle" x="498.5" y="-696.2" font-family="monospace" font-size="14.00" fill="#ccaa66">SYN&#45;RTOS 829dbcd, 2022&#45;10&#45;20, a month later</text>
<text xml:space="preserve" text-anchor="middle" x="498.5" y="-676.7" font-family="monospace" font-size="14.00" fill="#ccaa66">&quot;A few weeks of untracked changes&quot;</text>
</g>
<g id="clust4" class="cluster">
<title>cluster_carried</title>
<path fill="#0a0a0a" stroke="#444444" d="M704,-445.88C704,-445.88 1117,-445.88 1117,-445.88 1123,-445.88 1129,-451.88 1129,-457.88 1129,-457.88 1129,-561.88 1129,-561.88 1129,-567.88 1123,-573.88 1117,-573.88 1117,-573.88 704,-573.88 704,-573.88 698,-573.88 692,-567.88 692,-561.88 692,-561.88 692,-457.88 692,-457.88 692,-451.88 698,-445.88 704,-445.88"/>
<text xml:space="preserve" text-anchor="middle" x="910.5" y="-556.58" font-family="monospace" font-size="14.00" fill="white">Dormant in an unused launch path,</text>
<text xml:space="preserve" text-anchor="middle" x="910.5" y="-537.08" font-family="monospace" font-size="14.00" fill="white">2022&#45;10&#45;20 &#45;&gt; 2026&#45;02&#45;08 (751d13a deletes the file)</text>
</g>
<g id="clust5" class="cluster">
<title>cluster_greetd</title>
<path fill="#0a0a0a" stroke="#665522" stroke-dasharray="5,2" d="M1149,-315.25C1149,-315.25 1537,-315.25 1537,-315.25 1543,-315.25 1549,-321.25 1549,-327.25 1549,-327.25 1549,-1007.62 1549,-1007.62 1549,-1013.62 1543,-1019.62 1537,-1019.62 1537,-1019.62 1149,-1019.62 1149,-1019.62 1143,-1019.62 1137,-1013.62 1137,-1007.62 1137,-1007.62 1137,-327.25 1137,-327.25 1137,-321.25 1143,-315.25 1149,-315.25"/>
<text xml:space="preserve" text-anchor="middle" x="1343" y="-1002.33" font-family="monospace" font-size="14.00" fill="#ccaa66">Attempted, never wired in, 2026&#45;02&#45;23 &#45;&gt; deleted</text>
</g>
<g id="clust6" class="cluster">
<title>cluster_current</title>
<path fill="#0a0a0a" stroke="#444444" d="M680,-8C680,-8 904,-8 904,-8 910,-8 916,-14 916,-20 916,-20 916,-390.38 916,-390.38 916,-396.38 910,-402.38 904,-402.38 904,-402.38 680,-402.38 680,-402.38 674,-402.38 668,-396.38 668,-390.38 668,-390.38 668,-20 668,-20 668,-14 674,-8 680,-8"/>
<text xml:space="preserve" text-anchor="middle" x="792" y="-385.07" font-family="monospace" font-size="14.00" fill="white">Current, 2026&#45;02&#45;08 &#45;&gt;</text>
</g>
<!-- manual -->
<g id="node1" class="node">
<title>manual</title>
<ellipse fill="#400101" stroke="#800000" cx="156" cy="-965.88" rx="75.05" ry="18"/>
<text xml:space="preserve" text-anchor="middle" x="156" y="-963.5" font-family="monospace" font-size="10.00" fill="white">user runs: startx</text>
</g>
<!-- xinitrc -->
<g id="node2" class="node">
<title>xinitrc</title>
<polygon fill="#260101" stroke="#800000" points="239,-882.12 67,-882.12 67,-845.62 245,-845.62 245,-876.12 239,-882.12"/>
<polyline fill="none" stroke="#800000" points="239,-882.12 239,-876.12"/>
<polyline fill="none" stroke="#800000" points="245,-876.12 239,-876.12"/>
<text xml:space="preserve" text-anchor="middle" x="156" y="-868.62" font-family="monospace" font-size="10.00" fill="white">.xinitrc</text>
<text xml:space="preserve" text-anchor="middle" x="156" y="-854.38" font-family="monospace" font-size="10.00" fill="white">xrdb, xmodmap, setxkbmap gb</text>
</g>
<!-- manual&#45;&gt;xinitrc -->
<g id="edge1" class="edge">
<title>manual&#45;&gt;xinitrc</title>
<path fill="none" stroke="#aaaaaa" d="M156,-947.46C156,-932.71 156,-911.25 156,-893.91"/>
<polygon fill="#aaaaaa" stroke="#aaaaaa" points="159.5,-893.94 156,-883.94 152.5,-893.94 159.5,-893.94"/>
</g>
<!-- cleanline -->
<g id="node3" class="node">
<title>cleanline</title>
<path fill="#2c0101" stroke="#3a8f5a" d="M218,-801.5C218,-801.5 94,-801.5 94,-801.5 88,-801.5 82,-795.5 82,-789.5 82,-789.5 82,-777 82,-777 82,-771 88,-765 94,-765 94,-765 218,-765 218,-765 224,-765 230,-771 230,-777 230,-777 230,-789.5 230,-789.5 230,-795.5 224,-801.5 218,-801.5"/>
<text xml:space="preserve" text-anchor="middle" x="156" y="-788" font-family="monospace" font-size="10.00" fill="white">openbox&#45;session</text>
<text xml:space="preserve" text-anchor="middle" x="156" y="-773.75" font-family="monospace" font-size="10.00" fill="white">(plain, no exec, no &amp;)</text>
</g>
<!-- xinitrc&#45;&gt;cleanline -->
<g id="edge2" class="edge">
<title>xinitrc&#45;&gt;cleanline</title>
<path fill="none" stroke="#aaaaaa" d="M156,-845.43C156,-836.02 156,-824.18 156,-813.42"/>
<polygon fill="#aaaaaa" stroke="#aaaaaa" points="159.5,-813.44 156,-803.44 152.5,-813.44 159.5,-813.44"/>
</g>
<!-- autostart -->
<g id="node4" class="node">
<title>autostart</title>
<polygon fill="#260101" stroke="#3a8f5a" points="257,-680.12 49,-680.12 49,-600.88 263,-600.88 263,-674.12 257,-680.12"/>
<polyline fill="none" stroke="#3a8f5a" points="257,-680.12 257,-674.12"/>
<polyline fill="none" stroke="#3a8f5a" points="263,-674.12 257,-674.12"/>
<text xml:space="preserve" text-anchor="middle" x="156" y="-666.62" font-family="monospace" font-size="10.00" fill="white">openbox/autostart</text>
<text xml:space="preserve" text-anchor="middle" x="156" y="-652.38" font-family="monospace" font-size="10.00" fill="white">feh wallpaper, sleep 2s &amp;&amp; tint2,</text>
<text xml:space="preserve" text-anchor="middle" x="156" y="-638.12" font-family="monospace" font-size="10.00" fill="white">xrandr geometry</text>
<text xml:space="preserve" text-anchor="middle" x="156" y="-623.88" font-family="monospace" font-size="10.00" fill="white">(the real session&#45;start file,</text>
<text xml:space="preserve" text-anchor="middle" x="156" y="-609.62" font-family="monospace" font-size="10.00" fill="white">correct in every version)</text>
</g>
<!-- cleanline&#45;&gt;autostart -->
<g id="edge3" class="edge">
<title>cleanline&#45;&gt;autostart</title>
<path fill="none" stroke="#3a8f5a" stroke-dasharray="5,2" d="M156,-764.71C156,-746.56 156,-717.36 156,-691.95"/>
<polygon fill="#3a8f5a" stroke="#3a8f5a" points="159.5,-692.1 156,-682.1 152.5,-692.1 159.5,-692.1"/>
<text xml:space="preserve" text-anchor="middle" x="205.88" y="-732.08" font-family="monospace" font-size="9.00" fill="white"> &#160;actual daily path</text>
</g>
<!-- install -->
<g id="node5" class="node">
<title>install</title>
<path fill="#0e2a18" stroke="#3a8f5a" d="M628,-984.12C628,-984.12 522,-984.12 522,-984.12 516,-984.12 510,-978.12 510,-972.12 510,-972.12 510,-959.62 510,-959.62 510,-953.62 516,-947.62 522,-947.62 522,-947.62 628,-947.62 628,-947.62 634,-947.62 640,-953.62 640,-959.62 640,-959.62 640,-972.12 640,-972.12 640,-978.12 634,-984.12 628,-984.12"/>
<text xml:space="preserve" text-anchor="middle" x="575" y="-970.62" font-family="monospace" font-size="10.00" fill="#8fd9ab">pacman &#45;S xcompmgr</text>
<text xml:space="preserve" text-anchor="middle" x="575" y="-956.38" font-family="monospace" font-size="10.00" fill="#8fd9ab">xcompmgr (bare run)</text>
</g>
<!-- tuned -->
<g id="node6" class="node">
<title>tuned</title>
<path fill="#0e2a18" stroke="#3a8f5a" d="M643,-889.25C643,-889.25 507,-889.25 507,-889.25 501,-889.25 495,-883.25 495,-877.25 495,-877.25 495,-850.5 495,-850.5 495,-844.5 501,-838.5 507,-838.5 507,-838.5 643,-838.5 643,-838.5 649,-838.5 655,-844.5 655,-850.5 655,-850.5 655,-877.25 655,-877.25 655,-883.25 649,-889.25 643,-889.25"/>
<text xml:space="preserve" text-anchor="middle" x="575" y="-875.75" font-family="monospace" font-size="10.00" fill="#8fd9ab">xcompmgr &#45;c &#45;C &#45;t&#45;5 &#45;l&#45;5</text>
<text xml:space="preserve" text-anchor="middle" x="575" y="-861.5" font-family="monospace" font-size="10.00" fill="#8fd9ab">&#45;r4.2 &#45;o.55</text>
<text xml:space="preserve" text-anchor="middle" x="575" y="-847.25" font-family="monospace" font-size="10.00" fill="#8fd9ab">(shadow, opacity tuned)</text>
</g>
<!-- install&#45;&gt;tuned -->
<g id="edge4" class="edge">
<title>install&#45;&gt;tuned</title>
<path fill="none" stroke="#aaaaaa" d="M575,-947.46C575,-934.58 575,-916.59 575,-900.69"/>
<polygon fill="#aaaaaa" stroke="#aaaaaa" points="578.5,-901.1 575,-891.1 571.5,-901.1 578.5,-901.1"/>
</g>
<!-- killed -->
<g id="node7" class="node">
<title>killed</title>
<path fill="#0e2a18" stroke="#3a8f5a" d="M613,-801.5C613,-801.5 537,-801.5 537,-801.5 531,-801.5 525,-795.5 525,-789.5 525,-789.5 525,-777 525,-777 525,-771 531,-765 537,-765 537,-765 613,-765 613,-765 619,-765 625,-771 625,-777 625,-777 625,-789.5 625,-789.5 625,-795.5 619,-801.5 613,-801.5"/>
<text xml:space="preserve" text-anchor="middle" x="575" y="-788" font-family="monospace" font-size="10.00" fill="#8fd9ab">pkill xcompmgr</text>
<text xml:space="preserve" text-anchor="middle" x="575" y="-773.75" font-family="monospace" font-size="10.00" fill="#8fd9ab">(same session)</text>
</g>
<!-- tuned&#45;&gt;killed -->
<g id="edge5" class="edge">
<title>tuned&#45;&gt;killed</title>
<path fill="none" stroke="#aaaaaa" d="M575,-838.43C575,-830.43 575,-821.47 575,-813.18"/>
<polygon fill="#aaaaaa" stroke="#aaaaaa" points="578.5,-813.21 575,-803.21 571.5,-813.21 578.5,-813.21"/>
</g>
<!-- execline -->
<g id="node8" class="node">
<title>execline</title>
<path fill="#4a0e0e" stroke="#c0392b" d="M664,-658.5C664,-658.5 486,-658.5 486,-658.5 480,-658.5 474,-652.5 474,-646.5 474,-646.5 474,-634.5 474,-634.5 474,-628.5 480,-622.5 486,-622.5 486,-622.5 664,-622.5 664,-622.5 670,-622.5 676,-628.5 676,-634.5 676,-634.5 676,-646.5 676,-646.5 676,-652.5 670,-658.5 664,-658.5"/>
<text xml:space="preserve" text-anchor="middle" x="575" y="-638.12" font-family="monospace" font-size="10.00" fill="white">exec openbox&#45;session &amp; xcompmgr</text>
</g>
<!-- killed&#45;&gt;execline -->
<g id="edge16" class="edge">
<title>killed&#45;&gt;execline</title>
<path fill="none" stroke="#c0392b" stroke-dasharray="5,2" d="M575,-764.71C575,-740.98 575,-698.37 575,-670.01"/>
<polygon fill="#c0392b" stroke="#c0392b" points="578.5,-670.33 575,-660.33 571.5,-670.33 578.5,-670.33"/>
<text xml:space="preserve" text-anchor="middle" x="617" y="-738.45" font-family="monospace" font-size="9.00" fill="#c0392b"> &#160;a month later,</text>
<text xml:space="preserve" text-anchor="middle" x="617" y="-725.7" font-family="monospace" font-size="9.00" fill="#c0392b"> &#160;different file</text>
</g>
<!-- dead -->
<g id="node9" class="node">
<title>dead</title>
<polygon fill="#1a1608" stroke="#8a6a2f" points="643,-511.75 501,-511.75 501,-461 649,-461 649,-505.75 643,-511.75"/>
<polyline fill="none" stroke="#8a6a2f" points="643,-511.75 643,-505.75"/>
<polyline fill="none" stroke="#8a6a2f" points="649,-505.75 643,-505.75"/>
<text xml:space="preserve" text-anchor="middle" x="575" y="-498.25" font-family="monospace" font-size="10.00" fill="#e0c896">xcompmgr: unreachable</text>
<text xml:space="preserve" text-anchor="middle" x="575" y="-484" font-family="monospace" font-size="10.00" fill="#e0c896">(exec already replaced</text>
<text xml:space="preserve" text-anchor="middle" x="575" y="-469.75" font-family="monospace" font-size="10.00" fill="#e0c896">the shell)</text>
</g>
<!-- execline&#45;&gt;dead -->
<g id="edge6" class="edge">
<title>execline&#45;&gt;dead</title>
<path fill="none" stroke="#c0392b" stroke-dasharray="5,2" d="M575,-622.05C575,-598.11 575,-554.5 575,-523.39"/>
<polygon fill="#c0392b" stroke="#c0392b" points="578.5,-523.66 575,-513.66 571.5,-523.66 578.5,-523.66"/>
</g>
<!-- ob -->
<g id="node10" class="node">
<title>ob</title>
<path fill="#2c0101" stroke="#800000" d="M872,-518.88C872,-518.88 712,-518.88 712,-518.88 706,-518.88 700,-512.88 700,-506.88 700,-506.88 700,-465.88 700,-465.88 700,-459.88 706,-453.88 712,-453.88 712,-453.88 872,-453.88 872,-453.88 878,-453.88 884,-459.88 884,-465.88 884,-465.88 884,-506.88 884,-506.88 884,-512.88 878,-518.88 872,-518.88"/>
<text xml:space="preserve" text-anchor="middle" x="792" y="-505.38" font-family="monospace" font-size="10.00" fill="white">Openbox session</text>
<text xml:space="preserve" text-anchor="middle" x="792" y="-491.12" font-family="monospace" font-size="10.00" fill="white">(comment claims compositing;</text>
<text xml:space="preserve" text-anchor="middle" x="792" y="-476.88" font-family="monospace" font-size="10.00" fill="white">never true, but never the</text>
<text xml:space="preserve" text-anchor="middle" x="792" y="-462.62" font-family="monospace" font-size="10.00" fill="white">real entry point either)</text>
</g>
<!-- execline&#45;&gt;ob -->
<g id="edge17" class="edge">
<title>execline&#45;&gt;ob</title>
<path fill="none" stroke="#aaaaaa" d="M608.04,-622.23C631.06,-609.73 662.15,-591.94 688,-573.88 708.51,-559.54 729.97,-542.15 748.03,-526.73"/>
<polygon fill="#aaaaaa" stroke="#aaaaaa" points="750.16,-529.51 755.46,-520.33 745.59,-524.21 750.16,-529.51"/>
</g>
<!-- autologin -->
<g id="node17" class="node">
<title>autologin</title>
<polygon fill="#260101" stroke="#800000" points="899,-366.88 679,-366.88 679,-330.38 905,-330.38 905,-360.88 899,-366.88"/>
<polyline fill="none" stroke="#800000" points="899,-366.88 899,-360.88"/>
<polyline fill="none" stroke="#800000" points="905,-360.88 899,-360.88"/>
<text xml:space="preserve" text-anchor="middle" x="792" y="-353.38" font-family="monospace" font-size="10.00" fill="white">getty@tty1.service.d/autologin.conf</text>
<text xml:space="preserve" text-anchor="middle" x="792" y="-339.12" font-family="monospace" font-size="10.00" fill="white">agetty &#45;&#45;autologin root</text>
</g>
<!-- ob&#45;&gt;autologin -->
<g id="edge18" class="edge">
<title>ob&#45;&gt;autologin</title>
<path fill="none" stroke="#d84a3f" stroke-dasharray="5,2" d="M792,-453.55C792,-430.8 792,-400.45 792,-378.42"/>
<polygon fill="#d84a3f" stroke="#d84a3f" points="795.5,-378.66 792,-368.66 788.5,-378.66 795.5,-378.66"/>
<text xml:space="preserve" text-anchor="middle" x="841.88" y="-427.32" font-family="monospace" font-size="9.00" fill="#d84a3f"> &#160;751d13a deletes</text>
<text xml:space="preserve" text-anchor="middle" x="841.88" y="-414.57" font-family="monospace" font-size="9.00" fill="#d84a3f"> &#160;.xinitrc entirely</text>
</g>
<!-- login_zsh -->
<g id="node11" class="node">
<title>login_zsh</title>
<path fill="#1a1608" stroke="#8a6a2f" d="M1405,-984.12C1405,-984.12 1281,-984.12 1281,-984.12 1275,-984.12 1269,-978.12 1269,-972.12 1269,-972.12 1269,-959.62 1269,-959.62 1269,-953.62 1275,-947.62 1281,-947.62 1281,-947.62 1405,-947.62 1405,-947.62 1411,-947.62 1417,-953.62 1417,-959.62 1417,-959.62 1417,-972.12 1417,-972.12 1417,-978.12 1411,-984.12 1405,-984.12"/>
<text xml:space="preserve" text-anchor="middle" x="1343" y="-970.62" font-family="monospace" font-size="10.00" fill="#e0c896">synos&#45;login.zsh</text>
<text xml:space="preserve" text-anchor="middle" x="1343" y="-956.38" font-family="monospace" font-size="10.00" fill="#e0c896">&#39;not ready for use!!!&#39;</text>
</g>
<!-- greetd_pkgs -->
<g id="node12" class="node">
<title>greetd_pkgs</title>
<path fill="#1a1608" stroke="#8a6a2f" d="M1417,-882.12C1417,-882.12 1269,-882.12 1269,-882.12 1263,-882.12 1257,-876.12 1257,-870.12 1257,-870.12 1257,-857.62 1257,-857.62 1257,-851.62 1263,-845.62 1269,-845.62 1269,-845.62 1417,-845.62 1417,-845.62 1423,-845.62 1429,-851.62 1429,-857.62 1429,-857.62 1429,-870.12 1429,-870.12 1429,-876.12 1423,-882.12 1417,-882.12"/>
<text xml:space="preserve" text-anchor="middle" x="1343" y="-868.62" font-family="monospace" font-size="10.00" fill="#e0c896">pacman &#45;S greetd</text>
<text xml:space="preserve" text-anchor="middle" x="1343" y="-854.38" font-family="monospace" font-size="10.00" fill="#e0c896">greetd&#45;tuigreet labwc dbus</text>
</g>
<!-- login_zsh&#45;&gt;greetd_pkgs -->
<g id="edge7" class="edge">
<title>login_zsh&#45;&gt;greetd_pkgs</title>
<path fill="none" stroke="#aaaaaa" d="M1343,-947.46C1343,-932.71 1343,-911.25 1343,-893.91"/>
<polygon fill="#aaaaaa" stroke="#aaaaaa" points="1346.5,-893.94 1343,-883.94 1339.5,-893.94 1346.5,-893.94"/>
</g>
<!-- greeter_user -->
<g id="node13" class="node">
<title>greeter_user</title>
<path fill="#1a1608" stroke="#8a6a2f" d="M1384,-801.5C1384,-801.5 1302,-801.5 1302,-801.5 1296,-801.5 1290,-795.5 1290,-789.5 1290,-789.5 1290,-777 1290,-777 1290,-771 1296,-765 1302,-765 1302,-765 1384,-765 1384,-765 1390,-765 1396,-771 1396,-777 1396,-777 1396,-789.5 1396,-789.5 1396,-795.5 1390,-801.5 1384,-801.5"/>
<text xml:space="preserve" text-anchor="middle" x="1343" y="-788" font-family="monospace" font-size="10.00" fill="#e0c896">useradd greeter</text>
<text xml:space="preserve" text-anchor="middle" x="1343" y="-773.75" font-family="monospace" font-size="10.00" fill="#e0c896">(/sbin/nologin)</text>
</g>
<!-- greetd_pkgs&#45;&gt;greeter_user -->
<g id="edge8" class="edge">
<title>greetd_pkgs&#45;&gt;greeter_user</title>
<path fill="none" stroke="#aaaaaa" d="M1343,-845.43C1343,-836.02 1343,-824.18 1343,-813.42"/>
<polygon fill="#aaaaaa" stroke="#aaaaaa" points="1346.5,-813.44 1343,-803.44 1339.5,-813.44 1346.5,-813.44"/>
</g>
<!-- toml -->
<g id="node14" class="node">
<title>toml</title>
<path fill="#1a1608" stroke="#8a6a2f" d="M1423,-658.75C1423,-658.75 1263,-658.75 1263,-658.75 1257,-658.75 1251,-652.75 1251,-646.75 1251,-646.75 1251,-634.25 1251,-634.25 1251,-628.25 1257,-622.25 1263,-622.25 1263,-622.25 1423,-622.25 1423,-622.25 1429,-622.25 1435,-628.25 1435,-634.25 1435,-634.25 1435,-646.75 1435,-646.75 1435,-652.75 1429,-658.75 1423,-658.75"/>
<text xml:space="preserve" text-anchor="middle" x="1343" y="-645.25" font-family="monospace" font-size="10.00" fill="#e0c896">/etc/greetd/config.toml</text>
<text xml:space="preserve" text-anchor="middle" x="1343" y="-631" font-family="monospace" font-size="10.00" fill="#e0c896">tuigreet &#45;&#45;cmd synos&#45;session</text>
</g>
<!-- greeter_user&#45;&gt;toml -->
<g id="edge9" class="edge">
<title>greeter_user&#45;&gt;toml</title>
<path fill="none" stroke="#aaaaaa" d="M1343,-764.71C1343,-740.98 1343,-698.37 1343,-670.01"/>
<polygon fill="#aaaaaa" stroke="#aaaaaa" points="1346.5,-670.33 1343,-660.33 1339.5,-670.33 1346.5,-670.33"/>
</g>
<!-- pam -->
<g id="node15" class="node">
<title>pam</title>
<path fill="#1a1608" stroke="#8a6a2f" d="M1390,-504.38C1390,-504.38 1296,-504.38 1296,-504.38 1290,-504.38 1284,-498.38 1284,-492.38 1284,-492.38 1284,-480.38 1284,-480.38 1284,-474.38 1290,-468.38 1296,-468.38 1296,-468.38 1390,-468.38 1390,-468.38 1396,-468.38 1402,-474.38 1402,-480.38 1402,-480.38 1402,-492.38 1402,-492.38 1402,-498.38 1396,-504.38 1390,-504.38"/>
<text xml:space="preserve" text-anchor="middle" x="1343" y="-484" font-family="monospace" font-size="10.00" fill="#e0c896">/etc/pam.d/greetd</text>
</g>
<!-- toml&#45;&gt;pam -->
<g id="edge10" class="edge">
<title>toml&#45;&gt;pam</title>
<path fill="none" stroke="#aaaaaa" d="M1343,-621.75C1343,-595.74 1343,-546.97 1343,-515.89"/>
<polygon fill="#aaaaaa" stroke="#aaaaaa" points="1346.5,-516.06 1343,-506.06 1339.5,-516.06 1346.5,-516.06"/>
</g>
<!-- never -->
<g id="node16" class="node">
<title>never</title>
<polygon fill="#1a1608" stroke="#c0392b" points="1396,-374 1284,-374 1284,-323.25 1402,-323.25 1402,-368 1396,-374"/>
<polyline fill="none" stroke="#c0392b" points="1396,-374 1396,-368"/>
<polyline fill="none" stroke="#c0392b" points="1402,-368 1396,-368"/>
<text xml:space="preserve" text-anchor="middle" x="1343" y="-360.5" font-family="monospace" font-size="10.00" fill="#e0c896">never called from</text>
<text xml:space="preserve" text-anchor="middle" x="1343" y="-346.25" font-family="monospace" font-size="10.00" fill="#e0c896">syn&#45;stage1.zsh</text>
<text xml:space="preserve" text-anchor="middle" x="1343" y="-332" font-family="monospace" font-size="10.00" fill="#e0c896">deleted, unused</text>
</g>
<!-- pam&#45;&gt;never -->
<g id="edge11" class="edge">
<title>pam&#45;&gt;never</title>
<path fill="none" stroke="#aaaaaa" d="M1343,-467.91C1343,-447.2 1343,-412.14 1343,-385.56"/>
<polygon fill="#aaaaaa" stroke="#aaaaaa" points="1346.5,-385.9 1343,-375.9 1339.5,-385.9 1346.5,-385.9"/>
</g>
<!-- prompt -->
<g id="node18" class="node">
<title>prompt</title>
<ellipse fill="#400101" stroke="#800000" cx="792" cy="-268.25" rx="97.95" ry="18"/>
<text xml:space="preserve" text-anchor="middle" x="792" y="-265.88" font-family="monospace" font-size="10.00" fill="white">zsh prompt (root, tty1)</text>
</g>
<!-- autologin&#45;&gt;prompt -->
<g id="edge12" class="edge">
<title>autologin&#45;&gt;prompt</title>
<path fill="none" stroke="#aaaaaa" d="M792,-330.23C792,-320.79 792,-308.89 792,-298.1"/>
<polygon fill="#aaaaaa" stroke="#aaaaaa" points="795.5,-298.11 792,-288.11 788.5,-298.11 795.5,-298.11"/>
</g>
<!-- alias_run -->
<g id="node19" class="node">
<title>alias_run</title>
<ellipse fill="#400101" stroke="#800000" cx="792" cy="-195.25" rx="75.05" ry="18"/>
<text xml:space="preserve" text-anchor="middle" x="792" y="-192.88" font-family="monospace" font-size="10.00" fill="white">user types: synos</text>
</g>
<!-- prompt&#45;&gt;alias_run -->
<g id="edge13" class="edge">
<title>prompt&#45;&gt;alias_run</title>
<path fill="none" stroke="#aaaaaa" d="M792,-250.06C792,-242.48 792,-233.35 792,-224.79"/>
<polygon fill="#aaaaaa" stroke="#aaaaaa" points="795.5,-224.79 792,-214.79 788.5,-224.79 795.5,-224.79"/>
</g>
<!-- alias_def -->
<g id="node20" class="node">
<title>alias_def</title>
<polygon fill="#260101" stroke="#800000" points="902,-140.25 676,-140.25 676,-89.5 908,-89.5 908,-134.25 902,-140.25"/>
<polyline fill="none" stroke="#800000" points="902,-140.25 902,-134.25"/>
<polyline fill="none" stroke="#800000" points="908,-134.25 902,-134.25"/>
<text xml:space="preserve" text-anchor="middle" x="792" y="-126.75" font-family="monospace" font-size="10.00" fill="white">alias synos=</text>
<text xml:space="preserve" text-anchor="middle" x="792" y="-112.5" font-family="monospace" font-size="10.00" fill="white">&quot;dbus&#45;run&#45;session &#45;&#45;</text>
<text xml:space="preserve" text-anchor="middle" x="792" y="-98.25" font-family="monospace" font-size="10.00" fill="white"> env XDG_SESSION_TYPE=wayland labwc&quot;</text>
</g>
<!-- alias_run&#45;&gt;alias_def -->
<g id="edge14" class="edge">
<title>alias_run&#45;&gt;alias_def</title>
<path fill="none" stroke="#aaaaaa" d="M792,-176.86C792,-169.54 792,-160.74 792,-152.12"/>
<polygon fill="#aaaaaa" stroke="#aaaaaa" points="795.5,-152.17 792,-142.17 788.5,-152.17 795.5,-152.17"/>
</g>
<!-- labwc -->
<g id="node21" class="node">
<title>labwc</title>
<path fill="#2c0101" stroke="#800000" d="M866,-52.5C866,-52.5 718,-52.5 718,-52.5 712,-52.5 706,-46.5 706,-40.5 706,-40.5 706,-28 706,-28 706,-22 712,-16 718,-16 718,-16 866,-16 866,-16 872,-16 878,-22 878,-28 878,-28 878,-40.5 878,-40.5 878,-46.5 872,-52.5 866,-52.5"/>
<text xml:space="preserve" text-anchor="middle" x="792" y="-39" font-family="monospace" font-size="10.00" fill="white">labwc (Wayland compositor)</text>
<text xml:space="preserve" text-anchor="middle" x="792" y="-24.75" font-family="monospace" font-size="10.00" fill="white">via D&#45;Bus session</text>
</g>
<!-- alias_def&#45;&gt;labwc -->
<g id="edge15" class="edge">
<title>alias_def&#45;&gt;labwc</title>
<path fill="none" stroke="#aaaaaa" d="M792,-89.43C792,-81.43 792,-72.47 792,-64.18"/>
<polygon fill="#aaaaaa" stroke="#aaaaaa" points="795.5,-64.21 792,-54.21 788.5,-64.21 795.5,-64.21"/>
</g>
<!-- note -->
<g id="node22" class="node">
<title>note</title>
<polygon fill="#1a1608" stroke="#665522" points="1897,-1005.5 1557,-1005.5 1557,-926.25 1903,-926.25 1903,-999.5 1897,-1005.5"/>
<polyline fill="none" stroke="#665522" points="1897,-1005.5 1897,-999.5"/>
<polyline fill="none" stroke="#665522" points="1903,-999.5 1897,-999.5"/>
<text xml:space="preserve" text-anchor="middle" x="1730" y="-992" font-family="monospace" font-size="10.00" fill="#ccaa66">No display manager in any shipped version, either repo.</text>
<text xml:space="preserve" text-anchor="middle" x="1730" y="-977.75" font-family="monospace" font-size="10.00" fill="#ccaa66">greetd/tuigreet was built, functionally complete, and</text>
<text xml:space="preserve" text-anchor="middle" x="1730" y="-963.5" font-family="monospace" font-size="10.00" fill="#ccaa66">abandoned before integration. Fewer moving parts,</text>
<text xml:space="preserve" text-anchor="middle" x="1730" y="-949.25" font-family="monospace" font-size="10.00" fill="#ccaa66">smaller attack surface, at the cost of the desktop</text>
<text xml:space="preserve" text-anchor="middle" x="1730" y="-935" font-family="monospace" font-size="10.00" fill="#ccaa66">not starting automatically.</text>
</g>
</g>
</svg>
