<?xml version="1.0" encoding="UTF-8" standalone="no"?>
<!DOCTYPE svg PUBLIC "-//W3C//DTD SVG 1.1//EN"
 "http://www.w3.org/Graphics/SVG/1.1/DTD/svg11.dtd">
<!-- Generated by graphviz version 15.1.0 (0)
 -->
<!-- Title: scope_growth Pages: 1 -->
<svg width="960pt" height="392pt"
 viewBox="0.00 0.00 960.00 392.00" xmlns="http://www.w3.org/2000/svg" xmlns:xlink="http://www.w3.org/1999/xlink">
<g id="graph0" class="graph" transform="scale(1 1) rotate(0) translate(4 387.75)">
<title>scope_growth</title>
<polygon fill="#000000" stroke="none" points="-4,4 -4,-387.75 955.75,-387.75 955.75,4 -4,4"/>
<g id="clust1" class="cluster">
<title>cluster_2021</title>
<path fill="#0a0a0a" stroke="#444444" d="M12,-23C12,-23 350.5,-23 350.5,-23 356.5,-23 362.5,-29 362.5,-35 362.5,-35 362.5,-270 362.5,-270 362.5,-276 356.5,-282 350.5,-282 350.5,-282 12,-282 12,-282 6,-282 0,-276 0,-270 0,-270 0,-35 0,-35 0,-29 6,-23 12,-23"/>
<text xml:space="preserve" text-anchor="middle" x="181.25" y="-264.7" font-family="monospace" font-size="14.00" fill="white">2021&#45;03&#45;02 &#160;syn&#45;installer0.sh &#160;— &#160;32 lines</text>
</g>
<g id="clust2" class="cluster">
<title>cluster_2026</title>
<path fill="#0a0a0a" stroke="#444444" d="M444.5,-8C444.5,-8 939.75,-8 939.75,-8 945.75,-8 951.75,-14 951.75,-20 951.75,-20 951.75,-283 951.75,-283 951.75,-289 945.75,-295 939.75,-295 939.75,-295 444.5,-295 444.5,-295 438.5,-295 432.5,-289 432.5,-283 432.5,-283 432.5,-20 432.5,-20 432.5,-14 438.5,-8 444.5,-8"/>
<text xml:space="preserve" text-anchor="middle" x="692.12" y="-277.7" font-family="monospace" font-size="14.00" fill="white">2026 &#160;syn&#45;stage0/1/config/partition/volume.zsh &#160;— &#160;~540 lines</text>
</g>
<!-- disk21 -->
<g id="node1" class="node">
<title>disk21</title>
<path fill="#2c0101" stroke="#800000" d="M239.75,-246.25C239.75,-246.25 121.75,-246.25 121.75,-246.25 115.75,-246.25 109.75,-240.25 109.75,-234.25 109.75,-234.25 109.75,-221.75 109.75,-221.75 109.75,-215.75 115.75,-209.75 121.75,-209.75 121.75,-209.75 239.75,-209.75 239.75,-209.75 245.75,-209.75 251.75,-215.75 251.75,-221.75 251.75,-221.75 251.75,-234.25 251.75,-234.25 251.75,-240.25 245.75,-246.25 239.75,-246.25"/>
<text xml:space="preserve" text-anchor="middle" x="180.75" y="-232.75" font-family="monospace" font-size="10.00" fill="white">1 disk</text>
<text xml:space="preserve" text-anchor="middle" x="180.75" y="-218.5" font-family="monospace" font-size="10.00" fill="white">(/dev/sda, hardcoded)</text>
</g>
<!-- disk26 -->
<g id="node5" class="node">
<title>disk26</title>
<path fill="#2c0101" stroke="#800000" d="M747.62,-259.25C747.62,-259.25 635.62,-259.25 635.62,-259.25 629.62,-259.25 623.62,-253.25 623.62,-247.25 623.62,-247.25 623.62,-234.75 623.62,-234.75 623.62,-228.75 629.62,-222.75 635.62,-222.75 635.62,-222.75 747.62,-222.75 747.62,-222.75 753.62,-222.75 759.62,-228.75 759.62,-234.75 759.62,-234.75 759.62,-247.25 759.62,-247.25 759.62,-253.25 753.62,-259.25 747.62,-259.25"/>
<text xml:space="preserve" text-anchor="middle" x="691.62" y="-245.75" font-family="monospace" font-size="10.00" fill="white">firmware auto&#45;detect</text>
<text xml:space="preserve" text-anchor="middle" x="691.62" y="-231.5" font-family="monospace" font-size="10.00" fill="white">+ mismatch guard</text>
</g>
<!-- disk21&#45;&gt;disk26 -->
<g id="edge1" class="edge">
<title>disk21&#45;&gt;disk26</title>
<path fill="none" stroke="#d84a3f" d="M252.24,-229.8C346.6,-232.21 513.48,-236.47 611.87,-238.99"/>
<polygon fill="#d84a3f" stroke="#d84a3f" points="611.63,-242.48 621.71,-239.24 611.81,-235.49 611.63,-242.48"/>
<text xml:space="preserve" text-anchor="middle" x="401.5" y="-251.06" font-family="monospace" font-size="9.00" fill="#d84a3f"> &#160;scope</text>
<text xml:space="preserve" text-anchor="middle" x="401.5" y="-238.31" font-family="monospace" font-size="9.00" fill="#d84a3f"> &#160;growth</text>
</g>
<!-- fs21 -->
<g id="node2" class="node">
<title>fs21</title>
<path fill="#2c0101" stroke="#800000" d="M245.75,-191.25C245.75,-191.25 115.75,-191.25 115.75,-191.25 109.75,-191.25 103.75,-185.25 103.75,-179.25 103.75,-179.25 103.75,-166.75 103.75,-166.75 103.75,-160.75 109.75,-154.75 115.75,-154.75 115.75,-154.75 245.75,-154.75 245.75,-154.75 251.75,-154.75 257.75,-160.75 257.75,-166.75 257.75,-166.75 257.75,-179.25 257.75,-179.25 257.75,-185.25 251.75,-191.25 245.75,-191.25"/>
<text xml:space="preserve" text-anchor="middle" x="180.75" y="-177.75" font-family="monospace" font-size="10.00" fill="white">1 filesystem pairing</text>
<text xml:space="preserve" text-anchor="middle" x="180.75" y="-163.5" font-family="monospace" font-size="10.00" fill="white">(fat32 boot, ext4 root)</text>
</g>
<!-- fs26 -->
<g id="node6" class="node">
<title>fs26</title>
<path fill="#2c0101" stroke="#800000" d="M753.62,-204.38C753.62,-204.38 629.62,-204.38 629.62,-204.38 623.62,-204.38 617.62,-198.38 617.62,-192.38 617.62,-192.38 617.62,-165.62 617.62,-165.62 617.62,-159.62 623.62,-153.62 629.62,-153.62 629.62,-153.62 753.62,-153.62 753.62,-153.62 759.62,-153.62 765.62,-159.62 765.62,-165.62 765.62,-165.62 765.62,-192.38 765.62,-192.38 765.62,-198.38 759.62,-204.38 753.62,-204.38"/>
<text xml:space="preserve" text-anchor="middle" x="691.62" y="-190.88" font-family="monospace" font-size="10.00" fill="white">3 partition strategies</text>
<text xml:space="preserve" text-anchor="middle" x="691.62" y="-176.62" font-family="monospace" font-size="10.00" fill="white">4 volume strategies</text>
<text xml:space="preserve" text-anchor="middle" x="691.62" y="-162.38" font-family="monospace" font-size="10.00" fill="white">4 filesystem choices</text>
</g>
<!-- fs21&#45;&gt;fs26 -->
<g id="edge2" class="edge">
<title>fs21&#45;&gt;fs26</title>
<path fill="none" stroke="#d84a3f" d="M258.21,-173.9C351.62,-175 509.15,-176.86 606.09,-178"/>
<polygon fill="#d84a3f" stroke="#d84a3f" points="605.76,-181.5 615.8,-178.12 605.84,-174.5 605.76,-181.5"/>
<text xml:space="preserve" text-anchor="middle" x="401.5" y="-192.77" font-family="monospace" font-size="9.00" fill="#d84a3f"> &#160;scope</text>
<text xml:space="preserve" text-anchor="middle" x="401.5" y="-180.02" font-family="monospace" font-size="9.00" fill="#d84a3f"> &#160;growth</text>
</g>
<!-- pkg21 -->
<g id="node3" class="node">
<title>pkg21</title>
<path fill="#2c0101" stroke="#800000" d="M248.75,-136.25C248.75,-136.25 112.75,-136.25 112.75,-136.25 106.75,-136.25 100.75,-130.25 100.75,-124.25 100.75,-124.25 100.75,-111.75 100.75,-111.75 100.75,-105.75 106.75,-99.75 112.75,-99.75 112.75,-99.75 248.75,-99.75 248.75,-99.75 254.75,-99.75 260.75,-105.75 260.75,-111.75 260.75,-111.75 260.75,-124.25 260.75,-124.25 260.75,-130.25 254.75,-136.25 248.75,-136.25"/>
<text xml:space="preserve" text-anchor="middle" x="180.75" y="-122.75" font-family="monospace" font-size="10.00" fill="white">1 inline pacstrap line</text>
<text xml:space="preserve" text-anchor="middle" x="180.75" y="-108.5" font-family="monospace" font-size="10.00" fill="white">no arrays, no categories</text>
</g>
<!-- pkg26 -->
<g id="node7" class="node">
<title>pkg26</title>
<path fill="#2c0101" stroke="#800000" d="M750.62,-135.38C750.62,-135.38 632.62,-135.38 632.62,-135.38 626.62,-135.38 620.62,-129.38 620.62,-123.38 620.62,-123.38 620.62,-96.62 620.62,-96.62 620.62,-90.62 626.62,-84.62 632.62,-84.62 632.62,-84.62 750.62,-84.62 750.62,-84.62 756.62,-84.62 762.62,-90.62 762.62,-96.62 762.62,-96.62 762.62,-123.38 762.62,-123.38 762.62,-129.38 756.62,-135.38 750.62,-135.38"/>
<text xml:space="preserve" text-anchor="middle" x="691.62" y="-121.88" font-family="monospace" font-size="10.00" fill="white">7 categorised arrays</text>
<text xml:space="preserve" text-anchor="middle" x="691.62" y="-107.62" font-family="monospace" font-size="10.00" fill="white">(baseCore..appsMedia)</text>
<text xml:space="preserve" text-anchor="middle" x="691.62" y="-93.38" font-family="monospace" font-size="10.00" fill="white">+ inline comments</text>
</g>
<!-- pkg21&#45;&gt;pkg26 -->
<g id="edge3" class="edge">
<title>pkg21&#45;&gt;pkg26</title>
<path fill="none" stroke="#d84a3f" d="M260.98,-116.75C355.61,-115.27 513.08,-112.79 608.82,-111.29"/>
<polygon fill="#d84a3f" stroke="#d84a3f" points="608.73,-114.79 618.67,-111.13 608.62,-107.79 608.73,-114.79"/>
<text xml:space="preserve" text-anchor="middle" x="401.5" y="-131.78" font-family="monospace" font-size="9.00" fill="#d84a3f"> &#160;scope</text>
<text xml:space="preserve" text-anchor="middle" x="401.5" y="-119.03" font-family="monospace" font-size="9.00" fill="#d84a3f"> &#160;growth</text>
</g>
<!-- enc21 -->
<g id="node4" class="node">
<title>enc21</title>
<path fill="#2c0101" stroke="#800000" d="M239.75,-81.38C239.75,-81.38 121.75,-81.38 121.75,-81.38 115.75,-81.38 109.75,-75.38 109.75,-69.38 109.75,-69.38 109.75,-42.62 109.75,-42.62 109.75,-36.62 115.75,-30.62 121.75,-30.62 121.75,-30.62 239.75,-30.62 239.75,-30.62 245.75,-30.62 251.75,-36.62 251.75,-42.62 251.75,-42.62 251.75,-69.38 251.75,-69.38 251.75,-75.38 245.75,-81.38 239.75,-81.38"/>
<text xml:space="preserve" text-anchor="middle" x="180.75" y="-67.88" font-family="monospace" font-size="10.00" fill="white">no encryption</text>
<text xml:space="preserve" text-anchor="middle" x="180.75" y="-53.62" font-family="monospace" font-size="10.00" fill="white">no LVM</text>
<text xml:space="preserve" text-anchor="middle" x="180.75" y="-39.38" font-family="monospace" font-size="10.00" fill="white">no firmware branching</text>
</g>
<!-- enc26 -->
<g id="node8" class="node">
<title>enc26</title>
<path fill="#2c0101" stroke="#800000" d="M762.62,-66.38C762.62,-66.38 620.62,-66.38 620.62,-66.38 614.62,-66.38 608.62,-60.38 608.62,-54.38 608.62,-54.38 608.62,-27.62 608.62,-27.62 608.62,-21.62 614.62,-15.62 620.62,-15.62 620.62,-15.62 762.62,-15.62 762.62,-15.62 768.62,-15.62 774.62,-21.62 774.62,-27.62 774.62,-27.62 774.62,-54.38 774.62,-54.38 774.62,-60.38 768.62,-66.38 762.62,-66.38"/>
<text xml:space="preserve" text-anchor="middle" x="691.62" y="-52.88" font-family="monospace" font-size="10.00" fill="white">LUKS2 + LVM,</text>
<text xml:space="preserve" text-anchor="middle" x="691.62" y="-38.62" font-family="monospace" font-size="10.00" fill="white">independent yes/no flags,</text>
<text xml:space="preserve" text-anchor="middle" x="691.62" y="-24.38" font-family="monospace" font-size="10.00" fill="white">validated combinations</text>
</g>
<!-- enc21&#45;&gt;enc26 -->
<g id="edge4" class="edge">
<title>enc21&#45;&gt;enc26</title>
<path fill="none" stroke="#d84a3f" d="M252.24,-53.92C341.97,-51.28 497.26,-46.7 596.9,-43.76"/>
<polygon fill="#d84a3f" stroke="#d84a3f" points="596.76,-47.27 606.65,-43.48 596.55,-40.27 596.76,-47.27"/>
<text xml:space="preserve" text-anchor="middle" x="401.5" y="-67.01" font-family="monospace" font-size="9.00" fill="#d84a3f"> &#160;scope</text>
<text xml:space="preserve" text-anchor="middle" x="401.5" y="-54.26" font-family="monospace" font-size="9.00" fill="#d84a3f"> &#160;growth</text>
</g>
<!-- note -->
<g id="node9" class="node">
<title>note</title>
<polygon fill="#1a1608" stroke="#665522" points="302.75,-383.75 52.75,-383.75 52.75,-290.25 308.75,-290.25 308.75,-377.75 302.75,-383.75"/>
<polyline fill="none" stroke="#665522" points="302.75,-383.75 302.75,-377.75"/>
<polyline fill="none" stroke="#665522" points="308.75,-377.75 302.75,-377.75"/>
<text xml:space="preserve" text-anchor="middle" x="180.75" y="-370.25" font-family="monospace" font-size="10.00" fill="#ccaa66">Every added line corresponds to a</text>
<text xml:space="preserve" text-anchor="middle" x="180.75" y="-356" font-family="monospace" font-size="10.00" fill="#ccaa66">capability that did not exist in 2021 —</text>
<text xml:space="preserve" text-anchor="middle" x="180.75" y="-341.75" font-family="monospace" font-size="10.00" fill="#ccaa66">none of it is framework tax or unused</text>
<text xml:space="preserve" text-anchor="middle" x="180.75" y="-327.5" font-family="monospace" font-size="10.00" fill="#ccaa66">abstraction. 2026&#39;s oh&#45;my&#45;zsh&#45;equivalent</text>
<text xml:space="preserve" text-anchor="middle" x="180.75" y="-313.25" font-family="monospace" font-size="10.00" fill="#ccaa66">(vendored, mostly&#45;unused bulk) was</text>
<text xml:space="preserve" text-anchor="middle" x="180.75" y="-299" font-family="monospace" font-size="10.00" fill="#ccaa66">deleted, not added. Larger, not heavier.</text>
</g>
</g>
</svg>
