<?xml version="1.0" encoding="UTF-8" standalone="no"?>
<!DOCTYPE svg PUBLIC "-//W3C//DTD SVG 1.1//EN"
 "http://www.w3.org/Graphics/SVG/1.1/DTD/svg11.dtd">
<!-- Generated by graphviz version 15.1.0 (0)
 -->
<!-- Title: shell_env Pages: 1 -->
<svg width="818pt" height="396pt"
 viewBox="0.00 0.00 818.00 396.00" xmlns="http://www.w3.org/2000/svg" xmlns:xlink="http://www.w3.org/1999/xlink">
<g id="graph0" class="graph" transform="scale(1 1) rotate(0) translate(4 391.62)">
<title>shell_env</title>
<polygon fill="#000000" stroke="none" points="-4,4 -4,-391.62 813.75,-391.62 813.75,4 -4,4"/>
<g id="clust1" class="cluster">
<title>cluster_old</title>
<path fill="#0a0a0a" stroke="#444444" d="M129,-8C129,-8 789.75,-8 789.75,-8 795.75,-8 801.75,-14 801.75,-20 801.75,-20 801.75,-131 801.75,-131 801.75,-137 795.75,-143 789.75,-143 789.75,-143 129,-143 129,-143 123,-143 117,-137 117,-131 117,-131 117,-20 117,-20 117,-14 123,-8 129,-8"/>
<text xml:space="preserve" text-anchor="middle" x="459.38" y="-125.7" font-family="monospace" font-size="14.00" fill="white">SYN&#45;RTOS 2021&#45;04 &#45;&gt; SYN&#45;OS 2026&#45;02&#45;16 (deleted 92b5926)</text>
</g>
<g id="clust2" class="cluster">
<title>cluster_new</title>
<path fill="#0a0a0a" stroke="#444444" d="M79,-151C79,-151 592.75,-151 592.75,-151 598.75,-151 604.75,-157 604.75,-163 604.75,-163 604.75,-288 604.75,-288 604.75,-294 598.75,-300 592.75,-300 592.75,-300 79,-300 79,-300 73,-300 67,-294 67,-288 67,-288 67,-163 67,-163 67,-157 73,-151 79,-151"/>
<text xml:space="preserve" text-anchor="middle" x="335.88" y="-282.7" font-family="monospace" font-size="14.00" fill="white">2026&#45;02&#45;16 &#45;&gt; present</text>
</g>
<!-- zshrc_old -->
<g id="node1" class="node">
<title>zshrc_old</title>
<polygon fill="#260101" stroke="#800000" points="173,-80 125,-80 125,-44 179,-44 179,-74 173,-80"/>
<polyline fill="none" stroke="#800000" points="173,-80 173,-74"/>
<polyline fill="none" stroke="#800000" points="179,-74 173,-74"/>
<text xml:space="preserve" text-anchor="middle" x="152" y="-59.62" font-family="monospace" font-size="10.00" fill="white">.zshrc</text>
</g>
<!-- omz -->
<g id="node2" class="node">
<title>omz</title>
<path fill="#2c0101" stroke="#800000" d="M602.75,-80.25C602.75,-80.25 430.75,-80.25 430.75,-80.25 424.75,-80.25 418.75,-74.25 418.75,-68.25 418.75,-68.25 418.75,-55.75 418.75,-55.75 418.75,-49.75 424.75,-43.75 430.75,-43.75 430.75,-43.75 602.75,-43.75 602.75,-43.75 608.75,-43.75 614.75,-49.75 614.75,-55.75 614.75,-55.75 614.75,-68.25 614.75,-68.25 614.75,-74.25 608.75,-80.25 602.75,-80.25"/>
<text xml:space="preserve" text-anchor="middle" x="516.75" y="-66.75" font-family="monospace" font-size="10.00" fill="white">source .oh&#45;my&#45;zsh/oh&#45;my&#45;zsh.sh</text>
<text xml:space="preserve" text-anchor="middle" x="516.75" y="-52.5" font-family="monospace" font-size="10.00" fill="white">(vendored, committed in repo)</text>
</g>
<!-- zshrc_old&#45;&gt;omz -->
<g id="edge1" class="edge">
<title>zshrc_old&#45;&gt;omz</title>
<path fill="none" stroke="#aaaaaa" d="M179.38,-62C226.54,-62 327.79,-62 406.94,-62"/>
<polygon fill="#aaaaaa" stroke="#aaaaaa" points="406.94,-65.5 416.94,-62 406.94,-58.5 406.94,-65.5"/>
</g>
<!-- lib -->
<g id="node3" class="node">
<title>lib</title>
<path fill="#2c0101" stroke="#800000" d="M751.75,-52.25C751.75,-52.25 693.75,-52.25 693.75,-52.25 687.75,-52.25 681.75,-46.25 681.75,-40.25 681.75,-40.25 681.75,-27.75 681.75,-27.75 681.75,-21.75 687.75,-15.75 693.75,-15.75 693.75,-15.75 751.75,-15.75 751.75,-15.75 757.75,-15.75 763.75,-21.75 763.75,-27.75 763.75,-27.75 763.75,-40.25 763.75,-40.25 763.75,-46.25 757.75,-52.25 751.75,-52.25"/>
<text xml:space="preserve" text-anchor="middle" x="722.75" y="-38.75" font-family="monospace" font-size="10.00" fill="white">lib/*.zsh</text>
<text xml:space="preserve" text-anchor="middle" x="722.75" y="-24.5" font-family="monospace" font-size="10.00" fill="white">(~20 files)</text>
</g>
<!-- omz&#45;&gt;lib -->
<g id="edge2" class="edge">
<title>omz&#45;&gt;lib</title>
<path fill="none" stroke="#aaaaaa" d="M614.97,-48.66C634.06,-46.04 653.38,-43.38 670.24,-41.07"/>
<polygon fill="#aaaaaa" stroke="#aaaaaa" points="670.55,-44.56 679.98,-39.73 669.6,-37.62 670.55,-44.56"/>
</g>
<!-- plugins -->
<g id="node4" class="node">
<title>plugins</title>
<path fill="#2c0101" stroke="#800000" d="M781.75,-107.25C781.75,-107.25 663.75,-107.25 663.75,-107.25 657.75,-107.25 651.75,-101.25 651.75,-95.25 651.75,-95.25 651.75,-82.75 651.75,-82.75 651.75,-76.75 657.75,-70.75 663.75,-70.75 663.75,-70.75 781.75,-70.75 781.75,-70.75 787.75,-70.75 793.75,-76.75 793.75,-82.75 793.75,-82.75 793.75,-95.25 793.75,-95.25 793.75,-101.25 787.75,-107.25 781.75,-107.25"/>
<text xml:space="preserve" text-anchor="middle" x="722.75" y="-93.75" font-family="monospace" font-size="10.00" fill="white">plugins/</text>
<text xml:space="preserve" text-anchor="middle" x="722.75" y="-79.5" font-family="monospace" font-size="10.00" fill="white">(dozens, most unused)</text>
</g>
<!-- omz&#45;&gt;plugins -->
<g id="edge3" class="edge">
<title>omz&#45;&gt;plugins</title>
<path fill="none" stroke="#aaaaaa" d="M614.97,-74.87C623.44,-75.99 631.95,-77.11 640.27,-78.22"/>
<polygon fill="#aaaaaa" stroke="#aaaaaa" points="639.6,-81.66 649.97,-79.5 640.52,-74.72 639.6,-81.66"/>
</g>
<!-- zshrc_new -->
<g id="node5" class="node">
<title>zshrc_new</title>
<polygon fill="#260101" stroke="#800000" points="223,-216.25 75,-216.25 75,-179.75 229,-179.75 229,-210.25 223,-216.25"/>
<polyline fill="none" stroke="#800000" points="223,-216.25 223,-210.25"/>
<polyline fill="none" stroke="#800000" points="229,-210.25 223,-210.25"/>
<text xml:space="preserve" text-anchor="middle" x="152" y="-202.75" font-family="monospace" font-size="10.00" fill="white">.zshrc</text>
<text xml:space="preserve" text-anchor="middle" x="152" y="-188.5" font-family="monospace" font-size="10.00" fill="white">157 lines, hand&#45;written</text>
</g>
<!-- compinit -->
<g id="node6" class="node">
<title>compinit</title>
<path fill="#2c0101" stroke="#800000" d="M575.75,-195.25C575.75,-195.25 457.75,-195.25 457.75,-195.25 451.75,-195.25 445.75,-189.25 445.75,-183.25 445.75,-183.25 445.75,-170.75 445.75,-170.75 445.75,-164.75 451.75,-158.75 457.75,-158.75 457.75,-158.75 575.75,-158.75 575.75,-158.75 581.75,-158.75 587.75,-164.75 587.75,-170.75 587.75,-170.75 587.75,-183.25 587.75,-183.25 587.75,-189.25 581.75,-195.25 575.75,-195.25"/>
<text xml:space="preserve" text-anchor="middle" x="516.75" y="-181.75" font-family="monospace" font-size="10.00" fill="white">compinit + zstyle</text>
<text xml:space="preserve" text-anchor="middle" x="516.75" y="-167.5" font-family="monospace" font-size="10.00" fill="white">(native zsh builtins)</text>
</g>
<!-- zshrc_new&#45;&gt;compinit -->
<g id="edge4" class="edge">
<title>zshrc_new&#45;&gt;compinit</title>
<path fill="none" stroke="#aaaaaa" d="M229.49,-193.57C289.56,-190.09 373.03,-185.26 434.34,-181.71"/>
<polygon fill="#aaaaaa" stroke="#aaaaaa" points="434.22,-185.23 444,-181.15 433.82,-178.24 434.22,-185.23"/>
</g>
<!-- pacman_plugins -->
<g id="node7" class="node">
<title>pacman_plugins</title>
<path fill="#2c0101" stroke="#800000" d="M584.75,-264.38C584.75,-264.38 448.75,-264.38 448.75,-264.38 442.75,-264.38 436.75,-258.38 436.75,-252.38 436.75,-252.38 436.75,-225.62 436.75,-225.62 436.75,-219.62 442.75,-213.62 448.75,-213.62 448.75,-213.62 584.75,-213.62 584.75,-213.62 590.75,-213.62 596.75,-219.62 596.75,-225.62 596.75,-225.62 596.75,-252.38 596.75,-252.38 596.75,-258.38 590.75,-264.38 584.75,-264.38"/>
<text xml:space="preserve" text-anchor="middle" x="516.75" y="-250.88" font-family="monospace" font-size="10.00" fill="white">/usr/share/zsh/plugins/*</text>
<text xml:space="preserve" text-anchor="middle" x="516.75" y="-236.62" font-family="monospace" font-size="10.00" fill="white">installed by pacman,</text>
<text xml:space="preserve" text-anchor="middle" x="516.75" y="-222.38" font-family="monospace" font-size="10.00" fill="white">not vendored</text>
</g>
<!-- zshrc_new&#45;&gt;pacman_plugins -->
<g id="edge5" class="edge">
<title>zshrc_new&#45;&gt;pacman_plugins</title>
<path fill="none" stroke="#aaaaaa" d="M229.49,-206.64C286.61,-213.1 364.87,-221.95 425.13,-228.76"/>
<polygon fill="#aaaaaa" stroke="#aaaaaa" points="424.71,-232.23 435.04,-229.88 425.5,-225.28 424.71,-232.23"/>
<text xml:space="preserve" text-anchor="middle" x="361.38" y="-242.69" font-family="monospace" font-size="9.00" fill="white">source, guarded</text>
<text xml:space="preserve" text-anchor="middle" x="361.38" y="-229.94" font-family="monospace" font-size="9.00" fill="white">by [[ &#45;r ... ]]</text>
</g>
<!-- note -->
<g id="node8" class="node">
<title>note</title>
<polygon fill="#1a1608" stroke="#665522" points="298,-387.62 0,-387.62 0,-308.38 304,-308.38 304,-381.62 298,-387.62"/>
<polyline fill="none" stroke="#665522" points="298,-387.62 298,-381.62"/>
<polyline fill="none" stroke="#665522" points="304,-381.62 298,-381.62"/>
<text xml:space="preserve" text-anchor="middle" x="152" y="-374.12" font-family="monospace" font-size="10.00" fill="#ccaa66">Same functional result (autosuggestions, syntax</text>
<text xml:space="preserve" text-anchor="middle" x="152" y="-359.88" font-family="monospace" font-size="10.00" fill="#ccaa66">highlighting, fuzzy search) — delivery mechanism</text>
<text xml:space="preserve" text-anchor="middle" x="152" y="-345.62" font-family="monospace" font-size="10.00" fill="#ccaa66">changed from &#39;vendor a framework, enable its</text>
<text xml:space="preserve" text-anchor="middle" x="152" y="-331.38" font-family="monospace" font-size="10.00" fill="#ccaa66">plugin system&#39; to &#39;pacman&#45;install individual</text>
<text xml:space="preserve" text-anchor="middle" x="152" y="-317.12" font-family="monospace" font-size="10.00" fill="#ccaa66">plugins, wire them in by hand in one file.&#39;</text>
</g>
</g>
</svg>
