<?xml version="1.0" encoding="UTF-8" standalone="no"?>
<!DOCTYPE svg PUBLIC "-//W3C//DTD SVG 1.1//EN"
 "http://www.w3.org/Graphics/SVG/1.1/DTD/svg11.dtd">
<!-- Generated by graphviz version 15.1.0 (0)
 -->
<!-- Title: package_map Pages: 1 -->
<svg width="778pt" height="800pt"
 viewBox="0.00 0.00 778.00 800.00" xmlns="http://www.w3.org/2000/svg" xmlns:xlink="http://www.w3.org/1999/xlink">
<g id="graph0" class="graph" transform="scale(1 1) rotate(0) translate(4 795.88)">
<title>package_map</title>
<polygon fill="#000000" stroke="none" points="-4,4 -4,-795.88 773.72,-795.88 773.72,4 -4,4"/>
<text xml:space="preserve" text-anchor="middle" x="384.86" y="-774.58" font-family="monospace" font-size="14.00" fill="#e8b4b4">The 81&#45;package SYNSTALL, by category and what each depends on</text>
<g id="clust1" class="cluster">
<title>cluster_base</title>
<path fill="#0a0a0a" stroke="#444444" d="M20.75,-573C20.75,-573 260.25,-573 260.25,-573 266.25,-573 272.25,-579 272.25,-585 272.25,-585 272.25,-694 272.25,-694 272.25,-700 266.25,-706 260.25,-706 260.25,-706 20.75,-706 20.75,-706 14.75,-706 8.75,-700 8.75,-694 8.75,-694 8.75,-585 8.75,-585 8.75,-579 14.75,-573 20.75,-573"/>
<text xml:space="preserve" text-anchor="middle" x="140.5" y="-688.7" font-family="monospace" font-size="14.00" fill="white">baseCore, 18</text>
<text xml:space="preserve" text-anchor="middle" x="140.5" y="-669.2" font-family="monospace" font-size="14.00" fill="white">installed on every machine</text>
<text xml:space="preserve" text-anchor="middle" x="140.5" y="-649.7" font-family="monospace" font-size="14.00" fill="white">regardless of storage strategy</text>
</g>
<g id="clust2" class="cluster">
<title>cluster_net</title>
<path fill="#0a0a0a" stroke="#444444" d="M457.12,-352C457.12,-352 589.38,-352 589.38,-352 595.38,-352 601.38,-358 601.38,-364 601.38,-364 601.38,-420 601.38,-420 601.38,-426 595.38,-432 589.38,-432 589.38,-432 457.12,-432 457.12,-432 451.12,-432 445.12,-426 445.12,-420 445.12,-420 445.12,-364 445.12,-364 445.12,-358 451.12,-352 457.12,-352"/>
<text xml:space="preserve" text-anchor="middle" x="523.25" y="-414.7" font-family="monospace" font-size="14.00" fill="white">netAndServices, 5</text>
</g>
<g id="clust3" class="cluster">
<title>cluster_shell</title>
<path fill="#0a0a0a" stroke="#444444" d="M57.88,-429C57.88,-429 223.12,-429 223.12,-429 229.12,-429 235.12,-435 235.12,-441 235.12,-441 235.12,-530 235.12,-530 235.12,-536 229.12,-542 223.12,-542 223.12,-542 57.88,-542 57.88,-542 51.88,-542 45.88,-536 45.88,-530 45.88,-530 45.88,-441 45.88,-441 45.88,-435 51.88,-429 57.88,-429"/>
<text xml:space="preserve" text-anchor="middle" x="140.5" y="-524.7" font-family="monospace" font-size="14.00" fill="white">shellAndCLI, 17</text>
<text xml:space="preserve" text-anchor="middle" x="140.5" y="-505.2" font-family="monospace" font-size="14.00" fill="white">feeds .zshrc directly</text>
</g>
<g id="clust4" class="cluster">
<title>cluster_desktop</title>
<path fill="#0a0a0a" stroke="#444444" d="M440.75,-470C440.75,-470 604.75,-470 604.75,-470 610.75,-470 616.75,-476 616.75,-482 616.75,-482 616.75,-587 616.75,-587 616.75,-593 610.75,-599 604.75,-599 604.75,-599 440.75,-599 440.75,-599 434.75,-599 428.75,-593 428.75,-587 428.75,-587 428.75,-482 428.75,-482 428.75,-476 434.75,-470 440.75,-470"/>
<text xml:space="preserve" text-anchor="middle" x="522.75" y="-581.7" font-family="monospace" font-size="14.00" fill="white">desktopStack, 18</text>
<text xml:space="preserve" text-anchor="middle" x="522.75" y="-562.2" font-family="monospace" font-size="14.00" fill="white">the Wayland session</text>
</g>
<g id="clust5" class="cluster">
<title>cluster_dev</title>
<path fill="#0a0a0a" stroke="#444444" d="M453,-231C453,-231 593.5,-231 593.5,-231 599.5,-231 605.5,-237 605.5,-243 605.5,-243 605.5,-332 605.5,-332 605.5,-338 599.5,-344 593.5,-344 593.5,-344 453,-344 453,-344 447,-344 441,-338 441,-332 441,-332 441,-243 441,-243 441,-237 447,-231 453,-231"/>
<text xml:space="preserve" text-anchor="middle" x="523.25" y="-326.7" font-family="monospace" font-size="14.00" fill="white">devToolkit, 8</text>
<text xml:space="preserve" text-anchor="middle" x="523.25" y="-307.2" font-family="monospace" font-size="14.00" fill="white">self&#45;hosting tools</text>
</g>
<g id="clust6" class="cluster">
<title>cluster_fonts</title>
<path fill="#0a0a0a" stroke="#444444" d="M470.75,-129C470.75,-129 574.75,-129 574.75,-129 580.75,-129 586.75,-135 586.75,-141 586.75,-141 586.75,-211 586.75,-211 586.75,-217 580.75,-223 574.75,-223 574.75,-223 470.75,-223 470.75,-223 464.75,-223 458.75,-217 458.75,-211 458.75,-211 458.75,-141 458.75,-141 458.75,-135 464.75,-129 470.75,-129"/>
<text xml:space="preserve" text-anchor="middle" x="522.75" y="-205.7" font-family="monospace" font-size="14.00" fill="white">fontsI18n, 9</text>
</g>
<g id="clust7" class="cluster">
<title>cluster_apps</title>
<path fill="#0a0a0a" stroke="#444444" d="M453,-8C453,-8 593.5,-8 593.5,-8 599.5,-8 605.5,-14 605.5,-20 605.5,-20 605.5,-109 605.5,-109 605.5,-115 599.5,-121 593.5,-121 593.5,-121 453,-121 453,-121 447,-121 441,-115 441,-109 441,-109 441,-20 441,-20 441,-14 447,-8 453,-8"/>
<text xml:space="preserve" text-anchor="middle" x="523.25" y="-103.7" font-family="monospace" font-size="14.00" fill="white">appsMedia, 6</text>
<text xml:space="preserve" text-anchor="middle" x="523.25" y="-84.2" font-family="monospace" font-size="14.00" fill="white">the apps, one game</text>
</g>
<!-- synstall -->
<g id="node1" class="node">
<title>synstall</title>
<ellipse fill="#4a1414" stroke="#d84a3f" stroke-width="2" cx="707.73" cy="-378" rx="57.98" ry="57.98"/>
<ellipse fill="none" stroke="#d84a3f" stroke-width="2" cx="707.73" cy="-378" rx="61.98" ry="61.98"/>
<text xml:space="preserve" text-anchor="middle" x="707.73" y="-382.75" font-family="monospace" font-size="10.00" fill="white">SYNSTALL</text>
<text xml:space="preserve" text-anchor="middle" x="707.73" y="-368.5" font-family="monospace" font-size="10.00" fill="white">81 packages</text>
</g>
<!-- base_ex -->
<g id="node2" class="node">
<title>base_ex</title>
<path fill="#260101" stroke="#800000" d="M187,-631.38C187,-631.38 93,-631.38 93,-631.38 87,-631.38 81,-625.38 81,-619.38 81,-619.38 81,-592.62 81,-592.62 81,-586.62 87,-580.62 93,-580.62 93,-580.62 187,-580.62 187,-580.62 193,-580.62 199,-586.62 199,-592.62 199,-592.62 199,-619.38 199,-619.38 199,-625.38 193,-631.38 187,-631.38"/>
<text xml:space="preserve" text-anchor="middle" x="140" y="-617.88" font-family="monospace" font-size="10.00" fill="white">base, linux,</text>
<text xml:space="preserve" text-anchor="middle" x="140" y="-603.62" font-family="monospace" font-size="10.00" fill="white">cryptsetup, lvm2,</text>
<text xml:space="preserve" text-anchor="middle" x="140" y="-589.38" font-family="monospace" font-size="10.00" fill="white">parted, opendoas</text>
</g>
<!-- base_ex&#45;&gt;synstall -->
<g id="edge1" class="edge">
<title>base_ex&#45;&gt;synstall</title>
<path fill="none" stroke="#aaaaaa" d="M199.4,-624.75C295.66,-651.81 489.64,-689.65 616.75,-603 666.3,-569.22 688.57,-503.3 698.57,-451.51"/>
<polygon fill="#aaaaaa" stroke="#aaaaaa" points="701.99,-452.3 700.32,-441.84 695.1,-451.06 701.99,-452.3"/>
</g>
<!-- desktop_ex -->
<g id="node5" class="node">
<title>desktop_ex</title>
<path fill="#260101" stroke="#800000" d="M596.75,-543.5C596.75,-543.5 448.75,-543.5 448.75,-543.5 442.75,-543.5 436.75,-537.5 436.75,-531.5 436.75,-531.5 436.75,-490.5 436.75,-490.5 436.75,-484.5 442.75,-478.5 448.75,-478.5 448.75,-478.5 596.75,-478.5 596.75,-478.5 602.75,-478.5 608.75,-484.5 608.75,-490.5 608.75,-490.5 608.75,-531.5 608.75,-531.5 608.75,-537.5 602.75,-543.5 596.75,-543.5"/>
<text xml:space="preserve" text-anchor="middle" x="522.75" y="-530" font-family="monospace" font-size="10.00" fill="white">labwc, waybar,</text>
<text xml:space="preserve" text-anchor="middle" x="522.75" y="-515.75" font-family="monospace" font-size="10.00" fill="white">wmenu, swaybg,</text>
<text xml:space="preserve" text-anchor="middle" x="522.75" y="-501.5" font-family="monospace" font-size="10.00" fill="white">superfile, falkon&#45;adjacent</text>
<text xml:space="preserve" text-anchor="middle" x="522.75" y="-487.25" font-family="monospace" font-size="10.00" fill="white">Qt theming</text>
</g>
<!-- base_ex&#45;&gt;desktop_ex -->
<g id="edge8" class="edge">
<title>base_ex&#45;&gt;desktop_ex</title>
<path fill="none" stroke="#665522" stroke-dasharray="1,5" d="M199.45,-590.33C228.96,-582.5 265.34,-572.96 298,-564.75 339.7,-554.26 385.89,-543.09 425.42,-533.67"/>
<polygon fill="#665522" stroke="#665522" points="425.99,-537.13 434.91,-531.41 424.37,-530.32 425.99,-537.13"/>
<text xml:space="preserve" text-anchor="middle" x="358.38" y="-594.45" font-family="monospace" font-size="9.00" fill="white"> &#160;fuse, cryptsetup used</text>
<text xml:space="preserve" text-anchor="middle" x="358.38" y="-581.7" font-family="monospace" font-size="9.00" fill="white"> &#160;by superfile/archiver</text>
<text xml:space="preserve" text-anchor="middle" x="358.38" y="-568.95" font-family="monospace" font-size="9.00" fill="white"> &#160;at runtime</text>
</g>
<!-- net_ex -->
<g id="node3" class="node">
<title>net_ex</title>
<path fill="#260101" stroke="#800000" d="M566.75,-396.25C566.75,-396.25 478.75,-396.25 478.75,-396.25 472.75,-396.25 466.75,-390.25 466.75,-384.25 466.75,-384.25 466.75,-371.75 466.75,-371.75 466.75,-365.75 472.75,-359.75 478.75,-359.75 478.75,-359.75 566.75,-359.75 566.75,-359.75 572.75,-359.75 578.75,-365.75 578.75,-371.75 578.75,-371.75 578.75,-384.25 578.75,-384.25 578.75,-390.25 572.75,-396.25 566.75,-396.25"/>
<text xml:space="preserve" text-anchor="middle" x="522.75" y="-382.75" font-family="monospace" font-size="10.00" fill="white">dhcpcd, iwd,</text>
<text xml:space="preserve" text-anchor="middle" x="522.75" y="-368.5" font-family="monospace" font-size="10.00" fill="white">openvpn, hostapd</text>
</g>
<!-- net_ex&#45;&gt;synstall -->
<g id="edge2" class="edge">
<title>net_ex&#45;&gt;synstall</title>
<path fill="none" stroke="#aaaaaa" d="M579.15,-378C596.23,-378 615.31,-378 633.4,-378"/>
<polygon fill="#aaaaaa" stroke="#aaaaaa" points="633.29,-381.5 643.29,-378 633.29,-374.5 633.29,-381.5"/>
</g>
<!-- shell_ex -->
<g id="node4" class="node">
<title>shell_ex</title>
<path fill="#260101" stroke="#800000" d="M190,-487.38C190,-487.38 90,-487.38 90,-487.38 84,-487.38 78,-481.38 78,-475.38 78,-475.38 78,-448.62 78,-448.62 78,-442.62 84,-436.62 90,-436.62 90,-436.62 190,-436.62 190,-436.62 196,-436.62 202,-442.62 202,-448.62 202,-448.62 202,-475.38 202,-475.38 202,-481.38 196,-487.38 190,-487.38"/>
<text xml:space="preserve" text-anchor="middle" x="140" y="-473.88" font-family="monospace" font-size="10.00" fill="white">zsh, foot, btop,</text>
<text xml:space="preserve" text-anchor="middle" x="140" y="-459.62" font-family="monospace" font-size="10.00" fill="white">ripgrep, bat, fzf,</text>
<text xml:space="preserve" text-anchor="middle" x="140" y="-445.38" font-family="monospace" font-size="10.00" fill="white">zoxide</text>
</g>
<!-- shell_ex&#45;&gt;synstall -->
<g id="edge3" class="edge">
<title>shell_ex&#45;&gt;synstall</title>
<path fill="none" stroke="#aaaaaa" d="M202.47,-462.53C313.17,-462.85 541.51,-460.4 616.75,-436 627.36,-432.56 637.94,-427.55 647.92,-421.89"/>
<polygon fill="#aaaaaa" stroke="#aaaaaa" points="649.59,-424.96 656.38,-416.82 646,-418.95 649.59,-424.96"/>
</g>
<!-- shell_ex&#45;&gt;desktop_ex -->
<g id="edge9" class="edge">
<title>shell_ex&#45;&gt;desktop_ex</title>
<path fill="none" stroke="#665522" stroke-dasharray="1,5" d="M202.17,-469.87C262.33,-477.61 355.09,-489.55 425.2,-498.57"/>
<polygon fill="#665522" stroke="#665522" points="424.39,-502 434.75,-499.8 425.28,-495.06 424.39,-502"/>
<text xml:space="preserve" text-anchor="middle" x="358.38" y="-513.47" font-family="monospace" font-size="9.00" fill="white"> &#160;foot is the terminal</text>
<text xml:space="preserve" text-anchor="middle" x="358.38" y="-500.72" font-family="monospace" font-size="9.00" fill="white"> &#160;labwc&#39;s keybind opens</text>
</g>
<!-- desktop_ex&#45;&gt;synstall -->
<g id="edge4" class="edge">
<title>desktop_ex&#45;&gt;synstall</title>
<path fill="none" stroke="#aaaaaa" d="M605.33,-478.05C613.15,-473.74 620.77,-469.05 627.75,-464 639.4,-455.57 650.66,-445.22 660.84,-434.64"/>
<polygon fill="#aaaaaa" stroke="#aaaaaa" points="663.11,-437.35 667.38,-427.65 657.99,-432.57 663.11,-437.35"/>
</g>
<!-- dev_ex -->
<g id="node6" class="node">
<title>dev_ex</title>
<path fill="#260101" stroke="#800000" d="M560.75,-289.38C560.75,-289.38 484.75,-289.38 484.75,-289.38 478.75,-289.38 472.75,-283.38 472.75,-277.38 472.75,-277.38 472.75,-250.62 472.75,-250.62 472.75,-244.62 478.75,-238.62 484.75,-238.62 484.75,-238.62 560.75,-238.62 560.75,-238.62 566.75,-238.62 572.75,-244.62 572.75,-250.62 572.75,-250.62 572.75,-277.38 572.75,-277.38 572.75,-283.38 566.75,-289.38 560.75,-289.38"/>
<text xml:space="preserve" text-anchor="middle" x="522.75" y="-275.88" font-family="monospace" font-size="10.00" fill="white">gcc, archiso,</text>
<text xml:space="preserve" text-anchor="middle" x="522.75" y="-261.62" font-family="monospace" font-size="10.00" fill="white">android&#45;tools,</text>
<text xml:space="preserve" text-anchor="middle" x="522.75" y="-247.38" font-family="monospace" font-size="10.00" fill="white">binwalk</text>
</g>
<!-- dev_ex&#45;&gt;synstall -->
<g id="edge5" class="edge">
<title>dev_ex&#45;&gt;synstall</title>
<path fill="none" stroke="#aaaaaa" d="M565.27,-289.87C588.75,-304.5 618.56,-323.07 644.76,-339.39"/>
<polygon fill="#aaaaaa" stroke="#aaaaaa" points="642.6,-342.17 652.94,-344.49 646.3,-336.23 642.6,-342.17"/>
</g>
<!-- fonts_ex -->
<g id="node7" class="node">
<title>fonts_ex</title>
<path fill="#260101" stroke="#800000" d="M566.75,-187.38C566.75,-187.38 478.75,-187.38 478.75,-187.38 472.75,-187.38 466.75,-181.38 466.75,-175.38 466.75,-175.38 466.75,-148.62 466.75,-148.62 466.75,-142.62 472.75,-136.62 478.75,-136.62 478.75,-136.62 566.75,-136.62 566.75,-136.62 572.75,-136.62 578.75,-142.62 578.75,-148.62 578.75,-148.62 578.75,-175.38 578.75,-175.38 578.75,-181.38 572.75,-187.38 566.75,-187.38"/>
<text xml:space="preserve" text-anchor="middle" x="522.75" y="-173.88" font-family="monospace" font-size="10.00" fill="white">terminus&#45;font,</text>
<text xml:space="preserve" text-anchor="middle" x="522.75" y="-159.62" font-family="monospace" font-size="10.00" fill="white">noto&#45;fonts&#45;cjk,</text>
<text xml:space="preserve" text-anchor="middle" x="522.75" y="-145.38" font-family="monospace" font-size="10.00" fill="white">nerd&#45;font glyphs</text>
</g>
<!-- fonts_ex&#45;&gt;synstall -->
<g id="edge6" class="edge">
<title>fonts_ex&#45;&gt;synstall</title>
<path fill="none" stroke="#aaaaaa" d="M568.42,-187.67C584.83,-198.46 602.8,-212 616.75,-227 639.79,-251.78 659.76,-283.42 674.98,-311.33"/>
<polygon fill="#aaaaaa" stroke="#aaaaaa" points="671.86,-312.92 679.66,-320.09 678.04,-309.62 671.86,-312.92"/>
</g>
<!-- apps_ex -->
<g id="node8" class="node">
<title>apps_ex</title>
<path fill="#3a1010" stroke="#d84a3f" stroke-width="1.5" d="M581.75,-66.38C581.75,-66.38 463.75,-66.38 463.75,-66.38 457.75,-66.38 451.75,-60.38 451.75,-54.38 451.75,-54.38 451.75,-27.62 451.75,-27.62 451.75,-21.62 457.75,-15.62 463.75,-15.62 463.75,-15.62 581.75,-15.62 581.75,-15.62 587.75,-15.62 593.75,-21.62 593.75,-27.62 593.75,-27.62 593.75,-54.38 593.75,-54.38 593.75,-60.38 587.75,-66.38 581.75,-66.38"/>
<text xml:space="preserve" text-anchor="middle" x="522.75" y="-52.88" font-family="monospace" font-size="10.00" fill="white">vlc, gimp,</text>
<text xml:space="preserve" text-anchor="middle" x="522.75" y="-38.62" font-family="monospace" font-size="10.00" fill="white">falkon, openra</text>
<text xml:space="preserve" text-anchor="middle" x="522.75" y="-24.38" font-family="monospace" font-size="10.00" fill="white">(2022&#45;11&#45;07 &#45;&gt; today)</text>
</g>
<!-- apps_ex&#45;&gt;synstall -->
<g id="edge7" class="edge">
<title>apps_ex&#45;&gt;synstall</title>
<path fill="none" stroke="#aaaaaa" d="M560.48,-67.08C579.48,-82.16 601.76,-102.57 616.75,-125 653.68,-180.28 677.39,-252.48 691.15,-305.6"/>
<polygon fill="#aaaaaa" stroke="#aaaaaa" points="687.72,-306.32 693.56,-315.16 694.51,-304.61 687.72,-306.32"/>
</g>
<!-- note -->
<g id="node9" class="node">
<title>note</title>
<polygon fill="#1a1608" stroke="#665522" points="274,-764.38 0,-764.38 0,-713.62 280,-713.62 280,-758.38 274,-764.38"/>
<polyline fill="none" stroke="#665522" points="274,-764.38 274,-758.38"/>
<polyline fill="none" stroke="#665522" points="280,-758.38 274,-758.38"/>
<text xml:space="preserve" text-anchor="middle" x="140" y="-750.88" font-family="monospace" font-size="10.00" fill="#ccaa66">Sizes roughly proportional to package count.</text>
<text xml:space="preserve" text-anchor="middle" x="140" y="-736.62" font-family="monospace" font-size="10.00" fill="#ccaa66">Categorisation is organisational only, not a</text>
<text xml:space="preserve" text-anchor="middle" x="140" y="-722.38" font-family="monospace" font-size="10.00" fill="#ccaa66">dependency hierarchy pacman enforces.</text>
</g>
</g>
</svg>
