<?xml version="1.0" encoding="UTF-8" standalone="no"?>
<!DOCTYPE svg PUBLIC "-//W3C//DTD SVG 1.1//EN"
 "http://www.w3.org/Graphics/SVG/1.1/DTD/svg11.dtd">
<!-- Generated by graphviz version 15.1.0 (0)
 -->
<!-- Title: dotfile_overlay Pages: 1 -->
<svg width="593pt" height="970pt"
 viewBox="0.00 0.00 593.00 970.00" xmlns="http://www.w3.org/2000/svg" xmlns:xlink="http://www.w3.org/1999/xlink">
<g id="graph0" class="graph" transform="scale(1 1) rotate(0) translate(4 965.85)">
<title>dotfile_overlay</title>
<polygon fill="#000000" stroke="none" points="-4,4 -4,-965.85 589,-965.85 589,4 -4,4"/>
<text xml:space="preserve" text-anchor="middle" x="292.5" y="-944.55" font-family="monospace" font-size="14.00" fill="#ff6666">DotfileOverlay: from repo to a real user&#39;s home directory</text>
<g id="clust1" class="cluster">
<title>cluster_stage0</title>
<path fill="#0a0a0a" stroke="#555555" d="M20,-618.1C20,-618.1 276,-618.1 276,-618.1 282,-618.1 288,-624.1 288,-630.1 288,-630.1 288,-820.85 288,-820.85 288,-826.85 282,-832.85 276,-832.85 276,-832.85 20,-832.85 20,-832.85 14,-832.85 8,-826.85 8,-820.85 8,-820.85 8,-630.1 8,-630.1 8,-624.1 14,-618.1 20,-618.1"/>
<text xml:space="preserve" text-anchor="middle" x="148" y="-815.55" font-family="monospace" font-size="14.00" fill="white">Stage 0, still in the live ISO</text>
<text xml:space="preserve" text-anchor="middle" x="148" y="-796.05" font-family="monospace" font-size="14.00" fill="white">(syn&#45;pacstrap.zsh, pacstrapMain)</text>
</g>
<g id="clust2" class="cluster">
<title>cluster_stage1</title>
<path fill="#0a0a0a" stroke="#555555" d="M274,-431.48C274,-431.48 481,-431.48 481,-431.48 487,-431.48 493,-437.48 493,-443.48 493,-443.48 493,-518.48 493,-518.48 493,-524.48 487,-530.48 481,-530.48 481,-530.48 274,-530.48 274,-530.48 268,-530.48 262,-524.48 262,-518.48 262,-518.48 262,-443.48 262,-443.48 262,-437.48 268,-431.48 274,-431.48"/>
<text xml:space="preserve" text-anchor="middle" x="377.5" y="-513.18" font-family="monospace" font-size="14.00" fill="white">Stage 1, inside the chroot</text>
<text xml:space="preserve" text-anchor="middle" x="377.5" y="-493.68" font-family="monospace" font-size="14.00" fill="white">(syn&#45;stage1.zsh)</text>
</g>
<!-- repo -->
<g id="node1" class="node">
<title>repo</title>
<polygon fill="#330000" stroke="#e00000" points="275,-934.35 73,-934.35 73,-840.85 281,-840.85 281,-928.35 275,-934.35"/>
<polyline fill="none" stroke="#e00000" points="275,-934.35 275,-928.35"/>
<polyline fill="none" stroke="#e00000" points="281,-928.35 275,-928.35"/>
<text xml:space="preserve" text-anchor="middle" x="177" y="-920.85" font-family="monospace" font-size="10.00" fill="white">DotfileOverlay/</text>
<text xml:space="preserve" text-anchor="middle" x="177" y="-906.6" font-family="monospace" font-size="10.00" fill="white">(in this repo)</text>
<text xml:space="preserve" text-anchor="middle" x="177" y="-892.35" font-family="monospace" font-size="10.00" fill="white">etc/skel/..., usr/local/bin/...,</text>
<text xml:space="preserve" text-anchor="middle" x="177" y="-878.1" font-family="monospace" font-size="10.00" fill="white">usr/share/themes/...</text>
<text xml:space="preserve" text-anchor="middle" x="177" y="-863.85" font-family="monospace" font-size="10.00" fill="white">structure already mirrors</text>
<text xml:space="preserve" text-anchor="middle" x="177" y="-849.6" font-family="monospace" font-size="10.00" fill="white">absolute target paths</text>
</g>
<!-- cp -->
<g id="node2" class="node">
<title>cp</title>
<path fill="#1a0000" stroke="#e00000" d="M239,-777.85C239,-777.85 115,-777.85 115,-777.85 109,-777.85 103,-771.85 103,-765.85 103,-765.85 103,-753.35 103,-753.35 103,-747.35 109,-741.35 115,-741.35 115,-741.35 239,-741.35 239,-741.35 245,-741.35 251,-747.35 251,-753.35 251,-753.35 251,-765.85 251,-765.85 251,-771.85 245,-777.85 239,-777.85"/>
<text xml:space="preserve" text-anchor="middle" x="177" y="-764.35" font-family="monospace" font-size="10.00" fill="white">cp &#45;r DotfileOverlay/*</text>
<text xml:space="preserve" text-anchor="middle" x="177" y="-750.1" font-family="monospace" font-size="10.00" fill="white">$RootMountLocation/</text>
</g>
<!-- repo&#45;&gt;cp -->
<g id="edge2" class="edge">
<title>repo&#45;&gt;cp</title>
<path fill="none" stroke="#aaaaaa" d="M177,-840.4C177,-823.33 177,-804.48 177,-789.4"/>
<polygon fill="#aaaaaa" stroke="#aaaaaa" points="180.5,-789.72 177,-779.72 173.5,-789.72 180.5,-789.72"/>
</g>
<!-- chmod -->
<g id="node3" class="node">
<title>chmod</title>
<path fill="#1a0000" stroke="#e00000" d="M267,-705.35C267,-705.35 29,-705.35 29,-705.35 23,-705.35 17,-699.35 17,-693.35 17,-693.35 17,-638.1 17,-638.1 17,-632.1 23,-626.1 29,-626.1 29,-626.1 267,-626.1 267,-626.1 273,-626.1 279,-632.1 279,-638.1 279,-638.1 279,-693.35 279,-693.35 279,-699.35 273,-705.35 267,-705.35"/>
<text xml:space="preserve" text-anchor="middle" x="148" y="-691.85" font-family="monospace" font-size="10.00" fill="white">chmod &#45;R +x on:</text>
<text xml:space="preserve" text-anchor="middle" x="148" y="-677.6" font-family="monospace" font-size="10.00" fill="white">usr/lib/syn&#45;os,</text>
<text xml:space="preserve" text-anchor="middle" x="148" y="-663.35" font-family="monospace" font-size="10.00" fill="white">etc/skel/.config/{labwc,waybar,superfile}</text>
<text xml:space="preserve" text-anchor="middle" x="148" y="-649.1" font-family="monospace" font-size="10.00" fill="white">(execute bits not guaranteed</text>
<text xml:space="preserve" text-anchor="middle" x="148" y="-634.85" font-family="monospace" font-size="10.00" fill="white">to survive cp)</text>
</g>
<!-- cp&#45;&gt;chmod -->
<g id="edge1" class="edge">
<title>cp&#45;&gt;chmod</title>
<path fill="none" stroke="#aaaaaa" d="M171.41,-740.88C169.16,-733.77 166.45,-725.17 163.68,-716.4"/>
<polygon fill="#aaaaaa" stroke="#aaaaaa" points="167.1,-715.61 160.75,-707.13 160.43,-717.72 167.1,-715.61"/>
</g>
<!-- skel -->
<g id="node4" class="node">
<title>skel</title>
<polygon fill="#330000" stroke="#e00000" points="451,-698.22 297,-698.22 297,-633.22 457,-633.22 457,-692.22 451,-698.22"/>
<polyline fill="none" stroke="#e00000" points="451,-698.22 451,-692.22"/>
<polyline fill="none" stroke="#e00000" points="457,-692.22 451,-692.22"/>
<text xml:space="preserve" text-anchor="middle" x="377" y="-684.72" font-family="monospace" font-size="10.00" fill="white">/etc/skel/ now populated</text>
<text xml:space="preserve" text-anchor="middle" x="377" y="-670.47" font-family="monospace" font-size="10.00" fill="white">on the target disk</text>
<text xml:space="preserve" text-anchor="middle" x="377" y="-656.22" font-family="monospace" font-size="10.00" fill="white">(new&#45;user home template,</text>
<text xml:space="preserve" text-anchor="middle" x="377" y="-641.97" font-family="monospace" font-size="10.00" fill="white">no real user exists yet)</text>
</g>
<!-- cp&#45;&gt;skel -->
<g id="edge3" class="edge">
<title>cp&#45;&gt;skel</title>
<path fill="none" stroke="#aaaaaa" d="M215.56,-740.88C238.71,-730.25 269.04,-716.32 297.14,-703.41"/>
<polygon fill="#aaaaaa" stroke="#aaaaaa" points="298.38,-706.69 306.01,-699.34 295.46,-700.33 298.38,-706.69"/>
</g>
<!-- chroot -->
<g id="node5" class="node">
<title>chroot</title>
<ellipse fill="#1a1608" stroke="#8a6a2f" cx="377" cy="-564.29" rx="130.11" ry="25.81"/>
<text xml:space="preserve" text-anchor="middle" x="377" y="-569.04" font-family="monospace" font-size="10.00" fill="#e0c896">arch&#45;chroot into target</text>
<text xml:space="preserve" text-anchor="middle" x="377" y="-554.79" font-family="monospace" font-size="10.00" fill="#e0c896">(Stage 0 &#45;&gt; Stage 1 handoff)</text>
</g>
<!-- skel&#45;&gt;chroot -->
<g id="edge4" class="edge">
<title>skel&#45;&gt;chroot</title>
<path fill="none" stroke="#aaaaaa" d="M377,-632.99C377,-623.1 377,-612.12 377,-601.93"/>
<polygon fill="#aaaaaa" stroke="#aaaaaa" points="380.5,-601.95 377,-591.95 373.5,-601.95 380.5,-601.95"/>
</g>
<!-- useradd -->
<g id="node6" class="node">
<title>useradd</title>
<path fill="#1a0000" stroke="#e00000" d="M430,-475.48C430,-475.48 324,-475.48 324,-475.48 318,-475.48 312,-469.48 312,-463.48 312,-463.48 312,-451.48 312,-451.48 312,-445.48 318,-439.48 324,-439.48 324,-439.48 430,-439.48 430,-439.48 436,-439.48 442,-445.48 442,-451.48 442,-451.48 442,-463.48 442,-463.48 442,-469.48 436,-475.48 430,-475.48"/>
<text xml:space="preserve" text-anchor="middle" x="377" y="-455.11" font-family="monospace" font-size="10.00" fill="white">useradd &#45;m &#45;G wheel</text>
</g>
<!-- chroot&#45;&gt;useradd -->
<g id="edge5" class="edge">
<title>chroot&#45;&gt;useradd</title>
<path fill="none" stroke="#aaaaaa" d="M377,-538.18C377,-522.84 377,-503.16 377,-487.19"/>
<polygon fill="#aaaaaa" stroke="#aaaaaa" points="380.5,-487.36 377,-477.36 373.5,-487.36 380.5,-487.36"/>
</g>
<!-- home -->
<g id="node7" class="node">
<title>home</title>
<ellipse fill="#4d0000" stroke="#ff2020" stroke-width="2" cx="377" cy="-273.62" rx="125.87" ry="125.87"/>
<ellipse fill="none" stroke="#ff2020" stroke-width="2" cx="377" cy="-273.62" rx="129.87" ry="129.87"/>
<text xml:space="preserve" text-anchor="middle" x="377" y="-299.74" font-family="monospace" font-size="10.00" fill="white">/home/&lt;UserAccountName&gt;/</text>
<text xml:space="preserve" text-anchor="middle" x="377" y="-285.49" font-family="monospace" font-size="10.00" fill="white">populated from /etc/skel</text>
<text xml:space="preserve" text-anchor="middle" x="377" y="-271.24" font-family="monospace" font-size="10.00" fill="white">at account&#45;creation time</text>
<text xml:space="preserve" text-anchor="middle" x="377" y="-256.99" font-family="monospace" font-size="10.00" fill="white">(the actual moment dotfiles</text>
<text xml:space="preserve" text-anchor="middle" x="377" y="-242.74" font-family="monospace" font-size="10.00" fill="white">become a real user&#39;s files)</text>
</g>
<!-- useradd&#45;&gt;home -->
<g id="edge6" class="edge">
<title>useradd&#45;&gt;home</title>
<path fill="none" stroke="#aaaaaa" d="M377,-439.04C377,-432.53 377,-424.52 377,-415.57"/>
<polygon fill="#aaaaaa" stroke="#aaaaaa" points="380.5,-415.74 377,-405.74 373.5,-415.74 380.5,-415.74"/>
</g>
<!-- drift -->
<g id="node9" class="node">
<title>drift</title>
<polygon fill="#1a1608" stroke="#c0392b" points="523,-107.75 225,-107.75 225,0 529,0 529,-101.75 523,-107.75"/>
<polyline fill="none" stroke="#c0392b" points="523,-107.75 523,-101.75"/>
<polyline fill="none" stroke="#c0392b" points="529,-101.75 523,-101.75"/>
<text xml:space="preserve" text-anchor="middle" x="377" y="-94.25" font-family="monospace" font-size="10.00" fill="#e0c896">A dev machine&#39;s live ~/.config and /etc/skel</text>
<text xml:space="preserve" text-anchor="middle" x="377" y="-80" font-family="monospace" font-size="10.00" fill="#e0c896">are a snapshot from whenever THAT system was</text>
<text xml:space="preserve" text-anchor="middle" x="377" y="-65.75" font-family="monospace" font-size="10.00" fill="#e0c896">installed or last rebuilt. Editing them changes</text>
<text xml:space="preserve" text-anchor="middle" x="377" y="-51.5" font-family="monospace" font-size="10.00" fill="#e0c896">only the running session, never this repo.</text>
<text xml:space="preserve" text-anchor="middle" x="377" y="-37.25" font-family="monospace" font-size="10.00" fill="#e0c896">Editing DotfileOverlay/ here changes only future</text>
<text xml:space="preserve" text-anchor="middle" x="377" y="-23" font-family="monospace" font-size="10.00" fill="#e0c896">builds, never the current desktop. The two only</text>
<text xml:space="preserve" text-anchor="middle" x="377" y="-8.75" font-family="monospace" font-size="10.00" fill="#e0c896">meet at install/rebuild time, never live.</text>
</g>
<!-- home&#45;&gt;drift -->
<!-- note -->
<g id="node8" class="node">
<title>note</title>
<polygon fill="#1a1608" stroke="#665522" points="579,-920.1 299,-920.1 299,-855.1 585,-855.1 585,-914.1 579,-920.1"/>
<polyline fill="none" stroke="#665522" points="579,-920.1 579,-914.1"/>
<polyline fill="none" stroke="#665522" points="585,-914.1 579,-914.1"/>
<text xml:space="preserve" text-anchor="middle" x="442" y="-906.6" font-family="monospace" font-size="10.00" fill="#ccaa66">Any user created later (useradd &#45;m, manually,</text>
<text xml:space="preserve" text-anchor="middle" x="442" y="-892.35" font-family="monospace" font-size="10.00" fill="#ccaa66">post&#45;install) inherits the same /etc/skel</text>
<text xml:space="preserve" text-anchor="middle" x="442" y="-878.1" font-family="monospace" font-size="10.00" fill="#ccaa66">defaults. The overlay only ever needs to</text>
<text xml:space="preserve" text-anchor="middle" x="442" y="-863.85" font-family="monospace" font-size="10.00" fill="#ccaa66">target /etc/skel once.</text>
</g>
</g>
</svg>
