<?xml version="1.0" encoding="UTF-8" standalone="no"?>
<!DOCTYPE svg PUBLIC "-//W3C//DTD SVG 1.1//EN"
 "http://www.w3.org/Graphics/SVG/1.1/DTD/svg11.dtd">
<!-- Generated by graphviz version 15.1.0 (0)
 -->
<!-- Title: installer_overview Pages: 1 -->
<svg width="670pt" height="1974pt"
 viewBox="0.00 0.00 670.00 1974.00" xmlns="http://www.w3.org/2000/svg" xmlns:xlink="http://www.w3.org/1999/xlink">
<g id="graph0" class="graph" transform="scale(1 1) rotate(0) translate(4 1969.94)">
<title>installer_overview</title>
<polygon fill="#000000" stroke="none" points="-4,4 -4,-1969.94 666,-1969.94 666,4 -4,4"/>
<text xml:space="preserve" text-anchor="middle" x="331" y="-1948.64" font-family="monospace" font-size="14.00" fill="#ff6666">synos&#45;install, start to finish</text>
<g id="clust1" class="cluster">
<title>cluster_stage0</title>
<path fill="#0a0a0a" stroke="#555555" d="M57,-1065.64C57,-1065.64 429,-1065.64 429,-1065.64 435,-1065.64 441,-1071.64 441,-1077.64 441,-1077.64 441,-1637.89 441,-1637.89 441,-1643.89 435,-1649.89 429,-1649.89 429,-1649.89 57,-1649.89 57,-1649.89 51,-1649.89 45,-1643.89 45,-1637.89 45,-1637.89 45,-1077.64 45,-1077.64 45,-1071.64 51,-1065.64 57,-1065.64"/>
<text xml:space="preserve" text-anchor="middle" x="243" y="-1632.59" font-family="monospace" font-size="14.00" fill="white">Stage 0, live ISO environment (syn&#45;stage0.zsh)</text>
</g>
<g id="clust2" class="cluster">
<title>cluster_stage1</title>
<path fill="#0a0a0a" stroke="#555555" d="M20,-262.27C20,-262.27 367,-262.27 367,-262.27 373,-262.27 379,-268.27 379,-274.27 379,-274.27 379,-966.02 379,-966.02 379,-972.02 373,-978.02 367,-978.02 367,-978.02 20,-978.02 20,-978.02 14,-978.02 8,-972.02 8,-966.02 8,-966.02 8,-274.27 8,-274.27 8,-268.27 14,-262.27 20,-262.27"/>
<text xml:space="preserve" text-anchor="middle" x="193.5" y="-960.72" font-family="monospace" font-size="14.00" fill="white">Stage 1, inside the chroot (syn&#45;stage1.zsh)</text>
</g>
<!-- boot -->
<g id="node1" class="node">
<title>boot</title>
<ellipse fill="#1a0000" stroke="#e00000" cx="193" cy="-1892.47" rx="147.08" ry="45.96"/>
<text xml:space="preserve" text-anchor="middle" x="193" y="-1911.47" font-family="monospace" font-size="10.00" fill="white">Boot ISO</text>
<text xml:space="preserve" text-anchor="middle" x="193" y="-1897.22" font-family="monospace" font-size="10.00" fill="white">(BIOS: syslinux menu,</text>
<text xml:space="preserve" text-anchor="middle" x="193" y="-1882.97" font-family="monospace" font-size="10.00" fill="white">UEFI: systemd&#45;boot, 1 entry)</text>
<text xml:space="preserve" text-anchor="middle" x="193" y="-1868.72" font-family="monospace" font-size="10.00" fill="white">both land in the same live shell</text>
</g>
<!-- edit -->
<g id="node2" class="node">
<title>edit</title>
<polygon fill="#330000" stroke="#e00000" points="285,-1810.51 95,-1810.51 95,-1745.51 291,-1745.51 291,-1804.51 285,-1810.51"/>
<polyline fill="none" stroke="#e00000" points="285,-1810.51 285,-1804.51"/>
<polyline fill="none" stroke="#e00000" points="291,-1804.51 285,-1804.51"/>
<text xml:space="preserve" text-anchor="middle" x="193" y="-1797.01" font-family="monospace" font-size="10.00" fill="white">edit /etc/syn&#45;os/synos.conf</text>
<text xml:space="preserve" text-anchor="middle" x="193" y="-1782.76" font-family="monospace" font-size="10.00" fill="white">(only input, no interactive</text>
<text xml:space="preserve" text-anchor="middle" x="193" y="-1768.51" font-family="monospace" font-size="10.00" fill="white">prompts for disk/fs/encryption</text>
<text xml:space="preserve" text-anchor="middle" x="193" y="-1754.26" font-family="monospace" font-size="10.00" fill="white">once synos&#45;install starts)</text>
</g>
<!-- boot&#45;&gt;edit -->
<g id="edge14" class="edge">
<title>boot&#45;&gt;edit</title>
<path fill="none" stroke="#aaaaaa" d="M193,-1846.06C193,-1838.2 193,-1830.06 193,-1822.26"/>
<polygon fill="#aaaaaa" stroke="#aaaaaa" points="196.5,-1822.3 193,-1812.3 189.5,-1822.3 196.5,-1822.3"/>
</g>
<!-- run -->
<g id="node3" class="node">
<title>run</title>
<ellipse fill="#1a0000" stroke="#e00000" cx="193" cy="-1683.7" rx="121.62" ry="25.81"/>
<text xml:space="preserve" text-anchor="middle" x="193" y="-1688.45" font-family="monospace" font-size="10.00" fill="white">synos&#45;install</text>
<text xml:space="preserve" text-anchor="middle" x="193" y="-1674.2" font-family="monospace" font-size="10.00" fill="white">(alias for syn&#45;stage0.zsh)</text>
</g>
<!-- edit&#45;&gt;run -->
<g id="edge15" class="edge">
<title>edit&#45;&gt;run</title>
<path fill="none" stroke="#aaaaaa" d="M193,-1745.24C193,-1737.47 193,-1729.08 193,-1721.1"/>
<polygon fill="#aaaaaa" stroke="#aaaaaa" points="196.5,-1721.34 193,-1711.34 189.5,-1721.34 196.5,-1721.34"/>
</g>
<!-- source -->
<g id="node4" class="node">
<title>source</title>
<path fill="#4d0000" stroke="#e00000" d="M273,-1614.39C273,-1614.39 113,-1614.39 113,-1614.39 107,-1614.39 101,-1608.39 101,-1602.39 101,-1602.39 101,-1575.64 101,-1575.64 101,-1569.64 107,-1563.64 113,-1563.64 113,-1563.64 273,-1563.64 273,-1563.64 279,-1563.64 285,-1569.64 285,-1575.64 285,-1575.64 285,-1602.39 285,-1602.39 285,-1608.39 279,-1614.39 273,-1614.39"/>
<text xml:space="preserve" text-anchor="middle" x="193" y="-1600.89" font-family="monospace" font-size="10.00" fill="white">source syn&#45;config.zsh,</text>
<text xml:space="preserve" text-anchor="middle" x="193" y="-1586.64" font-family="monospace" font-size="10.00" fill="white">syn&#45;packages.zsh, syn&#45;ui.zsh</text>
<text xml:space="preserve" text-anchor="middle" x="193" y="-1572.39" font-family="monospace" font-size="10.00" fill="white">+ syn&#45;disk.zsh</text>
</g>
<!-- run&#45;&gt;source -->
<g id="edge16" class="edge">
<title>run&#45;&gt;source</title>
<path fill="none" stroke="#aaaaaa" d="M193,-1657.86C193,-1648.02 193,-1636.51 193,-1625.8"/>
<polygon fill="#aaaaaa" stroke="#aaaaaa" points="196.5,-1626.12 193,-1616.12 189.5,-1626.12 196.5,-1626.12"/>
</g>
<!-- gate -->
<g id="node5" class="node">
<title>gate</title>
<path fill="#4d0000" stroke="#ff2020" d="M285,-1527.64C285,-1527.64 101,-1527.64 101,-1527.64 95,-1527.64 89,-1521.64 89,-1515.64 89,-1515.64 89,-1460.39 89,-1460.39 89,-1454.39 95,-1448.39 101,-1448.39 101,-1448.39 285,-1448.39 285,-1448.39 291,-1448.39 297,-1454.39 297,-1460.39 297,-1460.39 297,-1515.64 297,-1515.64 297,-1521.64 291,-1527.64 285,-1527.64"/>
<text xml:space="preserve" text-anchor="middle" x="193" y="-1514.14" font-family="monospace" font-size="10.00" fill="white">Safety gate:</text>
<text xml:space="preserve" text-anchor="middle" x="193" y="-1499.89" font-family="monospace" font-size="10.00" fill="white">RequireWipeConfirm=yes &#45;&gt;</text>
<text xml:space="preserve" text-anchor="middle" x="193" y="-1485.64" font-family="monospace" font-size="10.00" fill="white">&quot;Proceed and wipe &lt;disk&gt;? [y/N]&quot;</text>
<text xml:space="preserve" text-anchor="middle" x="193" y="-1471.39" font-family="monospace" font-size="10.00" fill="white">only interactive step in the</text>
<text xml:space="preserve" text-anchor="middle" x="193" y="-1457.14" font-family="monospace" font-size="10.00" fill="white">whole pipeline</text>
</g>
<!-- source&#45;&gt;gate -->
<g id="edge1" class="edge">
<title>source&#45;&gt;gate</title>
<path fill="none" stroke="#aaaaaa" d="M193,-1563.29C193,-1555.97 193,-1547.67 193,-1539.34"/>
<polygon fill="#aaaaaa" stroke="#aaaaaa" points="196.5,-1539.56 193,-1529.56 189.5,-1539.56 196.5,-1539.56"/>
</g>
<!-- partition -->
<g id="node6" class="node">
<title>partition</title>
<path fill="#330000" stroke="#e00000" d="M228,-1412.39C228,-1412.39 158,-1412.39 158,-1412.39 152,-1412.39 146,-1406.39 146,-1400.39 146,-1400.39 146,-1388.39 146,-1388.39 146,-1382.39 152,-1376.39 158,-1376.39 158,-1376.39 228,-1376.39 228,-1376.39 234,-1376.39 240,-1382.39 240,-1388.39 240,-1388.39 240,-1400.39 240,-1400.39 240,-1406.39 234,-1412.39 228,-1412.39"/>
<text xml:space="preserve" text-anchor="middle" x="193" y="-1392.02" font-family="monospace" font-size="10.00" fill="white">partitionMain</text>
</g>
<!-- gate&#45;&gt;partition -->
<g id="edge2" class="edge">
<title>gate&#45;&gt;partition</title>
<path fill="none" stroke="#aaaaaa" d="M193,-1447.89C193,-1439.95 193,-1431.72 193,-1424.21"/>
<polygon fill="#aaaaaa" stroke="#aaaaaa" points="196.5,-1424.29 193,-1414.29 189.5,-1424.29 196.5,-1424.29"/>
</g>
<!-- volume -->
<g id="node7" class="node">
<title>volume</title>
<path fill="#330000" stroke="#e00000" d="M219,-1340.39C219,-1340.39 167,-1340.39 167,-1340.39 161,-1340.39 155,-1334.39 155,-1328.39 155,-1328.39 155,-1316.39 155,-1316.39 155,-1310.39 161,-1304.39 167,-1304.39 167,-1304.39 219,-1304.39 219,-1304.39 225,-1304.39 231,-1310.39 231,-1316.39 231,-1316.39 231,-1328.39 231,-1328.39 231,-1334.39 225,-1340.39 219,-1340.39"/>
<text xml:space="preserve" text-anchor="middle" x="193" y="-1320.02" font-family="monospace" font-size="10.00" fill="white">volumeMain</text>
</g>
<!-- partition&#45;&gt;volume -->
<g id="edge3" class="edge">
<title>partition&#45;&gt;volume</title>
<path fill="none" stroke="#aaaaaa" d="M193,-1376.09C193,-1368.8 193,-1360.12 193,-1351.93"/>
<polygon fill="#aaaaaa" stroke="#aaaaaa" points="196.5,-1352.01 193,-1342.01 189.5,-1352.01 196.5,-1352.01"/>
</g>
<!-- filesystem -->
<g id="node8" class="node">
<title>filesystem</title>
<path fill="#330000" stroke="#e00000" d="M231,-1268.39C231,-1268.39 155,-1268.39 155,-1268.39 149,-1268.39 143,-1262.39 143,-1256.39 143,-1256.39 143,-1244.39 143,-1244.39 143,-1238.39 149,-1232.39 155,-1232.39 155,-1232.39 231,-1232.39 231,-1232.39 237,-1232.39 243,-1238.39 243,-1244.39 243,-1244.39 243,-1256.39 243,-1256.39 243,-1262.39 237,-1268.39 231,-1268.39"/>
<text xml:space="preserve" text-anchor="middle" x="193" y="-1248.02" font-family="monospace" font-size="10.00" fill="white">filesystemMain</text>
</g>
<!-- volume&#45;&gt;filesystem -->
<g id="edge4" class="edge">
<title>volume&#45;&gt;filesystem</title>
<path fill="none" stroke="#aaaaaa" d="M193,-1304.09C193,-1296.8 193,-1288.12 193,-1279.93"/>
<polygon fill="#aaaaaa" stroke="#aaaaaa" points="196.5,-1280.01 193,-1270.01 189.5,-1280.01 196.5,-1280.01"/>
</g>
<!-- mount -->
<g id="node9" class="node">
<title>mount</title>
<path fill="#330000" stroke="#e00000" d="M216,-1196.39C216,-1196.39 170,-1196.39 170,-1196.39 164,-1196.39 158,-1190.39 158,-1184.39 158,-1184.39 158,-1172.39 158,-1172.39 158,-1166.39 164,-1160.39 170,-1160.39 170,-1160.39 216,-1160.39 216,-1160.39 222,-1160.39 228,-1166.39 228,-1172.39 228,-1172.39 228,-1184.39 228,-1184.39 228,-1190.39 222,-1196.39 216,-1196.39"/>
<text xml:space="preserve" text-anchor="middle" x="193" y="-1176.02" font-family="monospace" font-size="10.00" fill="white">mountMain</text>
</g>
<!-- filesystem&#45;&gt;mount -->
<g id="edge5" class="edge">
<title>filesystem&#45;&gt;mount</title>
<path fill="none" stroke="#aaaaaa" d="M193,-1232.09C193,-1224.8 193,-1216.12 193,-1207.93"/>
<polygon fill="#aaaaaa" stroke="#aaaaaa" points="196.5,-1208.01 193,-1198.01 189.5,-1208.01 196.5,-1208.01"/>
</g>
<!-- pacstrap -->
<g id="node10" class="node">
<title>pacstrap</title>
<path fill="#330000" stroke="#e00000" d="M267,-1124.39C267,-1124.39 119,-1124.39 119,-1124.39 113,-1124.39 107,-1118.39 107,-1112.39 107,-1112.39 107,-1085.64 107,-1085.64 107,-1079.64 113,-1073.64 119,-1073.64 119,-1073.64 267,-1073.64 267,-1073.64 273,-1073.64 279,-1079.64 279,-1085.64 279,-1085.64 279,-1112.39 279,-1112.39 279,-1118.39 273,-1124.39 267,-1124.39"/>
<text xml:space="preserve" text-anchor="middle" x="193" y="-1110.89" font-family="monospace" font-size="10.00" fill="white">pacstrapMain</text>
<text xml:space="preserve" text-anchor="middle" x="193" y="-1096.64" font-family="monospace" font-size="10.00" fill="white">(pacstrap + DotfileOverlay</text>
<text xml:space="preserve" text-anchor="middle" x="193" y="-1082.39" font-family="monospace" font-size="10.00" fill="white">+ writes install.state)</text>
</g>
<!-- mount&#45;&gt;pacstrap -->
<g id="edge6" class="edge">
<title>mount&#45;&gt;pacstrap</title>
<path fill="none" stroke="#aaaaaa" d="M193,-1160.22C193,-1153.06 193,-1144.45 193,-1136.02"/>
<polygon fill="#aaaaaa" stroke="#aaaaaa" points="196.5,-1136.29 193,-1126.29 189.5,-1136.29 196.5,-1136.29"/>
</g>
<!-- chroot -->
<g id="node11" class="node">
<title>chroot</title>
<ellipse fill="#1a1608" stroke="#8a6a2f" cx="193" cy="-1011.83" rx="130.11" ry="25.81"/>
<text xml:space="preserve" text-anchor="middle" x="193" y="-1016.58" font-family="monospace" font-size="10.00" fill="#e0c896">arch&#45;chroot into target</text>
<text xml:space="preserve" text-anchor="middle" x="193" y="-1002.33" font-family="monospace" font-size="10.00" fill="#e0c896">(Stage 0 &#45;&gt; Stage 1 handoff)</text>
</g>
<!-- pacstrap&#45;&gt;chroot -->
<g id="edge17" class="edge">
<title>pacstrap&#45;&gt;chroot</title>
<path fill="none" stroke="#aaaaaa" d="M193,-1073.38C193,-1065.92 193,-1057.56 193,-1049.49"/>
<polygon fill="#aaaaaa" stroke="#aaaaaa" points="196.5,-1049.52 193,-1039.52 189.5,-1049.52 196.5,-1049.52"/>
</g>
<!-- state -->
<g id="node12" class="node">
<title>state</title>
<polygon fill="#330000" stroke="#e00000" points="291,-942.52 89,-942.52 89,-877.52 297,-877.52 297,-936.52 291,-942.52"/>
<polyline fill="none" stroke="#e00000" points="291,-942.52 291,-936.52"/>
<polyline fill="none" stroke="#e00000" points="297,-936.52 291,-936.52"/>
<text xml:space="preserve" text-anchor="middle" x="193" y="-929.02" font-family="monospace" font-size="10.00" fill="white">source /etc/syn&#45;os/install.state</text>
<text xml:space="preserve" text-anchor="middle" x="193" y="-914.77" font-family="monospace" font-size="10.00" fill="white">(RootFsDev, LuksUuid, SwapDev,</text>
<text xml:space="preserve" text-anchor="middle" x="193" y="-900.52" font-family="monospace" font-size="10.00" fill="white">resolved during Stage 0,</text>
<text xml:space="preserve" text-anchor="middle" x="193" y="-886.27" font-family="monospace" font-size="10.00" fill="white">can&#39;t be re&#45;derived safely)</text>
</g>
<!-- chroot&#45;&gt;state -->
<g id="edge18" class="edge">
<title>chroot&#45;&gt;state</title>
<path fill="none" stroke="#aaaaaa" d="M193,-985.65C193,-976.15 193,-965.05 193,-954.36"/>
<polygon fill="#aaaaaa" stroke="#aaaaaa" points="196.5,-954.53 193,-944.53 189.5,-954.53 196.5,-954.53"/>
</g>
<!-- locale -->
<g id="node13" class="node">
<title>locale</title>
<path fill="#4d0000" stroke="#e00000" d="M240,-841.52C240,-841.52 146,-841.52 146,-841.52 140,-841.52 134,-835.52 134,-829.52 134,-829.52 134,-817.02 134,-817.02 134,-811.02 140,-805.02 146,-805.02 146,-805.02 240,-805.02 240,-805.02 246,-805.02 252,-811.02 252,-817.02 252,-817.02 252,-829.52 252,-829.52 252,-835.52 246,-841.52 240,-841.52"/>
<text xml:space="preserve" text-anchor="middle" x="193" y="-828.02" font-family="monospace" font-size="10.00" fill="white">locale, hostname,</text>
<text xml:space="preserve" text-anchor="middle" x="193" y="-813.77" font-family="monospace" font-size="10.00" fill="white">timezone, keymap</text>
</g>
<!-- state&#45;&gt;locale -->
<g id="edge7" class="edge">
<title>state&#45;&gt;locale</title>
<path fill="none" stroke="#aaaaaa" d="M193,-877.47C193,-869.56 193,-861.12 193,-853.34"/>
<polygon fill="#aaaaaa" stroke="#aaaaaa" points="196.5,-853.35 193,-843.35 189.5,-853.35 196.5,-853.35"/>
</g>
<!-- doas -->
<g id="node14" class="node">
<title>doas</title>
<path fill="#4d0000" stroke="#e00000" d="M249,-769.02C249,-769.02 137,-769.02 137,-769.02 131,-769.02 125,-763.02 125,-757.02 125,-757.02 125,-744.52 125,-744.52 125,-738.52 131,-732.52 137,-732.52 137,-732.52 249,-732.52 249,-732.52 255,-732.52 261,-738.52 261,-744.52 261,-744.52 261,-757.02 261,-757.02 261,-763.02 255,-769.02 249,-769.02"/>
<text xml:space="preserve" text-anchor="middle" x="193" y="-755.52" font-family="monospace" font-size="10.00" fill="white">doas&#45;&gt;sudo shim,</text>
<text xml:space="preserve" text-anchor="middle" x="193" y="-741.27" font-family="monospace" font-size="10.00" fill="white">removes sudo package</text>
</g>
<!-- locale&#45;&gt;doas -->
<g id="edge8" class="edge">
<title>locale&#45;&gt;doas</title>
<path fill="none" stroke="#aaaaaa" d="M193,-804.85C193,-797.61 193,-789.02 193,-780.88"/>
<polygon fill="#aaaaaa" stroke="#aaaaaa" points="196.5,-781 193,-771 189.5,-781 196.5,-781"/>
</g>
<!-- user -->
<g id="node15" class="node">
<title>user</title>
<path fill="#4d0000" stroke="#e00000" d="M282,-696.52C282,-696.52 104,-696.52 104,-696.52 98,-696.52 92,-690.52 92,-684.52 92,-684.52 92,-657.77 92,-657.77 92,-651.77 98,-645.77 104,-645.77 104,-645.77 282,-645.77 282,-645.77 288,-645.77 294,-651.77 294,-657.77 294,-657.77 294,-684.52 294,-684.52 294,-690.52 288,-696.52 282,-696.52"/>
<text xml:space="preserve" text-anchor="middle" x="193" y="-683.02" font-family="monospace" font-size="10.00" fill="white">useradd &#45;m &#45;G wheel</text>
<text xml:space="preserve" text-anchor="middle" x="193" y="-668.77" font-family="monospace" font-size="10.00" fill="white">(populates home from</text>
<text xml:space="preserve" text-anchor="middle" x="193" y="-654.52" font-family="monospace" font-size="10.00" fill="white">/etc/skel, see Dotfile Overlay)</text>
</g>
<!-- doas&#45;&gt;user -->
<g id="edge9" class="edge">
<title>doas&#45;&gt;user</title>
<path fill="none" stroke="#aaaaaa" d="M193,-732.16C193,-725.05 193,-716.56 193,-708.24"/>
<polygon fill="#aaaaaa" stroke="#aaaaaa" points="196.5,-708.27 193,-698.27 189.5,-708.27 196.5,-708.27"/>
</g>
<!-- filemanager -->
<g id="node16" class="node">
<title>filemanager</title>
<path fill="#1a1608" stroke="#8a6a2f" d="M273,-609.77C273,-609.77 113,-609.77 113,-609.77 107,-609.77 101,-603.77 101,-597.77 101,-597.77 101,-556.77 101,-556.77 101,-550.77 107,-544.77 113,-544.77 113,-544.77 273,-544.77 273,-544.77 279,-544.77 285,-550.77 285,-556.77 285,-556.77 285,-597.77 285,-597.77 285,-603.77 279,-609.77 273,-609.77"/>
<text xml:space="preserve" text-anchor="middle" x="193" y="-596.27" font-family="monospace" font-size="10.00" fill="#e0c896">build syn&#45;filemanager</text>
<text xml:space="preserve" text-anchor="middle" x="193" y="-582.02" font-family="monospace" font-size="10.00" fill="#e0c896">(makepkg as new user)</text>
<text xml:space="preserve" text-anchor="middle" x="193" y="-567.77" font-family="monospace" font-size="10.00" fill="#e0c896">failure is recoverable,</text>
<text xml:space="preserve" text-anchor="middle" x="193" y="-553.52" font-family="monospace" font-size="10.00" fill="#e0c896">install continues either way</text>
</g>
<!-- user&#45;&gt;filemanager -->
<g id="edge10" class="edge">
<title>user&#45;&gt;filemanager</title>
<path fill="none" stroke="#aaaaaa" d="M193,-645.53C193,-638.16 193,-629.85 193,-621.65"/>
<polygon fill="#aaaaaa" stroke="#aaaaaa" points="196.5,-621.75 193,-611.75 189.5,-621.75 196.5,-621.75"/>
</g>
<!-- initramfs -->
<g id="node17" class="node">
<title>initramfs</title>
<path fill="#4d0000" stroke="#e00000" d="M270,-508.77C270,-508.77 116,-508.77 116,-508.77 110,-508.77 104,-502.77 104,-496.77 104,-496.77 104,-470.02 104,-470.02 104,-464.02 110,-458.02 116,-458.02 116,-458.02 270,-458.02 270,-458.02 276,-458.02 282,-464.02 282,-470.02 282,-470.02 282,-496.77 282,-496.77 282,-502.77 276,-508.77 270,-508.77"/>
<text xml:space="preserve" text-anchor="middle" x="193" y="-495.27" font-family="monospace" font-size="10.00" fill="white">mkinitcpio hooks</text>
<text xml:space="preserve" text-anchor="middle" x="193" y="-481.02" font-family="monospace" font-size="10.00" fill="white">(+encrypt, +lvm2 as needed)</text>
<text xml:space="preserve" text-anchor="middle" x="193" y="-466.77" font-family="monospace" font-size="10.00" fill="white">+ rebuild initramfs</text>
</g>
<!-- filemanager&#45;&gt;initramfs -->
<g id="edge11" class="edge">
<title>filemanager&#45;&gt;initramfs</title>
<path fill="none" stroke="#aaaaaa" d="M193,-544.4C193,-536.76 193,-528.54 193,-520.72"/>
<polygon fill="#aaaaaa" stroke="#aaaaaa" points="196.5,-520.78 193,-510.78 189.5,-520.78 196.5,-520.78"/>
</g>
<!-- bootloader -->
<g id="node18" class="node">
<title>bootloader</title>
<path fill="#4d0000" stroke="#e00000" d="M270,-422.02C270,-422.02 116,-422.02 116,-422.02 110,-422.02 104,-416.02 104,-410.02 104,-410.02 104,-383.27 104,-383.27 104,-377.27 110,-371.27 116,-371.27 116,-371.27 270,-371.27 270,-371.27 276,-371.27 282,-377.27 282,-383.27 282,-383.27 282,-410.02 282,-410.02 282,-416.02 276,-422.02 270,-422.02"/>
<text xml:space="preserve" text-anchor="middle" x="193" y="-408.52" font-family="monospace" font-size="10.00" fill="white">install bootloader</text>
<text xml:space="preserve" text-anchor="middle" x="193" y="-394.27" font-family="monospace" font-size="10.00" fill="white">(bootctl / grub / syslinux,</text>
<text xml:space="preserve" text-anchor="middle" x="193" y="-380.02" font-family="monospace" font-size="10.00" fill="white">keyed off PartitionStrat)</text>
</g>
<!-- initramfs&#45;&gt;bootloader -->
<g id="edge12" class="edge">
<title>initramfs&#45;&gt;bootloader</title>
<path fill="none" stroke="#aaaaaa" d="M193,-457.89C193,-450.4 193,-442 193,-433.9"/>
<polygon fill="#aaaaaa" stroke="#aaaaaa" points="196.5,-433.91 193,-423.91 189.5,-433.91 196.5,-433.91"/>
</g>
<!-- services -->
<g id="node19" class="node">
<title>services</title>
<path fill="#4d0000" stroke="#e00000" d="M258,-335.27C258,-335.27 128,-335.27 128,-335.27 122,-335.27 116,-329.27 116,-323.27 116,-323.27 116,-282.27 116,-282.27 116,-276.27 122,-270.27 128,-270.27 128,-270.27 258,-270.27 258,-270.27 264,-270.27 270,-276.27 270,-282.27 270,-282.27 270,-323.27 270,-323.27 270,-329.27 264,-335.27 258,-335.27"/>
<text xml:space="preserve" text-anchor="middle" x="193" y="-321.77" font-family="monospace" font-size="10.00" fill="white">enable dhcpcd, iwd</text>
<text xml:space="preserve" text-anchor="middle" x="193" y="-307.52" font-family="monospace" font-size="10.00" fill="white">+ sshd if EnableSsh=yes</text>
<text xml:space="preserve" text-anchor="middle" x="193" y="-293.27" font-family="monospace" font-size="10.00" fill="white">+ qemu&#45;guest&#45;agent if</text>
<text xml:space="preserve" text-anchor="middle" x="193" y="-279.02" font-family="monospace" font-size="10.00" fill="white">running under kvm/qemu</text>
</g>
<!-- bootloader&#45;&gt;services -->
<g id="edge13" class="edge">
<title>bootloader&#45;&gt;services</title>
<path fill="none" stroke="#aaaaaa" d="M193,-371.03C193,-363.66 193,-355.35 193,-347.15"/>
<polygon fill="#aaaaaa" stroke="#aaaaaa" points="196.5,-347.25 193,-337.25 189.5,-347.25 196.5,-347.25"/>
</g>
<!-- done -->
<g id="node20" class="node">
<title>done</title>
<ellipse fill="#4d0000" stroke="#ff2020" stroke-width="2" cx="193" cy="-117.14" rx="113.14" ry="113.14"/>
<ellipse fill="none" stroke="#ff2020" stroke-width="2" cx="193" cy="-117.14" rx="117.14" ry="117.14"/>
<text xml:space="preserve" text-anchor="middle" x="193" y="-129.01" font-family="monospace" font-size="10.00" fill="white">installed system</text>
<text xml:space="preserve" text-anchor="middle" x="193" y="-114.76" font-family="monospace" font-size="10.00" fill="white">pacman &#45;Syu from here,</text>
<text xml:space="preserve" text-anchor="middle" x="193" y="-100.51" font-family="monospace" font-size="10.00" fill="white">same as any Arch install</text>
</g>
<!-- services&#45;&gt;done -->
<g id="edge19" class="edge">
<title>services&#45;&gt;done</title>
<path fill="none" stroke="#aaaaaa" d="M193,-269.79C193,-262.71 193,-254.8 193,-246.4"/>
<polygon fill="#aaaaaa" stroke="#aaaaaa" points="196.5,-246.63 193,-236.63 189.5,-246.63 196.5,-246.63"/>
</g>
<!-- note -->
<g id="node21" class="node">
<title>note</title>
<polygon fill="#1a1608" stroke="#665522" points="656,-1917.85 358,-1917.85 358,-1867.1 662,-1867.1 662,-1911.85 656,-1917.85"/>
<polyline fill="none" stroke="#665522" points="656,-1917.85 656,-1911.85"/>
<polyline fill="none" stroke="#665522" points="662,-1911.85 656,-1911.85"/>
<text xml:space="preserve" text-anchor="middle" x="510" y="-1904.35" font-family="monospace" font-size="10.00" fill="#ccaa66">No unattended mode, no TUI, no partition&#45;picker.</text>
<text xml:space="preserve" text-anchor="middle" x="510" y="-1890.1" font-family="monospace" font-size="10.00" fill="#ccaa66">synos.conf is edited by hand before this runs.</text>
<text xml:space="preserve" text-anchor="middle" x="510" y="-1875.85" font-family="monospace" font-size="10.00" fill="#ccaa66">Deliberate, see Philosophy in the README.</text>
</g>
</g>
</svg>
