<?xml version="1.0" encoding="UTF-8" standalone="no"?>
<!DOCTYPE svg PUBLIC "-//W3C//DTD SVG 1.1//EN"
 "http://www.w3.org/Graphics/SVG/1.1/DTD/svg11.dtd">
<!-- Generated by graphviz version 15.1.0 (0)
 -->
<!-- Title: package_map Pages: 1 -->
<svg width="913pt" height="935pt"
 viewBox="0.00 0.00 913.00 935.00" xmlns="http://www.w3.org/2000/svg" xmlns:xlink="http://www.w3.org/1999/xlink">
<g id="graph0" class="graph" transform="scale(1 1) rotate(0) translate(4 930.88)">
<title>package_map</title>
<polygon fill="#000000" stroke="none" points="-4,4 -4,-930.88 909.48,-930.88 909.48,4 -4,4"/>
<text xml:space="preserve" text-anchor="middle" x="452.74" y="-909.58" font-family="monospace" font-size="14.00" fill="#ff6666">SYNSTALL, by category and what each depends on</text>
<g id="clust1" class="cluster">
<title>cluster_base</title>
<path fill="#0a0a0a" stroke="#555555" d="M20.75,-693C20.75,-693 260.25,-693 260.25,-693 266.25,-693 272.25,-699 272.25,-705 272.25,-705 272.25,-829 272.25,-829 272.25,-835 266.25,-841 260.25,-841 260.25,-841 20.75,-841 20.75,-841 14.75,-841 8.75,-835 8.75,-829 8.75,-829 8.75,-705 8.75,-705 8.75,-699 14.75,-693 20.75,-693"/>
<text xml:space="preserve" text-anchor="middle" x="140.5" y="-823.7" font-family="monospace" font-size="14.00" fill="white">baseCore, 19</text>
<text xml:space="preserve" text-anchor="middle" x="140.5" y="-804.2" font-family="monospace" font-size="14.00" fill="white">installed on every machine</text>
<text xml:space="preserve" text-anchor="middle" x="140.5" y="-784.7" font-family="monospace" font-size="14.00" fill="white">regardless of storage strategy</text>
</g>
<g id="clust2" class="cluster">
<title>cluster_net</title>
<path fill="#0a0a0a" stroke="#555555" d="M440.75,-411C440.75,-411 604.75,-411 604.75,-411 610.75,-411 616.75,-417 616.75,-423 616.75,-423 616.75,-536 616.75,-536 616.75,-542 610.75,-548 604.75,-548 604.75,-548 440.75,-548 440.75,-548 434.75,-548 428.75,-542 428.75,-536 428.75,-536 428.75,-423 428.75,-423 428.75,-417 434.75,-411 440.75,-411"/>
<text xml:space="preserve" text-anchor="middle" x="522.75" y="-530.7" font-family="monospace" font-size="14.00" fill="white">netAndServices, 9</text>
</g>
<g id="clust3" class="cluster">
<title>cluster_shell</title>
<path fill="#0a0a0a" stroke="#555555" d="M57.88,-546C57.88,-546 223.12,-546 223.12,-546 229.12,-546 235.12,-552 235.12,-558 235.12,-558 235.12,-647 235.12,-647 235.12,-653 229.12,-659 223.12,-659 223.12,-659 57.88,-659 57.88,-659 51.88,-659 45.88,-653 45.88,-647 45.88,-647 45.88,-558 45.88,-558 45.88,-552 51.88,-546 57.88,-546"/>
<text xml:space="preserve" text-anchor="middle" x="140.5" y="-641.7" font-family="monospace" font-size="14.00" fill="white">shellAndCLI, 18</text>
<text xml:space="preserve" text-anchor="middle" x="140.5" y="-622.2" font-family="monospace" font-size="14.00" fill="white">feeds .zshrc directly</text>
</g>
<g id="clust4" class="cluster">
<title>cluster_desktop</title>
<path fill="#0a0a0a" stroke="#555555" d="M443.75,-586C443.75,-586 601.75,-586 601.75,-586 607.75,-586 613.75,-592 613.75,-598 613.75,-598 613.75,-717 613.75,-717 613.75,-723 607.75,-729 601.75,-729 601.75,-729 443.75,-729 443.75,-729 437.75,-729 431.75,-723 431.75,-717 431.75,-717 431.75,-598 431.75,-598 431.75,-592 437.75,-586 443.75,-586"/>
<text xml:space="preserve" text-anchor="middle" x="522.75" y="-711.7" font-family="monospace" font-size="14.00" fill="white">desktopStack, 21</text>
<text xml:space="preserve" text-anchor="middle" x="522.75" y="-692.2" font-family="monospace" font-size="14.00" fill="white">the Wayland session</text>
</g>
<g id="clust5" class="cluster">
<title>cluster_dev</title>
<path fill="#0a0a0a" stroke="#555555" d="M453,-270C453,-270 593.5,-270 593.5,-270 599.5,-270 605.5,-276 605.5,-282 605.5,-282 605.5,-391 605.5,-391 605.5,-397 599.5,-403 593.5,-403 593.5,-403 453,-403 453,-403 447,-403 441,-397 441,-391 441,-391 441,-282 441,-282 441,-276 447,-270 453,-270"/>
<text xml:space="preserve" text-anchor="middle" x="523.25" y="-385.7" font-family="monospace" font-size="14.00" fill="white">devToolkit, 8</text>
<text xml:space="preserve" text-anchor="middle" x="523.25" y="-366.2" font-family="monospace" font-size="14.00" fill="white">self&#45;hosting tools</text>
<text xml:space="preserve" text-anchor="middle" x="523.25" y="-346.7" font-family="monospace" font-size="14.00" fill="white">(SYNSTALL only)</text>
</g>
<g id="clust6" class="cluster">
<title>cluster_fonts</title>
<path fill="#0a0a0a" stroke="#555555" d="M444.75,-149C444.75,-149 601.75,-149 601.75,-149 607.75,-149 613.75,-155 613.75,-161 613.75,-161 613.75,-250 613.75,-250 613.75,-256 607.75,-262 601.75,-262 601.75,-262 444.75,-262 444.75,-262 438.75,-262 432.75,-256 432.75,-250 432.75,-250 432.75,-161 432.75,-161 432.75,-155 438.75,-149 444.75,-149"/>
<text xml:space="preserve" text-anchor="middle" x="523.25" y="-244.7" font-family="monospace" font-size="14.00" fill="white">fontsI18n, 9</text>
<text xml:space="preserve" text-anchor="middle" x="523.25" y="-225.2" font-family="monospace" font-size="14.00" fill="white">(SYNMINIMAL: 3 only)</text>
</g>
<g id="clust7" class="cluster">
<title>cluster_apps</title>
<path fill="#0a0a0a" stroke="#555555" d="M453,-8C453,-8 593.5,-8 593.5,-8 599.5,-8 605.5,-14 605.5,-20 605.5,-20 605.5,-129 605.5,-129 605.5,-135 599.5,-141 593.5,-141 593.5,-141 453,-141 453,-141 447,-141 441,-135 441,-129 441,-129 441,-20 441,-20 441,-14 447,-8 453,-8"/>
<text xml:space="preserve" text-anchor="middle" x="523.25" y="-123.7" font-family="monospace" font-size="14.00" fill="white">appsMedia, 6</text>
<text xml:space="preserve" text-anchor="middle" x="523.25" y="-104.2" font-family="monospace" font-size="14.00" fill="white">the apps, one game</text>
<text xml:space="preserve" text-anchor="middle" x="523.25" y="-84.7" font-family="monospace" font-size="14.00" fill="white">(SYNSTALL only)</text>
</g>
<!-- synstall -->
<g id="node1" class="node">
<title>synstall</title>
<ellipse fill="#4d0000" stroke="#ff2020" stroke-width="2" cx="775.62" cy="-466" rx="125.87" ry="125.87"/>
<ellipse fill="none" stroke="#ff2020" stroke-width="2" cx="775.62" cy="-466" rx="129.87" ry="129.87"/>
<text xml:space="preserve" text-anchor="middle" x="775.62" y="-492.12" font-family="monospace" font-size="10.00" fill="white">SYNSTALL</text>
<text xml:space="preserve" text-anchor="middle" x="775.62" y="-477.88" font-family="monospace" font-size="10.00" fill="white">all 7 arrays, ~90 packages</text>
<text xml:space="preserve" text-anchor="middle" x="775.62" y="-463.62" font-family="monospace" font-size="10.00" fill="white">(SYNMINIMAL: baseCore+</text>
<text xml:space="preserve" text-anchor="middle" x="775.62" y="-449.38" font-family="monospace" font-size="10.00" fill="white">netAndServices+shellAndCLI+</text>
<text xml:space="preserve" text-anchor="middle" x="775.62" y="-435.12" font-family="monospace" font-size="10.00" fill="white">desktopStack+3 fonts only)</text>
</g>
<!-- base_ex -->
<g id="node2" class="node">
<title>base_ex</title>
<path fill="#330000" stroke="#e00000" d="M187,-766.5C187,-766.5 93,-766.5 93,-766.5 87,-766.5 81,-760.5 81,-754.5 81,-754.5 81,-713.5 81,-713.5 81,-707.5 87,-701.5 93,-701.5 93,-701.5 187,-701.5 187,-701.5 193,-701.5 199,-707.5 199,-713.5 199,-713.5 199,-754.5 199,-754.5 199,-760.5 193,-766.5 187,-766.5"/>
<text xml:space="preserve" text-anchor="middle" x="140" y="-753" font-family="monospace" font-size="10.00" fill="white">base, linux,</text>
<text xml:space="preserve" text-anchor="middle" x="140" y="-738.75" font-family="monospace" font-size="10.00" fill="white">cryptsetup, lvm2,</text>
<text xml:space="preserve" text-anchor="middle" x="140" y="-724.5" font-family="monospace" font-size="10.00" fill="white">parted, opendoas,</text>
<text xml:space="preserve" text-anchor="middle" x="140" y="-710.25" font-family="monospace" font-size="10.00" fill="white">qemu&#45;guest&#45;agent</text>
</g>
<!-- base_ex&#45;&gt;synstall -->
<g id="edge1" class="edge">
<title>base_ex&#45;&gt;synstall</title>
<path fill="none" stroke="#aaaaaa" d="M199.49,-751.22C294.21,-775.51 483.93,-808.96 616.75,-733 667.81,-703.8 704.03,-650.92 728.79,-599.88"/>
<polygon fill="#aaaaaa" stroke="#aaaaaa" points="731.84,-601.61 732.94,-591.07 725.51,-598.62 731.84,-601.61"/>
</g>
<!-- desktop_ex -->
<g id="node5" class="node">
<title>desktop_ex</title>
<path fill="#330000" stroke="#e00000" d="M593.75,-673.62C593.75,-673.62 451.75,-673.62 451.75,-673.62 445.75,-673.62 439.75,-667.62 439.75,-661.62 439.75,-661.62 439.75,-606.38 439.75,-606.38 439.75,-600.38 445.75,-594.38 451.75,-594.38 451.75,-594.38 593.75,-594.38 593.75,-594.38 599.75,-594.38 605.75,-600.38 605.75,-606.38 605.75,-606.38 605.75,-661.62 605.75,-661.62 605.75,-667.62 599.75,-673.62 593.75,-673.62"/>
<text xml:space="preserve" text-anchor="middle" x="522.75" y="-660.12" font-family="monospace" font-size="10.00" fill="white">labwc, waybar, mako,</text>
<text xml:space="preserve" text-anchor="middle" x="522.75" y="-645.88" font-family="monospace" font-size="10.00" fill="white">wmenu, swaybg,</text>
<text xml:space="preserve" text-anchor="middle" x="522.75" y="-631.62" font-family="monospace" font-size="10.00" fill="white">swaylock, fuzzel,</text>
<text xml:space="preserve" text-anchor="middle" x="522.75" y="-617.38" font-family="monospace" font-size="10.00" fill="white">superfile, qt6&#45;base+cmake</text>
<text xml:space="preserve" text-anchor="middle" x="522.75" y="-603.12" font-family="monospace" font-size="10.00" fill="white">(builds syn&#45;filemanager)</text>
</g>
<!-- base_ex&#45;&gt;desktop_ex -->
<g id="edge8" class="edge">
<title>base_ex&#45;&gt;desktop_ex</title>
<path fill="none" stroke="#665522" stroke-dasharray="1,5" d="M199.24,-718.7C260.27,-702.67 357.05,-677.26 428.69,-658.44"/>
<polygon fill="#665522" stroke="#665522" points="429.26,-661.91 438.05,-655.98 427.49,-655.14 429.26,-661.91"/>
<text xml:space="preserve" text-anchor="middle" x="358.38" y="-719.69" font-family="monospace" font-size="9.00" fill="white"> &#160;fuse, cryptsetup used</text>
<text xml:space="preserve" text-anchor="middle" x="358.38" y="-706.94" font-family="monospace" font-size="9.00" fill="white"> &#160;by superfile/archiver</text>
<text xml:space="preserve" text-anchor="middle" x="358.38" y="-694.19" font-family="monospace" font-size="9.00" fill="white"> &#160;at runtime</text>
</g>
<!-- net_ex -->
<g id="node3" class="node">
<title>net_ex</title>
<path fill="#330000" stroke="#e00000" d="M596.75,-512.75C596.75,-512.75 448.75,-512.75 448.75,-512.75 442.75,-512.75 436.75,-506.75 436.75,-500.75 436.75,-500.75 436.75,-431.25 436.75,-431.25 436.75,-425.25 442.75,-419.25 448.75,-419.25 448.75,-419.25 596.75,-419.25 596.75,-419.25 602.75,-419.25 608.75,-425.25 608.75,-431.25 608.75,-431.25 608.75,-500.75 608.75,-500.75 608.75,-506.75 602.75,-512.75 596.75,-512.75"/>
<text xml:space="preserve" text-anchor="middle" x="522.75" y="-499.25" font-family="monospace" font-size="10.00" fill="white">dhcpcd, iwd,</text>
<text xml:space="preserve" text-anchor="middle" x="522.75" y="-485" font-family="monospace" font-size="10.00" fill="white">openvpn, hostapd,</text>
<text xml:space="preserve" text-anchor="middle" x="522.75" y="-470.75" font-family="monospace" font-size="10.00" fill="white">openssh, sshfs,</text>
<text xml:space="preserve" text-anchor="middle" x="522.75" y="-456.5" font-family="monospace" font-size="10.00" fill="white">bluez, bluez&#45;utils</text>
<text xml:space="preserve" text-anchor="middle" x="522.75" y="-442.25" font-family="monospace" font-size="10.00" fill="white">(sshd/bluetooth installed,</text>
<text xml:space="preserve" text-anchor="middle" x="522.75" y="-428" font-family="monospace" font-size="10.00" fill="white">never auto&#45;enabled)</text>
</g>
<!-- net_ex&#45;&gt;synstall -->
<g id="edge2" class="edge">
<title>net_ex&#45;&gt;synstall</title>
<path fill="none" stroke="#aaaaaa" d="M609.03,-466C617.04,-466 625.29,-466 633.64,-466"/>
<polygon fill="#aaaaaa" stroke="#aaaaaa" points="633.55,-469.5 643.55,-466 633.55,-462.5 633.55,-469.5"/>
</g>
<!-- shell_ex -->
<g id="node4" class="node">
<title>shell_ex</title>
<path fill="#330000" stroke="#e00000" d="M190,-604.38C190,-604.38 90,-604.38 90,-604.38 84,-604.38 78,-598.38 78,-592.38 78,-592.38 78,-565.62 78,-565.62 78,-559.62 84,-553.62 90,-553.62 90,-553.62 190,-553.62 190,-553.62 196,-553.62 202,-559.62 202,-565.62 202,-565.62 202,-592.38 202,-592.38 202,-598.38 196,-604.38 190,-604.38"/>
<text xml:space="preserve" text-anchor="middle" x="140" y="-590.88" font-family="monospace" font-size="10.00" fill="white">zsh, foot, btop,</text>
<text xml:space="preserve" text-anchor="middle" x="140" y="-576.62" font-family="monospace" font-size="10.00" fill="white">ripgrep, bat, fzf,</text>
<text xml:space="preserve" text-anchor="middle" x="140" y="-562.38" font-family="monospace" font-size="10.00" fill="white">zoxide, glow</text>
</g>
<!-- shell_ex&#45;&gt;synstall -->
<g id="edge3" class="edge">
<title>shell_ex&#45;&gt;synstall</title>
<path fill="none" stroke="#aaaaaa" d="M202.31,-578.85C312.74,-578.04 540.67,-573.69 616.75,-552 629.18,-548.46 641.72,-543.81 654,-538.51"/>
<polygon fill="#aaaaaa" stroke="#aaaaaa" points="655.18,-541.82 662.87,-534.53 652.32,-535.43 655.18,-541.82"/>
</g>
<!-- shell_ex&#45;&gt;desktop_ex -->
<g id="edge9" class="edge">
<title>shell_ex&#45;&gt;desktop_ex</title>
<path fill="none" stroke="#665522" stroke-dasharray="1,5" d="M202.17,-587.84C263.23,-596.66 357.86,-610.33 428.33,-620.5"/>
<polygon fill="#665522" stroke="#665522" points="427.52,-623.92 437.92,-621.89 428.52,-617 427.52,-623.92"/>
<text xml:space="preserve" text-anchor="middle" x="358.38" y="-634.7" font-family="monospace" font-size="9.00" fill="white"> &#160;foot is the terminal</text>
<text xml:space="preserve" text-anchor="middle" x="358.38" y="-621.95" font-family="monospace" font-size="9.00" fill="white"> &#160;labwc&#39;s keybind opens</text>
</g>
<!-- desktop_ex&#45;&gt;synstall -->
<g id="edge4" class="edge">
<title>desktop_ex&#45;&gt;synstall</title>
<path fill="none" stroke="#aaaaaa" d="M604.36,-594.01C612.37,-589.48 620.3,-584.77 627.75,-580 640.11,-572.09 652.71,-563.39 665.08,-554.43"/>
<polygon fill="#aaaaaa" stroke="#aaaaaa" points="666.81,-557.5 672.81,-548.77 662.68,-551.85 666.81,-557.5"/>
</g>
<!-- dev_ex -->
<g id="node6" class="node">
<title>dev_ex</title>
<path fill="#330000" stroke="#e00000" d="M560.75,-328.38C560.75,-328.38 484.75,-328.38 484.75,-328.38 478.75,-328.38 472.75,-322.38 472.75,-316.38 472.75,-316.38 472.75,-289.62 472.75,-289.62 472.75,-283.62 478.75,-277.62 484.75,-277.62 484.75,-277.62 560.75,-277.62 560.75,-277.62 566.75,-277.62 572.75,-283.62 572.75,-289.62 572.75,-289.62 572.75,-316.38 572.75,-316.38 572.75,-322.38 566.75,-328.38 560.75,-328.38"/>
<text xml:space="preserve" text-anchor="middle" x="522.75" y="-314.88" font-family="monospace" font-size="10.00" fill="white">gcc, archiso,</text>
<text xml:space="preserve" text-anchor="middle" x="522.75" y="-300.62" font-family="monospace" font-size="10.00" fill="white">android&#45;tools,</text>
<text xml:space="preserve" text-anchor="middle" x="522.75" y="-286.38" font-family="monospace" font-size="10.00" fill="white">binwalk</text>
</g>
<!-- dev_ex&#45;&gt;synstall -->
<g id="edge5" class="edge">
<title>dev_ex&#45;&gt;synstall</title>
<path fill="none" stroke="#aaaaaa" d="M563.5,-328.83C588.76,-345.24 622.89,-367.42 656.35,-389.15"/>
<polygon fill="#aaaaaa" stroke="#aaaaaa" points="654.19,-391.93 664.49,-394.44 658.01,-386.06 654.19,-391.93"/>
</g>
<!-- fonts_ex -->
<g id="node7" class="node">
<title>fonts_ex</title>
<path fill="#330000" stroke="#e00000" d="M566.75,-207.38C566.75,-207.38 478.75,-207.38 478.75,-207.38 472.75,-207.38 466.75,-201.38 466.75,-195.38 466.75,-195.38 466.75,-168.62 466.75,-168.62 466.75,-162.62 472.75,-156.62 478.75,-156.62 478.75,-156.62 566.75,-156.62 566.75,-156.62 572.75,-156.62 578.75,-162.62 578.75,-168.62 578.75,-168.62 578.75,-195.38 578.75,-195.38 578.75,-201.38 572.75,-207.38 566.75,-207.38"/>
<text xml:space="preserve" text-anchor="middle" x="522.75" y="-193.88" font-family="monospace" font-size="10.00" fill="white">terminus&#45;font,</text>
<text xml:space="preserve" text-anchor="middle" x="522.75" y="-179.62" font-family="monospace" font-size="10.00" fill="white">noto&#45;fonts&#45;cjk,</text>
<text xml:space="preserve" text-anchor="middle" x="522.75" y="-165.38" font-family="monospace" font-size="10.00" fill="white">nerd&#45;font glyphs</text>
</g>
<!-- fonts_ex&#45;&gt;synstall -->
<g id="edge6" class="edge">
<title>fonts_ex&#45;&gt;synstall</title>
<path fill="none" stroke="#aaaaaa" d="M554.69,-207.64C573.38,-223.68 597.28,-245.19 616.75,-266 641.88,-292.86 667.34,-323.37 690.26,-352.32"/>
<polygon fill="#aaaaaa" stroke="#aaaaaa" points="687.42,-354.37 696.36,-360.06 692.92,-350.04 687.42,-354.37"/>
</g>
<!-- apps_ex -->
<g id="node8" class="node">
<title>apps_ex</title>
<path fill="#4d1010" stroke="#ff2020" stroke-width="1.5" d="M581.75,-66.38C581.75,-66.38 463.75,-66.38 463.75,-66.38 457.75,-66.38 451.75,-60.38 451.75,-54.38 451.75,-54.38 451.75,-27.62 451.75,-27.62 451.75,-21.62 457.75,-15.62 463.75,-15.62 463.75,-15.62 581.75,-15.62 581.75,-15.62 587.75,-15.62 593.75,-21.62 593.75,-27.62 593.75,-27.62 593.75,-54.38 593.75,-54.38 593.75,-60.38 587.75,-66.38 581.75,-66.38"/>
<text xml:space="preserve" text-anchor="middle" x="522.75" y="-52.88" font-family="monospace" font-size="10.00" fill="white">vlc, gimp,</text>
<text xml:space="preserve" text-anchor="middle" x="522.75" y="-38.62" font-family="monospace" font-size="10.00" fill="white">falkon, openra</text>
<text xml:space="preserve" text-anchor="middle" x="522.75" y="-24.38" font-family="monospace" font-size="10.00" fill="white">(2022&#45;11&#45;07 &#45;&gt; today)</text>
</g>
<!-- apps_ex&#45;&gt;synstall -->
<g id="edge7" class="edge">
<title>apps_ex&#45;&gt;synstall</title>
<path fill="none" stroke="#aaaaaa" d="M550.79,-67.12C570.63,-87.2 597.38,-116.28 616.75,-145 656.71,-204.26 692.65,-275.12 720.11,-335.16"/>
<polygon fill="#aaaaaa" stroke="#aaaaaa" points="716.84,-336.44 724.16,-344.1 723.21,-333.54 716.84,-336.44"/>
</g>
<!-- note -->
<g id="node9" class="node">
<title>note</title>
<polygon fill="#1a1608" stroke="#665522" points="274,-899.38 0,-899.38 0,-848.62 280,-848.62 280,-893.38 274,-899.38"/>
<polyline fill="none" stroke="#665522" points="274,-899.38 274,-893.38"/>
<polyline fill="none" stroke="#665522" points="280,-893.38 274,-893.38"/>
<text xml:space="preserve" text-anchor="middle" x="140" y="-885.88" font-family="monospace" font-size="10.00" fill="#ccaa66">Sizes roughly proportional to package count.</text>
<text xml:space="preserve" text-anchor="middle" x="140" y="-871.62" font-family="monospace" font-size="10.00" fill="#ccaa66">Categorisation is organisational only, not a</text>
<text xml:space="preserve" text-anchor="middle" x="140" y="-857.38" font-family="monospace" font-size="10.00" fill="#ccaa66">dependency hierarchy pacman enforces.</text>
</g>
</g>
</svg>
