<?xml version="1.0" encoding="UTF-8" standalone="no"?>
<!DOCTYPE svg PUBLIC "-//W3C//DTD SVG 1.1//EN"
 "http://www.w3.org/Graphics/SVG/1.1/DTD/svg11.dtd">
<!-- Generated by graphviz version 15.1.0 (0)
 -->
<!-- Title: package_logic Pages: 1 -->
<svg width="1946pt" height="517pt"
 viewBox="0.00 0.00 1946.00 517.00" xmlns="http://www.w3.org/2000/svg" xmlns:xlink="http://www.w3.org/1999/xlink">
<g id="graph0" class="graph" transform="scale(1 1) rotate(0) translate(4 512.88)">
<title>package_logic</title>
<polygon fill="#000000" stroke="none" points="-4,4 -4,-512.88 1941.59,-512.88 1941.59,4 -4,4"/>
<text xml:space="preserve" text-anchor="middle" x="968.8" y="-491.57" font-family="monospace" font-size="14.00" fill="#ff6666">How a package ends up on an installed SYN&#45;OS system</text>
<g id="clust1" class="cluster">
<title>cluster_source</title>
<path fill="#0a0a0a" stroke="#555555" d="M689.59,-375.38C689.59,-375.38 1339.59,-375.38 1339.59,-375.38 1345.59,-375.38 1351.59,-381.38 1351.59,-387.38 1351.59,-387.38 1351.59,-442.88 1351.59,-442.88 1351.59,-448.88 1345.59,-454.88 1339.59,-454.88 1339.59,-454.88 689.59,-454.88 689.59,-454.88 683.59,-454.88 677.59,-448.88 677.59,-442.88 677.59,-442.88 677.59,-387.38 677.59,-387.38 677.59,-381.38 683.59,-375.38 689.59,-375.38"/>
<text xml:space="preserve" text-anchor="middle" x="1014.59" y="-437.57" font-family="monospace" font-size="14.00" fill="white">syn&#45;packages.zsh, 7 arrays</text>
</g>
<g id="clust2" class="cluster">
<title>cluster_bootloader</title>
<path fill="#0a0a0a" stroke="#665522" stroke-dasharray="5,2" d="M297.59,-233.12C297.59,-233.12 657.59,-233.12 657.59,-233.12 663.59,-233.12 669.59,-239.12 669.59,-245.12 669.59,-245.12 669.59,-461.38 669.59,-461.38 669.59,-467.38 663.59,-473.38 657.59,-473.38 657.59,-473.38 297.59,-473.38 297.59,-473.38 291.59,-473.38 285.59,-467.38 285.59,-461.38 285.59,-461.38 285.59,-245.12 285.59,-245.12 285.59,-239.12 291.59,-233.12 297.59,-233.12"/>
<text xml:space="preserve" text-anchor="middle" x="477.59" y="-456.07" font-family="monospace" font-size="14.00" fill="#ccaa66">decided separately, install time</text>
</g>
<!-- isopkgs -->
<g id="node1" class="node">
<title>isopkgs</title>
<polygon fill="#1a1608" stroke="#8a6a2f" points="224.59,-433.88 46.59,-433.88 46.59,-368.88 230.59,-368.88 230.59,-427.88 224.59,-433.88"/>
<polyline fill="none" stroke="#8a6a2f" points="224.59,-433.88 224.59,-427.88"/>
<polyline fill="none" stroke="#8a6a2f" points="230.59,-427.88 224.59,-427.88"/>
<text xml:space="preserve" text-anchor="middle" x="138.59" y="-420.38" font-family="monospace" font-size="10.00" fill="#e0c896">packages.x86_64</text>
<text xml:space="preserve" text-anchor="middle" x="138.59" y="-406.12" font-family="monospace" font-size="10.00" fill="#e0c896">(flat list, baked into the</text>
<text xml:space="preserve" text-anchor="middle" x="138.59" y="-391.88" font-family="monospace" font-size="10.00" fill="#e0c896">live ISO by mkarchiso,</text>
<text xml:space="preserve" text-anchor="middle" x="138.59" y="-377.62" font-family="monospace" font-size="10.00" fill="#e0c896">separate mechanism entirely)</text>
</g>
<!-- isoenv -->
<g id="node2" class="node">
<title>isoenv</title>
<ellipse fill="#1a0000" stroke="#e00000" cx="138.59" cy="-259.12" rx="138.59" ry="35.89"/>
<text xml:space="preserve" text-anchor="middle" x="138.59" y="-271" font-family="monospace" font-size="10.00" fill="white">live ISO environment</text>
<text xml:space="preserve" text-anchor="middle" x="138.59" y="-256.75" font-family="monospace" font-size="10.00" fill="white">(what synos&#45;install runs from,</text>
<text xml:space="preserve" text-anchor="middle" x="138.59" y="-242.5" font-family="monospace" font-size="10.00" fill="white">never reaches target disk)</text>
</g>
<!-- isopkgs&#45;&gt;isoenv -->
<g id="edge1" class="edge">
<title>isopkgs&#45;&gt;isoenv</title>
<path fill="none" stroke="#8a6a2f" d="M138.59,-368.55C138.59,-350.22 138.59,-326.86 138.59,-306.52"/>
<polygon fill="#8a6a2f" stroke="#8a6a2f" points="142.09,-306.78 138.59,-296.78 135.09,-306.78 142.09,-306.78"/>
</g>
<!-- baseCore -->
<g id="node3" class="node">
<title>baseCore</title>
<path fill="#330000" stroke="#e00000" d="M1213.59,-419.38C1213.59,-419.38 1173.59,-419.38 1173.59,-419.38 1167.59,-419.38 1161.59,-413.38 1161.59,-407.38 1161.59,-407.38 1161.59,-395.38 1161.59,-395.38 1161.59,-389.38 1167.59,-383.38 1173.59,-383.38 1173.59,-383.38 1213.59,-383.38 1213.59,-383.38 1219.59,-383.38 1225.59,-389.38 1225.59,-395.38 1225.59,-395.38 1225.59,-407.38 1225.59,-407.38 1225.59,-413.38 1219.59,-419.38 1213.59,-419.38"/>
<text xml:space="preserve" text-anchor="middle" x="1193.59" y="-399" font-family="monospace" font-size="10.00" fill="white">baseCore</text>
</g>
<!-- synstall -->
<g id="node11" class="node">
<title>synstall</title>
<path fill="#4d0000" stroke="#ff2020" stroke-width="2" d="M1012.59,-284.5C1012.59,-284.5 912.59,-284.5 912.59,-284.5 906.59,-284.5 900.59,-278.5 900.59,-272.5 900.59,-272.5 900.59,-245.75 900.59,-245.75 900.59,-239.75 906.59,-233.75 912.59,-233.75 912.59,-233.75 1012.59,-233.75 1012.59,-233.75 1018.59,-233.75 1024.59,-239.75 1024.59,-245.75 1024.59,-245.75 1024.59,-272.5 1024.59,-272.5 1024.59,-278.5 1018.59,-284.5 1012.59,-284.5"/>
<text xml:space="preserve" text-anchor="middle" x="962.59" y="-271" font-family="monospace" font-size="10.00" fill="white">SYNSTALL</text>
<text xml:space="preserve" text-anchor="middle" x="962.59" y="-256.75" font-family="monospace" font-size="10.00" fill="white">all 7 arrays, flat</text>
<text xml:space="preserve" text-anchor="middle" x="962.59" y="-242.5" font-family="monospace" font-size="10.00" fill="white">concatenation</text>
</g>
<!-- baseCore&#45;&gt;synstall -->
<g id="edge2" class="edge">
<title>baseCore&#45;&gt;synstall</title>
<path fill="none" stroke="#aaaaaa" d="M1183.07,-383.01C1175.63,-371.8 1164.82,-357.5 1152.59,-347.5 1108.36,-311.3 1086.19,-321.12 1033.59,-298.75 1027.72,-296.25 1021.69,-293.42 1015.75,-290.46"/>
<polygon fill="#aaaaaa" stroke="#aaaaaa" points="1017.71,-287.53 1007.22,-286.07 1014.51,-293.76 1017.71,-287.53"/>
</g>
<!-- synminimal -->
<g id="node12" class="node">
<title>synminimal</title>
<path fill="#4d0000" stroke="#ff2020" stroke-width="2" d="M1244.59,-298.75C1244.59,-298.75 1054.59,-298.75 1054.59,-298.75 1048.59,-298.75 1042.59,-292.75 1042.59,-286.75 1042.59,-286.75 1042.59,-231.5 1042.59,-231.5 1042.59,-225.5 1048.59,-219.5 1054.59,-219.5 1054.59,-219.5 1244.59,-219.5 1244.59,-219.5 1250.59,-219.5 1256.59,-225.5 1256.59,-231.5 1256.59,-231.5 1256.59,-286.75 1256.59,-286.75 1256.59,-292.75 1250.59,-298.75 1244.59,-298.75"/>
<text xml:space="preserve" text-anchor="middle" x="1149.59" y="-285.25" font-family="monospace" font-size="10.00" fill="white">SYNMINIMAL</text>
<text xml:space="preserve" text-anchor="middle" x="1149.59" y="-271" font-family="monospace" font-size="10.00" fill="white">baseCore+netAndServices+</text>
<text xml:space="preserve" text-anchor="middle" x="1149.59" y="-256.75" font-family="monospace" font-size="10.00" fill="white">shellAndCLI+desktopStack in full,</text>
<text xml:space="preserve" text-anchor="middle" x="1149.59" y="-242.5" font-family="monospace" font-size="10.00" fill="white">3 font packages only,</text>
<text xml:space="preserve" text-anchor="middle" x="1149.59" y="-228.25" font-family="monospace" font-size="10.00" fill="white">devToolkit+appsMedia skipped</text>
</g>
<!-- baseCore&#45;&gt;synminimal -->
<g id="edge3" class="edge">
<title>baseCore&#45;&gt;synminimal</title>
<path fill="none" stroke="#aaaaaa" d="M1190.68,-383.13C1187.56,-366.04 1182.03,-339.22 1174.59,-316.75 1173.9,-314.65 1173.15,-312.51 1172.37,-310.37"/>
<polygon fill="#aaaaaa" stroke="#aaaaaa" points="1175.63,-309.11 1168.74,-301.07 1169.11,-311.65 1175.63,-309.11"/>
</g>
<!-- netAndServices -->
<g id="node4" class="node">
<title>netAndServices</title>
<path fill="#330000" stroke="#e00000" d="M1331.59,-419.38C1331.59,-419.38 1255.59,-419.38 1255.59,-419.38 1249.59,-419.38 1243.59,-413.38 1243.59,-407.38 1243.59,-407.38 1243.59,-395.38 1243.59,-395.38 1243.59,-389.38 1249.59,-383.38 1255.59,-383.38 1255.59,-383.38 1331.59,-383.38 1331.59,-383.38 1337.59,-383.38 1343.59,-389.38 1343.59,-395.38 1343.59,-395.38 1343.59,-407.38 1343.59,-407.38 1343.59,-413.38 1337.59,-419.38 1331.59,-419.38"/>
<text xml:space="preserve" text-anchor="middle" x="1293.59" y="-399" font-family="monospace" font-size="10.00" fill="white">netAndServices</text>
</g>
<!-- netAndServices&#45;&gt;synstall -->
<g id="edge4" class="edge">
<title>netAndServices&#45;&gt;synstall</title>
<path fill="none" stroke="#aaaaaa" d="M1278.4,-383.07C1267.33,-371.46 1251.38,-356.65 1234.59,-347.5 1189.28,-322.78 1172.81,-328.71 1122.59,-316.75 1083.33,-307.4 1071.52,-312.55 1033.59,-298.75 1027.1,-296.39 1020.48,-293.51 1014.02,-290.39"/>
<polygon fill="#aaaaaa" stroke="#aaaaaa" points="1015.9,-287.42 1005.4,-286.03 1012.75,-293.67 1015.9,-287.42"/>
</g>
<!-- netAndServices&#45;&gt;synminimal -->
<g id="edge5" class="edge">
<title>netAndServices&#45;&gt;synminimal</title>
<path fill="none" stroke="#aaaaaa" d="M1289.81,-383.11C1285.03,-364.74 1275.21,-335.77 1257.59,-316.75 1254.22,-313.11 1250.57,-309.67 1246.71,-306.41"/>
<polygon fill="#aaaaaa" stroke="#aaaaaa" points="1249.18,-303.9 1239.14,-300.51 1244.87,-309.42 1249.18,-303.9"/>
</g>
<!-- shellAndCLI -->
<g id="node5" class="node">
<title>shellAndCLI</title>
<path fill="#330000" stroke="#e00000" d="M937.59,-419.38C937.59,-419.38 879.59,-419.38 879.59,-419.38 873.59,-419.38 867.59,-413.38 867.59,-407.38 867.59,-407.38 867.59,-395.38 867.59,-395.38 867.59,-389.38 873.59,-383.38 879.59,-383.38 879.59,-383.38 937.59,-383.38 937.59,-383.38 943.59,-383.38 949.59,-389.38 949.59,-395.38 949.59,-395.38 949.59,-407.38 949.59,-407.38 949.59,-413.38 943.59,-419.38 937.59,-419.38"/>
<text xml:space="preserve" text-anchor="middle" x="908.59" y="-399" font-family="monospace" font-size="10.00" fill="white">shellAndCLI</text>
</g>
<!-- shellAndCLI&#45;&gt;synstall -->
<g id="edge6" class="edge">
<title>shellAndCLI&#45;&gt;synstall</title>
<path fill="none" stroke="#aaaaaa" d="M910.17,-383.17C912.2,-365.86 916.59,-338.68 925.59,-316.75 928.66,-309.28 932.75,-301.74 937.09,-294.7"/>
<polygon fill="#aaaaaa" stroke="#aaaaaa" points="939.75,-297.04 942.26,-286.75 933.88,-293.22 939.75,-297.04"/>
</g>
<!-- shellAndCLI&#45;&gt;synminimal -->
<g id="edge7" class="edge">
<title>shellAndCLI&#45;&gt;synminimal</title>
<path fill="none" stroke="#aaaaaa" d="M922.04,-383C931.38,-371.8 944.62,-357.5 958.59,-347.5 981.5,-331.11 1007.97,-316.65 1033.77,-304.46"/>
<polygon fill="#aaaaaa" stroke="#aaaaaa" points="1035.02,-307.73 1042.63,-300.36 1032.08,-301.38 1035.02,-307.73"/>
</g>
<!-- desktopStack -->
<g id="node6" class="node">
<title>desktopStack</title>
<path fill="#330000" stroke="#e00000" d="M1131.59,-419.38C1131.59,-419.38 1067.59,-419.38 1067.59,-419.38 1061.59,-419.38 1055.59,-413.38 1055.59,-407.38 1055.59,-407.38 1055.59,-395.38 1055.59,-395.38 1055.59,-389.38 1061.59,-383.38 1067.59,-383.38 1067.59,-383.38 1131.59,-383.38 1131.59,-383.38 1137.59,-383.38 1143.59,-389.38 1143.59,-395.38 1143.59,-395.38 1143.59,-407.38 1143.59,-407.38 1143.59,-413.38 1137.59,-419.38 1131.59,-419.38"/>
<text xml:space="preserve" text-anchor="middle" x="1099.59" y="-399" font-family="monospace" font-size="10.00" fill="white">desktopStack</text>
</g>
<!-- desktopStack&#45;&gt;synstall -->
<g id="edge8" class="edge">
<title>desktopStack&#45;&gt;synstall</title>
<path fill="none" stroke="#aaaaaa" d="M1098.07,-382.99C1095.6,-364.53 1089.19,-335.47 1072.59,-316.75 1059.93,-302.47 1050.65,-307.32 1033.59,-298.75 1028.47,-296.18 1023.18,-293.45 1017.9,-290.67"/>
<polygon fill="#aaaaaa" stroke="#aaaaaa" points="1019.62,-287.62 1009.15,-286.01 1016.33,-293.8 1019.62,-287.62"/>
</g>
<!-- desktopStack&#45;&gt;synminimal -->
<g id="edge9" class="edge">
<title>desktopStack&#45;&gt;synminimal</title>
<path fill="none" stroke="#aaaaaa" d="M1105.82,-382.9C1112.28,-364.78 1122.68,-335.61 1131.72,-310.25"/>
<polygon fill="#aaaaaa" stroke="#aaaaaa" points="1134.93,-311.68 1134.99,-301.08 1128.34,-309.32 1134.93,-311.68"/>
</g>
<!-- devToolkit -->
<g id="node7" class="node">
<title>devToolkit</title>
<path fill="#330000" stroke="#e00000" d="M749.59,-419.38C749.59,-419.38 697.59,-419.38 697.59,-419.38 691.59,-419.38 685.59,-413.38 685.59,-407.38 685.59,-407.38 685.59,-395.38 685.59,-395.38 685.59,-389.38 691.59,-383.38 697.59,-383.38 697.59,-383.38 749.59,-383.38 749.59,-383.38 755.59,-383.38 761.59,-389.38 761.59,-395.38 761.59,-395.38 761.59,-407.38 761.59,-407.38 761.59,-413.38 755.59,-419.38 749.59,-419.38"/>
<text xml:space="preserve" text-anchor="middle" x="723.59" y="-399" font-family="monospace" font-size="10.00" fill="white">devToolkit</text>
</g>
<!-- devToolkit&#45;&gt;synstall -->
<g id="edge10" class="edge">
<title>devToolkit&#45;&gt;synstall</title>
<path fill="none" stroke="#aaaaaa" d="M736.03,-382.95C744.73,-371.72 757.15,-357.42 770.59,-347.5 806.56,-320.97 851.86,-299.88 889.43,-285.07"/>
<polygon fill="#aaaaaa" stroke="#aaaaaa" points="890.32,-288.47 898.39,-281.61 887.8,-281.95 890.32,-288.47"/>
</g>
<!-- fontsI18n -->
<g id="node8" class="node">
<title>fontsI18n</title>
<path fill="#330000" stroke="#e00000" d="M1025.59,-419.38C1025.59,-419.38 979.59,-419.38 979.59,-419.38 973.59,-419.38 967.59,-413.38 967.59,-407.38 967.59,-407.38 967.59,-395.38 967.59,-395.38 967.59,-389.38 973.59,-383.38 979.59,-383.38 979.59,-383.38 1025.59,-383.38 1025.59,-383.38 1031.59,-383.38 1037.59,-389.38 1037.59,-395.38 1037.59,-395.38 1037.59,-407.38 1037.59,-407.38 1037.59,-413.38 1031.59,-419.38 1025.59,-419.38"/>
<text xml:space="preserve" text-anchor="middle" x="1002.59" y="-399" font-family="monospace" font-size="10.00" fill="white">fontsI18n</text>
</g>
<!-- fontsI18n&#45;&gt;synstall -->
<g id="edge11" class="edge">
<title>fontsI18n&#45;&gt;synstall</title>
<path fill="none" stroke="#aaaaaa" d="M997.61,-382.9C991.46,-361.34 980.85,-324.14 972.92,-296.33"/>
<polygon fill="#aaaaaa" stroke="#aaaaaa" points="976.33,-295.54 970.23,-286.89 969.6,-297.46 976.33,-295.54"/>
</g>
<!-- fontsI18n&#45;&gt;synminimal -->
<g id="edge12" class="edge">
<title>fontsI18n&#45;&gt;synminimal</title>
<path fill="none" stroke="#aaaaaa" stroke-dasharray="5,2" d="M1011.29,-383.12C1021.02,-365.04 1038.12,-336.55 1058.59,-316.75 1062.23,-313.24 1066.12,-309.83 1070.16,-306.55"/>
<polygon fill="#aaaaaa" stroke="#aaaaaa" points="1072.24,-309.36 1078.04,-300.49 1067.98,-303.81 1072.24,-309.36"/>
<text xml:space="preserve" text-anchor="middle" x="1090.09" y="-320.95" font-family="monospace" font-size="9.00" fill="white"> 3 pkgs only</text>
</g>
<!-- appsMedia -->
<g id="node9" class="node">
<title>appsMedia</title>
<path fill="#330000" stroke="#e00000" d="M837.59,-419.38C837.59,-419.38 791.59,-419.38 791.59,-419.38 785.59,-419.38 779.59,-413.38 779.59,-407.38 779.59,-407.38 779.59,-395.38 779.59,-395.38 779.59,-389.38 785.59,-383.38 791.59,-383.38 791.59,-383.38 837.59,-383.38 837.59,-383.38 843.59,-383.38 849.59,-389.38 849.59,-395.38 849.59,-395.38 849.59,-407.38 849.59,-407.38 849.59,-413.38 843.59,-419.38 837.59,-419.38"/>
<text xml:space="preserve" text-anchor="middle" x="814.59" y="-399" font-family="monospace" font-size="10.00" fill="white">appsMedia</text>
</g>
<!-- appsMedia&#45;&gt;synstall -->
<g id="edge13" class="edge">
<title>appsMedia&#45;&gt;synstall</title>
<path fill="none" stroke="#aaaaaa" d="M827.73,-383.04C836.12,-372.38 847.47,-358.67 858.59,-347.5 877.84,-328.17 900.93,-308.46 920.45,-292.67"/>
<polygon fill="#aaaaaa" stroke="#aaaaaa" points="922.63,-295.41 928.25,-286.43 918.26,-289.95 922.63,-295.41"/>
</g>
<!-- profile -->
<g id="node10" class="node">
<title>profile</title>
<path fill="#1a1608" stroke="#8a6a2f" d="M1450.32,-433.76C1450.32,-433.76 1372.87,-405.49 1372.87,-405.49 1367.23,-403.43 1367.23,-399.32 1372.87,-397.26 1372.87,-397.26 1450.32,-368.99 1450.32,-368.99 1455.96,-366.93 1467.23,-366.93 1472.87,-368.99 1472.87,-368.99 1550.32,-397.26 1550.32,-397.26 1555.96,-399.32 1555.96,-403.43 1550.32,-405.49 1550.32,-405.49 1472.87,-433.76 1472.87,-433.76 1467.23,-435.82 1455.96,-435.82 1450.32,-433.76"/>
<text xml:space="preserve" text-anchor="middle" x="1461.59" y="-406.12" font-family="monospace" font-size="10.00" fill="#e0c896">PackageProfile</text>
<text xml:space="preserve" text-anchor="middle" x="1461.59" y="-391.88" font-family="monospace" font-size="10.00" fill="#e0c896">(synos.conf)</text>
</g>
<!-- profile&#45;&gt;synstall -->
<g id="edge14" class="edge">
<title>profile&#45;&gt;synstall</title>
<path fill="none" stroke="#aaaaaa" d="M1424,-378.18C1404.24,-367.41 1379.26,-355.18 1355.59,-347.5 1276.31,-321.78 1253.04,-329.01 1170.59,-316.75 1109.85,-307.71 1091.99,-317.74 1033.59,-298.75 1026.85,-296.56 1020,-293.72 1013.35,-290.59"/>
<polygon fill="#aaaaaa" stroke="#aaaaaa" points="1014.98,-287.49 1004.47,-286.14 1011.85,-293.75 1014.98,-287.49"/>
<text xml:space="preserve" text-anchor="middle" x="1319.34" y="-320.95" font-family="monospace" font-size="9.00" fill="white"> full (default)</text>
</g>
<!-- profile&#45;&gt;synminimal -->
<g id="edge15" class="edge">
<title>profile&#45;&gt;synminimal</title>
<path fill="none" stroke="#aaaaaa" d="M1453.61,-367.68C1447.65,-350.04 1437.68,-329.36 1421.59,-316.75 1397.42,-297.8 1329.99,-283.69 1268.31,-274.29"/>
<polygon fill="#aaaaaa" stroke="#aaaaaa" points="1269.18,-270.89 1258.77,-272.88 1268.15,-277.81 1269.18,-270.89"/>
<text xml:space="preserve" text-anchor="middle" x="1454.8" y="-320.95" font-family="monospace" font-size="9.00" fill="white"> minimal</text>
</g>
<!-- pacstrap -->
<g id="node17" class="node">
<title>pacstrap</title>
<path fill="#1a0000" stroke="#e00000" d="M699.59,-182.5C699.59,-182.5 545.59,-182.5 545.59,-182.5 539.59,-182.5 533.59,-176.5 533.59,-170.5 533.59,-170.5 533.59,-158 533.59,-158 533.59,-152 539.59,-146 545.59,-146 545.59,-146 699.59,-146 699.59,-146 705.59,-146 711.59,-152 711.59,-158 711.59,-158 711.59,-170.5 711.59,-170.5 711.59,-176.5 705.59,-182.5 699.59,-182.5"/>
<text xml:space="preserve" text-anchor="middle" x="622.59" y="-169" font-family="monospace" font-size="10.00" fill="white">pacstrap &#45;K</text>
<text xml:space="preserve" text-anchor="middle" x="622.59" y="-154.75" font-family="monospace" font-size="10.00" fill="white">(syn&#45;pacstrap.zsh, Stage 0)</text>
</g>
<!-- synstall&#45;&gt;pacstrap -->
<g id="edge19" class="edge">
<title>synstall&#45;&gt;pacstrap</title>
<path fill="none" stroke="#aaaaaa" d="M899.84,-240.98C842.94,-225.44 758.94,-202.5 698.33,-185.94"/>
<polygon fill="#aaaaaa" stroke="#aaaaaa" points="699.33,-182.58 688.76,-183.32 697.48,-189.33 699.33,-182.58"/>
</g>
<!-- synminimal&#45;&gt;pacstrap -->
<g id="edge20" class="edge">
<title>synminimal&#45;&gt;pacstrap</title>
<path fill="none" stroke="#aaaaaa" d="M1041.73,-221.46C1039,-220.78 1036.28,-220.12 1033.59,-219.5 929.15,-195.45 807.16,-181.02 723.36,-173.16"/>
<polygon fill="#aaaaaa" stroke="#aaaaaa" points="723.84,-169.69 713.56,-172.26 723.2,-176.66 723.84,-169.69"/>
</g>
<!-- partstrat -->
<g id="node13" class="node">
<title>partstrat</title>
<path fill="#1a1608" stroke="#8a6a2f" d="M465.82,-435.54C465.82,-435.54 305.36,-403.71 305.36,-403.71 299.48,-402.54 299.48,-400.21 305.36,-399.04 305.36,-399.04 465.82,-367.21 465.82,-367.21 471.71,-366.04 483.48,-366.04 489.36,-367.21 489.36,-367.21 649.82,-399.04 649.82,-399.04 655.71,-400.21 655.71,-402.54 649.82,-403.71 649.82,-403.71 489.36,-435.54 489.36,-435.54 483.48,-436.71 471.71,-436.71 465.82,-435.54"/>
<text xml:space="preserve" text-anchor="middle" x="477.59" y="-406.12" font-family="monospace" font-size="10.00" fill="#e0c896">PartitionStrat</text>
<text xml:space="preserve" text-anchor="middle" x="477.59" y="-391.88" font-family="monospace" font-size="10.00" fill="#e0c896">(resolved by syn&#45;config.zsh)</text>
</g>
<!-- uefi_pkgs -->
<g id="node14" class="node">
<title>uefi_pkgs</title>
<path fill="#1a1608" stroke="#8a6a2f" d="M488.59,-277.12C488.59,-277.12 376.59,-277.12 376.59,-277.12 370.59,-277.12 364.59,-271.12 364.59,-265.12 364.59,-265.12 364.59,-253.12 364.59,-253.12 364.59,-247.12 370.59,-241.12 376.59,-241.12 376.59,-241.12 488.59,-241.12 488.59,-241.12 494.59,-241.12 500.59,-247.12 500.59,-253.12 500.59,-253.12 500.59,-265.12 500.59,-265.12 500.59,-271.12 494.59,-277.12 488.59,-277.12"/>
<text xml:space="preserve" text-anchor="middle" x="432.59" y="-256.75" font-family="monospace" font-size="10.00" fill="#e0c896">efibootmgr + systemd</text>
</g>
<!-- partstrat&#45;&gt;uefi_pkgs -->
<g id="edge16" class="edge">
<title>partstrat&#45;&gt;uefi_pkgs</title>
<path fill="none" stroke="#aaaaaa" d="M453.09,-369.36C445.21,-357.56 437.45,-343.56 433.34,-329.5 429.55,-316.53 428.94,-301.61 429.45,-288.94"/>
<polygon fill="#aaaaaa" stroke="#aaaaaa" points="432.93,-289.34 430.11,-279.12 425.94,-288.87 432.93,-289.34"/>
<text xml:space="preserve" text-anchor="middle" x="467.47" y="-320.95" font-family="monospace" font-size="9.00" fill="white"> uefi&#45;bootctl</text>
</g>
<!-- grub_pkgs -->
<g id="node15" class="node">
<title>grub_pkgs</title>
<path fill="#1a1608" stroke="#8a6a2f" d="M560.59,-277.12C560.59,-277.12 530.59,-277.12 530.59,-277.12 524.59,-277.12 518.59,-271.12 518.59,-265.12 518.59,-265.12 518.59,-253.12 518.59,-253.12 518.59,-247.12 524.59,-241.12 530.59,-241.12 530.59,-241.12 560.59,-241.12 560.59,-241.12 566.59,-241.12 572.59,-247.12 572.59,-253.12 572.59,-253.12 572.59,-265.12 572.59,-265.12 572.59,-271.12 566.59,-277.12 560.59,-277.12"/>
<text xml:space="preserve" text-anchor="middle" x="545.59" y="-256.75" font-family="monospace" font-size="10.00" fill="#e0c896">grub</text>
</g>
<!-- partstrat&#45;&gt;grub_pkgs -->
<g id="edge17" class="edge">
<title>partstrat&#45;&gt;grub_pkgs</title>
<path fill="none" stroke="#aaaaaa" d="M493.36,-367.85C505.15,-343.54 521.09,-310.67 532.25,-287.65"/>
<polygon fill="#aaaaaa" stroke="#aaaaaa" points="535.28,-289.42 536.49,-278.9 528.98,-286.37 535.28,-289.42"/>
<text xml:space="preserve" text-anchor="middle" x="541.31" y="-320.95" font-family="monospace" font-size="9.00" fill="white"> mbr&#45;grub</text>
</g>
<!-- syslinux_pkgs -->
<g id="node16" class="node">
<title>syslinux_pkgs</title>
<path fill="#1a1608" stroke="#8a6a2f" d="M642.59,-277.12C642.59,-277.12 602.59,-277.12 602.59,-277.12 596.59,-277.12 590.59,-271.12 590.59,-265.12 590.59,-265.12 590.59,-253.12 590.59,-253.12 590.59,-247.12 596.59,-241.12 602.59,-241.12 602.59,-241.12 642.59,-241.12 642.59,-241.12 648.59,-241.12 654.59,-247.12 654.59,-253.12 654.59,-253.12 654.59,-265.12 654.59,-265.12 654.59,-271.12 648.59,-277.12 642.59,-277.12"/>
<text xml:space="preserve" text-anchor="middle" x="622.59" y="-256.75" font-family="monospace" font-size="10.00" fill="#e0c896">syslinux</text>
</g>
<!-- partstrat&#45;&gt;syslinux_pkgs -->
<g id="edge18" class="edge">
<title>partstrat&#45;&gt;syslinux_pkgs</title>
<path fill="none" stroke="#aaaaaa" d="M517.88,-372.37C534.37,-360.08 553.16,-344.94 568.59,-329.5 581.7,-316.38 594.54,-300.09 604.4,-286.59"/>
<polygon fill="#aaaaaa" stroke="#aaaaaa" points="607.16,-288.74 610.13,-278.57 601.47,-284.67 607.16,-288.74"/>
<text xml:space="preserve" text-anchor="middle" x="614.18" y="-320.95" font-family="monospace" font-size="9.00" fill="white"> mbr&#45;syslinux</text>
</g>
<!-- uefi_pkgs&#45;&gt;pacstrap -->
<g id="edge21" class="edge">
<title>uefi_pkgs&#45;&gt;pacstrap</title>
<path fill="none" stroke="#8a6a2f" stroke-dasharray="5,2" d="M467.03,-240.69C480.3,-234.01 495.63,-226.35 509.59,-219.5 531.05,-208.97 554.9,-197.48 575.14,-187.81"/>
<polygon fill="#8a6a2f" stroke="#8a6a2f" points="576.48,-191.05 584,-183.58 573.46,-184.73 576.48,-191.05"/>
</g>
<!-- grub_pkgs&#45;&gt;pacstrap -->
<g id="edge22" class="edge">
<title>grub_pkgs&#45;&gt;pacstrap</title>
<path fill="none" stroke="#8a6a2f" stroke-dasharray="5,2" d="M560.08,-240.66C571.51,-226.86 587.65,-207.39 600.67,-191.69"/>
<polygon fill="#8a6a2f" stroke="#8a6a2f" points="603.26,-194.05 606.95,-184.12 597.87,-189.59 603.26,-194.05"/>
</g>
<!-- syslinux_pkgs&#45;&gt;pacstrap -->
<g id="edge23" class="edge">
<title>syslinux_pkgs&#45;&gt;pacstrap</title>
<path fill="none" stroke="#8a6a2f" stroke-dasharray="5,2" d="M622.59,-240.66C622.59,-227.64 622.59,-209.56 622.59,-194.37"/>
<polygon fill="#8a6a2f" stroke="#8a6a2f" points="626.09,-194.47 622.59,-184.47 619.09,-194.47 626.09,-194.47"/>
</g>
<!-- fstab -->
<g id="node18" class="node">
<title>fstab</title>
<path fill="#330000" stroke="#e00000" d="M690.59,-109C690.59,-109 554.59,-109 554.59,-109 548.59,-109 542.59,-103 542.59,-97 542.59,-97 542.59,-85 542.59,-85 542.59,-79 548.59,-73 554.59,-73 554.59,-73 690.59,-73 690.59,-73 696.59,-73 702.59,-79 702.59,-85 702.59,-85 702.59,-97 702.59,-97 702.59,-103 696.59,-109 690.59,-109"/>
<text xml:space="preserve" text-anchor="middle" x="622.59" y="-88.62" font-family="monospace" font-size="10.00" fill="white">genfstab &#45;U &gt; /etc/fstab</text>
</g>
<!-- pacstrap&#45;&gt;fstab -->
<g id="edge24" class="edge">
<title>pacstrap&#45;&gt;fstab</title>
<path fill="none" stroke="#aaaaaa" d="M622.59,-145.64C622.59,-138.13 622.59,-129.18 622.59,-120.75"/>
<polygon fill="#aaaaaa" stroke="#aaaaaa" points="626.09,-120.92 622.59,-110.92 619.09,-120.92 626.09,-120.92"/>
</g>
<!-- installed -->
<g id="node19" class="node">
<title>installed</title>
<ellipse fill="#1a0000" stroke="#e00000" cx="622.59" cy="-18" rx="71.23" ry="18"/>
<text xml:space="preserve" text-anchor="middle" x="622.59" y="-15.62" font-family="monospace" font-size="10.00" fill="white">installed system</text>
</g>
<!-- fstab&#45;&gt;installed -->
<g id="edge25" class="edge">
<title>fstab&#45;&gt;installed</title>
<path fill="none" stroke="#aaaaaa" d="M622.59,-72.81C622.59,-65.23 622.59,-56.1 622.59,-47.54"/>
<polygon fill="#aaaaaa" stroke="#aaaaaa" points="626.09,-47.54 622.59,-37.54 619.09,-47.54 626.09,-47.54"/>
</g>
<!-- note -->
<g id="node20" class="node">
<title>note</title>
<polygon fill="#1a1608" stroke="#665522" points="1931.59,-455.25 1579.59,-455.25 1579.59,-347.5 1937.59,-347.5 1937.59,-449.25 1931.59,-455.25"/>
<polyline fill="none" stroke="#665522" points="1931.59,-455.25 1931.59,-449.25"/>
<polyline fill="none" stroke="#665522" points="1937.59,-449.25 1931.59,-449.25"/>
<text xml:space="preserve" text-anchor="middle" x="1758.59" y="-441.75" font-family="monospace" font-size="10.00" fill="#ccaa66">Categories are organisational only, the file says so</text>
<text xml:space="preserve" text-anchor="middle" x="1758.59" y="-427.5" font-family="monospace" font-size="10.00" fill="#ccaa66">directly. pacman treats every package identically once</text>
<text xml:space="preserve" text-anchor="middle" x="1758.59" y="-413.25" font-family="monospace" font-size="10.00" fill="#ccaa66">installed, there is no protected tier: removing something</text>
<text xml:space="preserve" text-anchor="middle" x="1758.59" y="-399" font-family="monospace" font-size="10.00" fill="#ccaa66">the desktop depends on (waybar, labwc, a zsh plugin) is</text>
<text xml:space="preserve" text-anchor="middle" x="1758.59" y="-384.75" font-family="monospace" font-size="10.00" fill="#ccaa66">on you to avoid, same as any other Arch install.</text>
<text xml:space="preserve" text-anchor="middle" x="1758.59" y="-370.5" font-family="monospace" font-size="10.00" fill="#ccaa66">packages.x86_64 and syn&#45;packages.zsh never share code &#45;&#45;</text>
<text xml:space="preserve" text-anchor="middle" x="1758.59" y="-356.25" font-family="monospace" font-size="10.00" fill="#ccaa66">two lists, two moments, kept in sync by hand only.</text>
</g>
</g>
</svg>
