<?xml version="1.0" encoding="UTF-8" standalone="no"?>
<!DOCTYPE svg PUBLIC "-//W3C//DTD SVG 1.1//EN"
 "http://www.w3.org/Graphics/SVG/1.1/DTD/svg11.dtd">
<!-- Generated by graphviz version 15.1.0 (0)
 -->
<!-- Title: wifi_connect_flow Pages: 1 -->
<svg width="739pt" height="1942pt"
 viewBox="0.00 0.00 739.00 1942.00" xmlns="http://www.w3.org/2000/svg" xmlns:xlink="http://www.w3.org/1999/xlink">
<g id="graph0" class="graph" transform="scale(1 1) rotate(0) translate(4 1937.78)">
<title>wifi_connect_flow</title>
<polygon fill="#000000" stroke="none" points="-4,4 -4,-1937.78 734.79,-1937.78 734.79,4 -4,4"/>
<text xml:space="preserve" text-anchor="middle" x="365.39" y="-1916.48" font-family="monospace" font-size="14.00" fill="#ff6666">syn&#45;bar&#45;wifi.zsh: from a bar click to a connected network</text>
<g id="clust1" class="cluster">
<title>cluster_clean</title>
<path fill="#0a0a0a" stroke="#555555" d="M183.41,-868.34C183.41,-868.34 423.41,-868.34 423.41,-868.34 429.41,-868.34 435.41,-874.34 435.41,-880.34 435.41,-880.34 435.41,-1258.34 435.41,-1258.34 435.41,-1264.34 429.41,-1270.34 423.41,-1270.34 423.41,-1270.34 183.41,-1270.34 183.41,-1270.34 177.41,-1270.34 171.41,-1264.34 171.41,-1258.34 171.41,-1258.34 171.41,-880.34 171.41,-880.34 171.41,-874.34 177.41,-868.34 183.41,-868.34"/>
<text xml:space="preserve" text-anchor="middle" x="303.41" y="-1253.04" font-family="monospace" font-size="14.00" fill="white">get&#45;networks &#45;&gt; bare SSID list</text>
</g>
<!-- click -->
<g id="node1" class="node">
<title>click</title>
<ellipse fill="#1a0000" stroke="#e00000" cx="123.41" cy="-1880.47" rx="70.71" ry="25.81"/>
<text xml:space="preserve" text-anchor="middle" x="123.41" y="-1885.22" font-family="monospace" font-size="10.00" fill="white">click waybar&#39;s</text>
<text xml:space="preserve" text-anchor="middle" x="123.41" y="-1870.97" font-family="monospace" font-size="10.00" fill="white">network module</text>
</g>
<!-- device -->
<g id="node2" class="node">
<title>device</title>
<path fill="#330000" stroke="#e00000" d="M185.41,-1817.66C185.41,-1817.66 61.41,-1817.66 61.41,-1817.66 55.41,-1817.66 49.41,-1811.66 49.41,-1805.66 49.41,-1805.66 49.41,-1778.91 49.41,-1778.91 49.41,-1772.91 55.41,-1766.91 61.41,-1766.91 61.41,-1766.91 185.41,-1766.91 185.41,-1766.91 191.41,-1766.91 197.41,-1772.91 197.41,-1778.91 197.41,-1778.91 197.41,-1805.66 197.41,-1805.66 197.41,-1811.66 191.41,-1817.66 185.41,-1817.66"/>
<text xml:space="preserve" text-anchor="middle" x="123.41" y="-1804.16" font-family="monospace" font-size="10.00" fill="white">iwctl device list</text>
<text xml:space="preserve" text-anchor="middle" x="123.41" y="-1789.91" font-family="monospace" font-size="10.00" fill="white">(ANSI&#45;stripped, match</text>
<text xml:space="preserve" text-anchor="middle" x="123.41" y="-1775.66" font-family="monospace" font-size="10.00" fill="white">column 5 == &quot;station&quot;)</text>
</g>
<!-- click&#45;&gt;device -->
<g id="edge5" class="edge">
<title>click&#45;&gt;device</title>
<path fill="none" stroke="#aaaaaa" d="M123.41,-1854.54C123.41,-1846.77 123.41,-1838.03 123.41,-1829.65"/>
<polygon fill="#aaaaaa" stroke="#aaaaaa" points="126.91,-1829.67 123.41,-1819.67 119.91,-1829.67 126.91,-1829.67"/>
</g>
<!-- found -->
<g id="node3" class="node">
<title>found</title>
<path fill="#1a1608" stroke="#8a6a2f" d="M112.22,-1725.57C112.22,-1725.57 40.6,-1697.75 40.6,-1697.75 35,-1695.58 35,-1691.24 40.6,-1689.07 40.6,-1689.07 112.22,-1661.25 112.22,-1661.25 117.82,-1659.08 129,-1659.08 134.6,-1661.25 134.6,-1661.25 206.22,-1689.07 206.22,-1689.07 211.82,-1691.24 211.82,-1695.58 206.22,-1697.75 206.22,-1697.75 134.6,-1725.57 134.6,-1725.57 129,-1727.74 117.82,-1727.74 112.22,-1725.57"/>
<text xml:space="preserve" text-anchor="middle" x="123.41" y="-1698.16" font-family="monospace" font-size="10.00" fill="#e0c896">station&#45;mode</text>
<text xml:space="preserve" text-anchor="middle" x="123.41" y="-1683.91" font-family="monospace" font-size="10.00" fill="#e0c896">device found?</text>
</g>
<!-- device&#45;&gt;found -->
<g id="edge6" class="edge">
<title>device&#45;&gt;found</title>
<path fill="none" stroke="#aaaaaa" d="M123.41,-1766.59C123.41,-1758.95 123.41,-1750.26 123.41,-1741.63"/>
<polygon fill="#aaaaaa" stroke="#aaaaaa" points="126.91,-1741.91 123.41,-1731.91 119.91,-1741.91 126.91,-1741.91"/>
</g>
<!-- nodev -->
<g id="node4" class="node">
<title>nodev</title>
<ellipse fill="#330000" stroke="#ff2020" stroke-width="2" cx="104.41" cy="-1503.75" rx="100.41" ry="100.41"/>
<ellipse fill="none" stroke="#ff2020" stroke-width="2" cx="104.41" cy="-1503.75" rx="104.41" ry="104.41"/>
<text xml:space="preserve" text-anchor="middle" x="104.41" y="-1508.5" font-family="monospace" font-size="10.00" fill="#ff8888">toast: &quot;No wireless</text>
<text xml:space="preserve" text-anchor="middle" x="104.41" y="-1494.25" font-family="monospace" font-size="10.00" fill="#ff8888">device found&quot;, exit 1</text>
</g>
<!-- found&#45;&gt;nodev -->
<g id="edge7" class="edge">
<title>found&#45;&gt;nodev</title>
<path fill="none" stroke="#aaaaaa" d="M119.92,-1657.99C118.78,-1646.72 117.45,-1633.51 116.04,-1619.64"/>
<polygon fill="#aaaaaa" stroke="#aaaaaa" points="119.55,-1619.52 115.06,-1609.92 112.58,-1620.22 119.55,-1619.52"/>
<text xml:space="preserve" text-anchor="middle" x="125.67" y="-1630.36" font-family="monospace" font-size="9.00" fill="white"> no</text>
</g>
<!-- toastscan -->
<g id="node5" class="node">
<title>toastscan</title>
<path fill="#4d0000" stroke="#e00000" d="M368.41,-1536.25C368.41,-1536.25 238.41,-1536.25 238.41,-1536.25 232.41,-1536.25 226.41,-1530.25 226.41,-1524.25 226.41,-1524.25 226.41,-1483.25 226.41,-1483.25 226.41,-1477.25 232.41,-1471.25 238.41,-1471.25 238.41,-1471.25 368.41,-1471.25 368.41,-1471.25 374.41,-1471.25 380.41,-1477.25 380.41,-1483.25 380.41,-1483.25 380.41,-1524.25 380.41,-1524.25 380.41,-1530.25 374.41,-1536.25 368.41,-1536.25"/>
<text xml:space="preserve" text-anchor="middle" x="303.41" y="-1522.75" font-family="monospace" font-size="10.00" fill="white">toast: &quot;Scanning for</text>
<text xml:space="preserve" text-anchor="middle" x="303.41" y="-1508.5" font-family="monospace" font-size="10.00" fill="white">networks...&quot;</text>
<text xml:space="preserve" text-anchor="middle" x="303.41" y="-1494.25" font-family="monospace" font-size="10.00" fill="white">(click gave no feedback</text>
<text xml:space="preserve" text-anchor="middle" x="303.41" y="-1480" font-family="monospace" font-size="10.00" fill="white">until now)</text>
</g>
<!-- found&#45;&gt;toastscan -->
<g id="edge8" class="edge">
<title>found&#45;&gt;toastscan</title>
<path fill="none" stroke="#aaaaaa" d="M152.8,-1668.02C171.86,-1651.73 196.88,-1629.46 217.41,-1608.16 236.43,-1588.42 256.1,-1565.04 271.81,-1545.5"/>
<polygon fill="#aaaaaa" stroke="#aaaaaa" points="274.51,-1547.72 278.02,-1537.72 269.04,-1543.36 274.51,-1547.72"/>
<text xml:space="preserve" text-anchor="middle" x="208.28" y="-1630.36" font-family="monospace" font-size="9.00" fill="white"> yes</text>
</g>
<!-- scan -->
<g id="node6" class="node">
<title>scan</title>
<path fill="#1a0000" stroke="#e00000" d="M386.41,-1362.34C386.41,-1362.34 220.41,-1362.34 220.41,-1362.34 214.41,-1362.34 208.41,-1356.34 208.41,-1350.34 208.41,-1350.34 208.41,-1309.34 208.41,-1309.34 208.41,-1303.34 214.41,-1297.34 220.41,-1297.34 220.41,-1297.34 386.41,-1297.34 386.41,-1297.34 392.41,-1297.34 398.41,-1303.34 398.41,-1309.34 398.41,-1309.34 398.41,-1350.34 398.41,-1350.34 398.41,-1356.34 392.41,-1362.34 386.41,-1362.34"/>
<text xml:space="preserve" text-anchor="middle" x="303.41" y="-1348.84" font-family="monospace" font-size="10.00" fill="white">iwctl station &lt;iface&gt; scan</text>
<text xml:space="preserve" text-anchor="middle" x="303.41" y="-1334.59" font-family="monospace" font-size="10.00" fill="white">(async over D&#45;Bus,</text>
<text xml:space="preserve" text-anchor="middle" x="303.41" y="-1320.34" font-family="monospace" font-size="10.00" fill="white">returns before results exist)</text>
<text xml:space="preserve" text-anchor="middle" x="303.41" y="-1306.09" font-family="monospace" font-size="10.00" fill="white">sleep 3</text>
</g>
<!-- toastscan&#45;&gt;scan -->
<g id="edge9" class="edge">
<title>toastscan&#45;&gt;scan</title>
<path fill="none" stroke="#aaaaaa" d="M303.41,-1470.82C303.41,-1443.56 303.41,-1404.11 303.41,-1374.03"/>
<polygon fill="#aaaaaa" stroke="#aaaaaa" points="306.91,-1374.12 303.41,-1364.12 299.91,-1374.12 306.91,-1374.12"/>
</g>
<!-- getnet -->
<g id="node7" class="node">
<title>getnet</title>
<path fill="#4d0000" stroke="#e00000" d="M362.41,-1234.84C362.41,-1234.84 244.41,-1234.84 244.41,-1234.84 238.41,-1234.84 232.41,-1228.84 232.41,-1222.84 232.41,-1222.84 232.41,-1196.09 232.41,-1196.09 232.41,-1190.09 238.41,-1184.09 244.41,-1184.09 244.41,-1184.09 362.41,-1184.09 362.41,-1184.09 368.41,-1184.09 374.41,-1190.09 374.41,-1196.09 374.41,-1196.09 374.41,-1222.84 374.41,-1222.84 374.41,-1228.84 368.41,-1234.84 362.41,-1234.84"/>
<text xml:space="preserve" text-anchor="middle" x="303.41" y="-1221.34" font-family="monospace" font-size="10.00" fill="white">iwctl station &lt;iface&gt;</text>
<text xml:space="preserve" text-anchor="middle" x="303.41" y="-1207.09" font-family="monospace" font-size="10.00" fill="white">get&#45;networks</text>
<text xml:space="preserve" text-anchor="middle" x="303.41" y="-1192.84" font-family="monospace" font-size="10.00" fill="white">(boxed table output)</text>
</g>
<!-- scan&#45;&gt;getnet -->
<g id="edge10" class="edge">
<title>scan&#45;&gt;getnet</title>
<path fill="none" stroke="#aaaaaa" d="M303.41,-1297.12C303.41,-1281.47 303.41,-1262.53 303.41,-1246.35"/>
<polygon fill="#aaaaaa" stroke="#aaaaaa" points="306.91,-1246.66 303.41,-1236.66 299.91,-1246.66 306.91,-1246.66"/>
</g>
<!-- strip1 -->
<g id="node8" class="node">
<title>strip1</title>
<path fill="#330000" stroke="#e00000" d="M353.41,-1147.09C353.41,-1147.09 253.41,-1147.09 253.41,-1147.09 247.41,-1147.09 241.41,-1141.09 241.41,-1135.09 241.41,-1135.09 241.41,-1123.09 241.41,-1123.09 241.41,-1117.09 247.41,-1111.09 253.41,-1111.09 253.41,-1111.09 353.41,-1111.09 353.41,-1111.09 359.41,-1111.09 365.41,-1117.09 365.41,-1123.09 365.41,-1123.09 365.41,-1135.09 365.41,-1135.09 365.41,-1141.09 359.41,-1147.09 353.41,-1147.09"/>
<text xml:space="preserve" text-anchor="middle" x="303.41" y="-1126.72" font-family="monospace" font-size="10.00" fill="white">strip ANSI escapes</text>
</g>
<!-- getnet&#45;&gt;strip1 -->
<g id="edge1" class="edge">
<title>getnet&#45;&gt;strip1</title>
<path fill="none" stroke="#aaaaaa" d="M303.41,-1183.67C303.41,-1175.71 303.41,-1166.84 303.41,-1158.64"/>
<polygon fill="#aaaaaa" stroke="#aaaaaa" points="306.91,-1158.81 303.41,-1148.81 299.91,-1158.81 306.91,-1158.81"/>
</g>
<!-- strip2 -->
<g id="node9" class="node">
<title>strip2</title>
<path fill="#330000" stroke="#e00000" d="M374.41,-1074.09C374.41,-1074.09 232.41,-1074.09 232.41,-1074.09 226.41,-1074.09 220.41,-1068.09 220.41,-1062.09 220.41,-1062.09 220.41,-1049.59 220.41,-1049.59 220.41,-1043.59 226.41,-1037.59 232.41,-1037.59 232.41,-1037.59 374.41,-1037.59 374.41,-1037.59 380.41,-1037.59 386.41,-1043.59 386.41,-1049.59 386.41,-1049.59 386.41,-1062.09 386.41,-1062.09 386.41,-1068.09 380.41,-1074.09 374.41,-1074.09"/>
<text xml:space="preserve" text-anchor="middle" x="303.41" y="-1060.59" font-family="monospace" font-size="10.00" fill="white">drop first 4 lines</text>
<text xml:space="preserve" text-anchor="middle" x="303.41" y="-1046.34" font-family="monospace" font-size="10.00" fill="white">(border+header+separator)</text>
</g>
<!-- strip1&#45;&gt;strip2 -->
<g id="edge2" class="edge">
<title>strip1&#45;&gt;strip2</title>
<path fill="none" stroke="#aaaaaa" d="M303.41,-1110.84C303.41,-1103.34 303.41,-1094.34 303.41,-1085.86"/>
<polygon fill="#aaaaaa" stroke="#aaaaaa" points="306.91,-1085.94 303.41,-1075.94 299.91,-1085.94 306.91,-1085.94"/>
</g>
<!-- strip3 -->
<g id="node10" class="node">
<title>strip3</title>
<path fill="#330000" stroke="#e00000" d="M368.41,-1000.59C368.41,-1000.59 238.41,-1000.59 238.41,-1000.59 232.41,-1000.59 226.41,-994.59 226.41,-988.59 226.41,-988.59 226.41,-976.09 226.41,-976.09 226.41,-970.09 232.41,-964.09 238.41,-964.09 238.41,-964.09 368.41,-964.09 368.41,-964.09 374.41,-964.09 380.41,-970.09 380.41,-976.09 380.41,-976.09 380.41,-988.59 380.41,-988.59 380.41,-994.59 374.41,-1000.59 368.41,-1000.59"/>
<text xml:space="preserve" text-anchor="middle" x="303.41" y="-987.09" font-family="monospace" font-size="10.00" fill="white">strip leading */&gt;/space</text>
<text xml:space="preserve" text-anchor="middle" x="303.41" y="-972.84" font-family="monospace" font-size="10.00" fill="white">(known&#45;network markers)</text>
</g>
<!-- strip2&#45;&gt;strip3 -->
<g id="edge3" class="edge">
<title>strip2&#45;&gt;strip3</title>
<path fill="none" stroke="#aaaaaa" d="M303.41,-1037.17C303.41,-1029.64 303.41,-1020.65 303.41,-1012.2"/>
<polygon fill="#aaaaaa" stroke="#aaaaaa" points="306.91,-1012.33 303.41,-1002.33 299.91,-1012.33 306.91,-1012.33"/>
</g>
<!-- strip4 -->
<g id="node11" class="node">
<title>strip4</title>
<path fill="#330000" stroke="#e00000" d="M383.41,-927.09C383.41,-927.09 223.41,-927.09 223.41,-927.09 217.41,-927.09 211.41,-921.09 211.41,-915.09 211.41,-915.09 211.41,-888.34 211.41,-888.34 211.41,-882.34 217.41,-876.34 223.41,-876.34 223.41,-876.34 383.41,-876.34 383.41,-876.34 389.41,-876.34 395.41,-882.34 395.41,-888.34 395.41,-888.34 395.41,-915.09 395.41,-915.09 395.41,-921.09 389.41,-927.09 383.41,-927.09"/>
<text xml:space="preserve" text-anchor="middle" x="303.41" y="-913.59" font-family="monospace" font-size="10.00" fill="white">truncate at first</text>
<text xml:space="preserve" text-anchor="middle" x="303.41" y="-899.34" font-family="monospace" font-size="10.00" fill="white">2+&#45;space gap</text>
<text xml:space="preserve" text-anchor="middle" x="303.41" y="-885.09" font-family="monospace" font-size="10.00" fill="white">(drops Security/Signal cols)</text>
</g>
<!-- strip3&#45;&gt;strip4 -->
<g id="edge4" class="edge">
<title>strip3&#45;&gt;strip4</title>
<path fill="none" stroke="#aaaaaa" d="M303.41,-963.89C303.41,-956.55 303.41,-947.72 303.41,-939.08"/>
<polygon fill="#aaaaaa" stroke="#aaaaaa" points="306.91,-939.09 303.41,-929.09 299.91,-939.09 306.91,-939.09"/>
</g>
<!-- picker -->
<g id="node12" class="node">
<title>picker</title>
<path fill="#4d0000" stroke="#ff2020" stroke-width="2" d="M392.41,-839.34C392.41,-839.34 214.41,-839.34 214.41,-839.34 208.41,-839.34 202.41,-833.34 202.41,-827.34 202.41,-827.34 202.41,-800.59 202.41,-800.59 202.41,-794.59 208.41,-788.59 214.41,-788.59 214.41,-788.59 392.41,-788.59 392.41,-788.59 398.41,-788.59 404.41,-794.59 404.41,-800.59 404.41,-800.59 404.41,-827.34 404.41,-827.34 404.41,-833.34 398.41,-839.34 392.41,-839.34"/>
<text xml:space="preserve" text-anchor="middle" x="303.41" y="-825.84" font-family="monospace" font-size="10.00" fill="white">syn_pick::rofi SSID picker</text>
<text xml:space="preserve" text-anchor="middle" x="303.41" y="-811.59" font-family="monospace" font-size="10.00" fill="white">(720px, up to 15 visible,</text>
<text xml:space="preserve" text-anchor="middle" x="303.41" y="-797.34" font-family="monospace" font-size="10.00" fill="white">themed from live SYN_* palette)</text>
</g>
<!-- strip4&#45;&gt;picker -->
<g id="edge11" class="edge">
<title>strip4&#45;&gt;picker</title>
<path fill="none" stroke="#aaaaaa" d="M303.41,-875.92C303.41,-868.32 303.41,-859.79 303.41,-851.58"/>
<polygon fill="#aaaaaa" stroke="#aaaaaa" points="306.91,-851.82 303.41,-841.82 299.91,-851.82 306.91,-851.82"/>
</g>
<!-- chosen -->
<g id="node13" class="node">
<title>chosen</title>
<path fill="#1a1608" stroke="#8a6a2f" d="M291.71,-748.93C291.71,-748.93 235.96,-736.25 235.96,-736.25 230.11,-734.92 230.11,-732.26 235.96,-730.93 235.96,-730.93 291.71,-718.25 291.71,-718.25 297.56,-716.92 309.26,-716.92 315.11,-718.25 315.11,-718.25 370.86,-730.93 370.86,-730.93 376.71,-732.26 376.71,-734.92 370.86,-736.25 370.86,-736.25 315.11,-748.93 315.11,-748.93 309.26,-750.26 297.56,-750.26 291.71,-748.93"/>
<text xml:space="preserve" text-anchor="middle" x="303.41" y="-731.22" font-family="monospace" font-size="10.00" fill="#e0c896">SSID chosen?</text>
</g>
<!-- picker&#45;&gt;chosen -->
<g id="edge12" class="edge">
<title>picker&#45;&gt;chosen</title>
<path fill="none" stroke="#aaaaaa" d="M303.41,-787.74C303.41,-780.01 303.41,-771.45 303.41,-763.5"/>
<polygon fill="#aaaaaa" stroke="#aaaaaa" points="306.91,-763.6 303.41,-753.6 299.91,-763.6 306.91,-763.6"/>
</g>
<!-- dismissed -->
<g id="node14" class="node">
<title>dismissed</title>
<ellipse fill="#330000" stroke="#666666" stroke-width="2" cx="284.41" cy="-579.4" rx="83.44" ry="83.44"/>
<ellipse fill="none" stroke="#666666" stroke-width="2" cx="284.41" cy="-579.4" rx="87.44" ry="87.44"/>
<text xml:space="preserve" text-anchor="middle" x="284.41" y="-591.28" font-family="monospace" font-size="10.00" fill="white">picker dismissed,</text>
<text xml:space="preserve" text-anchor="middle" x="284.41" y="-577.03" font-family="monospace" font-size="10.00" fill="white">exit normally,</text>
<text xml:space="preserve" text-anchor="middle" x="284.41" y="-562.78" font-family="monospace" font-size="10.00" fill="white">no popup opens</text>
</g>
<!-- chosen&#45;&gt;dismissed -->
<g id="edge13" class="edge">
<title>chosen&#45;&gt;dismissed</title>
<path fill="none" stroke="#aaaaaa" d="M301.3,-715.72C300.08,-705.92 298.43,-692.68 296.63,-678.31"/>
<polygon fill="#aaaaaa" stroke="#aaaaaa" points="300.14,-678.12 295.42,-668.63 293.19,-678.99 300.14,-678.12"/>
<text xml:space="preserve" text-anchor="middle" x="306.69" y="-689.04" font-family="monospace" font-size="9.00" fill="white"> no</text>
</g>
<!-- popup -->
<g id="node15" class="node">
<title>popup</title>
<path fill="#1a0000" stroke="#e00000" d="M543.41,-604.78C543.41,-604.78 401.41,-604.78 401.41,-604.78 395.41,-604.78 389.41,-598.78 389.41,-592.78 389.41,-592.78 389.41,-566.03 389.41,-566.03 389.41,-560.03 395.41,-554.03 401.41,-554.03 401.41,-554.03 543.41,-554.03 543.41,-554.03 549.41,-554.03 555.41,-560.03 555.41,-566.03 555.41,-566.03 555.41,-592.78 555.41,-592.78 555.41,-598.78 549.41,-604.78 543.41,-604.78"/>
<text xml:space="preserve" text-anchor="middle" x="472.41" y="-591.28" font-family="monospace" font-size="10.00" fill="white">syn_popup::run:</text>
<text xml:space="preserve" text-anchor="middle" x="472.41" y="-577.03" font-family="monospace" font-size="10.00" fill="white">undecorated centered foot</text>
<text xml:space="preserve" text-anchor="middle" x="472.41" y="-562.78" font-family="monospace" font-size="10.00" fill="white">(app&#45;id=syn&#45;os&#45;popup)</text>
</g>
<!-- chosen&#45;&gt;popup -->
<g id="edge14" class="edge">
<title>chosen&#45;&gt;popup</title>
<path fill="none" stroke="#aaaaaa" d="M319.83,-718.96C335.55,-705.81 359.85,-685.26 380.41,-666.84 400.05,-649.25 421.55,-629.1 438.82,-612.68"/>
<polygon fill="#aaaaaa" stroke="#aaaaaa" points="441.02,-615.43 445.84,-606 436.19,-610.36 441.02,-615.43"/>
<text xml:space="preserve" text-anchor="middle" x="370.03" y="-689.04" font-family="monospace" font-size="9.00" fill="white"> yes</text>
</g>
<!-- connect -->
<g id="node16" class="node">
<title>connect</title>
<path fill="#330000" stroke="#e00000" d="M537.41,-454.97C537.41,-454.97 407.41,-454.97 407.41,-454.97 401.41,-454.97 395.41,-448.97 395.41,-442.97 395.41,-442.97 395.41,-401.97 395.41,-401.97 395.41,-395.97 401.41,-389.97 407.41,-389.97 407.41,-389.97 537.41,-389.97 537.41,-389.97 543.41,-389.97 549.41,-395.97 549.41,-401.97 549.41,-401.97 549.41,-442.97 549.41,-442.97 549.41,-448.97 543.41,-454.97 537.41,-454.97"/>
<text xml:space="preserve" text-anchor="middle" x="472.41" y="-441.47" font-family="monospace" font-size="10.00" fill="white">iwctl station &lt;iface&gt;</text>
<text xml:space="preserve" text-anchor="middle" x="472.41" y="-427.22" font-family="monospace" font-size="10.00" fill="white">connect &lt;ssid&gt;</text>
<text xml:space="preserve" text-anchor="middle" x="472.41" y="-412.97" font-family="monospace" font-size="10.00" fill="white">(interactive passphrase</text>
<text xml:space="preserve" text-anchor="middle" x="472.41" y="-398.72" font-family="monospace" font-size="10.00" fill="white">prompt if secured)</text>
</g>
<!-- popup&#45;&gt;connect -->
<g id="edge15" class="edge">
<title>popup&#45;&gt;connect</title>
<path fill="none" stroke="#aaaaaa" d="M472.41,-553.85C472.41,-530.45 472.41,-494.72 472.41,-466.57"/>
<polygon fill="#aaaaaa" stroke="#aaaaaa" points="475.91,-466.94 472.41,-456.94 468.91,-466.94 475.91,-466.94"/>
</g>
<!-- rc -->
<g id="node17" class="node">
<title>rc</title>
<path fill="#1a1608" stroke="#8a6a2f" d="M460.8,-349.91C460.8,-349.91 415.65,-338.02 415.65,-338.02 409.85,-336.49 409.85,-333.44 415.65,-331.91 415.65,-331.91 460.8,-320.02 460.8,-320.02 466.61,-318.49 478.21,-318.49 484.01,-320.02 484.01,-320.02 529.16,-331.91 529.16,-331.91 534.97,-333.44 534.97,-336.49 529.16,-338.02 529.16,-338.02 484.01,-349.91 484.01,-349.91 478.21,-351.44 466.61,-351.44 460.8,-349.91"/>
<text xml:space="preserve" text-anchor="middle" x="472.41" y="-332.59" font-family="monospace" font-size="10.00" fill="#e0c896">exit code?</text>
</g>
<!-- connect&#45;&gt;rc -->
<g id="edge16" class="edge">
<title>connect&#45;&gt;rc</title>
<path fill="none" stroke="#aaaaaa" d="M472.41,-389.63C472.41,-381.43 472.41,-372.66 472.41,-364.63"/>
<polygon fill="#aaaaaa" stroke="#aaaaaa" points="475.91,-364.71 472.41,-354.71 468.91,-364.71 475.91,-364.71"/>
</g>
<!-- ok -->
<g id="node18" class="node">
<title>ok</title>
<ellipse fill="#4d0000" stroke="#ff2020" stroke-width="2" cx="336.41" cy="-134.11" rx="130.11" ry="130.11"/>
<ellipse fill="none" stroke="#ff2020" stroke-width="2" cx="336.41" cy="-134.11" rx="134.11" ry="134.11"/>
<text xml:space="preserve" text-anchor="middle" x="336.41" y="-138.86" font-family="monospace" font-size="10.00" fill="white">popup closes itself</text>
<text xml:space="preserve" text-anchor="middle" x="336.41" y="-124.61" font-family="monospace" font-size="10.00" fill="white">toast: &quot;Connected to &lt;ssid&gt;&quot;</text>
</g>
<!-- rc&#45;&gt;ok -->
<g id="edge17" class="edge">
<title>rc&#45;&gt;ok</title>
<path fill="none" stroke="#aaaaaa" d="M462.41,-319.34C452.42,-304.74 436.05,-280.8 418.35,-254.93"/>
<polygon fill="#aaaaaa" stroke="#aaaaaa" points="421.44,-253.24 412.91,-246.96 415.66,-257.19 421.44,-253.24"/>
<text xml:space="preserve" text-anchor="middle" x="451.64" y="-290.42" font-family="monospace" font-size="9.00" fill="white"> 0</text>
</g>
<!-- bad -->
<g id="node19" class="node">
<title>bad</title>
<ellipse fill="#330000" stroke="#ff2020" stroke-width="2" cx="609.41" cy="-134.11" rx="117.38" ry="117.38"/>
<ellipse fill="none" stroke="#ff2020" stroke-width="2" cx="609.41" cy="-134.11" rx="121.38" ry="121.38"/>
<text xml:space="preserve" text-anchor="middle" x="609.41" y="-153.11" font-family="monospace" font-size="10.00" fill="#ff8888">popup waits for keypress</text>
<text xml:space="preserve" text-anchor="middle" x="609.41" y="-138.86" font-family="monospace" font-size="10.00" fill="#ff8888">(error stays visible)</text>
<text xml:space="preserve" text-anchor="middle" x="609.41" y="-124.61" font-family="monospace" font-size="10.00" fill="#ff8888">toast (critical): &quot;Failed</text>
<text xml:space="preserve" text-anchor="middle" x="609.41" y="-110.36" font-family="monospace" font-size="10.00" fill="#ff8888">to connect to &lt;ssid&gt;&quot;</text>
</g>
<!-- rc&#45;&gt;bad -->
<g id="edge18" class="edge">
<title>rc&#45;&gt;bad</title>
<path fill="none" stroke="#aaaaaa" d="M482.48,-319.34C493.91,-302.76 513.63,-274.13 534.17,-244.32"/>
<polygon fill="#aaaaaa" stroke="#aaaaaa" points="536.91,-246.51 539.7,-236.29 531.15,-242.54 536.91,-246.51"/>
<text xml:space="preserve" text-anchor="middle" x="523" y="-290.42" font-family="monospace" font-size="9.00" fill="white"> nonzero</text>
</g>
<!-- note -->
<g id="node20" class="node">
<title>note</title>
<polygon fill="#1a1608" stroke="#665522" points="516.41,-1905.85 212.41,-1905.85 212.41,-1855.1 522.41,-1855.1 522.41,-1899.85 516.41,-1905.85"/>
<polyline fill="none" stroke="#665522" points="516.41,-1905.85 516.41,-1899.85"/>
<polyline fill="none" stroke="#665522" points="522.41,-1899.85 516.41,-1899.85"/>
<text xml:space="preserve" text-anchor="middle" x="367.41" y="-1892.35" font-family="monospace" font-size="10.00" fill="#ccaa66">No NetworkManager applet, no standalone wifi GUI.</text>
<text xml:space="preserve" text-anchor="middle" x="367.41" y="-1878.1" font-family="monospace" font-size="10.00" fill="#ccaa66">One script drives iwd directly through iwctl &#45;&#45;</text>
<text xml:space="preserve" text-anchor="middle" x="367.41" y="-1863.85" font-family="monospace" font-size="10.00" fill="#ccaa66">no intermediate daemon or config file of its own.</text>
</g>
</g>
</svg>
