<?xml version="1.0" encoding="UTF-8" standalone="no"?><!DOCTYPE svg PUBLIC "-//W3C//DTD SVG 1.1//EN" "http://www.w3.org/Graphics/SVG/1.1/DTD/svg11.dtd"><!-- Generated by graphviz version 2.40.1 (20161225.0304)
 --><!-- Title: script_flow Pages: 1 --><svg xmlns="http://www.w3.org/2000/svg" xmlns:xlink="http://www.w3.org/1999/xlink" width="1895pt" height="1173pt" viewBox="0.00 0.00 1894.96 1172.80">
<g id="graph0" class="graph" transform="scale(1 1) rotate(0) translate(4 1168.8)">
<title>script_flow</title>
<polygon fill="#ffffff" stroke="transparent" points="-4,4 -4,-1168.8 1890.9586,-1168.8 1890.9586,4 -4,4"/>
<!-- variable -->
<g id="node1" class="node">
<title>variable</title>
<path fill="#7fbfff" stroke="#285577" d="M1158.5042,-1164.8C1158.5042,-1164.8 1117.4958,-1164.8 1117.4958,-1164.8 1111.4958,-1164.8 1105.4958,-1158.8 1105.4958,-1152.8 1105.4958,-1152.8 1105.4958,-1140.8 1105.4958,-1140.8 1105.4958,-1134.8 1111.4958,-1128.8 1117.4958,-1128.8 1117.4958,-1128.8 1158.5042,-1128.8 1158.5042,-1128.8 1164.5042,-1128.8 1170.5042,-1134.8 1170.5042,-1140.8 1170.5042,-1140.8 1170.5042,-1152.8 1170.5042,-1152.8 1170.5042,-1158.8 1164.5042,-1164.8 1158.5042,-1164.8"/>
<text text-anchor="middle" x="1138" y="-1142.6" font-family="Arial" font-size="14.00" fill="#000000">variable</text>
</g>
<!-- device -->
<g id="node2" class="node">
<title>device</title>
<path fill="#ffa07a" stroke="#8b4513" d="M1233.4562,-1164.8C1233.4562,-1164.8 1200.5438,-1164.8 1200.5438,-1164.8 1194.5438,-1164.8 1188.5438,-1158.8 1188.5438,-1152.8 1188.5438,-1152.8 1188.5438,-1140.8 1188.5438,-1140.8 1188.5438,-1134.8 1194.5438,-1128.8 1200.5438,-1128.8 1200.5438,-1128.8 1233.4562,-1128.8 1233.4562,-1128.8 1239.4562,-1128.8 1245.4562,-1134.8 1245.4562,-1140.8 1245.4562,-1140.8 1245.4562,-1152.8 1245.4562,-1152.8 1245.4562,-1158.8 1239.4562,-1164.8 1233.4562,-1164.8"/>
<text text-anchor="middle" x="1217" y="-1142.6" font-family="Arial" font-size="14.00" fill="#000000">device</text>
</g>
<!-- process -->
<g id="node3" class="node">
<title>process</title>
<path fill="#98fb98" stroke="#006400" d="M1316.5084,-1164.8C1316.5084,-1164.8 1275.4916,-1164.8 1275.4916,-1164.8 1269.4916,-1164.8 1263.4916,-1158.8 1263.4916,-1152.8 1263.4916,-1152.8 1263.4916,-1140.8 1263.4916,-1140.8 1263.4916,-1134.8 1269.4916,-1128.8 1275.4916,-1128.8 1275.4916,-1128.8 1316.5084,-1128.8 1316.5084,-1128.8 1322.5084,-1128.8 1328.5084,-1134.8 1328.5084,-1140.8 1328.5084,-1140.8 1328.5084,-1152.8 1328.5084,-1152.8 1328.5084,-1158.8 1322.5084,-1164.8 1316.5084,-1164.8"/>
<text text-anchor="middle" x="1296" y="-1142.6" font-family="Arial" font-size="14.00" fill="#000000">process</text>
</g>
<!-- start_end -->
<g id="node4" class="node">
<title>start_end</title>
<ellipse fill="#ffffcc" stroke="#333300" cx="1398" cy="-1146.8" rx="51.078" ry="18"/>
<text text-anchor="middle" x="1398" y="-1142.6" font-family="Arial" font-size="14.00" fill="#000000">start_end</text>
</g>
<!-- intermediate -->
<g id="node5" class="node">
<title>intermediate</title>
<path fill="#d3d3d3" stroke="#696969" d="M1548.5112,-1164.8C1548.5112,-1164.8 1479.4888,-1164.8 1479.4888,-1164.8 1473.4888,-1164.8 1467.4888,-1158.8 1467.4888,-1152.8 1467.4888,-1152.8 1467.4888,-1140.8 1467.4888,-1140.8 1467.4888,-1134.8 1473.4888,-1128.8 1479.4888,-1128.8 1479.4888,-1128.8 1548.5112,-1128.8 1548.5112,-1128.8 1554.5112,-1128.8 1560.5112,-1134.8 1560.5112,-1140.8 1560.5112,-1140.8 1560.5112,-1152.8 1560.5112,-1152.8 1560.5112,-1158.8 1554.5112,-1164.8 1548.5112,-1164.8"/>
<text text-anchor="middle" x="1514" y="-1142.6" font-family="Arial" font-size="14.00" fill="#000000">intermediate</text>
</g>
<!-- syntax990 -->
<g id="node6" class="node">
<title>syntax990</title>
<polygon fill="#d3d3d3" stroke="#696969" points="1390.1773,-983.8 1094.0109,-983.8 1017.8227,-947.8 1313.9891,-947.8 1390.1773,-983.8"/>
<text text-anchor="middle" x="1204" y="-961.6" font-family="Arial" font-size="14.00" fill="#000000">Run 'syntax990' Command</text>
</g>
<!-- check_edit_vars -->
<g id="node7" class="node">
<title>check_edit_vars</title>
<polygon fill="#ffa07a" stroke="#8b4513" points="1290.6487,-878.2 1117.3513,-878.2 1117.3513,-842.2 1290.6487,-842.2 1290.6487,-878.2"/>
<text text-anchor="middle" x="1204" y="-856" font-family="Arial" font-size="14.00" fill="#000000">Check and Edit Variables</text>
</g>
<!-- syntax990&#45;&gt;check_edit_vars -->
<g id="edge1" class="edge">
<title>syntax990-&gt;check_edit_vars</title>
<path fill="none" stroke="#000000" d="M1204,-947.4059C1204,-931.1279 1204,-907.1223 1204,-888.4163"/>
<polygon fill="#000000" stroke="#000000" points="1207.5001,-888.3833 1204,-878.3833 1200.5001,-888.3834 1207.5001,-888.3833"/>
<text text-anchor="middle" x="1247.1571" y="-917.2" font-family="Times,serif" font-size="14.00" fill="#000000">Check and Edit</text>
<text text-anchor="middle" x="1247.1571" y="-900.4" font-family="Times,serif" font-size="14.00" fill="#000000">Variables</text>
</g>
<!-- ascii_art -->
<g id="node8" class="node">
<title>ascii_art</title>
<polygon fill="#d3d3d3" stroke="#696969" points="1484.5478,-805.2 1284.8294,-805.2 1233.4522,-769.2 1433.1706,-769.2 1484.5478,-805.2"/>
<text text-anchor="middle" x="1359" y="-783" font-family="Arial" font-size="14.00" fill="#000000">Display ASCII Art</text>
</g>
<!-- check_edit_vars&#45;&gt;ascii_art -->
<g id="edge2" class="edge">
<title>check_edit_vars-&gt;ascii_art</title>
<path fill="none" stroke="#000000" d="M1242.3146,-842.1551C1263.1803,-832.328 1289.1885,-820.0789 1311.352,-809.6407"/>
<polygon fill="#000000" stroke="#000000" points="1313.0334,-812.7176 1320.589,-805.2904 1310.0508,-806.3848 1313.0334,-812.7176"/>
</g>
<!-- setup_functions -->
<g id="node9" class="node">
<title>setup_functions</title>
<polygon fill="#98fb98" stroke="#006400" points="1495.6459,-732.2 1378.3541,-732.2 1378.3541,-696.2 1495.6459,-696.2 1495.6459,-732.2"/>
<text text-anchor="middle" x="1437" y="-710" font-family="Arial" font-size="14.00" fill="#000000">Setup Functions</text>
</g>
<!-- ascii_art&#45;&gt;setup_functions -->
<g id="edge3" class="edge">
<title>ascii_art-&gt;setup_functions</title>
<path fill="none" stroke="#000000" d="M1378.2809,-769.1551C1387.9373,-760.1177 1399.7824,-749.0319 1410.2984,-739.1899"/>
<polygon fill="#000000" stroke="#000000" points="1412.761,-741.679 1417.6706,-732.2904 1407.9777,-736.5681 1412.761,-741.679"/>
</g>
<!-- setup_keyboard -->
<g id="node10" class="node">
<title>setup_keyboard</title>
<polygon fill="#98fb98" stroke="#006400" points="1659.2877,-659.2 1496.7123,-659.2 1496.7123,-623.2 1659.2877,-623.2 1659.2877,-659.2"/>
<text text-anchor="middle" x="1578" y="-637" font-family="Arial" font-size="14.00" fill="#000000">Setup Keyboard Layout</text>
</g>
<!-- setup_functions&#45;&gt;setup_keyboard -->
<g id="edge4" class="edge">
<title>setup_functions-&gt;setup_keyboard</title>
<path fill="none" stroke="#000000" d="M1471.8539,-696.1551C1490.6655,-686.4157 1514.072,-674.2975 1534.1148,-663.9207"/>
<polygon fill="#000000" stroke="#000000" points="1535.7871,-666.9962 1543.0583,-659.2904 1532.5687,-660.7799 1535.7871,-666.9962"/>
</g>
<!-- setup_ntp -->
<g id="node11" class="node">
<title>setup_ntp</title>
<polygon fill="#98fb98" stroke="#006400" points="1479.4627,-659.2 1394.5373,-659.2 1394.5373,-623.2 1479.4627,-623.2 1479.4627,-659.2"/>
<text text-anchor="middle" x="1437" y="-637" font-family="Arial" font-size="14.00" fill="#000000">Setup NTP</text>
</g>
<!-- setup_functions&#45;&gt;setup_ntp -->
<g id="edge5" class="edge">
<title>setup_functions-&gt;setup_ntp</title>
<path fill="none" stroke="#000000" d="M1437,-696.1551C1437,-688.0828 1437,-678.3764 1437,-669.3817"/>
<polygon fill="#000000" stroke="#000000" points="1440.5001,-669.2903 1437,-659.2904 1433.5001,-669.2904 1440.5001,-669.2903"/>
</g>
<!-- start_dhcp -->
<g id="node12" class="node">
<title>start_dhcp</title>
<polygon fill="#98fb98" stroke="#006400" points="1544.668,-586.2 1405.332,-586.2 1405.332,-550.2 1544.668,-550.2 1544.668,-586.2"/>
<text text-anchor="middle" x="1475" y="-564" font-family="Arial" font-size="14.00" fill="#000000">Start DHCP Service</text>
</g>
<!-- setup_ntp&#45;&gt;start_dhcp -->
<g id="edge6" class="edge">
<title>setup_ntp-&gt;start_dhcp</title>
<path fill="none" stroke="#000000" d="M1446.3933,-623.1551C1450.7779,-614.7319 1456.0889,-604.5292 1460.9386,-595.2128"/>
<polygon fill="#000000" stroke="#000000" points="1464.0703,-596.7766 1465.5831,-586.2904 1457.8611,-593.5445 1464.0703,-596.7766"/>
</g>
<!-- disk_processing -->
<g id="node13" class="node">
<title>disk_processing</title>
<polygon fill="#d3d3d3" stroke="#696969" points="1811.3385,-513.2 1694.6615,-513.2 1694.6615,-477.2 1811.3385,-477.2 1811.3385,-513.2"/>
<text text-anchor="middle" x="1753" y="-491" font-family="Arial" font-size="14.00" fill="#000000">Disk Processing</text>
</g>
<!-- start_dhcp&#45;&gt;disk_processing -->
<g id="edge7" class="edge">
<title>start_dhcp-&gt;disk_processing</title>
<path fill="none" stroke="#000000" d="M1543.7191,-550.1551C1586.6798,-538.874 1641.7954,-524.4012 1684.6805,-513.14"/>
<polygon fill="#000000" stroke="#000000" points="1685.6847,-516.4951 1694.4679,-510.5699 1683.9068,-509.7246 1685.6847,-516.4951"/>
</g>
<!-- install_packages -->
<g id="node14" class="node">
<title>install_packages</title>
<polygon fill="#d3d3d3" stroke="#696969" points="1886.9172,-440.2 1769.0828,-440.2 1769.0828,-404.2 1886.9172,-404.2 1886.9172,-440.2"/>
<text text-anchor="middle" x="1828" y="-418" font-family="Arial" font-size="14.00" fill="#000000">Install Packages</text>
</g>
<!-- disk_processing&#45;&gt;install_packages -->
<g id="edge8" class="edge">
<title>disk_processing-&gt;install_packages</title>
<path fill="none" stroke="#000000" d="M1771.5393,-477.1551C1780.7342,-468.2054 1791.9928,-457.247 1802.0305,-447.4769"/>
<polygon fill="#000000" stroke="#000000" points="1804.6892,-449.7734 1809.414,-440.2904 1799.8068,-444.7572 1804.6892,-449.7734"/>
</g>
<!-- generate_filesystem_table -->
<g id="node15" class="node">
<title>generate_filesystem_table</title>
<polygon fill="#d3d3d3" stroke="#696969" points="1845.0252,-367.2 1660.9748,-367.2 1660.9748,-331.2 1845.0252,-331.2 1845.0252,-367.2"/>
<text text-anchor="middle" x="1753" y="-345" font-family="Arial" font-size="14.00" fill="#000000">Generate Filesystem Table</text>
</g>
<!-- disk_processing&#45;&gt;generate_filesystem_table -->
<g id="edge9" class="edge">
<title>disk_processing-&gt;generate_filesystem_table</title>
<path fill="none" stroke="#000000" d="M1753,-477.0042C1753,-452.0868 1753,-407.0938 1753,-377.6877"/>
<polygon fill="#000000" stroke="#000000" points="1756.5001,-377.6251 1753,-367.6251 1749.5001,-377.6251 1756.5001,-377.6251"/>
</g>
<!-- install_packages&#45;&gt;generate_filesystem_table -->
<g id="edge10" class="edge">
<title>install_packages-&gt;generate_filesystem_table</title>
<path fill="none" stroke="#000000" d="M1809.4607,-404.1551C1800.2658,-395.2054 1789.0072,-384.247 1778.9695,-374.4769"/>
<polygon fill="#000000" stroke="#000000" points="1781.1932,-371.7572 1771.586,-367.2904 1776.3108,-376.7734 1781.1932,-371.7572"/>
</g>
<!-- copy_overlay_materials -->
<g id="node16" class="node">
<title>copy_overlay_materials</title>
<polygon fill="#d3d3d3" stroke="#696969" points="1881.0062,-294.3003 1624.9938,-294.3003 1624.9938,-218.8997 1881.0062,-218.8997 1881.0062,-294.3003"/>
<text text-anchor="middle" x="1753" y="-277.6" font-family="Arial" font-size="14.00" fill="#000000">Copy Overlay Materials</text>
<text text-anchor="middle" x="1753" y="-260.8" font-family="Arial" font-size="14.00" fill="#000000">/boot -&gt; /mnt/boot</text>
<text text-anchor="middle" x="1753" y="-244" font-family="Arial" font-size="14.00" fill="#000000">/etc/skel -&gt; /mnt/etc/skel</text>
<text text-anchor="middle" x="1753" y="-227.2" font-family="Arial" font-size="14.00" fill="#000000">syn-stage0.zsh -&gt; /mnt/syn-stage0.zsh</text>
</g>
<!-- generate_filesystem_table&#45;&gt;copy_overlay_materials -->
<g id="edge11" class="edge">
<title>generate_filesystem_table-&gt;copy_overlay_materials</title>
<path fill="none" stroke="#000000" d="M1753,-330.9052C1753,-323.2412 1753,-313.9372 1753,-304.543"/>
<polygon fill="#000000" stroke="#000000" points="1756.5001,-304.3871 1753,-294.3871 1749.5001,-304.3871 1756.5001,-304.3871"/>
</g>
<!-- gen_fstab -->
<g id="node17" class="node">
<title>gen_fstab</title>
<polygon fill="#98fb98" stroke="#006400" points="1878.4312,-182 1627.5688,-182 1627.5688,-146 1878.4312,-146 1878.4312,-182"/>
<text text-anchor="middle" x="1753" y="-159.8" font-family="Arial" font-size="14.00" fill="#000000">Generate Filesystem Table (genfstab)</text>
</g>
<!-- copy_overlay_materials&#45;&gt;gen_fstab -->
<g id="edge12" class="edge">
<title>copy_overlay_materials-&gt;gen_fstab</title>
<path fill="none" stroke="#000000" d="M1753,-218.936C1753,-209.9935 1753,-200.6054 1753,-192.1705"/>
<polygon fill="#000000" stroke="#000000" points="1756.5001,-192.1015 1753,-182.1016 1749.5001,-192.1016 1756.5001,-192.1015"/>
</g>
<!-- check_success -->
<g id="node18" class="node">
<title>check_success</title>
<polygon fill="#ffa07a" stroke="#8b4513" points="1809.4652,-109 1696.5348,-109 1696.5348,-73 1809.4652,-73 1809.4652,-109"/>
<text text-anchor="middle" x="1753" y="-86.8" font-family="Arial" font-size="14.00" fill="#000000">Check Success</text>
</g>
<!-- gen_fstab&#45;&gt;check_success -->
<g id="edge13" class="edge">
<title>gen_fstab-&gt;check_success</title>
<path fill="none" stroke="#000000" d="M1753,-145.9551C1753,-137.8828 1753,-128.1764 1753,-119.1817"/>
<polygon fill="#000000" stroke="#000000" points="1756.5001,-119.0903 1753,-109.0904 1749.5001,-119.0904 1756.5001,-119.0903"/>
</g>
<!-- end -->
<g id="node19" class="node">
<title>end</title>
<ellipse fill="#ffffcc" stroke="#333300" cx="1753" cy="-18" rx="28.4283" ry="18"/>
<text text-anchor="middle" x="1753" y="-13.8" font-family="Arial" font-size="14.00" fill="#000000">End</text>
</g>
<!-- check_success&#45;&gt;end -->
<g id="edge14" class="edge">
<title>check_success-&gt;end</title>
<path fill="none" stroke="#000000" d="M1753,-72.9551C1753,-64.8828 1753,-55.1764 1753,-46.1817"/>
<polygon fill="#000000" stroke="#000000" points="1756.5001,-46.0903 1753,-36.0904 1749.5001,-46.0904 1756.5001,-46.0903"/>
</g>
<!-- WIPE_DISK_990 -->
<g id="node20" class="node">
<title>WIPE_DISK_990</title>
<polygon fill="#7fbfff" stroke="#285577" points="1637.8623,-1037.8 1514.1377,-1037.8 1514.1377,-1001.8 1637.8623,-1001.8 1637.8623,-1037.8"/>
<text text-anchor="middle" x="1576" y="-1015.6" font-family="Arial" font-size="14.00" fill="#000000">WIPE_DISK_990</text>
</g>
<!-- WIPE_DISK_990&#45;&gt;check_edit_vars -->
<g id="edge15" class="edge">
<title>WIPE_DISK_990-&gt;check_edit_vars</title>
<path fill="none" stroke="#000000" d="M1573.878,-1001.4994C1571.0134,-985.1405 1564.3542,-961.6719 1549,-947.8 1512.7399,-915.0404 1389.6071,-889.324 1300.7794,-874.4516"/>
<polygon fill="#000000" stroke="#000000" points="1301.1059,-870.9582 1290.669,-872.7806 1299.9644,-877.8645 1301.1059,-870.9582"/>
</g>
<!-- BOOT_PART_990 -->
<g id="node21" class="node">
<title>BOOT_PART_990</title>
<polygon fill="#7fbfff" stroke="#285577" points="1539.9158,-983.8 1408.0842,-983.8 1408.0842,-947.8 1539.9158,-947.8 1539.9158,-983.8"/>
<text text-anchor="middle" x="1474" y="-961.6" font-family="Arial" font-size="14.00" fill="#000000">BOOT_PART_990</text>
</g>
<!-- BOOT_PART_990&#45;&gt;check_edit_vars -->
<g id="edge16" class="edge">
<title>BOOT_PART_990-&gt;check_edit_vars</title>
<path fill="none" stroke="#000000" d="M1427.8921,-947.7667C1381.3398,-929.5596 1309.4014,-901.4237 1259.6913,-881.9815"/>
<polygon fill="#000000" stroke="#000000" points="1260.9576,-878.7186 1250.3697,-878.3357 1258.4078,-885.2378 1260.9576,-878.7186"/>
</g>
<!-- ROOT_PART_990 -->
<g id="node22" class="node">
<title>ROOT_PART_990</title>
<polygon fill="#7fbfff" stroke="#285577" points="1728.1862,-983.8 1595.8138,-983.8 1595.8138,-947.8 1728.1862,-947.8 1728.1862,-983.8"/>
<text text-anchor="middle" x="1662" y="-961.6" font-family="Arial" font-size="14.00" fill="#000000">ROOT_PART_990</text>
</g>
<!-- ROOT_PART_990&#45;&gt;check_edit_vars -->
<g id="edge17" class="edge">
<title>ROOT_PART_990-&gt;check_edit_vars</title>
<path fill="none" stroke="#000000" d="M1647.2771,-947.7392C1632.6311,-931.1953 1608.5593,-907.6008 1582,-896.2 1533.1967,-875.2508 1396.0807,-866.4112 1301.1555,-862.7366"/>
<polygon fill="#000000" stroke="#000000" points="1301.0773,-859.2313 1290.9535,-862.3552 1300.8157,-866.2264 1301.0773,-859.2313"/>
</g>
<!-- BOOT_MOUNT_LOCATION_990 -->
<g id="node23" class="node">
<title>BOOT_MOUNT_LOCATION_990</title>
<polygon fill="#7fbfff" stroke="#285577" points="253.7399,-983.8 28.2601,-983.8 28.2601,-947.8 253.7399,-947.8 253.7399,-983.8"/>
<text text-anchor="middle" x="141" y="-961.6" font-family="Arial" font-size="14.00" fill="#000000">BOOT_MOUNT_LOCATION_990</text>
</g>
<!-- BOOT_MOUNT_LOCATION_990&#45;&gt;check_edit_vars -->
<g id="edge18" class="edge">
<title>BOOT_MOUNT_LOCATION_990-&gt;check_edit_vars</title>
<path fill="none" stroke="#000000" d="M238.9609,-947.7248C329.0862,-931.7605 466.6084,-909.0756 587,-896.2 770.2916,-876.5973 985.4396,-867.0921 1107.1438,-862.9599"/>
<polygon fill="#000000" stroke="#000000" points="1107.3063,-866.4565 1117.1837,-862.624 1107.0722,-859.4604 1107.3063,-866.4565"/>
</g>
<!-- ROOT_MOUNT_LOCATION_990 -->
<g id="node24" class="node">
<title>ROOT_MOUNT_LOCATION_990</title>
<polygon fill="#7fbfff" stroke="#285577" points="498.0098,-983.8 271.9902,-983.8 271.9902,-947.8 498.0098,-947.8 498.0098,-983.8"/>
<text text-anchor="middle" x="385" y="-961.6" font-family="Arial" font-size="14.00" fill="#000000">ROOT_MOUNT_LOCATION_990</text>
</g>
<!-- ROOT_MOUNT_LOCATION_990&#45;&gt;check_edit_vars -->
<g id="edge19" class="edge">
<title>ROOT_MOUNT_LOCATION_990-&gt;check_edit_vars</title>
<path fill="none" stroke="#000000" d="M483.7428,-947.7453C570.3098,-932.3955 699.6731,-910.6139 813,-896.2 912.8284,-883.503 1027.5417,-873.4785 1106.7779,-867.2665"/>
<polygon fill="#000000" stroke="#000000" points="1107.5332,-870.7184 1117.2315,-866.4529 1106.99,-863.7395 1107.5332,-870.7184"/>
</g>
<!-- BOOT_FILESYSTEM_990 -->
<g id="node25" class="node">
<title>BOOT_FILESYSTEM_990</title>
<polygon fill="#7fbfff" stroke="#285577" points="752.4242,-983.8 515.5758,-983.8 515.5758,-947.8 752.4242,-947.8 752.4242,-983.8"/>
<text text-anchor="middle" x="634" y="-961.6" font-family="Arial" font-size="14.00" fill="#000000">BOOT_FILESYSTEM_990 (FAT32)</text>
</g>
<!-- BOOT_FILESYSTEM_990&#45;&gt;check_edit_vars -->
<g id="edge20" class="edge">
<title>BOOT_FILESYSTEM_990-&gt;check_edit_vars</title>
<path fill="none" stroke="#000000" d="M723.892,-947.7906C796.4427,-933.3959 901.1861,-912.9303 993,-896.2 1030.2605,-889.4104 1071.2958,-882.321 1107.1946,-876.2467"/>
<polygon fill="#000000" stroke="#000000" points="1107.8986,-879.6774 1117.1763,-874.5614 1106.7332,-872.7751 1107.8986,-879.6774"/>
</g>
<!-- ROOT_FILESYSTEM_990 -->
<g id="node26" class="node">
<title>ROOT_FILESYSTEM_990</title>
<polygon fill="#7fbfff" stroke="#285577" points="999.9116,-983.8 770.0884,-983.8 770.0884,-947.8 999.9116,-947.8 999.9116,-983.8"/>
<text text-anchor="middle" x="885" y="-961.6" font-family="Arial" font-size="14.00" fill="#000000">ROOT_FILESYSTEM_990 (F2FS)</text>
</g>
<!-- ROOT_FILESYSTEM_990&#45;&gt;check_edit_vars -->
<g id="edge21" class="edge">
<title>ROOT_FILESYSTEM_990-&gt;check_edit_vars</title>
<path fill="none" stroke="#000000" d="M939.4756,-947.7667C995.0179,-929.3803 1081.1472,-900.8685 1139.9294,-881.4096"/>
<polygon fill="#000000" stroke="#000000" points="1141.0889,-884.7126 1149.4823,-878.2472 1138.889,-878.0672 1141.0889,-884.7126"/>
</g>
<!-- DRIVE_SDA -->
<g id="node27" class="node">
<title>DRIVE_SDA</title>
<polygon fill="#ffa07a" stroke="#8b4513" points="1647.4117,-1164.8 1578.5883,-1164.8 1578.5883,-1128.8 1647.4117,-1128.8 1647.4117,-1164.8"/>
<text text-anchor="middle" x="1613" y="-1142.6" font-family="Arial" font-size="14.00" fill="#000000">/dev/sda</text>
</g>
<!-- DRIVE_SDA&#45;&gt;disk_processing -->
<g id="edge22" class="edge">
<title>DRIVE_SDA-&gt;disk_processing</title>
<path fill="none" stroke="#000000" d="M1647.4708,-1140.2122C1699.9862,-1129.1772 1794,-1105.0572 1794,-1073.8 1794,-1073.8 1794,-1073.8 1794,-568.2 1794,-551.2682 1785.5113,-534.6309 1776.259,-521.5257"/>
<polygon fill="#000000" stroke="#000000" points="1778.9765,-519.3167 1770.1501,-513.4562 1773.3954,-523.5418 1778.9765,-519.3167"/>
</g>
<!-- DRIVE_SDA&#45;&gt;WIPE_DISK_990 -->
<g id="edge25" class="edge">
<title>DRIVE_SDA-&gt;WIPE_DISK_990</title>
<path fill="none" stroke="#000000" d="M1607.6988,-1128.604C1601.5443,-1107.4791 1591.3234,-1072.3964 1584.1556,-1047.7935"/>
<polygon fill="#000000" stroke="#000000" points="1587.4488,-1046.5841 1581.2914,-1037.9622 1580.7282,-1048.5421 1587.4488,-1046.5841"/>
</g>
<!-- DRIVE_SDA1 -->
<g id="node28" class="node">
<title>DRIVE_SDA1</title>
<polygon fill="#ffa07a" stroke="#8b4513" points="1544.7484,-1091.8 1403.2516,-1091.8 1403.2516,-1055.8 1544.7484,-1055.8 1544.7484,-1091.8"/>
<text text-anchor="middle" x="1474" y="-1069.6" font-family="Arial" font-size="14.00" fill="#000000">/dev/sda1 (200 MiB)</text>
</g>
<!-- DRIVE_SDA&#45;&gt;DRIVE_SDA1 -->
<g id="edge28" class="edge">
<title>DRIVE_SDA-&gt;DRIVE_SDA1</title>
<path fill="none" stroke="#000000" stroke-dasharray="1,5" d="M1578.6404,-1128.7551C1560.1793,-1119.0596 1537.229,-1107.0066 1517.5299,-1096.661"/>
<polygon fill="#000000" stroke="#000000" points="1518.9267,-1093.4413 1508.446,-1091.8904 1515.672,-1099.6387 1518.9267,-1093.4413"/>
</g>
<!-- DRIVE_SDA2 -->
<g id="node29" class="node">
<title>DRIVE_SDA2</title>
<polygon fill="#ffa07a" stroke="#8b4513" points="1700.1948,-1091.8 1623.8052,-1091.8 1623.8052,-1055.8 1700.1948,-1055.8 1700.1948,-1091.8"/>
<text text-anchor="middle" x="1662" y="-1069.6" font-family="Arial" font-size="14.00" fill="#000000">/dev/sda2</text>
</g>
<!-- DRIVE_SDA&#45;&gt;DRIVE_SDA2 -->
<g id="edge29" class="edge">
<title>DRIVE_SDA-&gt;DRIVE_SDA2</title>
<path fill="none" stroke="#000000" stroke-dasharray="1,5" d="M1625.1124,-1128.7551C1630.8841,-1120.1564 1637.9005,-1109.7034 1644.2582,-1100.2316"/>
<polygon fill="#000000" stroke="#000000" points="1647.1899,-1102.144 1649.8572,-1091.8904 1641.3778,-1098.2427 1647.1899,-1102.144"/>
</g>
<!-- DRIVE_SDA1&#45;&gt;disk_processing -->
<g id="edge23" class="edge">
<title>DRIVE_SDA1-&gt;disk_processing</title>
<path fill="none" stroke="#000000" d="M1403.3463,-1072.2535C1129.458,-1065.8754 146.6569,-1039.2954 19,-983.8 8.3322,-979.1625 0,-977.4322 0,-965.8 0,-965.8 0,-965.8 0,-568.2 0,-546.7301 1360.7886,-506.4255 1684.4991,-497.1414"/>
<polygon fill="#000000" stroke="#000000" points="1684.7789,-500.6349 1694.6746,-496.8499 1684.5784,-493.6377 1684.7789,-500.6349"/>
</g>
<!-- DRIVE_SDA1&#45;&gt;BOOT_PART_990 -->
<g id="edge26" class="edge">
<title>DRIVE_SDA1-&gt;BOOT_PART_990</title>
<path fill="none" stroke="#000000" d="M1474,-1055.4793C1474,-1038.621 1474,-1013.3651 1474,-993.947"/>
<polygon fill="#000000" stroke="#000000" points="1477.5001,-993.8501 1474,-983.8502 1470.5001,-993.8502 1477.5001,-993.8501"/>
</g>
<!-- DRIVE_SDA2&#45;&gt;disk_processing -->
<g id="edge24" class="edge">
<title>DRIVE_SDA2-&gt;disk_processing</title>
<path fill="none" stroke="#000000" d="M1692.7791,-1055.7033C1720.1935,-1037.009 1756,-1005.0746 1756,-965.8 1756,-965.8 1756,-965.8 1756,-568.2 1756,-553.4872 1755.3841,-537.1205 1754.7105,-523.619"/>
<polygon fill="#000000" stroke="#000000" points="1758.198,-523.2904 1754.1685,-513.4918 1751.208,-523.6646 1758.198,-523.2904"/>
</g>
<!-- DRIVE_SDA2&#45;&gt;ROOT_PART_990 -->
<g id="edge27" class="edge">
<title>DRIVE_SDA2-&gt;ROOT_PART_990</title>
<path fill="none" stroke="#000000" d="M1662,-1055.4793C1662,-1038.621 1662,-1013.3651 1662,-993.947"/>
<polygon fill="#000000" stroke="#000000" points="1665.5001,-993.8501 1662,-983.8502 1658.5001,-993.8502 1665.5001,-993.8501"/>
</g>
</g>
</svg>