<?xml version="1.0" encoding="UTF-8" standalone="no"?><!DOCTYPE svg PUBLIC "-//W3C//DTD SVG 1.1//EN" "http://www.w3.org/Graphics/SVG/1.1/DTD/svg11.dtd"><!-- Generated by graphviz version 2.40.1 (20161225.0304)
 --><!-- Title: stage1_flow Pages: 1 --><svg xmlns="http://www.w3.org/2000/svg" xmlns:xlink="http://www.w3.org/1999/xlink" width="840pt" height="1031pt" viewBox="0.00 0.00 839.58 1030.60">
<g id="graph0" class="graph" transform="scale(1 1) rotate(0) translate(4 1026.6)">
<title>stage1_flow</title>
<polygon fill="#ffffff" stroke="transparent" points="-4,4 -4,-1026.6 835.5842,-1026.6 835.5842,4 -4,4"/>
<!-- start -->
<g id="node1" class="node">
<title>start</title>
<ellipse fill="#ffffcc" stroke="#333300" cx="49.6206" cy="-1004.6" rx="31.3545" ry="18"/>
<text text-anchor="middle" x="49.6206" y="-1000.4" font-family="Arial" font-size="14.00" fill="#000000">Start</text>
</g>
<!-- set_variables -->
<g id="node2" class="node">
<title>set_variables</title>
<polygon fill="#98fb98" stroke="#006400" points="99.3621,-949.6 -.1209,-949.6 -.1209,-913.6 99.3621,-913.6 99.3621,-949.6"/>
<text text-anchor="middle" x="49.6206" y="-927.4" font-family="Arial" font-size="14.00" fill="#000000">Set Variables</text>
</g>
<!-- start&#45;&gt;set_variables -->
<g id="edge1" class="edge">
<title>start-&gt;set_variables</title>
<path fill="none" stroke="#000000" d="M49.6206,-986.5551C49.6206,-978.4828 49.6206,-968.7764 49.6206,-959.7817"/>
<polygon fill="#000000" stroke="#000000" points="53.1207,-959.6903 49.6206,-949.6904 46.1207,-959.6904 53.1207,-959.6903"/>
</g>
<!-- remove_locale_gen -->
<g id="node3" class="node">
<title>remove_locale_gen</title>
<polygon fill="#ffa07a" stroke="#8b4513" points="196.2679,-860.8 8.9733,-860.8 8.9733,-824.8 196.2679,-824.8 196.2679,-860.8"/>
<text text-anchor="middle" x="102.6206" y="-838.6" font-family="Arial" font-size="14.00" fill="#000000">Remove existing locale.gen</text>
</g>
<!-- set_variables&#45;&gt;remove_locale_gen -->
<g id="edge2" class="edge">
<title>set_variables-&gt;remove_locale_gen</title>
<path fill="none" stroke="#000000" d="M60.6022,-913.2006C68.1136,-900.6155 78.1934,-883.7271 86.5975,-869.6463"/>
<polygon fill="#000000" stroke="#000000" points="89.7147,-871.2527 91.8344,-860.872 83.7039,-867.6651 89.7147,-871.2527"/>
</g>
<!-- create_locale_gen -->
<g id="node4" class="node">
<title>create_locale_gen</title>
<polygon fill="#ffa07a" stroke="#8b4513" points="321.6822,-772 67.559,-772 67.559,-736 321.6822,-736 321.6822,-772"/>
<text text-anchor="middle" x="194.6206" y="-749.8" font-family="Arial" font-size="14.00" fill="#000000">Create new locale.gen with generation</text>
</g>
<!-- remove_locale_gen&#45;&gt;create_locale_gen -->
<g id="edge4" class="edge">
<title>remove_locale_gen-&gt;create_locale_gen</title>
<path fill="none" stroke="#000000" d="M121.6831,-824.4006C135.2184,-811.336 153.5582,-793.6342 168.461,-779.2497"/>
<polygon fill="#000000" stroke="#000000" points="171.1329,-781.5352 175.8973,-772.072 166.2715,-776.4986 171.1329,-781.5352"/>
</g>
<!-- locale_gen -->
<g id="node5" class="node">
<title>locale_gen</title>
<polygon fill="#ffa07a" stroke="#8b4513" points="251.9272,-699 137.314,-699 137.314,-663 251.9272,-663 251.9272,-699"/>
<text text-anchor="middle" x="194.6206" y="-676.8" font-family="Arial" font-size="14.00" fill="#000000">Generate locale</text>
</g>
<!-- create_locale_gen&#45;&gt;locale_gen -->
<g id="edge5" class="edge">
<title>create_locale_gen-&gt;locale_gen</title>
<path fill="none" stroke="#000000" d="M194.6206,-735.9551C194.6206,-727.8828 194.6206,-718.1764 194.6206,-709.1817"/>
<polygon fill="#000000" stroke="#000000" points="198.1207,-709.0903 194.6206,-699.0904 191.1207,-709.0904 198.1207,-709.0903"/>
</g>
<!-- create_locale_conf -->
<g id="node6" class="node">
<title>create_locale_conf</title>
<polygon fill="#ffa07a" stroke="#8b4513" points="390.2253,-610.2 149.0159,-610.2 149.0159,-574.2 390.2253,-574.2 390.2253,-610.2"/>
<text text-anchor="middle" x="269.6206" y="-588" font-family="Arial" font-size="14.00" fill="#000000">Create locale.conf with configuration</text>
</g>
<!-- locale_gen&#45;&gt;create_locale_conf -->
<g id="edge7" class="edge">
<title>locale_gen-&gt;create_locale_conf</title>
<path fill="none" stroke="#000000" d="M210.1606,-662.6006C220.9924,-649.7757 235.5985,-632.4822 247.6233,-618.2448"/>
<polygon fill="#000000" stroke="#000000" points="250.5785,-620.1702 254.3571,-610.272 245.2306,-615.6534 250.5785,-620.1702"/>
</g>
<!-- create_hostname -->
<g id="node7" class="node">
<title>create_hostname</title>
<polygon fill="#ffa07a" stroke="#8b4513" points="443.2581,-521.4 297.9831,-521.4 297.9831,-485.4 443.2581,-485.4 443.2581,-521.4"/>
<text text-anchor="middle" x="370.6206" y="-499.2" font-family="Arial" font-size="14.00" fill="#000000">Create hostname file</text>
</g>
<!-- create_locale_conf&#45;&gt;create_hostname -->
<g id="edge9" class="edge">
<title>create_locale_conf-&gt;create_hostname</title>
<path fill="none" stroke="#000000" d="M290.5479,-573.8006C305.5437,-560.6162 325.9111,-542.709 342.3513,-528.2546"/>
<polygon fill="#000000" stroke="#000000" points="344.8666,-530.7035 350.0657,-521.472 340.2446,-525.4464 344.8666,-530.7035"/>
</g>
<!-- create_timezone_link -->
<g id="node8" class="node">
<title>create_timezone_link</title>
<polygon fill="#ffa07a" stroke="#8b4513" points="540.7454,-432.6 318.4958,-432.6 318.4958,-396.6 540.7454,-396.6 540.7454,-432.6"/>
<text text-anchor="middle" x="429.6206" y="-410.4" font-family="Arial" font-size="14.00" fill="#000000">Create symbolic link for timezone</text>
</g>
<!-- create_hostname&#45;&gt;create_timezone_link -->
<g id="edge11" class="edge">
<title>create_hostname-&gt;create_timezone_link</title>
<path fill="none" stroke="#000000" d="M382.8454,-485.0006C391.2868,-472.2956 402.642,-455.2051 412.0503,-441.0448"/>
<polygon fill="#000000" stroke="#000000" points="414.9944,-442.9381 417.6133,-432.672 409.164,-439.0643 414.9944,-442.9381"/>
</g>
<!-- modify_sudoers -->
<g id="node9" class="node">
<title>modify_sudoers</title>
<polygon fill="#ffa07a" stroke="#8b4513" points="495.8026,-359.6 363.4386,-359.6 363.4386,-323.6 495.8026,-323.6 495.8026,-359.6"/>
<text text-anchor="middle" x="429.6206" y="-337.4" font-family="Arial" font-size="14.00" fill="#000000">Modify sudoers file</text>
</g>
<!-- create_timezone_link&#45;&gt;modify_sudoers -->
<g id="edge13" class="edge">
<title>create_timezone_link-&gt;modify_sudoers</title>
<path fill="none" stroke="#000000" d="M429.6206,-396.5551C429.6206,-388.4828 429.6206,-378.7764 429.6206,-369.7817"/>
<polygon fill="#000000" stroke="#000000" points="433.1207,-369.6903 429.6206,-359.6904 426.1207,-369.6904 433.1207,-369.6903"/>
</g>
<!-- create_user -->
<g id="node10" class="node">
<title>create_user</title>
<polygon fill="#ffa07a" stroke="#8b4513" points="624.6542,-270.8 482.587,-270.8 482.587,-234.8 624.6542,-234.8 624.6542,-270.8"/>
<text text-anchor="middle" x="553.6206" y="-248.6" font-family="Arial" font-size="14.00" fill="#000000">Create user account</text>
</g>
<!-- modify_sudoers&#45;&gt;create_user -->
<g id="edge14" class="edge">
<title>modify_sudoers-&gt;create_user</title>
<path fill="none" stroke="#000000" d="M455.0131,-323.4157C473.8201,-309.9474 499.6288,-291.4651 520.125,-276.7871"/>
<polygon fill="#000000" stroke="#000000" points="522.1696,-279.6279 528.2621,-270.96 518.094,-273.9367 522.1696,-279.6279"/>
</g>
<!-- enable_services -->
<g id="node11" class="node">
<title>enable_services</title>
<polygon fill="#ffa07a" stroke="#8b4513" points="699.9243,-182 529.3169,-182 529.3169,-146 699.9243,-146 699.9243,-182"/>
<text text-anchor="middle" x="614.6206" y="-159.8" font-family="Arial" font-size="14.00" fill="#000000">Enable systemd services</text>
</g>
<!-- create_user&#45;&gt;enable_services -->
<g id="edge16" class="edge">
<title>create_user-&gt;enable_services</title>
<path fill="none" stroke="#000000" d="M566.2598,-234.4006C574.9874,-221.6956 586.7275,-204.6051 596.4547,-190.4448"/>
<polygon fill="#000000" stroke="#000000" points="599.429,-192.2964 602.2063,-182.072 593.6592,-188.3329 599.429,-192.2964"/>
</g>
<!-- install_bootloader -->
<g id="node12" class="node">
<title>install_bootloader</title>
<polygon fill="#ffa07a" stroke="#8b4513" points="720.4068,-109 508.8344,-109 508.8344,-73 720.4068,-73 720.4068,-109"/>
<text text-anchor="middle" x="614.6206" y="-86.8" font-family="Arial" font-size="14.00" fill="#000000">Install and configure bootloader</text>
</g>
<!-- enable_services&#45;&gt;install_bootloader -->
<g id="edge18" class="edge">
<title>enable_services-&gt;install_bootloader</title>
<path fill="none" stroke="#000000" d="M614.6206,-145.9551C614.6206,-137.8828 614.6206,-128.1764 614.6206,-119.1817"/>
<polygon fill="#000000" stroke="#000000" points="618.1207,-119.0903 614.6206,-109.0904 611.1207,-119.0904 618.1207,-119.0903"/>
</g>
<!-- write_mkinitcpio -->
<g id="node13" class="node">
<title>write_mkinitcpio</title>
<polygon fill="#ffa07a" stroke="#8b4513" points="763.514,-36 617.7272,-36 617.7272,0 763.514,0 763.514,-36"/>
<text text-anchor="middle" x="690.6206" y="-13.8" font-family="Arial" font-size="14.00" fill="#000000">Write mkinitcpio data</text>
</g>
<!-- install_bootloader&#45;&gt;write_mkinitcpio -->
<g id="edge20" class="edge">
<title>install_bootloader-&gt;write_mkinitcpio</title>
<path fill="none" stroke="#000000" d="M633.4071,-72.9551C642.7245,-64.0054 654.1333,-53.047 664.3049,-43.2769"/>
<polygon fill="#000000" stroke="#000000" points="666.9994,-45.5419 671.7868,-36.0904 662.1502,-40.4935 666.9994,-45.5419"/>
</g>
<!-- end -->
<g id="node14" class="node">
<title>end</title>
<ellipse fill="#ffffcc" stroke="#333300" cx="766.6206" cy="-91" rx="28.4283" ry="18"/>
<text text-anchor="middle" x="766.6206" y="-86.8" font-family="Arial" font-size="14.00" fill="#000000">End</text>
</g>
<!-- end&#45;&gt;write_mkinitcpio -->
<g id="edge21" class="edge">
<title>end-&gt;write_mkinitcpio</title>
<path fill="none" stroke="#000000" d="M750.8734,-75.8744C741.1234,-66.5092 728.3556,-54.2455 717.084,-43.4188"/>
<polygon fill="#000000" stroke="#000000" points="719.2116,-40.6094 709.575,-36.2062 714.3625,-45.6578 719.2116,-40.6094"/>
</g>
<!-- ROOT_PART_990 -->
<g id="node15" class="node">
<title>ROOT_PART_990</title>
<polygon fill="#7fbfff" stroke="transparent" points="193.8154,-949.6 117.4258,-949.6 117.4258,-913.6 193.8154,-913.6 193.8154,-949.6"/>
<text text-anchor="middle" x="155.6206" y="-927.4" font-family="Arial" font-size="14.00" fill="#000000">/dev/sda2</text>
</g>
<!-- ROOT_PART_990&#45;&gt;remove_locale_gen -->
<g id="edge3" class="edge">
<title>ROOT_PART_990-&gt;remove_locale_gen</title>
<path fill="none" stroke="#000000" d="M144.639,-913.2006C137.1276,-900.6155 127.0478,-883.7271 118.6437,-869.6463"/>
<polygon fill="#000000" stroke="#000000" points="121.5373,-867.6651 113.4068,-860.872 115.5265,-871.2527 121.5373,-867.6651"/>
<text text-anchor="middle" x="188.061" y="-883" font-family="Times,serif" font-size="14.00" fill="#000000">ROOT_PART_990</text>
</g>
<!-- DEFAULT_USER_990 -->
<g id="node16" class="node">
<title>DEFAULT_USER_990</title>
<polygon fill="#7fbfff" stroke="transparent" points="593.4244,-359.6 513.8168,-359.6 513.8168,-323.6 593.4244,-323.6 593.4244,-359.6"/>
<text text-anchor="middle" x="553.6206" y="-337.4" font-family="Arial" font-size="14.00" fill="#000000">syntax990</text>
</g>
<!-- DEFAULT_USER_990&#45;&gt;create_user -->
<g id="edge15" class="edge">
<title>DEFAULT_USER_990-&gt;create_user</title>
<path fill="none" stroke="#000000" d="M553.6206,-323.2006C553.6206,-311.0949 553.6206,-295.0076 553.6206,-281.2674"/>
<polygon fill="#000000" stroke="#000000" points="557.1207,-280.872 553.6206,-270.872 550.1207,-280.8721 557.1207,-280.872"/>
<text text-anchor="middle" x="620.8899" y="-293" font-family="Times,serif" font-size="14.00" fill="#000000">DEFAULT_USER_990</text>
</g>
<!-- FINAL_HOSTNAME_990 -->
<g id="node17" class="node">
<title>FINAL_HOSTNAME_990</title>
<polygon fill="#7fbfff" stroke="transparent" points="535.0632,-610.2 408.178,-610.2 408.178,-574.2 535.0632,-574.2 535.0632,-610.2"/>
<text text-anchor="middle" x="471.6206" y="-588" font-family="Arial" font-size="14.00" fill="#000000">SYN-TESTBUILD</text>
</g>
<!-- FINAL_HOSTNAME_990&#45;&gt;create_hostname -->
<g id="edge10" class="edge">
<title>FINAL_HOSTNAME_990-&gt;create_hostname</title>
<path fill="none" stroke="#000000" d="M450.6933,-573.8006C435.6975,-560.6162 415.3301,-542.709 398.8899,-528.2546"/>
<polygon fill="#000000" stroke="#000000" points="400.9966,-525.4464 391.1755,-521.472 396.3746,-530.7035 400.9966,-525.4464"/>
<text text-anchor="middle" x="506.6045" y="-543.6" font-family="Times,serif" font-size="14.00" fill="#000000">FINAL_HOSTNAME_990</text>
</g>
<!-- LOCALE_GEN_990 -->
<g id="node18" class="node">
<title>LOCALE_GEN_990</title>
<polygon fill="#7fbfff" stroke="transparent" points="360.7872,-860.8 214.454,-860.8 214.454,-824.8 360.7872,-824.8 360.7872,-860.8"/>
<text text-anchor="middle" x="287.6206" y="-838.6" font-family="Arial" font-size="14.00" fill="#000000">en_GB.UTF-8 UTF-8</text>
</g>
<!-- LOCALE_GEN_990&#45;&gt;create_locale_gen -->
<g id="edge6" class="edge">
<title>LOCALE_GEN_990-&gt;create_locale_gen</title>
<path fill="none" stroke="#000000" d="M268.3509,-824.4006C254.6685,-811.336 236.1294,-793.6342 221.0645,-779.2497"/>
<polygon fill="#000000" stroke="#000000" points="223.197,-776.4465 213.5474,-772.072 218.3628,-781.5093 223.197,-776.4465"/>
<text text-anchor="middle" x="308.1073" y="-794.2" font-family="Times,serif" font-size="14.00" fill="#000000">LOCALE_GEN_990</text>
</g>
<!-- LOCALE_CONF_990 -->
<g id="node19" class="node">
<title>LOCALE_CONF_990</title>
<polygon fill="#7fbfff" stroke="transparent" points="419.5328,-699 269.7084,-699 269.7084,-663 419.5328,-663 419.5328,-699"/>
<text text-anchor="middle" x="344.6206" y="-676.8" font-family="Arial" font-size="14.00" fill="#000000">LANG=en_GB.UTF-8</text>
</g>
<!-- LOCALE_CONF_990&#45;&gt;create_locale_conf -->
<g id="edge8" class="edge">
<title>LOCALE_CONF_990-&gt;create_locale_conf</title>
<path fill="none" stroke="#000000" d="M329.0806,-662.6006C318.2488,-649.7757 303.6427,-632.4822 291.6179,-618.2448"/>
<polygon fill="#000000" stroke="#000000" points="294.0106,-615.6534 284.8841,-610.272 288.6627,-620.1702 294.0106,-615.6534"/>
<text text-anchor="middle" x="377.3906" y="-632.4" font-family="Times,serif" font-size="14.00" fill="#000000">LOCALE_CONF_990</text>
</g>
<!-- ZONE_INFO990 -->
<g id="node20" class="node">
<title>ZONE_INFO990</title>
<polygon fill="#7fbfff" stroke="transparent" points="515.6206,-521.4 461.6206,-521.4 461.6206,-485.4 515.6206,-485.4 515.6206,-521.4"/>
<text text-anchor="middle" x="488.6206" y="-499.2" font-family="Arial" font-size="14.00" fill="#000000">GB</text>
</g>
<!-- ZONE_INFO990&#45;&gt;create_timezone_link -->
<g id="edge12" class="edge">
<title>ZONE_INFO990-&gt;create_timezone_link</title>
<path fill="none" stroke="#000000" d="M476.3958,-485.0006C467.9544,-472.2956 456.5992,-455.2051 447.1909,-441.0448"/>
<polygon fill="#000000" stroke="#000000" points="450.0772,-439.0643 441.6279,-432.672 444.2468,-442.9381 450.0772,-439.0643"/>
<text text-anchor="middle" x="512.608" y="-454.8" font-family="Times,serif" font-size="14.00" fill="#000000">ZONE_INFO990</text>
</g>
<!-- SHELL_CHOICE_990 -->
<g id="node21" class="node">
<title>SHELL_CHOICE_990</title>
<polygon fill="#7fbfff" stroke="transparent" points="743.8566,-359.6 679.3846,-359.6 679.3846,-323.6 743.8566,-323.6 743.8566,-359.6"/>
<text text-anchor="middle" x="711.6206" y="-337.4" font-family="Arial" font-size="14.00" fill="#000000">/bin/zsh</text>
</g>
<!-- SHELL_CHOICE_990&#45;&gt;create_user -->
<g id="edge17" class="edge">
<title>SHELL_CHOICE_990-&gt;create_user</title>
<path fill="none" stroke="#000000" d="M708.3588,-323.5245C705.3703,-312.0254 699.7974,-297.6788 689.6206,-288.8 684.7851,-284.5813 660.9999,-277.7593 634.6384,-271.1824"/>
<polygon fill="#000000" stroke="#000000" points="635.3863,-267.7621 624.8401,-268.7757 633.7165,-274.5601 635.3863,-267.7621"/>
<text text-anchor="middle" x="765.9439" y="-293" font-family="Times,serif" font-size="14.00" fill="#000000">SHELL_CHOICE_990</text>
</g>
<!-- NETWORK_INTERFACE_990 -->
<g id="node22" class="node">
<title>NETWORK_INTERFACE_990</title>
<polygon fill="#7fbfff" stroke="transparent" points="708.4245,-270.8 642.8167,-270.8 642.8167,-234.8 708.4245,-234.8 708.4245,-270.8"/>
<text text-anchor="middle" x="675.6206" y="-248.6" font-family="Arial" font-size="14.00" fill="#000000">&lt;value&gt;</text>
</g>
<!-- NETWORK_INTERFACE_990&#45;&gt;enable_services -->
<g id="edge19" class="edge">
<title>NETWORK_INTERFACE_990-&gt;enable_services</title>
<path fill="none" stroke="#000000" d="M662.9814,-234.4006C654.2538,-221.6956 642.5137,-204.6051 632.7865,-190.4448"/>
<polygon fill="#000000" stroke="#000000" points="635.582,-188.3329 627.0349,-182.072 629.8122,-192.2964 635.582,-188.3329"/>
<text text-anchor="middle" x="740.6024" y="-204.2" font-family="Times,serif" font-size="14.00" fill="#000000">NETWORK_INTERFACE_990</text>
</g>
</g>
</svg>