<?xml version="1.0" encoding="UTF-8" standalone="no"?><!DOCTYPE svg PUBLIC "-//W3C//DTD SVG 1.1//EN" "http://www.w3.org/Graphics/SVG/1.1/DTD/svg11.dtd"><!-- Generated by graphviz version 2.40.1 (20161225.0304)
 --><!-- Title: script_flow Pages: 1 --><svg xmlns="http://www.w3.org/2000/svg" xmlns:xlink="http://www.w3.org/1999/xlink" width="3287pt" height="512pt" viewBox="0.00 0.00 3287.08 512.00">
<g id="graph0" class="graph" transform="scale(1 1) rotate(0) translate(4 508)">
<title>script_flow</title>
<polygon fill="#ffffff" stroke="transparent" points="-4,4 -4,-508 3283.0845,-508 3283.0845,4 -4,4"/>
<!-- variable -->
<g id="node1" class="node">
<title>variable</title>
<path fill="#7fbfff" stroke="#285577" d="M71.7928,-101C71.7928,-101 30.7844,-101 30.7844,-101 24.7844,-101 18.7844,-95 18.7844,-89 18.7844,-89 18.7844,-77 18.7844,-77 18.7844,-71 24.7844,-65 30.7844,-65 30.7844,-65 71.7928,-65 71.7928,-65 77.7928,-65 83.7928,-71 83.7928,-77 83.7928,-77 83.7928,-89 83.7928,-89 83.7928,-95 77.7928,-101 71.7928,-101"/>
<text text-anchor="middle" x="51.2886" y="-78.8" font-family="Arial" font-size="14.00" fill="#000000">variable</text>
</g>
<!-- device -->
<g id="node2" class="node">
<title>device</title>
<path fill="#ffa07a" stroke="#8b4513" d="M67.7448,-155C67.7448,-155 34.8323,-155 34.8323,-155 28.8323,-155 22.8323,-149 22.8323,-143 22.8323,-143 22.8323,-131 22.8323,-131 22.8323,-125 28.8323,-119 34.8323,-119 34.8323,-119 67.7448,-119 67.7448,-119 73.7448,-119 79.7448,-125 79.7448,-131 79.7448,-131 79.7448,-143 79.7448,-143 79.7448,-149 73.7448,-155 67.7448,-155"/>
<text text-anchor="middle" x="51.2886" y="-132.8" font-family="Arial" font-size="14.00" fill="#000000">device</text>
</g>
<!-- process -->
<g id="node3" class="node">
<title>process</title>
<path fill="#98fb98" stroke="#006400" d="M71.797,-209C71.797,-209 30.7802,-209 30.7802,-209 24.7802,-209 18.7802,-203 18.7802,-197 18.7802,-197 18.7802,-185 18.7802,-185 18.7802,-179 24.7802,-173 30.7802,-173 30.7802,-173 71.797,-173 71.797,-173 77.797,-173 83.797,-179 83.797,-185 83.797,-185 83.797,-197 83.797,-197 83.797,-203 77.797,-209 71.797,-209"/>
<text text-anchor="middle" x="51.2886" y="-186.8" font-family="Arial" font-size="14.00" fill="#000000">process</text>
</g>
<!-- start_end -->
<g id="node4" class="node">
<title>start_end</title>
<ellipse fill="#ffffcc" stroke="#333300" cx="51.2886" cy="-245" rx="51.078" ry="18"/>
<text text-anchor="middle" x="51.2886" y="-240.8" font-family="Arial" font-size="14.00" fill="#000000">start_end</text>
</g>
<!-- intermediate -->
<g id="node5" class="node">
<title>intermediate</title>
<path fill="#d3d3d3" stroke="#696969" d="M85.7998,-317C85.7998,-317 16.7774,-317 16.7774,-317 10.7774,-317 4.7774,-311 4.7774,-305 4.7774,-305 4.7774,-293 4.7774,-293 4.7774,-287 10.7774,-281 16.7774,-281 16.7774,-281 85.7998,-281 85.7998,-281 91.7998,-281 97.7998,-287 97.7998,-293 97.7998,-293 97.7998,-305 97.7998,-305 97.7998,-311 91.7998,-317 85.7998,-317"/>
<text text-anchor="middle" x="51.2886" y="-294.8" font-family="Arial" font-size="14.00" fill="#000000">intermediate</text>
</g>
<!-- syntax990 -->
<g id="node6" class="node">
<title>syntax990</title>
<polygon fill="#d3d3d3" stroke="#696969" points="812.4532,-372 516.2867,-372 440.0985,-336 736.265,-336 812.4532,-372"/>
<text text-anchor="middle" x="626.2758" y="-349.8" font-family="Arial" font-size="14.00" fill="#000000">Run 'syntax990' Command</text>
</g>
<!-- check_edit_vars -->
<g id="node7" class="node">
<title>check_edit_vars</title>
<polygon fill="#ffa07a" stroke="#8b4513" points="1107.9016,-272 934.6043,-272 934.6043,-236 1107.9016,-236 1107.9016,-272"/>
<text text-anchor="middle" x="1021.253" y="-249.8" font-family="Arial" font-size="14.00" fill="#000000">Check and Edit Variables</text>
</g>
<!-- syntax990&#45;&gt;check_edit_vars -->
<g id="edge1" class="edge">
<title>syntax990-&gt;check_edit_vars</title>
<path fill="none" stroke="#000000" d="M745.5615,-340.1662C767.9074,-336.5953 790.9612,-332.241 812.3645,-327 866.5404,-313.734 926.4555,-292.0345 968.1736,-275.7347"/>
<polygon fill="#000000" stroke="#000000" points="969.5578,-278.9513 977.5799,-272.0306 966.9929,-272.4381 969.5578,-278.9513"/>
<text text-anchor="middle" x="873.5216" y="-341" font-family="Times,serif" font-size="14.00" fill="#000000">Check and Edit</text>
<text text-anchor="middle" x="873.5216" y="-324.2" font-family="Times,serif" font-size="14.00" fill="#000000">Variables</text>
</g>
<!-- ascii_art -->
<g id="node8" class="node">
<title>ascii_art</title>
<polygon fill="#d3d3d3" stroke="#696969" points="1395.8989,-298 1196.1805,-298 1144.8034,-262 1344.5218,-262 1395.8989,-298"/>
<text text-anchor="middle" x="1270.3512" y="-275.8" font-family="Arial" font-size="14.00" fill="#000000">Display ASCII Art</text>
</g>
<!-- check_edit_vars&#45;&gt;ascii_art -->
<g id="edge2" class="edge">
<title>check_edit_vars-&gt;ascii_art</title>
<path fill="none" stroke="#000000" d="M1108.0257,-263.057C1119.2113,-264.2245 1130.8459,-265.4389 1142.5189,-266.6573"/>
<polygon fill="#000000" stroke="#000000" points="1142.4673,-270.1709 1152.7766,-267.728 1143.194,-263.2087 1142.4673,-270.1709"/>
</g>
<!-- setup_functions -->
<g id="node9" class="node">
<title>setup_functions</title>
<polygon fill="#98fb98" stroke="#006400" points="1550.0938,-360 1432.802,-360 1432.802,-324 1550.0938,-324 1550.0938,-360"/>
<text text-anchor="middle" x="1491.4479" y="-337.8" font-family="Arial" font-size="14.00" fill="#000000">Setup Functions</text>
</g>
<!-- ascii_art&#45;&gt;setup_functions -->
<g id="edge3" class="edge">
<title>ascii_art-&gt;setup_functions</title>
<path fill="none" stroke="#000000" d="M1334.5985,-298.0163C1362.3131,-305.788 1394.7664,-314.8885 1422.9393,-322.7888"/>
<polygon fill="#000000" stroke="#000000" points="1422.1375,-326.1989 1432.7111,-325.529 1424.0276,-319.4589 1422.1375,-326.1989"/>
</g>
<!-- setup_keyboard -->
<g id="node10" class="node">
<title>setup_keyboard</title>
<polygon fill="#98fb98" stroke="#006400" points="1749.4522,-414 1586.8769,-414 1586.8769,-378 1749.4522,-378 1749.4522,-414"/>
<text text-anchor="middle" x="1668.1645" y="-391.8" font-family="Arial" font-size="14.00" fill="#000000">Setup Keyboard Layout</text>
</g>
<!-- setup_functions&#45;&gt;setup_keyboard -->
<g id="edge4" class="edge">
<title>setup_functions-&gt;setup_keyboard</title>
<path fill="none" stroke="#000000" d="M1550.292,-359.9812C1565.9237,-364.7579 1582.9477,-369.96 1599.072,-374.8871"/>
<polygon fill="#000000" stroke="#000000" points="1598.3886,-378.338 1608.9749,-377.9132 1600.4343,-371.6436 1598.3886,-378.338"/>
</g>
<!-- setup_ntp -->
<g id="node11" class="node">
<title>setup_ntp</title>
<polygon fill="#98fb98" stroke="#006400" points="1710.6272,-360 1625.7019,-360 1625.7019,-324 1710.6272,-324 1710.6272,-360"/>
<text text-anchor="middle" x="1668.1645" y="-337.8" font-family="Arial" font-size="14.00" fill="#000000">Setup NTP</text>
</g>
<!-- setup_functions&#45;&gt;setup_ntp -->
<g id="edge5" class="edge">
<title>setup_functions-&gt;setup_ntp</title>
<path fill="none" stroke="#000000" d="M1550.292,-342C1571.4216,-342 1595.0952,-342 1615.6519,-342"/>
<polygon fill="#000000" stroke="#000000" points="1615.7768,-345.5001 1625.7768,-342 1615.7768,-338.5001 1615.7768,-345.5001"/>
</g>
<!-- start_dhcp -->
<g id="node12" class="node">
<title>start_dhcp</title>
<polygon fill="#98fb98" stroke="#006400" points="1925.81,-418 1786.474,-418 1786.474,-382 1925.81,-382 1925.81,-418"/>
<text text-anchor="middle" x="1856.142" y="-395.8" font-family="Arial" font-size="14.00" fill="#000000">Start DHCP Service</text>
</g>
<!-- setup_ntp&#45;&gt;start_dhcp -->
<g id="edge6" class="edge">
<title>setup_ntp-&gt;start_dhcp</title>
<path fill="none" stroke="#000000" d="M1710.8195,-355.1611C1733.5838,-362.185 1762.1435,-370.997 1787.906,-378.946"/>
<polygon fill="#000000" stroke="#000000" points="1787.0375,-382.3407 1797.6249,-381.9447 1789.1013,-375.6519 1787.0375,-382.3407"/>
</g>
<!-- disk_processing -->
<g id="node13" class="node">
<title>disk_processing</title>
<polygon fill="#d3d3d3" stroke="#696969" points="2079.4833,-470 1962.8063,-470 1962.8063,-434 2079.4833,-434 2079.4833,-470"/>
<text text-anchor="middle" x="2021.1448" y="-447.8" font-family="Arial" font-size="14.00" fill="#000000">Disk Processing</text>
</g>
<!-- start_dhcp&#45;&gt;disk_processing -->
<g id="edge7" class="edge">
<title>start_dhcp-&gt;disk_processing</title>
<path fill="none" stroke="#000000" d="M1913.3889,-418.0411C1926.5713,-422.1955 1940.7057,-426.6499 1954.2569,-430.9205"/>
<polygon fill="#000000" stroke="#000000" points="1953.4095,-434.3231 1963.9991,-433.9908 1955.5136,-427.6468 1953.4095,-434.3231"/>
</g>
<!-- install_packages -->
<g id="node14" class="node">
<title>install_packages</title>
<polygon fill="#d3d3d3" stroke="#696969" points="2234.1897,-504 2116.3552,-504 2116.3552,-468 2234.1897,-468 2234.1897,-504"/>
<text text-anchor="middle" x="2175.2724" y="-481.8" font-family="Arial" font-size="14.00" fill="#000000">Install Packages</text>
</g>
<!-- disk_processing&#45;&gt;install_packages -->
<g id="edge8" class="edge">
<title>disk_processing-&gt;install_packages</title>
<path fill="none" stroke="#000000" d="M2079.4139,-464.8539C2088.147,-466.7804 2097.223,-468.7826 2106.1552,-470.753"/>
<polygon fill="#000000" stroke="#000000" points="2105.6335,-474.222 2116.1527,-472.9584 2107.1415,-467.3863 2105.6335,-474.222"/>
</g>
<!-- generate_filesystem_table -->
<g id="node15" class="node">
<title>generate_filesystem_table</title>
<polygon fill="#d3d3d3" stroke="#696969" points="2455.2688,-470 2271.2184,-470 2271.2184,-434 2455.2688,-434 2455.2688,-470"/>
<text text-anchor="middle" x="2363.2436" y="-447.8" font-family="Arial" font-size="14.00" fill="#000000">Generate Filesystem Table</text>
</g>
<!-- disk_processing&#45;&gt;generate_filesystem_table -->
<g id="edge9" class="edge">
<title>disk_processing-&gt;generate_filesystem_table</title>
<path fill="none" stroke="#000000" d="M2079.565,-452C2129.1746,-452 2201.5383,-452 2260.7607,-452"/>
<polygon fill="#000000" stroke="#000000" points="2260.9001,-455.5001 2270.9001,-452 2260.9001,-448.5001 2260.9001,-455.5001"/>
</g>
<!-- install_packages&#45;&gt;generate_filesystem_table -->
<g id="edge10" class="edge">
<title>install_packages-&gt;generate_filesystem_table</title>
<path fill="none" stroke="#000000" d="M2234.232,-475.3355C2242.8504,-473.7766 2251.9274,-472.1347 2261.1089,-470.474"/>
<polygon fill="#000000" stroke="#000000" points="2261.8788,-473.8916 2271.0961,-468.6675 2260.6328,-467.0034 2261.8788,-473.8916"/>
</g>
<!-- copy_overlay_materials -->
<g id="node16" class="node">
<title>copy_overlay_materials</title>
<polygon fill="#d3d3d3" stroke="#696969" points="2748.2655,-489.7003 2492.2531,-489.7003 2492.2531,-414.2997 2748.2655,-414.2997 2748.2655,-489.7003"/>
<text text-anchor="middle" x="2620.2593" y="-473" font-family="Arial" font-size="14.00" fill="#000000">Copy Overlay Materials</text>
<text text-anchor="middle" x="2620.2593" y="-456.2" font-family="Arial" font-size="14.00" fill="#000000">/boot -&gt; /mnt/boot</text>
<text text-anchor="middle" x="2620.2593" y="-439.4" font-family="Arial" font-size="14.00" fill="#000000">/etc/skel -&gt; /mnt/etc/skel</text>
<text text-anchor="middle" x="2620.2593" y="-422.6" font-family="Arial" font-size="14.00" fill="#000000">syn-stage0.zsh -&gt; /mnt/syn-stage0.zsh</text>
</g>
<!-- generate_filesystem_table&#45;&gt;copy_overlay_materials -->
<g id="edge11" class="edge">
<title>generate_filesystem_table-&gt;copy_overlay_materials</title>
<path fill="none" stroke="#000000" d="M2455.3062,-452C2463.9925,-452 2472.9209,-452 2481.9139,-452"/>
<polygon fill="#000000" stroke="#000000" points="2482.0854,-455.5001 2492.0853,-452 2482.0853,-448.5001 2482.0854,-455.5001"/>
</g>
<!-- gen_fstab -->
<g id="node17" class="node">
<title>gen_fstab</title>
<polygon fill="#98fb98" stroke="#006400" points="3036.1592,-470 2785.2968,-470 2785.2968,-434 3036.1592,-434 3036.1592,-470"/>
<text text-anchor="middle" x="2910.728" y="-447.8" font-family="Arial" font-size="14.00" fill="#000000">Generate Filesystem Table (genfstab)</text>
</g>
<!-- copy_overlay_materials&#45;&gt;gen_fstab -->
<g id="edge12" class="edge">
<title>copy_overlay_materials-&gt;gen_fstab</title>
<path fill="none" stroke="#000000" d="M2748.5087,-452C2757.2474,-452 2766.0693,-452 2774.8454,-452"/>
<polygon fill="#000000" stroke="#000000" points="2775.1192,-455.5001 2785.1191,-452 2775.1191,-448.5001 2775.1192,-455.5001"/>
</g>
<!-- check_success -->
<g id="node18" class="node">
<title>check_success</title>
<polygon fill="#ffa07a" stroke="#8b4513" points="3185.8909,-470 3072.9606,-470 3072.9606,-434 3185.8909,-434 3185.8909,-470"/>
<text text-anchor="middle" x="3129.4257" y="-447.8" font-family="Arial" font-size="14.00" fill="#000000">Check Success</text>
</g>
<!-- gen_fstab&#45;&gt;check_success -->
<g id="edge13" class="edge">
<title>gen_fstab-&gt;check_success</title>
<path fill="none" stroke="#000000" d="M3036.3611,-452C3045.4299,-452 3054.3459,-452 3062.8519,-452"/>
<polygon fill="#000000" stroke="#000000" points="3063.0068,-455.5001 3073.0068,-452 3063.0068,-448.5001 3063.0068,-455.5001"/>
</g>
<!-- end -->
<g id="node19" class="node">
<title>end</title>
<ellipse fill="#ffffcc" stroke="#333300" cx="3250.8711" cy="-452" rx="28.4283" ry="18"/>
<text text-anchor="middle" x="3250.8711" y="-447.8" font-family="Arial" font-size="14.00" fill="#000000">End</text>
</g>
<!-- check_success&#45;&gt;end -->
<g id="edge14" class="edge">
<title>check_success-&gt;end</title>
<path fill="none" stroke="#000000" d="M3185.882,-452C3194.854,-452 3203.9509,-452 3212.3839,-452"/>
<polygon fill="#000000" stroke="#000000" points="3212.6513,-455.5001 3222.6513,-452 3212.6513,-448.5001 3212.6513,-455.5001"/>
</g>
<!-- WIPE_DISK_990 -->
<g id="node20" class="node">
<title>WIPE_DISK_990</title>
<polygon fill="#7fbfff" stroke="#285577" points="422.3686,-299 298.6439,-299 298.6439,-263 422.3686,-263 422.3686,-299"/>
<text text-anchor="middle" x="360.5063" y="-276.8" font-family="Arial" font-size="14.00" fill="#000000">WIPE_DISK_990</text>
</g>
<!-- WIPE_DISK_990&#45;&gt;check_edit_vars -->
<g id="edge15" class="edge">
<title>WIPE_DISK_990-&gt;check_edit_vars</title>
<path fill="none" stroke="#000000" d="M422.2424,-274.3873C428.3014,-273.8629 434.3608,-273.3873 440.1872,-273 610.2906,-261.6926 808.8737,-257.0351 924.3096,-255.1748"/>
<polygon fill="#000000" stroke="#000000" points="924.5876,-258.671 934.5313,-255.0139 924.4774,-251.6718 924.5876,-258.671"/>
</g>
<!-- BOOT_PART_990 -->
<g id="node21" class="node">
<title>BOOT_PART_990</title>
<polygon fill="#7fbfff" stroke="#285577" points="692.1916,-426 560.36,-426 560.36,-390 692.1916,-390 692.1916,-426"/>
<text text-anchor="middle" x="626.2758" y="-403.8" font-family="Arial" font-size="14.00" fill="#000000">BOOT_PART_990</text>
</g>
<!-- BOOT_PART_990&#45;&gt;check_edit_vars -->
<g id="edge16" class="edge">
<title>BOOT_PART_990-&gt;check_edit_vars</title>
<path fill="none" stroke="#000000" d="M692.2332,-408.592C753.8221,-406.4824 846.5218,-396.3114 916.6787,-358 951.8579,-338.7892 983.1164,-304.1846 1002.0947,-280.1962"/>
<polygon fill="#000000" stroke="#000000" points="1004.9324,-282.2481 1008.2818,-272.1965 999.3953,-277.9655 1004.9324,-282.2481"/>
</g>
<!-- ROOT_PART_990 -->
<g id="node22" class="node">
<title>ROOT_PART_990</title>
<polygon fill="#7fbfff" stroke="#285577" points="692.462,-118 560.0897,-118 560.0897,-82 692.462,-82 692.462,-118"/>
<text text-anchor="middle" x="626.2758" y="-95.8" font-family="Arial" font-size="14.00" fill="#000000">ROOT_PART_990</text>
</g>
<!-- ROOT_PART_990&#45;&gt;check_edit_vars -->
<g id="edge17" class="edge">
<title>ROOT_PART_990-&gt;check_edit_vars</title>
<path fill="none" stroke="#000000" d="M692.58,-103.9825C728.6954,-107.5435 773.7637,-114.2773 812.3645,-127 862.34,-143.4718 871.67,-155.7402 916.6787,-183 940.986,-197.7219 967.461,-215.7178 987.6906,-229.9081"/>
<polygon fill="#000000" stroke="#000000" points="985.7643,-232.8325 995.9535,-235.7361 989.7989,-227.1121 985.7643,-232.8325"/>
</g>
<!-- BOOT_MOUNT_LOCATION_990 -->
<g id="node23" class="node">
<title>BOOT_MOUNT_LOCATION_990</title>
<polygon fill="#7fbfff" stroke="#285577" points="739.0158,-64 513.5359,-64 513.5359,-28 739.0158,-28 739.0158,-64"/>
<text text-anchor="middle" x="626.2758" y="-41.8" font-family="Arial" font-size="14.00" fill="#000000">BOOT_MOUNT_LOCATION_990</text>
</g>
<!-- BOOT_MOUNT_LOCATION_990&#45;&gt;check_edit_vars -->
<g id="edge18" class="edge">
<title>BOOT_MOUNT_LOCATION_990-&gt;check_edit_vars</title>
<path fill="none" stroke="#000000" d="M738.934,-55.9116C763.5105,-59.8448 789.111,-65.3357 812.3645,-73 862.34,-89.4718 875.8757,-95.7735 916.6787,-129 952.3141,-158.0185 984.8263,-200.5323 1003.8338,-227.7359"/>
<polygon fill="#000000" stroke="#000000" points="1000.9646,-229.7406 1009.5173,-235.9937 1006.7309,-225.7718 1000.9646,-229.7406"/>
</g>
<!-- ROOT_MOUNT_LOCATION_990 -->
<g id="node24" class="node">
<title>ROOT_MOUNT_LOCATION_990</title>
<polygon fill="#7fbfff" stroke="#285577" points="739.2856,-318 513.266,-318 513.266,-282 739.2856,-282 739.2856,-318"/>
<text text-anchor="middle" x="626.2758" y="-295.8" font-family="Arial" font-size="14.00" fill="#000000">ROOT_MOUNT_LOCATION_990</text>
</g>
<!-- ROOT_MOUNT_LOCATION_990&#45;&gt;check_edit_vars -->
<g id="edge19" class="edge">
<title>ROOT_MOUNT_LOCATION_990-&gt;check_edit_vars</title>
<path fill="none" stroke="#000000" d="M739.4347,-288.1505C793.1723,-282.3648 858.2739,-275.1264 916.6787,-268 919.2242,-267.6894 921.8041,-267.3709 924.4069,-267.0463"/>
<polygon fill="#000000" stroke="#000000" points="925.0532,-270.4926 934.5362,-265.7678 924.1766,-263.5477 925.0532,-270.4926"/>
</g>
<!-- BOOT_FILESYSTEM_990 -->
<g id="node25" class="node">
<title>BOOT_FILESYSTEM_990</title>
<polygon fill="#7fbfff" stroke="#285577" points="744.7,-226 507.8516,-226 507.8516,-190 744.7,-190 744.7,-226"/>
<text text-anchor="middle" x="626.2758" y="-203.8" font-family="Arial" font-size="14.00" fill="#000000">BOOT_FILESYSTEM_990 (FAT32)</text>
</g>
<!-- BOOT_FILESYSTEM_990&#45;&gt;check_edit_vars -->
<g id="edge20" class="edge">
<title>BOOT_FILESYSTEM_990-&gt;check_edit_vars</title>
<path fill="none" stroke="#000000" d="M745.0335,-220.4531C797.6541,-226.1343 860.2879,-233.1194 916.6787,-240 919.2242,-240.3106 921.8041,-240.6291 924.4069,-240.9537"/>
<polygon fill="#000000" stroke="#000000" points="924.1766,-244.4523 934.5362,-242.2322 925.0532,-237.5074 924.1766,-244.4523"/>
</g>
<!-- ROOT_FILESYSTEM_990 -->
<g id="node26" class="node">
<title>ROOT_FILESYSTEM_990</title>
<polygon fill="#7fbfff" stroke="#285577" points="741.1874,-172 511.3642,-172 511.3642,-136 741.1874,-136 741.1874,-172"/>
<text text-anchor="middle" x="626.2758" y="-149.8" font-family="Arial" font-size="14.00" fill="#000000">ROOT_FILESYSTEM_990 (F2FS)</text>
</g>
<!-- ROOT_FILESYSTEM_990&#45;&gt;check_edit_vars -->
<g id="edge21" class="edge">
<title>ROOT_FILESYSTEM_990-&gt;check_edit_vars</title>
<path fill="none" stroke="#000000" d="M741.5968,-167.2073C765.1693,-170.8917 789.6929,-175.4484 812.3645,-181 866.5404,-194.266 926.4555,-215.9655 968.1736,-232.2653"/>
<polygon fill="#000000" stroke="#000000" points="966.9929,-235.5619 977.5799,-235.9694 969.5578,-229.0487 966.9929,-235.5619"/>
</g>
<!-- DRIVE_SDA -->
<g id="node27" class="node">
<title>DRIVE_SDA</title>
<polygon fill="#ffa07a" stroke="#8b4513" points="85.7002,-371 16.8769,-371 16.8769,-335 85.7002,-335 85.7002,-371"/>
<text text-anchor="middle" x="51.2886" y="-348.8" font-family="Arial" font-size="14.00" fill="#000000">/dev/sda</text>
</g>
<!-- DRIVE_SDA&#45;&gt;disk_processing -->
<g id="edge22" class="edge">
<title>DRIVE_SDA-&gt;disk_processing</title>
<path fill="none" stroke="#000000" d="M60.8878,-371.1718C82.2534,-408.8494 137.6267,-492 210.2013,-492 210.2013,-492 210.2013,-492 1856.142,-492 1892.4476,-492 1932.0139,-482.7405 1963.2988,-473.1315"/>
<polygon fill="#000000" stroke="#000000" points="1964.6745,-476.3672 1973.1507,-470.0107 1962.5606,-469.694 1964.6745,-476.3672"/>
</g>
<!-- DRIVE_SDA&#45;&gt;WIPE_DISK_990 -->
<g id="edge25" class="edge">
<title>DRIVE_SDA-&gt;WIPE_DISK_990</title>
<path fill="none" stroke="#000000" d="M85.8597,-344.9503C134.7019,-333.5776 225.0459,-312.5414 288.7526,-297.7075"/>
<polygon fill="#000000" stroke="#000000" points="289.7923,-301.0592 298.738,-295.3825 288.2048,-294.2415 289.7923,-301.0592"/>
</g>
<!-- DRIVE_SDA1 -->
<g id="node28" class="node">
<title>DRIVE_SDA1</title>
<polygon fill="#ffa07a" stroke="#8b4513" points="280.9497,-426 139.4529,-426 139.4529,-390 280.9497,-390 280.9497,-426"/>
<text text-anchor="middle" x="210.2013" y="-403.8" font-family="Arial" font-size="14.00" fill="#000000">/dev/sda1 (200 MiB)</text>
</g>
<!-- DRIVE_SDA&#45;&gt;DRIVE_SDA1 -->
<g id="edge28" class="edge">
<title>DRIVE_SDA-&gt;DRIVE_SDA1</title>
<path fill="none" stroke="#000000" stroke-dasharray="1,5" d="M85.7703,-364.9342C104.0563,-371.263 127.0811,-379.2319 148.3373,-386.5887"/>
<polygon fill="#000000" stroke="#000000" points="147.361,-389.9545 157.9558,-389.9177 149.6506,-383.3395 147.361,-389.9545"/>
</g>
<!-- DRIVE_SDA2 -->
<g id="node29" class="node">
<title>DRIVE_SDA2</title>
<polygon fill="#ffa07a" stroke="#8b4513" points="248.3961,-118 172.0065,-118 172.0065,-82 248.3961,-82 248.3961,-118"/>
<text text-anchor="middle" x="210.2013" y="-95.8" font-family="Arial" font-size="14.00" fill="#000000">/dev/sda2</text>
</g>
<!-- DRIVE_SDA&#45;&gt;DRIVE_SDA2 -->
<g id="edge29" class="edge">
<title>DRIVE_SDA-&gt;DRIVE_SDA2</title>
<path fill="none" stroke="#000000" stroke-dasharray="1,5" d="M85.7079,-338.8423C91.8239,-335.2766 97.767,-331.0072 102.5772,-326 110.0658,-318.2047 170.9383,-185.9805 197.6797,-127.4739"/>
<polygon fill="#000000" stroke="#000000" points="200.9909,-128.6487 201.9612,-118.0984 194.6234,-125.7409 200.9909,-128.6487"/>
</g>
<!-- DRIVE_SDA1&#45;&gt;disk_processing -->
<g id="edge23" class="edge">
<title>DRIVE_SDA1-&gt;disk_processing</title>
<path fill="none" stroke="#000000" d="M280.9828,-420.6305C363.5672,-434.2484 504.363,-454 626.2758,-454 626.2758,-454 626.2758,-454 1856.142,-454 1887.7913,-454 1922.8527,-453.6275 1952.4874,-453.2041"/>
<polygon fill="#000000" stroke="#000000" points="1952.7816,-456.7002 1962.7287,-453.0527 1952.6781,-449.701 1952.7816,-456.7002"/>
</g>
<!-- DRIVE_SDA1&#45;&gt;BOOT_PART_990 -->
<g id="edge26" class="edge">
<title>DRIVE_SDA1-&gt;BOOT_PART_990</title>
<path fill="none" stroke="#000000" d="M281.2543,-408C356.1115,-408 473.5651,-408 550.2471,-408"/>
<polygon fill="#000000" stroke="#000000" points="550.3216,-411.5001 560.3215,-408 550.3215,-404.5001 550.3216,-411.5001"/>
</g>
<!-- DRIVE_SDA2&#45;&gt;disk_processing -->
<g id="edge24" class="edge">
<title>DRIVE_SDA2-&gt;disk_processing</title>
<path fill="none" stroke="#000000" d="M248.4439,-83.3728C293.4274,-64.5629 370.7863,-34.5332 440.1872,-19 521.316,-.8419 543.1398,0 626.2758,0 626.2758,0 626.2758,0 1856.142,0 1946.7259,0 2002.2498,-324.3829 2017.1073,-423.5475"/>
<polygon fill="#000000" stroke="#000000" points="2013.6859,-424.3383 2018.6064,-433.7212 2020.6111,-423.3178 2013.6859,-424.3383"/>
</g>
<!-- DRIVE_SDA2&#45;&gt;ROOT_PART_990 -->
<g id="edge27" class="edge">
<title>DRIVE_SDA2-&gt;ROOT_PART_990</title>
<path fill="none" stroke="#000000" d="M248.5988,-100C316.8822,-100 460.6106,-100 549.7461,-100"/>
<polygon fill="#000000" stroke="#000000" points="549.8011,-103.5001 559.8011,-100 549.8011,-96.5001 549.8011,-103.5001"/>
</g>
</g>
</svg>