<?xml version="1.0" encoding="UTF-8" standalone="no"?>
<!DOCTYPE svg PUBLIC "-//W3C//DTD SVG 1.1//EN"
 "http://www.w3.org/Graphics/SVG/1.1/DTD/svg11.dtd">
<!-- Generated by graphviz version 15.1.0 (0)
 -->
<!-- Title: installer_overview Pages: 1 -->
<svg width="670pt" height="1887pt"
 viewBox="0.00 0.00 670.00 1887.00" xmlns="http://www.w3.org/2000/svg" xmlns:xlink="http://www.w3.org/1999/xlink">
<g id="graph0" class="graph" transform="scale(1 1) rotate(0) translate(4 1883.19)">
<title>installer_overview</title>
<polygon fill="#000000" stroke="none" points="-4,4 -4,-1883.19 666,-1883.19 666,4 -4,4"/>
<text xml:space="preserve" text-anchor="middle" x="331" y="-1861.89" font-family="monospace" font-size="14.00" fill="#ff6666">synos&#45;install, start to finish</text>
<g id="clust1" class="cluster">
<title>cluster_stage0</title>
<path fill="#0a0a0a" stroke="#555555" d="M57,-964.64C57,-964.64 429,-964.64 429,-964.64 435,-964.64 441,-970.64 441,-976.64 441,-976.64 441,-1551.14 441,-1551.14 441,-1557.14 435,-1563.14 429,-1563.14 429,-1563.14 57,-1563.14 57,-1563.14 51,-1563.14 45,-1557.14 45,-1551.14 45,-1551.14 45,-976.64 45,-976.64 45,-970.64 51,-964.64 57,-964.64"/>
<text xml:space="preserve" text-anchor="middle" x="243" y="-1545.84" font-family="monospace" font-size="14.00" fill="white">Stage 0, live ISO environment (syn&#45;stage0.zsh)</text>
</g>
<g id="clust2" class="cluster">
<title>cluster_stage1</title>
<path fill="#0a0a0a" stroke="#555555" d="M20,-262.27C20,-262.27 367,-262.27 367,-262.27 373,-262.27 379,-268.27 379,-274.27 379,-274.27 379,-865.02 379,-865.02 379,-871.02 373,-877.02 367,-877.02 367,-877.02 20,-877.02 20,-877.02 14,-877.02 8,-871.02 8,-865.02 8,-865.02 8,-274.27 8,-274.27 8,-268.27 14,-262.27 20,-262.27"/>
<text xml:space="preserve" text-anchor="middle" x="193.5" y="-859.72" font-family="monospace" font-size="14.00" fill="white">Stage 1, inside the chroot (syn&#45;stage1.zsh)</text>
</g>
<!-- boot -->
<g id="node1" class="node">
<title>boot</title>
<ellipse fill="#1a0000" stroke="#e00000" cx="193" cy="-1805.72" rx="147.08" ry="45.96"/>
<text xml:space="preserve" text-anchor="middle" x="193" y="-1824.72" font-family="monospace" font-size="10.00" fill="white">Boot ISO</text>
<text xml:space="preserve" text-anchor="middle" x="193" y="-1810.47" font-family="monospace" font-size="10.00" fill="white">(BIOS: syslinux menu,</text>
<text xml:space="preserve" text-anchor="middle" x="193" y="-1796.22" font-family="monospace" font-size="10.00" fill="white">UEFI: systemd&#45;boot, 1 entry)</text>
<text xml:space="preserve" text-anchor="middle" x="193" y="-1781.97" font-family="monospace" font-size="10.00" fill="white">both land in the same live shell</text>
</g>
<!-- edit -->
<g id="node2" class="node">
<title>edit</title>
<polygon fill="#330000" stroke="#e00000" points="285,-1723.76 95,-1723.76 95,-1658.76 291,-1658.76 291,-1717.76 285,-1723.76"/>
<polyline fill="none" stroke="#e00000" points="285,-1723.76 285,-1717.76"/>
<polyline fill="none" stroke="#e00000" points="291,-1717.76 285,-1717.76"/>
<text xml:space="preserve" text-anchor="middle" x="193" y="-1710.26" font-family="monospace" font-size="10.00" fill="white">edit /etc/syn&#45;os/synos.conf</text>
<text xml:space="preserve" text-anchor="middle" x="193" y="-1696.01" font-family="monospace" font-size="10.00" fill="white">(only input, no interactive</text>
<text xml:space="preserve" text-anchor="middle" x="193" y="-1681.76" font-family="monospace" font-size="10.00" fill="white">prompts for disk/fs/encryption</text>
<text xml:space="preserve" text-anchor="middle" x="193" y="-1667.51" font-family="monospace" font-size="10.00" fill="white">once synos&#45;install starts)</text>
</g>
<!-- boot&#45;&gt;edit -->
<g id="edge13" class="edge">
<title>boot&#45;&gt;edit</title>
<path fill="none" stroke="#aaaaaa" d="M193,-1759.31C193,-1751.45 193,-1743.31 193,-1735.51"/>
<polygon fill="#aaaaaa" stroke="#aaaaaa" points="196.5,-1735.55 193,-1725.55 189.5,-1735.55 196.5,-1735.55"/>
</g>
<!-- run -->
<g id="node3" class="node">
<title>run</title>
<ellipse fill="#1a0000" stroke="#e00000" cx="193" cy="-1596.95" rx="121.62" ry="25.81"/>
<text xml:space="preserve" text-anchor="middle" x="193" y="-1601.7" font-family="monospace" font-size="10.00" fill="white">synos&#45;install</text>
<text xml:space="preserve" text-anchor="middle" x="193" y="-1587.45" font-family="monospace" font-size="10.00" fill="white">(alias for syn&#45;stage0.zsh)</text>
</g>
<!-- edit&#45;&gt;run -->
<g id="edge14" class="edge">
<title>edit&#45;&gt;run</title>
<path fill="none" stroke="#aaaaaa" d="M193,-1658.49C193,-1650.72 193,-1642.33 193,-1634.35"/>
<polygon fill="#aaaaaa" stroke="#aaaaaa" points="196.5,-1634.59 193,-1624.59 189.5,-1634.59 196.5,-1634.59"/>
</g>
<!-- source -->
<g id="node4" class="node">
<title>source</title>
<path fill="#4d0000" stroke="#e00000" d="M273,-1527.64C273,-1527.64 113,-1527.64 113,-1527.64 107,-1527.64 101,-1521.64 101,-1515.64 101,-1515.64 101,-1488.89 101,-1488.89 101,-1482.89 107,-1476.89 113,-1476.89 113,-1476.89 273,-1476.89 273,-1476.89 279,-1476.89 285,-1482.89 285,-1488.89 285,-1488.89 285,-1515.64 285,-1515.64 285,-1521.64 279,-1527.64 273,-1527.64"/>
<text xml:space="preserve" text-anchor="middle" x="193" y="-1514.14" font-family="monospace" font-size="10.00" fill="white">source syn&#45;config.zsh,</text>
<text xml:space="preserve" text-anchor="middle" x="193" y="-1499.89" font-family="monospace" font-size="10.00" fill="white">syn&#45;packages.zsh, syn&#45;ui.zsh</text>
<text xml:space="preserve" text-anchor="middle" x="193" y="-1485.64" font-family="monospace" font-size="10.00" fill="white">+ syn&#45;disk.zsh</text>
</g>
<!-- run&#45;&gt;source -->
<g id="edge15" class="edge">
<title>run&#45;&gt;source</title>
<path fill="none" stroke="#aaaaaa" d="M193,-1571.11C193,-1561.27 193,-1549.76 193,-1539.05"/>
<polygon fill="#aaaaaa" stroke="#aaaaaa" points="196.5,-1539.37 193,-1529.37 189.5,-1539.37 196.5,-1539.37"/>
</g>
<!-- gate -->
<g id="node5" class="node">
<title>gate</title>
<path fill="#4d0000" stroke="#ff2020" d="M285,-1440.89C285,-1440.89 101,-1440.89 101,-1440.89 95,-1440.89 89,-1434.89 89,-1428.89 89,-1428.89 89,-1373.64 89,-1373.64 89,-1367.64 95,-1361.64 101,-1361.64 101,-1361.64 285,-1361.64 285,-1361.64 291,-1361.64 297,-1367.64 297,-1373.64 297,-1373.64 297,-1428.89 297,-1428.89 297,-1434.89 291,-1440.89 285,-1440.89"/>
<text xml:space="preserve" text-anchor="middle" x="193" y="-1427.39" font-family="monospace" font-size="10.00" fill="white">Safety gate:</text>
<text xml:space="preserve" text-anchor="middle" x="193" y="-1413.14" font-family="monospace" font-size="10.00" fill="white">RequireWipeConfirm=yes &#45;&gt;</text>
<text xml:space="preserve" text-anchor="middle" x="193" y="-1398.89" font-family="monospace" font-size="10.00" fill="white">&quot;Proceed and wipe &lt;disk&gt;? [y/N]&quot;</text>
<text xml:space="preserve" text-anchor="middle" x="193" y="-1384.64" font-family="monospace" font-size="10.00" fill="white">only interactive step in the</text>
<text xml:space="preserve" text-anchor="middle" x="193" y="-1370.39" font-family="monospace" font-size="10.00" fill="white">whole pipeline</text>
</g>
<!-- source&#45;&gt;gate -->
<g id="edge1" class="edge">
<title>source&#45;&gt;gate</title>
<path fill="none" stroke="#aaaaaa" d="M193,-1476.54C193,-1469.22 193,-1460.92 193,-1452.59"/>
<polygon fill="#aaaaaa" stroke="#aaaaaa" points="196.5,-1452.81 193,-1442.81 189.5,-1452.81 196.5,-1452.81"/>
</g>
<!-- partition -->
<g id="node6" class="node">
<title>partition</title>
<path fill="#330000" stroke="#e00000" d="M228,-1325.64C228,-1325.64 158,-1325.64 158,-1325.64 152,-1325.64 146,-1319.64 146,-1313.64 146,-1313.64 146,-1301.64 146,-1301.64 146,-1295.64 152,-1289.64 158,-1289.64 158,-1289.64 228,-1289.64 228,-1289.64 234,-1289.64 240,-1295.64 240,-1301.64 240,-1301.64 240,-1313.64 240,-1313.64 240,-1319.64 234,-1325.64 228,-1325.64"/>
<text xml:space="preserve" text-anchor="middle" x="193" y="-1305.27" font-family="monospace" font-size="10.00" fill="white">partitionMain</text>
</g>
<!-- gate&#45;&gt;partition -->
<g id="edge2" class="edge">
<title>gate&#45;&gt;partition</title>
<path fill="none" stroke="#aaaaaa" d="M193,-1361.14C193,-1353.2 193,-1344.97 193,-1337.46"/>
<polygon fill="#aaaaaa" stroke="#aaaaaa" points="196.5,-1337.54 193,-1327.54 189.5,-1337.54 196.5,-1337.54"/>
</g>
<!-- volume -->
<g id="node7" class="node">
<title>volume</title>
<path fill="#330000" stroke="#e00000" d="M219,-1253.64C219,-1253.64 167,-1253.64 167,-1253.64 161,-1253.64 155,-1247.64 155,-1241.64 155,-1241.64 155,-1229.64 155,-1229.64 155,-1223.64 161,-1217.64 167,-1217.64 167,-1217.64 219,-1217.64 219,-1217.64 225,-1217.64 231,-1223.64 231,-1229.64 231,-1229.64 231,-1241.64 231,-1241.64 231,-1247.64 225,-1253.64 219,-1253.64"/>
<text xml:space="preserve" text-anchor="middle" x="193" y="-1233.27" font-family="monospace" font-size="10.00" fill="white">volumeMain</text>
</g>
<!-- partition&#45;&gt;volume -->
<g id="edge3" class="edge">
<title>partition&#45;&gt;volume</title>
<path fill="none" stroke="#aaaaaa" d="M193,-1289.34C193,-1282.05 193,-1273.37 193,-1265.18"/>
<polygon fill="#aaaaaa" stroke="#aaaaaa" points="196.5,-1265.26 193,-1255.26 189.5,-1265.26 196.5,-1265.26"/>
</g>
<!-- filesystem -->
<g id="node8" class="node">
<title>filesystem</title>
<path fill="#330000" stroke="#e00000" d="M231,-1181.64C231,-1181.64 155,-1181.64 155,-1181.64 149,-1181.64 143,-1175.64 143,-1169.64 143,-1169.64 143,-1157.64 143,-1157.64 143,-1151.64 149,-1145.64 155,-1145.64 155,-1145.64 231,-1145.64 231,-1145.64 237,-1145.64 243,-1151.64 243,-1157.64 243,-1157.64 243,-1169.64 243,-1169.64 243,-1175.64 237,-1181.64 231,-1181.64"/>
<text xml:space="preserve" text-anchor="middle" x="193" y="-1161.27" font-family="monospace" font-size="10.00" fill="white">filesystemMain</text>
</g>
<!-- volume&#45;&gt;filesystem -->
<g id="edge4" class="edge">
<title>volume&#45;&gt;filesystem</title>
<path fill="none" stroke="#aaaaaa" d="M193,-1217.34C193,-1210.05 193,-1201.37 193,-1193.18"/>
<polygon fill="#aaaaaa" stroke="#aaaaaa" points="196.5,-1193.26 193,-1183.26 189.5,-1193.26 196.5,-1193.26"/>
</g>
<!-- mount -->
<g id="node9" class="node">
<title>mount</title>
<path fill="#330000" stroke="#e00000" d="M216,-1109.64C216,-1109.64 170,-1109.64 170,-1109.64 164,-1109.64 158,-1103.64 158,-1097.64 158,-1097.64 158,-1085.64 158,-1085.64 158,-1079.64 164,-1073.64 170,-1073.64 170,-1073.64 216,-1073.64 216,-1073.64 222,-1073.64 228,-1079.64 228,-1085.64 228,-1085.64 228,-1097.64 228,-1097.64 228,-1103.64 222,-1109.64 216,-1109.64"/>
<text xml:space="preserve" text-anchor="middle" x="193" y="-1089.27" font-family="monospace" font-size="10.00" fill="white">mountMain</text>
</g>
<!-- filesystem&#45;&gt;mount -->
<g id="edge5" class="edge">
<title>filesystem&#45;&gt;mount</title>
<path fill="none" stroke="#aaaaaa" d="M193,-1145.34C193,-1138.05 193,-1129.37 193,-1121.18"/>
<polygon fill="#aaaaaa" stroke="#aaaaaa" points="196.5,-1121.26 193,-1111.26 189.5,-1121.26 196.5,-1121.26"/>
</g>
<!-- pacstrap -->
<g id="node10" class="node">
<title>pacstrap</title>
<path fill="#330000" stroke="#e00000" d="M279,-1037.64C279,-1037.64 107,-1037.64 107,-1037.64 101,-1037.64 95,-1031.64 95,-1025.64 95,-1025.64 95,-984.64 95,-984.64 95,-978.64 101,-972.64 107,-972.64 107,-972.64 279,-972.64 279,-972.64 285,-972.64 291,-978.64 291,-984.64 291,-984.64 291,-1025.64 291,-1025.64 291,-1031.64 285,-1037.64 279,-1037.64"/>
<text xml:space="preserve" text-anchor="middle" x="193" y="-1024.14" font-family="monospace" font-size="10.00" fill="white">pacstrapMain</text>
<text xml:space="preserve" text-anchor="middle" x="193" y="-1009.89" font-family="monospace" font-size="10.00" fill="white">(pacstrap + DotfileOverlay</text>
<text xml:space="preserve" text-anchor="middle" x="193" y="-995.64" font-family="monospace" font-size="10.00" fill="white">+ copies prebuilt native tools</text>
<text xml:space="preserve" text-anchor="middle" x="193" y="-981.39" font-family="monospace" font-size="10.00" fill="white">+ writes install.state)</text>
</g>
<!-- mount&#45;&gt;pacstrap -->
<g id="edge6" class="edge">
<title>mount&#45;&gt;pacstrap</title>
<path fill="none" stroke="#aaaaaa" d="M193,-1073.54C193,-1066.43 193,-1057.83 193,-1049.19"/>
<polygon fill="#aaaaaa" stroke="#aaaaaa" points="196.5,-1049.43 193,-1039.43 189.5,-1049.43 196.5,-1049.43"/>
</g>
<!-- chroot -->
<g id="node11" class="node">
<title>chroot</title>
<ellipse fill="#1a1608" stroke="#8a6a2f" cx="193" cy="-910.83" rx="130.11" ry="25.81"/>
<text xml:space="preserve" text-anchor="middle" x="193" y="-915.58" font-family="monospace" font-size="10.00" fill="#e0c896">arch&#45;chroot into target</text>
<text xml:space="preserve" text-anchor="middle" x="193" y="-901.33" font-family="monospace" font-size="10.00" fill="#e0c896">(Stage 0 &#45;&gt; Stage 1 handoff)</text>
</g>
<!-- pacstrap&#45;&gt;chroot -->
<g id="edge16" class="edge">
<title>pacstrap&#45;&gt;chroot</title>
<path fill="none" stroke="#aaaaaa" d="M193,-972.38C193,-964.6 193,-956.21 193,-948.23"/>
<polygon fill="#aaaaaa" stroke="#aaaaaa" points="196.5,-948.47 193,-938.47 189.5,-948.47 196.5,-948.47"/>
</g>
<!-- state -->
<g id="node12" class="node">
<title>state</title>
<polygon fill="#330000" stroke="#e00000" points="291,-841.52 89,-841.52 89,-776.52 297,-776.52 297,-835.52 291,-841.52"/>
<polyline fill="none" stroke="#e00000" points="291,-841.52 291,-835.52"/>
<polyline fill="none" stroke="#e00000" points="297,-835.52 291,-835.52"/>
<text xml:space="preserve" text-anchor="middle" x="193" y="-828.02" font-family="monospace" font-size="10.00" fill="white">source /etc/syn&#45;os/install.state</text>
<text xml:space="preserve" text-anchor="middle" x="193" y="-813.77" font-family="monospace" font-size="10.00" fill="white">(RootFsDev, LuksUuid, SwapDev,</text>
<text xml:space="preserve" text-anchor="middle" x="193" y="-799.52" font-family="monospace" font-size="10.00" fill="white">resolved during Stage 0,</text>
<text xml:space="preserve" text-anchor="middle" x="193" y="-785.27" font-family="monospace" font-size="10.00" fill="white">can&#39;t be re&#45;derived safely)</text>
</g>
<!-- chroot&#45;&gt;state -->
<g id="edge17" class="edge">
<title>chroot&#45;&gt;state</title>
<path fill="none" stroke="#aaaaaa" d="M193,-884.65C193,-875.15 193,-864.05 193,-853.36"/>
<polygon fill="#aaaaaa" stroke="#aaaaaa" points="196.5,-853.53 193,-843.53 189.5,-853.53 196.5,-853.53"/>
</g>
<!-- locale -->
<g id="node13" class="node">
<title>locale</title>
<path fill="#4d0000" stroke="#e00000" d="M240,-740.52C240,-740.52 146,-740.52 146,-740.52 140,-740.52 134,-734.52 134,-728.52 134,-728.52 134,-716.02 134,-716.02 134,-710.02 140,-704.02 146,-704.02 146,-704.02 240,-704.02 240,-704.02 246,-704.02 252,-710.02 252,-716.02 252,-716.02 252,-728.52 252,-728.52 252,-734.52 246,-740.52 240,-740.52"/>
<text xml:space="preserve" text-anchor="middle" x="193" y="-727.02" font-family="monospace" font-size="10.00" fill="white">locale, hostname,</text>
<text xml:space="preserve" text-anchor="middle" x="193" y="-712.77" font-family="monospace" font-size="10.00" fill="white">timezone, keymap</text>
</g>
<!-- state&#45;&gt;locale -->
<g id="edge7" class="edge">
<title>state&#45;&gt;locale</title>
<path fill="none" stroke="#aaaaaa" d="M193,-776.47C193,-768.56 193,-760.12 193,-752.34"/>
<polygon fill="#aaaaaa" stroke="#aaaaaa" points="196.5,-752.35 193,-742.35 189.5,-752.35 196.5,-752.35"/>
</g>
<!-- doas -->
<g id="node14" class="node">
<title>doas</title>
<path fill="#4d0000" stroke="#e00000" d="M249,-668.02C249,-668.02 137,-668.02 137,-668.02 131,-668.02 125,-662.02 125,-656.02 125,-656.02 125,-643.52 125,-643.52 125,-637.52 131,-631.52 137,-631.52 137,-631.52 249,-631.52 249,-631.52 255,-631.52 261,-637.52 261,-643.52 261,-643.52 261,-656.02 261,-656.02 261,-662.02 255,-668.02 249,-668.02"/>
<text xml:space="preserve" text-anchor="middle" x="193" y="-654.52" font-family="monospace" font-size="10.00" fill="white">doas&#45;&gt;sudo shim,</text>
<text xml:space="preserve" text-anchor="middle" x="193" y="-640.27" font-family="monospace" font-size="10.00" fill="white">removes sudo package</text>
</g>
<!-- locale&#45;&gt;doas -->
<g id="edge8" class="edge">
<title>locale&#45;&gt;doas</title>
<path fill="none" stroke="#aaaaaa" d="M193,-703.85C193,-696.61 193,-688.02 193,-679.88"/>
<polygon fill="#aaaaaa" stroke="#aaaaaa" points="196.5,-680 193,-670 189.5,-680 196.5,-680"/>
</g>
<!-- user -->
<g id="node15" class="node">
<title>user</title>
<path fill="#4d0000" stroke="#e00000" d="M282,-595.52C282,-595.52 104,-595.52 104,-595.52 98,-595.52 92,-589.52 92,-583.52 92,-583.52 92,-556.77 92,-556.77 92,-550.77 98,-544.77 104,-544.77 104,-544.77 282,-544.77 282,-544.77 288,-544.77 294,-550.77 294,-556.77 294,-556.77 294,-583.52 294,-583.52 294,-589.52 288,-595.52 282,-595.52"/>
<text xml:space="preserve" text-anchor="middle" x="193" y="-582.02" font-family="monospace" font-size="10.00" fill="white">useradd &#45;m &#45;G wheel</text>
<text xml:space="preserve" text-anchor="middle" x="193" y="-567.77" font-family="monospace" font-size="10.00" fill="white">(populates home from</text>
<text xml:space="preserve" text-anchor="middle" x="193" y="-553.52" font-family="monospace" font-size="10.00" fill="white">/etc/skel, see Dotfile Overlay)</text>
</g>
<!-- doas&#45;&gt;user -->
<g id="edge9" class="edge">
<title>doas&#45;&gt;user</title>
<path fill="none" stroke="#aaaaaa" d="M193,-631.16C193,-624.05 193,-615.56 193,-607.24"/>
<polygon fill="#aaaaaa" stroke="#aaaaaa" points="196.5,-607.27 193,-597.27 189.5,-607.27 196.5,-607.27"/>
</g>
<!-- initramfs -->
<g id="node16" class="node">
<title>initramfs</title>
<path fill="#4d0000" stroke="#e00000" d="M270,-508.77C270,-508.77 116,-508.77 116,-508.77 110,-508.77 104,-502.77 104,-496.77 104,-496.77 104,-470.02 104,-470.02 104,-464.02 110,-458.02 116,-458.02 116,-458.02 270,-458.02 270,-458.02 276,-458.02 282,-464.02 282,-470.02 282,-470.02 282,-496.77 282,-496.77 282,-502.77 276,-508.77 270,-508.77"/>
<text xml:space="preserve" text-anchor="middle" x="193" y="-495.27" font-family="monospace" font-size="10.00" fill="white">mkinitcpio hooks</text>
<text xml:space="preserve" text-anchor="middle" x="193" y="-481.02" font-family="monospace" font-size="10.00" fill="white">(+encrypt, +lvm2 as needed)</text>
<text xml:space="preserve" text-anchor="middle" x="193" y="-466.77" font-family="monospace" font-size="10.00" fill="white">+ rebuild initramfs</text>
</g>
<!-- user&#45;&gt;initramfs -->
<g id="edge10" class="edge">
<title>user&#45;&gt;initramfs</title>
<path fill="none" stroke="#aaaaaa" d="M193,-544.64C193,-537.15 193,-528.75 193,-520.65"/>
<polygon fill="#aaaaaa" stroke="#aaaaaa" points="196.5,-520.66 193,-510.66 189.5,-520.66 196.5,-520.66"/>
</g>
<!-- bootloader -->
<g id="node17" class="node">
<title>bootloader</title>
<path fill="#4d0000" stroke="#e00000" d="M270,-422.02C270,-422.02 116,-422.02 116,-422.02 110,-422.02 104,-416.02 104,-410.02 104,-410.02 104,-383.27 104,-383.27 104,-377.27 110,-371.27 116,-371.27 116,-371.27 270,-371.27 270,-371.27 276,-371.27 282,-377.27 282,-383.27 282,-383.27 282,-410.02 282,-410.02 282,-416.02 276,-422.02 270,-422.02"/>
<text xml:space="preserve" text-anchor="middle" x="193" y="-408.52" font-family="monospace" font-size="10.00" fill="white">install bootloader</text>
<text xml:space="preserve" text-anchor="middle" x="193" y="-394.27" font-family="monospace" font-size="10.00" fill="white">(bootctl / grub / syslinux,</text>
<text xml:space="preserve" text-anchor="middle" x="193" y="-380.02" font-family="monospace" font-size="10.00" fill="white">keyed off PartitionStrat)</text>
</g>
<!-- initramfs&#45;&gt;bootloader -->
<g id="edge11" class="edge">
<title>initramfs&#45;&gt;bootloader</title>
<path fill="none" stroke="#aaaaaa" d="M193,-457.89C193,-450.4 193,-442 193,-433.9"/>
<polygon fill="#aaaaaa" stroke="#aaaaaa" points="196.5,-433.91 193,-423.91 189.5,-433.91 196.5,-433.91"/>
</g>
<!-- services -->
<g id="node18" class="node">
<title>services</title>
<path fill="#4d0000" stroke="#e00000" d="M258,-335.27C258,-335.27 128,-335.27 128,-335.27 122,-335.27 116,-329.27 116,-323.27 116,-323.27 116,-282.27 116,-282.27 116,-276.27 122,-270.27 128,-270.27 128,-270.27 258,-270.27 258,-270.27 264,-270.27 270,-276.27 270,-282.27 270,-282.27 270,-323.27 270,-323.27 270,-329.27 264,-335.27 258,-335.27"/>
<text xml:space="preserve" text-anchor="middle" x="193" y="-321.77" font-family="monospace" font-size="10.00" fill="white">enable dhcpcd, iwd</text>
<text xml:space="preserve" text-anchor="middle" x="193" y="-307.52" font-family="monospace" font-size="10.00" fill="white">+ sshd if EnableSsh=yes</text>
<text xml:space="preserve" text-anchor="middle" x="193" y="-293.27" font-family="monospace" font-size="10.00" fill="white">+ qemu&#45;guest&#45;agent if</text>
<text xml:space="preserve" text-anchor="middle" x="193" y="-279.02" font-family="monospace" font-size="10.00" fill="white">running under kvm/qemu</text>
</g>
<!-- bootloader&#45;&gt;services -->
<g id="edge12" class="edge">
<title>bootloader&#45;&gt;services</title>
<path fill="none" stroke="#aaaaaa" d="M193,-371.03C193,-363.66 193,-355.35 193,-347.15"/>
<polygon fill="#aaaaaa" stroke="#aaaaaa" points="196.5,-347.25 193,-337.25 189.5,-347.25 196.5,-347.25"/>
</g>
<!-- done -->
<g id="node19" class="node">
<title>done</title>
<ellipse fill="#4d0000" stroke="#ff2020" stroke-width="2" cx="193" cy="-117.14" rx="113.14" ry="113.14"/>
<ellipse fill="none" stroke="#ff2020" stroke-width="2" cx="193" cy="-117.14" rx="117.14" ry="117.14"/>
<text xml:space="preserve" text-anchor="middle" x="193" y="-129.01" font-family="monospace" font-size="10.00" fill="white">installed system</text>
<text xml:space="preserve" text-anchor="middle" x="193" y="-114.76" font-family="monospace" font-size="10.00" fill="white">pacman &#45;Syu from here,</text>
<text xml:space="preserve" text-anchor="middle" x="193" y="-100.51" font-family="monospace" font-size="10.00" fill="white">same as any Arch install</text>
</g>
<!-- services&#45;&gt;done -->
<g id="edge18" class="edge">
<title>services&#45;&gt;done</title>
<path fill="none" stroke="#aaaaaa" d="M193,-269.79C193,-262.71 193,-254.8 193,-246.4"/>
<polygon fill="#aaaaaa" stroke="#aaaaaa" points="196.5,-246.63 193,-236.63 189.5,-246.63 196.5,-246.63"/>
</g>
<!-- note -->
<g id="node20" class="node">
<title>note</title>
<polygon fill="#1a1608" stroke="#665522" points="656,-1831.1 358,-1831.1 358,-1780.35 662,-1780.35 662,-1825.1 656,-1831.1"/>
<polyline fill="none" stroke="#665522" points="656,-1831.1 656,-1825.1"/>
<polyline fill="none" stroke="#665522" points="662,-1825.1 656,-1825.1"/>
<text xml:space="preserve" text-anchor="middle" x="510" y="-1817.6" font-family="monospace" font-size="10.00" fill="#ccaa66">No unattended mode, no TUI, no partition&#45;picker.</text>
<text xml:space="preserve" text-anchor="middle" x="510" y="-1803.35" font-family="monospace" font-size="10.00" fill="#ccaa66">synos.conf is edited by hand before this runs.</text>
<text xml:space="preserve" text-anchor="middle" x="510" y="-1789.1" font-family="monospace" font-size="10.00" fill="#ccaa66">Deliberate, see Philosophy in the README.</text>
</g>
</g>
</svg>
