<?xml version="1.0" encoding="UTF-8" standalone="no"?>
<!DOCTYPE svg PUBLIC "-//W3C//DTD SVG 1.1//EN"
 "http://www.w3.org/Graphics/SVG/1.1/DTD/svg11.dtd">
<!-- Generated by graphviz version 15.1.0 (0)
 -->
<!-- Title: iso_build_flow Pages: 1 -->
<svg width="681pt" height="1692pt"
 viewBox="0.00 0.00 681.00 1692.00" xmlns="http://www.w3.org/2000/svg" xmlns:xlink="http://www.w3.org/1999/xlink">
<g id="graph0" class="graph" transform="scale(1 1) rotate(0) translate(4 1687.61)">
<title>iso_build_flow</title>
<polygon fill="#000000" stroke="none" points="-4,4 -4,-1687.61 677,-1687.61 677,4 -4,4"/>
<text xml:space="preserve" text-anchor="middle" x="336.5" y="-1666.31" font-family="monospace" font-size="14.00" fill="#ff6666">BUILD&#45;ARCHISO.zsh: mode selection through to a finished ISO or a dead end</text>
<g id="clust1" class="cluster">
<title>cluster_named</title>
<path fill="#0a0a0a" stroke="#555555" d="M20,-742.11C20,-742.11 350,-742.11 350,-742.11 356,-742.11 362,-748.11 362,-754.11 362,-754.11 362,-1402.36 362,-1402.36 362,-1408.36 356,-1414.36 350,-1414.36 350,-1414.36 20,-1414.36 20,-1414.36 14,-1414.36 8,-1408.36 8,-1402.36 8,-1402.36 8,-754.11 8,-754.11 8,-748.11 14,-742.11 20,-742.11"/>
<text xml:space="preserve" text-anchor="middle" x="185" y="-1397.06" font-family="monospace" font-size="14.00" fill="white">&#45;&#45;build=&lt;name&gt;: a real historical profile</text>
</g>
<!-- start -->
<g id="node1" class="node">
<title>start</title>
<ellipse fill="#1a0000" stroke="#e00000" cx="364" cy="-1638.11" rx="75.05" ry="18"/>
<text xml:space="preserve" text-anchor="middle" x="364" y="-1635.74" font-family="monospace" font-size="10.00" fill="white">BUILD&#45;ARCHISO.zsh</text>
</g>
<!-- mode -->
<g id="node2" class="node">
<title>mode</title>
<path fill="#330000" stroke="#e00000" d="M352.47,-1579.8C352.47,-1579.8 149.53,-1521.43 149.53,-1521.43 143.77,-1519.77 143.77,-1516.46 149.53,-1514.8 149.53,-1514.8 352.47,-1456.43 352.47,-1456.43 358.23,-1454.77 369.77,-1454.77 375.53,-1456.43 375.53,-1456.43 578.47,-1514.8 578.47,-1514.8 584.23,-1516.46 584.23,-1519.77 578.47,-1521.43 578.47,-1521.43 375.53,-1579.8 375.53,-1579.8 369.77,-1581.46 358.23,-1581.46 352.47,-1579.8"/>
<text xml:space="preserve" text-anchor="middle" x="364" y="-1537.11" font-family="monospace" font-size="10.00" fill="white">no flags: interactive menu</text>
<text xml:space="preserve" text-anchor="middle" x="364" y="-1522.86" font-family="monospace" font-size="10.00" fill="white">&#45;&#45;build=&lt;name&gt;: skip straight to it</text>
<text xml:space="preserve" text-anchor="middle" x="364" y="-1508.61" font-family="monospace" font-size="10.00" fill="white">&#45;&#45;list&#45;builds: print manifest, exit</text>
<text xml:space="preserve" text-anchor="middle" x="364" y="-1494.36" font-family="monospace" font-size="10.00" fill="white">(no root needed)</text>
</g>
<!-- start&#45;&gt;mode -->
<g id="edge8" class="edge">
<title>start&#45;&gt;mode</title>
<path fill="none" stroke="#aaaaaa" d="M364,-1619.7C364,-1612.68 364,-1604.07 364,-1594.86"/>
<polygon fill="#aaaaaa" stroke="#aaaaaa" points="367.5,-1594.91 364,-1584.91 360.5,-1594.91 367.5,-1594.91"/>
</g>
<!-- mainline -->
<g id="node3" class="node">
<title>mainline</title>
<path fill="#1a1608" stroke="#8a6a2f" d="M524,-1378.86C524,-1378.86 382,-1378.86 382,-1378.86 376,-1378.86 370,-1372.86 370,-1366.86 370,-1366.86 370,-1325.86 370,-1325.86 370,-1319.86 376,-1313.86 382,-1313.86 382,-1313.86 524,-1313.86 524,-1313.86 530,-1313.86 536,-1319.86 536,-1325.86 536,-1325.86 536,-1366.86 536,-1366.86 536,-1372.86 530,-1378.86 524,-1378.86"/>
<text xml:space="preserve" text-anchor="middle" x="453" y="-1365.36" font-family="monospace" font-size="10.00" fill="#e0c896">mainline</text>
<text xml:space="preserve" text-anchor="middle" x="453" y="-1351.11" font-family="monospace" font-size="10.00" fill="#e0c896">(local SYN&#45;ISO&#45;PROFILE/</text>
<text xml:space="preserve" text-anchor="middle" x="453" y="-1336.86" font-family="monospace" font-size="10.00" fill="#e0c896">working tree, uncommitted</text>
<text xml:space="preserve" text-anchor="middle" x="453" y="-1322.61" font-family="monospace" font-size="10.00" fill="#e0c896">changes included)</text>
</g>
<!-- mode&#45;&gt;mainline -->
<g id="edge9" class="edge">
<title>mode&#45;&gt;mainline</title>
<path fill="none" stroke="#aaaaaa" d="M393.39,-1461.06C405.66,-1437.66 419.67,-1410.94 431.02,-1389.28"/>
<polygon fill="#aaaaaa" stroke="#aaaaaa" points="434.12,-1390.92 435.66,-1380.44 427.92,-1387.67 434.12,-1390.92"/>
<text xml:space="preserve" text-anchor="middle" x="437.42" y="-1426.56" font-family="monospace" font-size="9.00" fill="white">no &#45;&#45;build</text>
</g>
<!-- clone -->
<g id="node4" class="node">
<title>clone</title>
<path fill="#4d0000" stroke="#e00000" d="M335,-1378.86C335,-1378.86 193,-1378.86 193,-1378.86 187,-1378.86 181,-1372.86 181,-1366.86 181,-1366.86 181,-1325.86 181,-1325.86 181,-1319.86 187,-1313.86 193,-1313.86 193,-1313.86 335,-1313.86 335,-1313.86 341,-1313.86 347,-1319.86 347,-1325.86 347,-1325.86 347,-1366.86 347,-1366.86 347,-1372.86 341,-1378.86 335,-1378.86"/>
<text xml:space="preserve" text-anchor="middle" x="264" y="-1365.36" font-family="monospace" font-size="10.00" fill="white">clone/fetch bare mirror</text>
<text xml:space="preserve" text-anchor="middle" x="264" y="-1351.11" font-family="monospace" font-size="10.00" fill="white">(syn990/SYN&#45;OS or</text>
<text xml:space="preserve" text-anchor="middle" x="264" y="-1336.86" font-family="monospace" font-size="10.00" fill="white">syn990/SYN&#45;RTOS, cached</text>
<text xml:space="preserve" text-anchor="middle" x="264" y="-1322.61" font-family="monospace" font-size="10.00" fill="white">under .syncache/sources/)</text>
</g>
<!-- mode&#45;&gt;clone -->
<g id="edge10" class="edge">
<title>mode&#45;&gt;clone</title>
<path fill="none" stroke="#aaaaaa" d="M331.53,-1462C317.49,-1438.16 301.33,-1410.73 288.34,-1388.68"/>
<polygon fill="#aaaaaa" stroke="#aaaaaa" points="291.47,-1387.1 283.38,-1380.26 285.44,-1390.66 291.47,-1387.1"/>
<text xml:space="preserve" text-anchor="middle" x="350.75" y="-1426.56" font-family="monospace" font-size="9.00" fill="white">&#45;&#45;build=&lt;name&gt;</text>
</g>
<!-- confirm -->
<g id="node10" class="node">
<title>confirm</title>
<path fill="#1a0000" stroke="#e00000" d="M393,-713.11C393,-713.11 275,-713.11 275,-713.11 269,-713.11 263,-707.11 263,-701.11 263,-701.11 263,-674.36 263,-674.36 263,-668.36 269,-662.36 275,-662.36 275,-662.36 393,-662.36 393,-662.36 399,-662.36 405,-668.36 405,-674.36 405,-674.36 405,-701.11 405,-701.11 405,-707.11 399,-713.11 393,-713.11"/>
<text xml:space="preserve" text-anchor="middle" x="334" y="-699.61" font-family="monospace" font-size="10.00" fill="white">root check + confirm</text>
<text xml:space="preserve" text-anchor="middle" x="334" y="-685.36" font-family="monospace" font-size="10.00" fill="white">(y/n, shows resolved</text>
<text xml:space="preserve" text-anchor="middle" x="334" y="-671.11" font-family="monospace" font-size="10.00" fill="white">profile/output/build)</text>
</g>
<!-- mainline&#45;&gt;confirm -->
<g id="edge11" class="edge">
<title>mainline&#45;&gt;confirm</title>
<path fill="none" stroke="#aaaaaa" d="M435.21,-1313.52C426.14,-1294.37 417,-1269.17 417,-1245.36 417,-1245.36 417,-1245.36 417,-781.61 417,-757.05 400.66,-736 382.47,-720.18"/>
<polygon fill="#aaaaaa" stroke="#aaaaaa" points="385.17,-717.86 375.21,-714.24 380.74,-723.28 385.17,-717.86"/>
</g>
<!-- extract -->
<g id="node5" class="node">
<title>extract</title>
<path fill="#4d0000" stroke="#e00000" d="M312,-1276.86C312,-1276.86 140,-1276.86 140,-1276.86 134,-1276.86 128,-1270.86 128,-1264.86 128,-1264.86 128,-1223.86 128,-1223.86 128,-1217.86 134,-1211.86 140,-1211.86 140,-1211.86 312,-1211.86 312,-1211.86 318,-1211.86 324,-1217.86 324,-1223.86 324,-1223.86 324,-1264.86 324,-1264.86 324,-1270.86 318,-1276.86 312,-1276.86"/>
<text xml:space="preserve" text-anchor="middle" x="226" y="-1263.36" font-family="monospace" font-size="10.00" fill="white">git archive at the exact</text>
<text xml:space="preserve" text-anchor="middle" x="226" y="-1249.11" font-family="monospace" font-size="10.00" fill="white">commit + profile_path</text>
<text xml:space="preserve" text-anchor="middle" x="226" y="-1234.86" font-family="monospace" font-size="10.00" fill="white">from build&#45;manifest.json</text>
<text xml:space="preserve" text-anchor="middle" x="226" y="-1220.61" font-family="monospace" font-size="10.00" fill="white">&#45;&gt; .syncache/extracted/&lt;name&gt;/</text>
</g>
<!-- clone&#45;&gt;extract -->
<g id="edge1" class="edge">
<title>clone&#45;&gt;extract</title>
<path fill="none" stroke="#aaaaaa" d="M251.87,-1313.45C248.79,-1305.33 245.42,-1296.48 242.17,-1287.92"/>
<polygon fill="#aaaaaa" stroke="#aaaaaa" points="245.5,-1286.84 238.68,-1278.73 238.96,-1289.32 245.5,-1286.84"/>
</g>
<!-- fix1 -->
<g id="node6" class="node">
<title>fix1</title>
<path fill="#1a1608" stroke="#8a6a2f" d="M188.6,-1171.11C188.6,-1171.11 57.4,-1127.87 57.4,-1127.87 51.7,-1125.99 51.7,-1122.24 57.4,-1120.36 57.4,-1120.36 188.6,-1077.12 188.6,-1077.12 194.3,-1075.24 205.7,-1075.24 211.4,-1077.12 211.4,-1077.12 342.6,-1120.36 342.6,-1120.36 348.3,-1122.24 348.3,-1125.99 342.6,-1127.87 342.6,-1127.87 211.4,-1171.11 211.4,-1171.11 205.7,-1172.99 194.3,-1172.99 188.6,-1171.11"/>
<text xml:space="preserve" text-anchor="middle" x="200" y="-1135.99" font-family="monospace" font-size="10.00" fill="#e0c896">[community] repo block</text>
<text xml:space="preserve" text-anchor="middle" x="200" y="-1121.74" font-family="monospace" font-size="10.00" fill="#e0c896">present in pacman.conf?</text>
<text xml:space="preserve" text-anchor="middle" x="200" y="-1107.49" font-family="monospace" font-size="10.00" fill="#e0c896">(pre&#45;mid&#45;2023 profiles)</text>
</g>
<!-- extract&#45;&gt;fix1 -->
<g id="edge2" class="edge">
<title>extract&#45;&gt;fix1</title>
<path fill="none" stroke="#aaaaaa" d="M219.03,-1211.67C217.07,-1202.73 214.86,-1192.7 212.67,-1182.74"/>
<polygon fill="#aaaaaa" stroke="#aaaaaa" points="216.1,-1182.06 210.54,-1173.05 209.27,-1183.56 216.1,-1182.06"/>
</g>
<!-- strip -->
<g id="node7" class="node">
<title>strip</title>
<path fill="#4d0000" stroke="#e00000" d="M211,-1024.61C211,-1024.61 81,-1024.61 81,-1024.61 75,-1024.61 69,-1018.61 69,-1012.61 69,-1012.61 69,-985.86 69,-985.86 69,-979.86 75,-973.86 81,-973.86 81,-973.86 211,-973.86 211,-973.86 217,-973.86 223,-979.86 223,-985.86 223,-985.86 223,-1012.61 223,-1012.61 223,-1018.61 217,-1024.61 211,-1024.61"/>
<text xml:space="preserve" text-anchor="middle" x="146" y="-1011.11" font-family="monospace" font-size="10.00" fill="white">strip the block</text>
<text xml:space="preserve" text-anchor="middle" x="146" y="-996.86" font-family="monospace" font-size="10.00" fill="white">(packages still resolve</text>
<text xml:space="preserve" text-anchor="middle" x="146" y="-982.61" font-family="monospace" font-size="10.00" fill="white">via [extra])</text>
</g>
<!-- fix1&#45;&gt;strip -->
<g id="edge3" class="edge">
<title>fix1&#45;&gt;strip</title>
<path fill="none" stroke="#aaaaaa" d="M180.81,-1079.45C174.45,-1064.97 167.45,-1049.05 161.41,-1035.3"/>
<polygon fill="#aaaaaa" stroke="#aaaaaa" points="164.64,-1033.95 157.41,-1026.2 158.23,-1036.76 164.64,-1033.95"/>
<text xml:space="preserve" text-anchor="middle" x="177.64" y="-1046.81" font-family="monospace" font-size="9.00" fill="white">yes</text>
</g>
<!-- fix2 -->
<g id="node8" class="node">
<title>fix2</title>
<path fill="#1a1608" stroke="#8a6a2f" d="M194.35,-933.99C194.35,-933.99 69.65,-903.24 69.65,-903.24 63.83,-901.8 63.83,-898.93 69.65,-897.49 69.65,-897.49 194.35,-866.74 194.35,-866.74 200.17,-865.3 211.83,-865.3 217.65,-866.74 217.65,-866.74 342.35,-897.49 342.35,-897.49 348.17,-898.93 348.17,-901.8 342.35,-903.24 342.35,-903.24 217.65,-933.99 217.65,-933.99 211.83,-935.43 200.17,-935.43 194.35,-933.99"/>
<text xml:space="preserve" text-anchor="middle" x="206" y="-905.11" font-family="monospace" font-size="10.00" fill="#e0c896">profiledef.sh declares</text>
<text xml:space="preserve" text-anchor="middle" x="206" y="-890.86" font-family="monospace" font-size="10.00" fill="#e0c896">a grub bootmode?</text>
</g>
<!-- fix1&#45;&gt;fix2 -->
<g id="edge4" class="edge">
<title>fix1&#45;&gt;fix2</title>
<path fill="none" stroke="#aaaaaa" d="M218.46,-1079.21C228.69,-1049.57 238.2,-1009.5 232,-973.86 230.29,-964 227.35,-953.71 224.06,-944.09"/>
<polygon fill="#aaaaaa" stroke="#aaaaaa" points="227.45,-943.18 220.75,-934.98 220.87,-945.57 227.45,-943.18"/>
<text xml:space="preserve" text-anchor="middle" x="239.22" y="-997.06" font-family="monospace" font-size="9.00" fill="white">no</text>
</g>
<!-- strip&#45;&gt;fix2 -->
<g id="edge5" class="edge">
<title>strip&#45;&gt;fix2</title>
<path fill="none" stroke="#aaaaaa" d="M161.3,-973.54C167.25,-963.93 174.23,-952.66 180.88,-941.92"/>
<polygon fill="#aaaaaa" stroke="#aaaaaa" points="183.77,-943.9 186.06,-933.55 177.82,-940.21 183.77,-943.9"/>
</g>
<!-- grub -->
<g id="node9" class="node">
<title>grub</title>
<path fill="#4d0000" stroke="#e00000" d="M286,-815.11C286,-815.11 126,-815.11 126,-815.11 120,-815.11 114,-809.11 114,-803.11 114,-803.11 114,-762.11 114,-762.11 114,-756.11 120,-750.11 126,-750.11 126,-750.11 286,-750.11 286,-750.11 292,-750.11 298,-756.11 298,-762.11 298,-762.11 298,-803.11 298,-803.11 298,-809.11 292,-815.11 286,-815.11"/>
<text xml:space="preserve" text-anchor="middle" x="206" y="-801.61" font-family="monospace" font-size="10.00" fill="white">install grub on</text>
<text xml:space="preserve" text-anchor="middle" x="206" y="-787.36" font-family="monospace" font-size="10.00" fill="white">the build host</text>
<text xml:space="preserve" text-anchor="middle" x="206" y="-773.11" font-family="monospace" font-size="10.00" fill="white">(tooling only, doesn&#39;t touch</text>
<text xml:space="preserve" text-anchor="middle" x="206" y="-758.86" font-family="monospace" font-size="10.00" fill="white">the host&#39;s own bootloader)</text>
</g>
<!-- fix2&#45;&gt;grub -->
<g id="edge6" class="edge">
<title>fix2&#45;&gt;grub</title>
<path fill="none" stroke="#aaaaaa" d="M206,-863.37C206,-851.71 206,-838.65 206,-826.53"/>
<polygon fill="#aaaaaa" stroke="#aaaaaa" points="209.5,-826.78 206,-816.78 202.5,-826.78 209.5,-826.78"/>
<text xml:space="preserve" text-anchor="middle" x="213.88" y="-837.31" font-family="monospace" font-size="9.00" fill="white">yes</text>
</g>
<!-- fix2&#45;&gt;confirm -->
<g id="edge13" class="edge">
<title>fix2&#45;&gt;confirm</title>
<path fill="none" stroke="#aaaaaa" d="M248.22,-873.88C268.99,-859.22 292.6,-838.96 307,-815.11 323.66,-787.51 330.13,-751.06 332.59,-724.41"/>
<polygon fill="#aaaaaa" stroke="#aaaaaa" points="336.05,-725.02 333.33,-714.79 329.07,-724.49 336.05,-725.02"/>
<text xml:space="preserve" text-anchor="middle" x="335.72" y="-780.44" font-family="monospace" font-size="9.00" fill="white">no</text>
</g>
<!-- grub&#45;&gt;confirm -->
<g id="edge12" class="edge">
<title>grub&#45;&gt;confirm</title>
<path fill="none" stroke="#aaaaaa" d="M250.05,-749.65C263.2,-740.11 277.6,-729.66 290.7,-720.15"/>
<polygon fill="#aaaaaa" stroke="#aaaaaa" points="292.72,-723.02 298.75,-714.31 288.6,-717.35 292.72,-723.02"/>
</g>
<!-- clean -->
<g id="node11" class="node">
<title>clean</title>
<path fill="#4d0000" stroke="#e00000" d="M414,-625.36C414,-625.36 254,-625.36 254,-625.36 248,-625.36 242,-619.36 242,-613.36 242,-613.36 242,-586.61 242,-586.61 242,-580.61 248,-574.61 254,-574.61 254,-574.61 414,-574.61 414,-574.61 420,-574.61 426,-580.61 426,-586.61 426,-586.61 426,-613.36 426,-613.36 426,-619.36 420,-625.36 414,-625.36"/>
<text xml:space="preserve" text-anchor="middle" x="334" y="-611.86" font-family="monospace" font-size="10.00" fill="white">wipe WORKDIR/ISO_OUTPUT</text>
<text xml:space="preserve" text-anchor="middle" x="334" y="-597.61" font-family="monospace" font-size="10.00" fill="white">(unmount stale mounts first,</text>
<text xml:space="preserve" text-anchor="middle" x="334" y="-583.36" font-family="monospace" font-size="10.00" fill="white">archive any leftover .iso)</text>
</g>
<!-- confirm&#45;&gt;clean -->
<g id="edge14" class="edge">
<title>confirm&#45;&gt;clean</title>
<path fill="none" stroke="#aaaaaa" d="M334,-661.94C334,-654.2 334,-645.51 334,-637.17"/>
<polygon fill="#aaaaaa" stroke="#aaaaaa" points="337.5,-637.25 334,-627.25 330.5,-637.25 337.5,-637.25"/>
</g>
<!-- mkarchiso -->
<g id="node12" class="node">
<title>mkarchiso</title>
<ellipse fill="#1a0000" stroke="#e00000" cx="334" cy="-511.8" rx="108.89" ry="25.81"/>
<text xml:space="preserve" text-anchor="middle" x="334" y="-516.55" font-family="monospace" font-size="10.00" fill="white">mkarchiso &#45;v &#45;w WORKDIR</text>
<text xml:space="preserve" text-anchor="middle" x="334" y="-502.3" font-family="monospace" font-size="10.00" fill="white">&#45;o ISO_OUTPUT &lt;profile&gt;</text>
</g>
<!-- clean&#45;&gt;mkarchiso -->
<g id="edge15" class="edge">
<title>clean&#45;&gt;mkarchiso</title>
<path fill="none" stroke="#aaaaaa" d="M334,-574.52C334,-566.65 334,-557.76 334,-549.22"/>
<polygon fill="#aaaaaa" stroke="#aaaaaa" points="337.5,-549.44 334,-539.44 330.5,-549.44 337.5,-549.44"/>
</g>
<!-- pass -->
<g id="node13" class="node">
<title>pass</title>
<ellipse fill="#4d0000" stroke="#ff2020" stroke-width="2" cx="278" cy="-298.87" rx="113.14" ry="113.14"/>
<ellipse fill="none" stroke="#ff2020" stroke-width="2" cx="278" cy="-298.87" rx="117.14" ry="117.14"/>
<text xml:space="preserve" text-anchor="middle" x="278" y="-310.75" font-family="monospace" font-size="10.00" fill="white">ISO produced</text>
<text xml:space="preserve" text-anchor="middle" x="278" y="-296.5" font-family="monospace" font-size="10.00" fill="white">moved to .syncache/isos/</text>
<text xml:space="preserve" text-anchor="middle" x="278" y="-282.25" font-family="monospace" font-size="10.00" fill="white">&lt;name&#45;or&#45;mainline&gt;.iso</text>
</g>
<!-- mkarchiso&#45;&gt;pass -->
<g id="edge16" class="edge">
<title>mkarchiso&#45;&gt;pass</title>
<path fill="none" stroke="#aaaaaa" d="M327.36,-485.78C323.09,-469.69 317.18,-447.46 310.94,-423.95"/>
<polygon fill="#aaaaaa" stroke="#aaaaaa" points="314.39,-423.3 308.44,-414.53 307.62,-425.1 314.39,-423.3"/>
<text xml:space="preserve" text-anchor="middle" x="366.53" y="-459.44" font-family="monospace" font-size="9.00" fill="white">11 of 16 named</text>
<text xml:space="preserve" text-anchor="middle" x="366.53" y="-446.69" font-family="monospace" font-size="9.00" fill="white">builds + mainline</text>
</g>
<!-- fail -->
<g id="node14" class="node">
<title>fail</title>
<ellipse fill="#330000" stroke="#ff2020" stroke-width="2" cx="539" cy="-298.87" rx="121.62" ry="121.62"/>
<ellipse fill="none" stroke="#ff2020" stroke-width="2" cx="539" cy="-298.87" rx="125.62" ry="125.62"/>
<text xml:space="preserve" text-anchor="middle" x="539" y="-332.12" font-family="monospace" font-size="10.00" fill="#ff8888">permanent dead end</text>
<text xml:space="preserve" text-anchor="middle" x="539" y="-317.87" font-family="monospace" font-size="10.00" fill="#ff8888">(5 of 16 named builds)</text>
<text xml:space="preserve" text-anchor="middle" x="539" y="-303.62" font-family="monospace" font-size="10.00" fill="#ff8888">packages gone from every</text>
<text xml:space="preserve" text-anchor="middle" x="539" y="-289.37" font-family="monospace" font-size="10.00" fill="#ff8888">current Arch repo, not a</text>
<text xml:space="preserve" text-anchor="middle" x="539" y="-275.12" font-family="monospace" font-size="10.00" fill="#ff8888">repo&#45;index issue &#45; nothing</text>
<text xml:space="preserve" text-anchor="middle" x="539" y="-260.87" font-family="monospace" font-size="10.00" fill="#ff8888">to reconcile</text>
</g>
<!-- mkarchiso&#45;&gt;fail -->
<g id="edge17" class="edge">
<title>mkarchiso&#45;&gt;fail</title>
<path fill="none" stroke="#aaaaaa" d="M384.66,-488.54C395.26,-482.67 405.96,-475.78 415,-467.99 432.92,-452.57 449.75,-434.11 464.88,-415.14"/>
<polygon fill="#aaaaaa" stroke="#aaaaaa" points="467.61,-417.33 471.01,-407.3 462.1,-413.02 467.61,-417.33"/>
<text xml:space="preserve" text-anchor="middle" x="473.67" y="-459.44" font-family="monospace" font-size="9.00" fill="white">5 of 16 named</text>
<text xml:space="preserve" text-anchor="middle" x="473.67" y="-446.69" font-family="monospace" font-size="9.00" fill="white">builds</text>
</g>
<!-- deadends -->
<g id="node15" class="node">
<title>deadends</title>
<polygon fill="#1a1608" stroke="#665522" points="667,-136.25 405,-136.25 405,0 673,0 673,-130.25 667,-136.25"/>
<polyline fill="none" stroke="#665522" points="667,-136.25 667,-130.25"/>
<polyline fill="none" stroke="#665522" points="673,-130.25 667,-130.25"/>
<text xml:space="preserve" text-anchor="middle" x="539" y="-122.75" font-family="monospace" font-size="10.00" fill="#ccaa66">rtos&#45;pre&#45;v3, rtos&#45;v3, syn&#45;rtos&#45;old,</text>
<text xml:space="preserve" text-anchor="middle" x="539" y="-108.5" font-family="monospace" font-size="10.00" fill="#ccaa66">2035&#45;launch, v4 &#45;&#45; each missing specific</text>
<text xml:space="preserve" text-anchor="middle" x="539" y="-94.25" font-family="monospace" font-size="10.00" fill="#ccaa66">packages (neofetch, grub&#45;customizer,</text>
<text xml:space="preserve" text-anchor="middle" x="539" y="-80" font-family="monospace" font-size="10.00" fill="#ccaa66">reiserfsprogs, gnu&#45;netcat, old wifi</text>
<text xml:space="preserve" text-anchor="middle" x="539" y="-65.75" font-family="monospace" font-size="10.00" fill="#ccaa66">firmware, terminfo packages) permanently</text>
<text xml:space="preserve" text-anchor="middle" x="539" y="-51.5" font-family="monospace" font-size="10.00" fill="#ccaa66">removed or renamed upstream since they</text>
<text xml:space="preserve" text-anchor="middle" x="539" y="-37.25" font-family="monospace" font-size="10.00" fill="#ccaa66">were committed. Left failing on purpose &#45;&#45;</text>
<text xml:space="preserve" text-anchor="middle" x="539" y="-23" font-family="monospace" font-size="10.00" fill="#ccaa66">see build/iso&#45;builder.md for the exact</text>
<text xml:space="preserve" text-anchor="middle" x="539" y="-8.75" font-family="monospace" font-size="10.00" fill="#ccaa66">missing package per build.</text>
</g>
<!-- fail&#45;&gt;deadends -->
<g id="edge7" class="edge">
<title>fail&#45;&gt;deadends</title>
<path fill="none" stroke="#aaaaaa" stroke-dasharray="5,2" d="M539,-172.46C539,-160.18 539,-148.07 539,-136.71"/>
</g>
</g>
</svg>
