<?xml version="1.0" encoding="UTF-8" standalone="no"?>
<!DOCTYPE svg PUBLIC "-//W3C//DTD SVG 1.1//EN"
 "http://www.w3.org/Graphics/SVG/1.1/DTD/svg11.dtd">
<!-- Generated by graphviz version 15.1.0 (0)
 -->
<!-- Title: package_map Pages: 1 -->
<svg width="925pt" height="935pt"
 viewBox="0.00 0.00 925.00 935.00" xmlns="http://www.w3.org/2000/svg" xmlns:xlink="http://www.w3.org/1999/xlink">
<g id="graph0" class="graph" transform="scale(1 1) rotate(0) translate(4 930.88)">
<title>package_map</title>
<polygon fill="#000000" stroke="none" points="-4,4 -4,-930.88 921.48,-930.88 921.48,4 -4,4"/>
<text xml:space="preserve" text-anchor="middle" x="458.74" y="-909.58" font-family="monospace" font-size="14.00" fill="#ff6666">SYNSTALL, by category and what each depends on</text>
<g id="clust1" class="cluster">
<title>cluster_base</title>
<path fill="#0a0a0a" stroke="#555555" d="M20.75,-693C20.75,-693 260.25,-693 260.25,-693 266.25,-693 272.25,-699 272.25,-705 272.25,-705 272.25,-829 272.25,-829 272.25,-835 266.25,-841 260.25,-841 260.25,-841 20.75,-841 20.75,-841 14.75,-841 8.75,-835 8.75,-829 8.75,-829 8.75,-705 8.75,-705 8.75,-699 14.75,-693 20.75,-693"/>
<text xml:space="preserve" text-anchor="middle" x="140.5" y="-823.7" font-family="monospace" font-size="14.00" fill="white">baseCore, 18</text>
<text xml:space="preserve" text-anchor="middle" x="140.5" y="-804.2" font-family="monospace" font-size="14.00" fill="white">installed on every machine</text>
<text xml:space="preserve" text-anchor="middle" x="140.5" y="-784.7" font-family="monospace" font-size="14.00" fill="white">regardless of storage strategy</text>
</g>
<g id="clust2" class="cluster">
<title>cluster_net</title>
<path fill="#0a0a0a" stroke="#555555" d="M446.75,-411C446.75,-411 610.75,-411 610.75,-411 616.75,-411 622.75,-417 622.75,-423 622.75,-423 622.75,-536 622.75,-536 622.75,-542 616.75,-548 610.75,-548 610.75,-548 446.75,-548 446.75,-548 440.75,-548 434.75,-542 434.75,-536 434.75,-536 434.75,-423 434.75,-423 434.75,-417 440.75,-411 446.75,-411"/>
<text xml:space="preserve" text-anchor="middle" x="528.75" y="-530.7" font-family="monospace" font-size="14.00" fill="white">netAndServices, 9</text>
</g>
<g id="clust3" class="cluster">
<title>cluster_shell</title>
<path fill="#0a0a0a" stroke="#555555" d="M57.88,-546C57.88,-546 223.12,-546 223.12,-546 229.12,-546 235.12,-552 235.12,-558 235.12,-558 235.12,-647 235.12,-647 235.12,-653 229.12,-659 223.12,-659 223.12,-659 57.88,-659 57.88,-659 51.88,-659 45.88,-653 45.88,-647 45.88,-647 45.88,-558 45.88,-558 45.88,-552 51.88,-546 57.88,-546"/>
<text xml:space="preserve" text-anchor="middle" x="140.5" y="-641.7" font-family="monospace" font-size="14.00" fill="white">shellAndCLI, 20</text>
<text xml:space="preserve" text-anchor="middle" x="140.5" y="-622.2" font-family="monospace" font-size="14.00" fill="white">feeds .zshrc directly</text>
</g>
<g id="clust4" class="cluster">
<title>cluster_desktop</title>
<path fill="#0a0a0a" stroke="#555555" d="M440.75,-586C440.75,-586 616.75,-586 616.75,-586 622.75,-586 628.75,-592 628.75,-598 628.75,-598 628.75,-717 628.75,-717 628.75,-723 622.75,-729 616.75,-729 616.75,-729 440.75,-729 440.75,-729 434.75,-729 428.75,-723 428.75,-717 428.75,-717 428.75,-598 428.75,-598 428.75,-592 434.75,-586 440.75,-586"/>
<text xml:space="preserve" text-anchor="middle" x="528.75" y="-711.7" font-family="monospace" font-size="14.00" fill="white">desktopStack, 20</text>
<text xml:space="preserve" text-anchor="middle" x="528.75" y="-692.2" font-family="monospace" font-size="14.00" fill="white">the Wayland session</text>
</g>
<g id="clust5" class="cluster">
<title>cluster_dev</title>
<path fill="#0a0a0a" stroke="#555555" d="M459,-270C459,-270 599.5,-270 599.5,-270 605.5,-270 611.5,-276 611.5,-282 611.5,-282 611.5,-391 611.5,-391 611.5,-397 605.5,-403 599.5,-403 599.5,-403 459,-403 459,-403 453,-403 447,-397 447,-391 447,-391 447,-282 447,-282 447,-276 453,-270 459,-270"/>
<text xml:space="preserve" text-anchor="middle" x="529.25" y="-385.7" font-family="monospace" font-size="14.00" fill="white">devToolkit, 9</text>
<text xml:space="preserve" text-anchor="middle" x="529.25" y="-366.2" font-family="monospace" font-size="14.00" fill="white">self&#45;hosting tools</text>
<text xml:space="preserve" text-anchor="middle" x="529.25" y="-346.7" font-family="monospace" font-size="14.00" fill="white">(SYNSTALL only)</text>
</g>
<g id="clust6" class="cluster">
<title>cluster_fonts</title>
<path fill="#0a0a0a" stroke="#555555" d="M450.75,-149C450.75,-149 607.75,-149 607.75,-149 613.75,-149 619.75,-155 619.75,-161 619.75,-161 619.75,-250 619.75,-250 619.75,-256 613.75,-262 607.75,-262 607.75,-262 450.75,-262 450.75,-262 444.75,-262 438.75,-256 438.75,-250 438.75,-250 438.75,-161 438.75,-161 438.75,-155 444.75,-149 450.75,-149"/>
<text xml:space="preserve" text-anchor="middle" x="529.25" y="-244.7" font-family="monospace" font-size="14.00" fill="white">fontsI18n, 9</text>
<text xml:space="preserve" text-anchor="middle" x="529.25" y="-225.2" font-family="monospace" font-size="14.00" fill="white">(SYNMINIMAL: 3 only)</text>
</g>
<g id="clust7" class="cluster">
<title>cluster_apps</title>
<path fill="#0a0a0a" stroke="#555555" d="M459,-8C459,-8 599.5,-8 599.5,-8 605.5,-8 611.5,-14 611.5,-20 611.5,-20 611.5,-129 611.5,-129 611.5,-135 605.5,-141 599.5,-141 599.5,-141 459,-141 459,-141 453,-141 447,-135 447,-129 447,-129 447,-20 447,-20 447,-14 453,-8 459,-8"/>
<text xml:space="preserve" text-anchor="middle" x="529.25" y="-123.7" font-family="monospace" font-size="14.00" fill="white">appsMedia, 6</text>
<text xml:space="preserve" text-anchor="middle" x="529.25" y="-104.2" font-family="monospace" font-size="14.00" fill="white">the apps, one game</text>
<text xml:space="preserve" text-anchor="middle" x="529.25" y="-84.7" font-family="monospace" font-size="14.00" fill="white">(SYNSTALL only)</text>
</g>
<!-- synstall -->
<g id="node1" class="node">
<title>synstall</title>
<ellipse fill="#4d0000" stroke="#ff2020" stroke-width="2" cx="787.62" cy="-466" rx="125.87" ry="125.87"/>
<ellipse fill="none" stroke="#ff2020" stroke-width="2" cx="787.62" cy="-466" rx="129.87" ry="129.87"/>
<text xml:space="preserve" text-anchor="middle" x="787.62" y="-492.12" font-family="monospace" font-size="10.00" fill="white">SYNSTALL</text>
<text xml:space="preserve" text-anchor="middle" x="787.62" y="-477.88" font-family="monospace" font-size="10.00" fill="white">all 7 arrays, ~90 packages</text>
<text xml:space="preserve" text-anchor="middle" x="787.62" y="-463.62" font-family="monospace" font-size="10.00" fill="white">(SYNMINIMAL: baseCore+</text>
<text xml:space="preserve" text-anchor="middle" x="787.62" y="-449.38" font-family="monospace" font-size="10.00" fill="white">netAndServices+shellAndCLI+</text>
<text xml:space="preserve" text-anchor="middle" x="787.62" y="-435.12" font-family="monospace" font-size="10.00" fill="white">desktopStack+3 fonts only)</text>
</g>
<!-- base_ex -->
<g id="node2" class="node">
<title>base_ex</title>
<path fill="#330000" stroke="#e00000" d="M187,-766.5C187,-766.5 93,-766.5 93,-766.5 87,-766.5 81,-760.5 81,-754.5 81,-754.5 81,-713.5 81,-713.5 81,-707.5 87,-701.5 93,-701.5 93,-701.5 187,-701.5 187,-701.5 193,-701.5 199,-707.5 199,-713.5 199,-713.5 199,-754.5 199,-754.5 199,-760.5 193,-766.5 187,-766.5"/>
<text xml:space="preserve" text-anchor="middle" x="140" y="-753" font-family="monospace" font-size="10.00" fill="white">base, linux,</text>
<text xml:space="preserve" text-anchor="middle" x="140" y="-738.75" font-family="monospace" font-size="10.00" fill="white">cryptsetup, lvm2,</text>
<text xml:space="preserve" text-anchor="middle" x="140" y="-724.5" font-family="monospace" font-size="10.00" fill="white">parted, opendoas,</text>
<text xml:space="preserve" text-anchor="middle" x="140" y="-710.25" font-family="monospace" font-size="10.00" fill="white">qemu&#45;guest&#45;agent</text>
</g>
<!-- base_ex&#45;&gt;synstall -->
<g id="edge1" class="edge">
<title>base_ex&#45;&gt;synstall</title>
<path fill="none" stroke="#aaaaaa" d="M199.4,-751.25C295.97,-776.19 491.84,-811.29 628.75,-733 679.81,-703.8 716.03,-650.92 740.79,-599.88"/>
<polygon fill="#aaaaaa" stroke="#aaaaaa" points="743.84,-601.61 744.94,-591.07 737.51,-598.62 743.84,-601.61"/>
</g>
<!-- desktop_ex -->
<g id="node5" class="node">
<title>desktop_ex</title>
<path fill="#330000" stroke="#e00000" d="M608.75,-673.62C608.75,-673.62 448.75,-673.62 448.75,-673.62 442.75,-673.62 436.75,-667.62 436.75,-661.62 436.75,-661.62 436.75,-606.38 436.75,-606.38 436.75,-600.38 442.75,-594.38 448.75,-594.38 448.75,-594.38 608.75,-594.38 608.75,-594.38 614.75,-594.38 620.75,-600.38 620.75,-606.38 620.75,-606.38 620.75,-661.62 620.75,-661.62 620.75,-667.62 614.75,-673.62 608.75,-673.62"/>
<text xml:space="preserve" text-anchor="middle" x="528.75" y="-660.12" font-family="monospace" font-size="10.00" fill="white">labwc, waybar, mako,</text>
<text xml:space="preserve" text-anchor="middle" x="528.75" y="-645.88" font-family="monospace" font-size="10.00" fill="white">wmenu, swaybg,</text>
<text xml:space="preserve" text-anchor="middle" x="528.75" y="-631.62" font-family="monospace" font-size="10.00" fill="white">swaylock, fuzzel,</text>
<text xml:space="preserve" text-anchor="middle" x="528.75" y="-617.38" font-family="monospace" font-size="10.00" fill="white">qt6&#45;base</text>
<text xml:space="preserve" text-anchor="middle" x="528.75" y="-603.12" font-family="monospace" font-size="10.00" fill="white">(syn&#45;filemanager links this)</text>
</g>
<!-- base_ex&#45;&gt;desktop_ex -->
<g id="edge8" class="edge">
<title>base_ex&#45;&gt;desktop_ex</title>
<path fill="none" stroke="#665522" stroke-dasharray="1,5" d="M199.32,-718.92C259.13,-703.46 353.38,-679.09 425.6,-660.41"/>
<polygon fill="#665522" stroke="#665522" points="426.27,-663.85 435.08,-657.96 424.52,-657.08 426.27,-663.85"/>
<text xml:space="preserve" text-anchor="middle" x="358.38" y="-722.66" font-family="monospace" font-size="9.00" fill="white"> &#160;fuse used by</text>
<text xml:space="preserve" text-anchor="middle" x="358.38" y="-709.91" font-family="monospace" font-size="9.00" fill="white"> &#160;lxqt&#45;archiver</text>
<text xml:space="preserve" text-anchor="middle" x="358.38" y="-697.16" font-family="monospace" font-size="9.00" fill="white"> &#160;at runtime</text>
</g>
<!-- net_ex -->
<g id="node3" class="node">
<title>net_ex</title>
<path fill="#330000" stroke="#e00000" d="M602.75,-512.75C602.75,-512.75 454.75,-512.75 454.75,-512.75 448.75,-512.75 442.75,-506.75 442.75,-500.75 442.75,-500.75 442.75,-431.25 442.75,-431.25 442.75,-425.25 448.75,-419.25 454.75,-419.25 454.75,-419.25 602.75,-419.25 602.75,-419.25 608.75,-419.25 614.75,-425.25 614.75,-431.25 614.75,-431.25 614.75,-500.75 614.75,-500.75 614.75,-506.75 608.75,-512.75 602.75,-512.75"/>
<text xml:space="preserve" text-anchor="middle" x="528.75" y="-499.25" font-family="monospace" font-size="10.00" fill="white">dhcpcd, iwd,</text>
<text xml:space="preserve" text-anchor="middle" x="528.75" y="-485" font-family="monospace" font-size="10.00" fill="white">openvpn, hostapd,</text>
<text xml:space="preserve" text-anchor="middle" x="528.75" y="-470.75" font-family="monospace" font-size="10.00" fill="white">openssh, sshfs,</text>
<text xml:space="preserve" text-anchor="middle" x="528.75" y="-456.5" font-family="monospace" font-size="10.00" fill="white">bluez, bluez&#45;utils</text>
<text xml:space="preserve" text-anchor="middle" x="528.75" y="-442.25" font-family="monospace" font-size="10.00" fill="white">(sshd/bluetooth installed,</text>
<text xml:space="preserve" text-anchor="middle" x="528.75" y="-428" font-family="monospace" font-size="10.00" fill="white">never auto&#45;enabled)</text>
</g>
<!-- net_ex&#45;&gt;synstall -->
<g id="edge2" class="edge">
<title>net_ex&#45;&gt;synstall</title>
<path fill="none" stroke="#aaaaaa" d="M614.93,-466C624.9,-466 635.27,-466 645.75,-466"/>
<polygon fill="#aaaaaa" stroke="#aaaaaa" points="645.64,-469.5 655.63,-466 645.63,-462.5 645.64,-469.5"/>
</g>
<!-- shell_ex -->
<g id="node4" class="node">
<title>shell_ex</title>
<path fill="#330000" stroke="#e00000" d="M190,-604.38C190,-604.38 90,-604.38 90,-604.38 84,-604.38 78,-598.38 78,-592.38 78,-592.38 78,-565.62 78,-565.62 78,-559.62 84,-553.62 90,-553.62 90,-553.62 190,-553.62 190,-553.62 196,-553.62 202,-559.62 202,-565.62 202,-565.62 202,-592.38 202,-592.38 202,-598.38 196,-604.38 190,-604.38"/>
<text xml:space="preserve" text-anchor="middle" x="140" y="-590.88" font-family="monospace" font-size="10.00" fill="white">zsh, foot, btop,</text>
<text xml:space="preserve" text-anchor="middle" x="140" y="-576.62" font-family="monospace" font-size="10.00" fill="white">ripgrep, bat, fzf,</text>
<text xml:space="preserve" text-anchor="middle" x="140" y="-562.38" font-family="monospace" font-size="10.00" fill="white">zoxide, glow</text>
</g>
<!-- shell_ex&#45;&gt;synstall -->
<g id="edge3" class="edge">
<title>shell_ex&#45;&gt;synstall</title>
<path fill="none" stroke="#aaaaaa" d="M202.09,-578.96C314.62,-578.33 550.34,-574.3 628.75,-552 641.18,-548.47 653.72,-543.82 666.01,-538.53"/>
<polygon fill="#aaaaaa" stroke="#aaaaaa" points="667.18,-541.83 674.88,-534.55 664.32,-535.45 667.18,-541.83"/>
</g>
<!-- shell_ex&#45;&gt;desktop_ex -->
<g id="edge9" class="edge">
<title>shell_ex&#45;&gt;desktop_ex</title>
<path fill="none" stroke="#665522" stroke-dasharray="1,5" d="M202.28,-587.71C262.13,-596.23 354.3,-609.33 425.3,-619.43"/>
<polygon fill="#665522" stroke="#665522" points="424.62,-622.87 435.01,-620.81 425.6,-615.94 424.62,-622.87"/>
<text xml:space="preserve" text-anchor="middle" x="358.38" y="-634.7" font-family="monospace" font-size="9.00" fill="white"> &#160;foot is the terminal</text>
<text xml:space="preserve" text-anchor="middle" x="358.38" y="-621.95" font-family="monospace" font-size="9.00" fill="white"> &#160;labwc&#39;s keybind opens</text>
</g>
<!-- desktop_ex&#45;&gt;synstall -->
<g id="edge4" class="edge">
<title>desktop_ex&#45;&gt;synstall</title>
<path fill="none" stroke="#aaaaaa" d="M615.66,-593.96C623.93,-589.48 632.08,-584.79 639.75,-580 652.2,-572.23 664.86,-563.62 677.26,-554.72"/>
<polygon fill="#aaaaaa" stroke="#aaaaaa" points="678.98,-557.79 685.01,-549.08 674.86,-552.13 678.98,-557.79"/>
</g>
<!-- dev_ex -->
<g id="node6" class="node">
<title>dev_ex</title>
<path fill="#330000" stroke="#e00000" d="M566.75,-328.38C566.75,-328.38 490.75,-328.38 490.75,-328.38 484.75,-328.38 478.75,-322.38 478.75,-316.38 478.75,-316.38 478.75,-289.62 478.75,-289.62 478.75,-283.62 484.75,-277.62 490.75,-277.62 490.75,-277.62 566.75,-277.62 566.75,-277.62 572.75,-277.62 578.75,-283.62 578.75,-289.62 578.75,-289.62 578.75,-316.38 578.75,-316.38 578.75,-322.38 572.75,-328.38 566.75,-328.38"/>
<text xml:space="preserve" text-anchor="middle" x="528.75" y="-314.88" font-family="monospace" font-size="10.00" fill="white">gcc, archiso,</text>
<text xml:space="preserve" text-anchor="middle" x="528.75" y="-300.62" font-family="monospace" font-size="10.00" fill="white">android&#45;tools,</text>
<text xml:space="preserve" text-anchor="middle" x="528.75" y="-286.38" font-family="monospace" font-size="10.00" fill="white">binwalk</text>
</g>
<!-- dev_ex&#45;&gt;synstall -->
<g id="edge5" class="edge">
<title>dev_ex&#45;&gt;synstall</title>
<path fill="none" stroke="#aaaaaa" d="M570.45,-328.83C596.88,-345.6 632.8,-368.39 667.76,-390.58"/>
<polygon fill="#aaaaaa" stroke="#aaaaaa" points="665.51,-393.29 675.83,-395.7 669.26,-387.38 665.51,-393.29"/>
</g>
<!-- fonts_ex -->
<g id="node7" class="node">
<title>fonts_ex</title>
<path fill="#330000" stroke="#e00000" d="M572.75,-207.38C572.75,-207.38 484.75,-207.38 484.75,-207.38 478.75,-207.38 472.75,-201.38 472.75,-195.38 472.75,-195.38 472.75,-168.62 472.75,-168.62 472.75,-162.62 478.75,-156.62 484.75,-156.62 484.75,-156.62 572.75,-156.62 572.75,-156.62 578.75,-156.62 584.75,-162.62 584.75,-168.62 584.75,-168.62 584.75,-195.38 584.75,-195.38 584.75,-201.38 578.75,-207.38 572.75,-207.38"/>
<text xml:space="preserve" text-anchor="middle" x="528.75" y="-193.88" font-family="monospace" font-size="10.00" fill="white">terminus&#45;font,</text>
<text xml:space="preserve" text-anchor="middle" x="528.75" y="-179.62" font-family="monospace" font-size="10.00" fill="white">noto&#45;fonts&#45;cjk,</text>
<text xml:space="preserve" text-anchor="middle" x="528.75" y="-165.38" font-family="monospace" font-size="10.00" fill="white">nerd&#45;font glyphs</text>
</g>
<!-- fonts_ex&#45;&gt;synstall -->
<g id="edge6" class="edge">
<title>fonts_ex&#45;&gt;synstall</title>
<path fill="none" stroke="#aaaaaa" d="M563.3,-207.69C583.19,-223.58 608.4,-244.92 628.75,-266 654.36,-292.54 680.04,-323 703.02,-352.02"/>
<polygon fill="#aaaaaa" stroke="#aaaaaa" points="700.19,-354.09 709.12,-359.79 705.69,-349.76 700.19,-354.09"/>
</g>
<!-- apps_ex -->
<g id="node8" class="node">
<title>apps_ex</title>
<path fill="#4d1010" stroke="#ff2020" stroke-width="1.5" d="M587.75,-66.38C587.75,-66.38 469.75,-66.38 469.75,-66.38 463.75,-66.38 457.75,-60.38 457.75,-54.38 457.75,-54.38 457.75,-27.62 457.75,-27.62 457.75,-21.62 463.75,-15.62 469.75,-15.62 469.75,-15.62 587.75,-15.62 587.75,-15.62 593.75,-15.62 599.75,-21.62 599.75,-27.62 599.75,-27.62 599.75,-54.38 599.75,-54.38 599.75,-60.38 593.75,-66.38 587.75,-66.38"/>
<text xml:space="preserve" text-anchor="middle" x="528.75" y="-52.88" font-family="monospace" font-size="10.00" fill="white">vlc, gimp,</text>
<text xml:space="preserve" text-anchor="middle" x="528.75" y="-38.62" font-family="monospace" font-size="10.00" fill="white">falkon, openra</text>
<text xml:space="preserve" text-anchor="middle" x="528.75" y="-24.38" font-family="monospace" font-size="10.00" fill="white">(2022&#45;11&#45;07 &#45;&gt; today)</text>
</g>
<!-- apps_ex&#45;&gt;synstall -->
<g id="edge7" class="edge">
<title>apps_ex&#45;&gt;synstall</title>
<path fill="none" stroke="#aaaaaa" d="M558.67,-66.81C579.86,-86.74 608.36,-115.76 628.75,-145 669.72,-203.75 705.81,-274.71 733.11,-334.96"/>
<polygon fill="#aaaaaa" stroke="#aaaaaa" points="729.85,-336.24 737.14,-343.93 736.23,-333.37 729.85,-336.24"/>
</g>
<!-- note -->
<g id="node9" class="node">
<title>note</title>
<polygon fill="#1a1608" stroke="#665522" points="274,-899.38 0,-899.38 0,-848.62 280,-848.62 280,-893.38 274,-899.38"/>
<polyline fill="none" stroke="#665522" points="274,-899.38 274,-893.38"/>
<polyline fill="none" stroke="#665522" points="280,-893.38 274,-893.38"/>
<text xml:space="preserve" text-anchor="middle" x="140" y="-885.88" font-family="monospace" font-size="10.00" fill="#ccaa66">Sizes roughly proportional to package count.</text>
<text xml:space="preserve" text-anchor="middle" x="140" y="-871.62" font-family="monospace" font-size="10.00" fill="#ccaa66">Categorisation is organisational only, not a</text>
<text xml:space="preserve" text-anchor="middle" x="140" y="-857.38" font-family="monospace" font-size="10.00" fill="#ccaa66">dependency hierarchy pacman enforces.</text>
</g>
</g>
</svg>
