<?xml version="1.0" encoding="UTF-8" standalone="no"?>
<!DOCTYPE svg PUBLIC "-//W3C//DTD SVG 1.1//EN"
 "http://www.w3.org/Graphics/SVG/1.1/DTD/svg11.dtd">
<!-- Generated by graphviz version 16.1.0 (0)
 -->
<!-- Title: package_map Pages: 1 -->
<svg width="989pt" height="929pt"
 viewBox="0.00 0.00 989.00 929.00" xmlns="http://www.w3.org/2000/svg" xmlns:xlink="http://www.w3.org/1999/xlink">
<g id="graph0" class="graph" transform="scale(1 1) rotate(0) translate(4 924.5)">
<title>package_map</title>
<polygon fill="#000000" stroke="none" points="-4,4 -4,-924.5 984.98,-924.5 984.98,4 -4,4"/>
<text xml:space="preserve" text-anchor="middle" x="490.49" y="-903.2" font-family="monospace" font-size="14.00" fill="#ff6666">SYNSTALL, by category and what each depends on</text>
<g id="clust1" class="cluster">
<title>cluster_base</title>
<path fill="#0a0a0a" stroke="#555555" d="M440.75,-737C440.75,-737 680.25,-737 680.25,-737 686.25,-737 692.25,-743 692.25,-749 692.25,-749 692.25,-873 692.25,-873 692.25,-879 686.25,-885 680.25,-885 680.25,-885 440.75,-885 440.75,-885 434.75,-885 428.75,-879 428.75,-873 428.75,-873 428.75,-749 428.75,-749 428.75,-743 434.75,-737 440.75,-737"/>
<text xml:space="preserve" text-anchor="middle" x="560.5" y="-867.7" font-family="monospace" font-size="14.00" fill="white">baseCore, 18</text>
<text xml:space="preserve" text-anchor="middle" x="560.5" y="-848.2" font-family="monospace" font-size="14.00" fill="white">installed on every machine</text>
<text xml:space="preserve" text-anchor="middle" x="560.5" y="-828.7" font-family="monospace" font-size="14.00" fill="white">regardless of storage strategy</text>
</g>
<g id="clust2" class="cluster">
<title>cluster_net</title>
<path fill="#0a0a0a" stroke="#555555" d="M478,-592C478,-592 642,-592 642,-592 648,-592 654,-598 654,-604 654,-604 654,-717 654,-717 654,-723 648,-729 642,-729 642,-729 478,-729 478,-729 472,-729 466,-723 466,-717 466,-717 466,-604 466,-604 466,-598 472,-592 478,-592"/>
<text xml:space="preserve" text-anchor="middle" x="560" y="-711.7" font-family="monospace" font-size="14.00" fill="white">netAndServices, 9</text>
</g>
<g id="clust3" class="cluster">
<title>cluster_shell</title>
<path fill="#0a0a0a" stroke="#555555" d="M57.88,-501C57.88,-501 223.12,-501 223.12,-501 229.12,-501 235.12,-507 235.12,-513 235.12,-513 235.12,-602 235.12,-602 235.12,-608 229.12,-614 223.12,-614 223.12,-614 57.88,-614 57.88,-614 51.88,-614 45.88,-608 45.88,-602 45.88,-602 45.88,-513 45.88,-513 45.88,-507 51.88,-501 57.88,-501"/>
<text xml:space="preserve" text-anchor="middle" x="140.5" y="-596.7" font-family="monospace" font-size="14.00" fill="white">shellAndCLI, 20</text>
<text xml:space="preserve" text-anchor="middle" x="140.5" y="-577.2" font-family="monospace" font-size="14.00" fill="white">feeds .zshrc directly</text>
</g>
<g id="clust4" class="cluster">
<title>cluster_desktop</title>
<path fill="#0a0a0a" stroke="#555555" d="M486.12,-411C486.12,-411 634.88,-411 634.88,-411 640.88,-411 646.88,-417 646.88,-423 646.88,-423 646.88,-542 646.88,-542 646.88,-548 640.88,-554 634.88,-554 634.88,-554 486.12,-554 486.12,-554 480.12,-554 474.12,-548 474.12,-542 474.12,-542 474.12,-423 474.12,-423 474.12,-417 480.12,-411 486.12,-411"/>
<text xml:space="preserve" text-anchor="middle" x="560.5" y="-536.7" font-family="monospace" font-size="14.00" fill="white">desktopStack, 20</text>
<text xml:space="preserve" text-anchor="middle" x="560.5" y="-517.2" font-family="monospace" font-size="14.00" fill="white">the Wayland session</text>
</g>
<g id="clust5" class="cluster">
<title>cluster_dev</title>
<path fill="#0a0a0a" stroke="#555555" d="M490.25,-270C490.25,-270 630.75,-270 630.75,-270 636.75,-270 642.75,-276 642.75,-282 642.75,-282 642.75,-391 642.75,-391 642.75,-397 636.75,-403 630.75,-403 630.75,-403 490.25,-403 490.25,-403 484.25,-403 478.25,-397 478.25,-391 478.25,-391 478.25,-282 478.25,-282 478.25,-276 484.25,-270 490.25,-270"/>
<text xml:space="preserve" text-anchor="middle" x="560.5" y="-385.7" font-family="monospace" font-size="14.00" fill="white">devToolkit, 9</text>
<text xml:space="preserve" text-anchor="middle" x="560.5" y="-366.2" font-family="monospace" font-size="14.00" fill="white">self&#45;hosting tools</text>
<text xml:space="preserve" text-anchor="middle" x="560.5" y="-346.7" font-family="monospace" font-size="14.00" fill="white">(SYNSTALL only)</text>
</g>
<g id="clust6" class="cluster">
<title>cluster_fonts</title>
<path fill="#0a0a0a" stroke="#555555" d="M482,-149C482,-149 639,-149 639,-149 645,-149 651,-155 651,-161 651,-161 651,-250 651,-250 651,-256 645,-262 639,-262 639,-262 482,-262 482,-262 476,-262 470,-256 470,-250 470,-250 470,-161 470,-161 470,-155 476,-149 482,-149"/>
<text xml:space="preserve" text-anchor="middle" x="560.5" y="-244.7" font-family="monospace" font-size="14.00" fill="white">fontsI18n, 9</text>
<text xml:space="preserve" text-anchor="middle" x="560.5" y="-225.2" font-family="monospace" font-size="14.00" fill="white">(SYNMINIMAL: 3 only)</text>
</g>
<g id="clust7" class="cluster">
<title>cluster_apps</title>
<path fill="#0a0a0a" stroke="#555555" d="M490.25,-8C490.25,-8 630.75,-8 630.75,-8 636.75,-8 642.75,-14 642.75,-20 642.75,-20 642.75,-129 642.75,-129 642.75,-135 636.75,-141 630.75,-141 630.75,-141 490.25,-141 490.25,-141 484.25,-141 478.25,-135 478.25,-129 478.25,-129 478.25,-20 478.25,-20 478.25,-14 484.25,-8 490.25,-8"/>
<text xml:space="preserve" text-anchor="middle" x="560.5" y="-123.7" font-family="monospace" font-size="14.00" fill="white">appsMedia, 6</text>
<text xml:space="preserve" text-anchor="middle" x="560.5" y="-104.2" font-family="monospace" font-size="14.00" fill="white">the apps, one game</text>
<text xml:space="preserve" text-anchor="middle" x="560.5" y="-84.7" font-family="monospace" font-size="14.00" fill="white">(SYNSTALL only)</text>
</g>
<!-- synstall -->
<g id="node1" class="node">
<title>synstall</title>
<ellipse fill="#4d0000" stroke="#ff2020" stroke-width="2" cx="851.12" cy="-459" rx="125.87" ry="125.87"/>
<ellipse fill="none" stroke="#ff2020" stroke-width="2" cx="851.12" cy="-459" rx="129.87" ry="129.87"/>
<text xml:space="preserve" text-anchor="middle" x="851.12" y="-485.12" font-family="monospace" font-size="10.00" fill="white">SYNSTALL</text>
<text xml:space="preserve" text-anchor="middle" x="851.12" y="-470.88" font-family="monospace" font-size="10.00" fill="white">all 7 arrays, ~90 packages</text>
<text xml:space="preserve" text-anchor="middle" x="851.12" y="-456.62" font-family="monospace" font-size="10.00" fill="white">(SYNMINIMAL: baseCore+</text>
<text xml:space="preserve" text-anchor="middle" x="851.12" y="-442.38" font-family="monospace" font-size="10.00" fill="white">netAndServices+shellAndCLI+</text>
<text xml:space="preserve" text-anchor="middle" x="851.12" y="-428.12" font-family="monospace" font-size="10.00" fill="white">desktopStack+3 fonts only)</text>
</g>
<!-- base_ex -->
<g id="node2" class="node">
<title>base_ex</title>
<path fill="#330000" stroke="#e00000" d="M607,-810.5C607,-810.5 513,-810.5 513,-810.5 507,-810.5 501,-804.5 501,-798.5 501,-798.5 501,-757.5 501,-757.5 501,-751.5 507,-745.5 513,-745.5 513,-745.5 607,-745.5 607,-745.5 613,-745.5 619,-751.5 619,-757.5 619,-757.5 619,-798.5 619,-798.5 619,-804.5 613,-810.5 607,-810.5"/>
<text xml:space="preserve" text-anchor="middle" x="560" y="-797" font-family="monospace" font-size="10.00" fill="white">base, linux,</text>
<text xml:space="preserve" text-anchor="middle" x="560" y="-782.75" font-family="monospace" font-size="10.00" fill="white">cryptsetup, lvm2,</text>
<text xml:space="preserve" text-anchor="middle" x="560" y="-768.5" font-family="monospace" font-size="10.00" fill="white">parted, opendoas,</text>
<text xml:space="preserve" text-anchor="middle" x="560" y="-754.25" font-family="monospace" font-size="10.00" fill="white">qemu&#45;guest&#45;agent</text>
</g>
<!-- base_ex&#45;&gt;synstall -->
<g id="edge1" class="edge">
<title>base_ex&#45;&gt;synstall</title>
<path fill="none" stroke="#aaaaaa" d="M619.43,-767.5C643.95,-760.82 671.52,-750.08 692.25,-733 737.83,-695.44 772.98,-641.06 798.42,-590.64"/>
<polygon fill="#aaaaaa" stroke="#aaaaaa" points="801.41,-592.48 802.7,-581.96 795.13,-589.38 801.41,-592.48"/>
</g>
<!-- net_ex -->
<g id="node3" class="node">
<title>net_ex</title>
<path fill="#330000" stroke="#e00000" d="M634,-693.75C634,-693.75 486,-693.75 486,-693.75 480,-693.75 474,-687.75 474,-681.75 474,-681.75 474,-612.25 474,-612.25 474,-606.25 480,-600.25 486,-600.25 486,-600.25 634,-600.25 634,-600.25 640,-600.25 646,-606.25 646,-612.25 646,-612.25 646,-681.75 646,-681.75 646,-687.75 640,-693.75 634,-693.75"/>
<text xml:space="preserve" text-anchor="middle" x="560" y="-680.25" font-family="monospace" font-size="10.00" fill="white">dhcpcd, iwd,</text>
<text xml:space="preserve" text-anchor="middle" x="560" y="-666" font-family="monospace" font-size="10.00" fill="white">openvpn, hostapd,</text>
<text xml:space="preserve" text-anchor="middle" x="560" y="-651.75" font-family="monospace" font-size="10.00" fill="white">openssh, sshfs,</text>
<text xml:space="preserve" text-anchor="middle" x="560" y="-637.5" font-family="monospace" font-size="10.00" fill="white">bluez, bluez&#45;utils</text>
<text xml:space="preserve" text-anchor="middle" x="560" y="-623.25" font-family="monospace" font-size="10.00" fill="white">(sshd/bluetooth installed,</text>
<text xml:space="preserve" text-anchor="middle" x="560" y="-609" font-family="monospace" font-size="10.00" fill="white">never auto&#45;enabled)</text>
</g>
<!-- net_ex&#45;&gt;synstall -->
<g id="edge2" class="edge">
<title>net_ex&#45;&gt;synstall</title>
<path fill="none" stroke="#aaaaaa" d="M646.28,-615.5C665.59,-606.99 685.6,-597.05 703.25,-586 717.92,-576.82 732.62,-566.21 746.73,-555.12"/>
<polygon fill="#aaaaaa" stroke="#aaaaaa" points="748.64,-558.09 754.26,-549.11 744.27,-552.62 748.64,-558.09"/>
</g>
<!-- shell_ex -->
<g id="node4" class="node">
<title>shell_ex</title>
<path fill="#330000" stroke="#e00000" d="M190,-559.38C190,-559.38 90,-559.38 90,-559.38 84,-559.38 78,-553.38 78,-547.38 78,-547.38 78,-520.62 78,-520.62 78,-514.62 84,-508.62 90,-508.62 90,-508.62 190,-508.62 190,-508.62 196,-508.62 202,-514.62 202,-520.62 202,-520.62 202,-547.38 202,-547.38 202,-553.38 196,-559.38 190,-559.38"/>
<text xml:space="preserve" text-anchor="middle" x="140" y="-545.88" font-family="monospace" font-size="10.00" fill="white">zsh, foot, btop,</text>
<text xml:space="preserve" text-anchor="middle" x="140" y="-531.62" font-family="monospace" font-size="10.00" fill="white">ripgrep, bat, fzf,</text>
<text xml:space="preserve" text-anchor="middle" x="140" y="-517.38" font-family="monospace" font-size="10.00" fill="white">zoxide, glow</text>
</g>
<!-- shell_ex&#45;&gt;synstall -->
<g id="edge3" class="edge">
<title>shell_ex&#45;&gt;synstall</title>
<path fill="none" stroke="#aaaaaa" d="M202.45,-549.17C305.88,-571.98 520.33,-607.45 692.25,-558 706.76,-553.83 721.23,-547.88 735.18,-540.96"/>
<polygon fill="#aaaaaa" stroke="#aaaaaa" points="736.63,-544.15 743.9,-536.45 733.41,-537.93 736.63,-544.15"/>
</g>
<!-- desktop_ex -->
<g id="node5" class="node">
<title>desktop_ex</title>
<path fill="#330000" stroke="#e00000" d="M622,-498.62C622,-498.62 498,-498.62 498,-498.62 492,-498.62 486,-492.62 486,-486.62 486,-486.62 486,-431.38 486,-431.38 486,-425.38 492,-419.38 498,-419.38 498,-419.38 622,-419.38 622,-419.38 628,-419.38 634,-425.38 634,-431.38 634,-431.38 634,-486.62 634,-486.62 634,-492.62 628,-498.62 622,-498.62"/>
<text xml:space="preserve" text-anchor="middle" x="560" y="-485.12" font-family="monospace" font-size="10.00" fill="white">labwc, waybar, mako,</text>
<text xml:space="preserve" text-anchor="middle" x="560" y="-470.88" font-family="monospace" font-size="10.00" fill="white">wmenu, swaybg,</text>
<text xml:space="preserve" text-anchor="middle" x="560" y="-456.62" font-family="monospace" font-size="10.00" fill="white">swaylock, fuzzel,</text>
<text xml:space="preserve" text-anchor="middle" x="560" y="-442.38" font-family="monospace" font-size="10.00" fill="white">qt6&#45;base</text>
<text xml:space="preserve" text-anchor="middle" x="560" y="-428.12" font-family="monospace" font-size="10.00" fill="white">(syn&#45;shell links this)</text>
</g>
<!-- shell_ex&#45;&gt;desktop_ex -->
<g id="edge8" class="edge">
<title>shell_ex&#45;&gt;desktop_ex</title>
<path fill="none" stroke="#665522" stroke-dasharray="1,5" d="M202.23,-523.01C274.13,-510.11 393.81,-488.64 474.51,-474.16"/>
<polygon fill="#665522" stroke="#665522" points="474.92,-477.64 484.14,-472.43 473.68,-470.75 474.92,-477.64"/>
<text xml:space="preserve" text-anchor="middle" x="358.38" y="-522.37" font-family="monospace" font-size="9.00" fill="white"> &#160;foot is the terminal</text>
<text xml:space="preserve" text-anchor="middle" x="358.38" y="-509.62" font-family="monospace" font-size="9.00" fill="white"> &#160;labwc&#39;s keybind opens</text>
</g>
<!-- desktop_ex&#45;&gt;synstall -->
<g id="edge4" class="edge">
<title>desktop_ex&#45;&gt;synstall</title>
<path fill="none" stroke="#aaaaaa" d="M634.33,-459C657.14,-459 683.1,-459 708.91,-459"/>
<polygon fill="#aaaaaa" stroke="#aaaaaa" points="708.84,-462.5 718.84,-459 708.84,-455.5 708.84,-462.5"/>
</g>
<!-- dev_ex -->
<g id="node6" class="node">
<title>dev_ex</title>
<path fill="#330000" stroke="#e00000" d="M598,-328.38C598,-328.38 522,-328.38 522,-328.38 516,-328.38 510,-322.38 510,-316.38 510,-316.38 510,-289.62 510,-289.62 510,-283.62 516,-277.62 522,-277.62 522,-277.62 598,-277.62 598,-277.62 604,-277.62 610,-283.62 610,-289.62 610,-289.62 610,-316.38 610,-316.38 610,-322.38 604,-328.38 598,-328.38"/>
<text xml:space="preserve" text-anchor="middle" x="560" y="-314.88" font-family="monospace" font-size="10.00" fill="white">gcc, archiso,</text>
<text xml:space="preserve" text-anchor="middle" x="560" y="-300.62" font-family="monospace" font-size="10.00" fill="white">android&#45;tools,</text>
<text xml:space="preserve" text-anchor="middle" x="560" y="-286.38" font-family="monospace" font-size="10.00" fill="white">binwalk</text>
</g>
<!-- dev_ex&#45;&gt;synstall -->
<g id="edge5" class="edge">
<title>dev_ex&#45;&gt;synstall</title>
<path fill="none" stroke="#aaaaaa" d="M608.74,-328.76C640.74,-346.03 684.45,-369.61 725.89,-391.97"/>
<polygon fill="#aaaaaa" stroke="#aaaaaa" points="724.01,-394.93 734.47,-396.6 727.33,-388.77 724.01,-394.93"/>
</g>
<!-- fonts_ex -->
<g id="node7" class="node">
<title>fonts_ex</title>
<path fill="#330000" stroke="#e00000" d="M604,-207.38C604,-207.38 516,-207.38 516,-207.38 510,-207.38 504,-201.38 504,-195.38 504,-195.38 504,-168.62 504,-168.62 504,-162.62 510,-156.62 516,-156.62 516,-156.62 604,-156.62 604,-156.62 610,-156.62 616,-162.62 616,-168.62 616,-168.62 616,-195.38 616,-195.38 616,-201.38 610,-207.38 604,-207.38"/>
<text xml:space="preserve" text-anchor="middle" x="560" y="-193.88" font-family="monospace" font-size="10.00" fill="white">terminus&#45;font,</text>
<text xml:space="preserve" text-anchor="middle" x="560" y="-179.62" font-family="monospace" font-size="10.00" fill="white">noto&#45;fonts&#45;cjk,</text>
<text xml:space="preserve" text-anchor="middle" x="560" y="-165.38" font-family="monospace" font-size="10.00" fill="white">nerd&#45;font glyphs</text>
</g>
<!-- fonts_ex&#45;&gt;synstall -->
<g id="edge6" class="edge">
<title>fonts_ex&#45;&gt;synstall</title>
<path fill="none" stroke="#aaaaaa" d="M609.09,-207.81C635.1,-222.96 666.99,-243.52 692.25,-266 718.51,-289.37 744,-317.34 766.56,-344.63"/>
<polygon fill="#aaaaaa" stroke="#aaaaaa" points="763.78,-346.76 772.82,-352.29 769.2,-342.33 763.78,-346.76"/>
</g>
<!-- apps_ex -->
<g id="node8" class="node">
<title>apps_ex</title>
<path fill="#4d1010" stroke="#ff2020" stroke-width="1.5" d="M619,-66.38C619,-66.38 501,-66.38 501,-66.38 495,-66.38 489,-60.38 489,-54.38 489,-54.38 489,-27.62 489,-27.62 489,-21.62 495,-15.62 501,-15.62 501,-15.62 619,-15.62 619,-15.62 625,-15.62 631,-21.62 631,-27.62 631,-27.62 631,-54.38 631,-54.38 631,-60.38 625,-66.38 619,-66.38"/>
<text xml:space="preserve" text-anchor="middle" x="560" y="-52.88" font-family="monospace" font-size="10.00" fill="white">vlc, gimp,</text>
<text xml:space="preserve" text-anchor="middle" x="560" y="-38.62" font-family="monospace" font-size="10.00" fill="white">falkon, openra</text>
<text xml:space="preserve" text-anchor="middle" x="560" y="-24.38" font-family="monospace" font-size="10.00" fill="white">(2022&#45;11&#45;07 &#45;&gt; today)</text>
</g>
<!-- apps_ex&#45;&gt;synstall -->
<g id="edge7" class="edge">
<title>apps_ex&#45;&gt;synstall</title>
<path fill="none" stroke="#aaaaaa" d="M602.81,-67.09C630.76,-86.1 666.92,-113.89 692.25,-145 736.4,-199.24 772.67,-267.85 799.25,-327.1"/>
<polygon fill="#aaaaaa" stroke="#aaaaaa" points="795.9,-328.17 803.15,-335.9 802.3,-325.34 795.9,-328.17"/>
</g>
<!-- note -->
<g id="node9" class="node">
<title>note</title>
<polygon fill="#1a1608" stroke="#665522" points="274,-672.38 0,-672.38 0,-621.62 280,-621.62 280,-666.38 274,-672.38"/>
<polyline fill="none" stroke="#665522" points="274,-672.38 274,-666.38"/>
<polyline fill="none" stroke="#665522" points="280,-666.38 274,-666.38"/>
<text xml:space="preserve" text-anchor="middle" x="140" y="-658.88" font-family="monospace" font-size="10.00" fill="#ccaa66">Sizes roughly proportional to package count.</text>
<text xml:space="preserve" text-anchor="middle" x="140" y="-644.62" font-family="monospace" font-size="10.00" fill="#ccaa66">Categorisation is organisational only, not a</text>
<text xml:space="preserve" text-anchor="middle" x="140" y="-630.38" font-family="monospace" font-size="10.00" fill="#ccaa66">dependency hierarchy pacman enforces.</text>
</g>
</g>
</svg>
