<?xml version="1.0" encoding="UTF-8" standalone="no"?>
<!DOCTYPE svg PUBLIC "-//W3C//DTD SVG 1.1//EN"
 "http://www.w3.org/Graphics/SVG/1.1/DTD/svg11.dtd">
<!-- Generated by graphviz version 15.1.0 (0)
 -->
<!-- Title: theming_live_reload Pages: 1 -->
<svg width="1103pt" height="936pt"
 viewBox="0.00 0.00 1103.00 936.00" xmlns="http://www.w3.org/2000/svg" xmlns:xlink="http://www.w3.org/1999/xlink">
<g id="graph0" class="graph" transform="scale(1 1) rotate(0) translate(4 932.41)">
<title>theming_live_reload</title>
<polygon fill="#000000" stroke="none" points="-4,4 -4,-932.41 1099,-932.41 1099,4 -4,4"/>
<text xml:space="preserve" text-anchor="middle" x="547.5" y="-911.11" font-family="monospace" font-size="14.00" fill="#ff6666">How a SYN&#45;OS theme reaches rofi/waybar/labwc/foot/superfile at click&#45;time</text>
<g id="clust1" class="cluster">
<title>cluster_switch</title>
<path fill="#0a0a0a" stroke="#555555" d="M20,-548.85C20,-548.85 383,-548.85 383,-548.85 389,-548.85 395,-554.85 395,-560.85 395,-560.85 395,-811.16 395,-811.16 395,-817.16 389,-823.16 383,-823.16 383,-823.16 20,-823.16 20,-823.16 14,-823.16 8,-817.16 8,-811.16 8,-811.16 8,-560.85 8,-560.85 8,-554.85 14,-548.85 20,-548.85"/>
<text xml:space="preserve" text-anchor="middle" x="201.5" y="-805.86" font-family="monospace" font-size="14.00" fill="white">Theme switch (Themes menu &#45;&gt; syn&#45;theme&#45;apply)</text>
</g>
<g id="clust2" class="cluster">
<title>cluster_launch</title>
<path fill="#0a0a0a" stroke="#555555" d="M415,-8C415,-8 1075,-8 1075,-8 1081,-8 1087,-14 1087,-20 1087,-20 1087,-624.41 1087,-624.41 1087,-630.41 1081,-636.41 1075,-636.41 1075,-636.41 415,-636.41 415,-636.41 409,-636.41 403,-630.41 403,-624.41 403,-624.41 403,-20 403,-20 403,-14 409,-8 415,-8"/>
<text xml:space="preserve" text-anchor="middle" x="745" y="-619.11" font-family="monospace" font-size="14.00" fill="white">Every launcher script (syn&#45;bar&#45;power.zsh, syn&#45;bar&#45;launcher.zsh, syn&#45;bar&#45;wifi.zsh)</text>
</g>
<!-- themefile -->
<g id="node1" class="node">
<title>themefile</title>
<polygon fill="#330000" stroke="#e00000" points="614,-900.91 358,-900.91 358,-850.16 620,-850.16 620,-894.91 614,-900.91"/>
<polyline fill="none" stroke="#e00000" points="614,-900.91 614,-894.91"/>
<polyline fill="none" stroke="#e00000" points="620,-894.91 614,-894.91"/>
<text xml:space="preserve" text-anchor="middle" x="489" y="-887.41" font-family="monospace" font-size="10.00" fill="white">~/.config/syn&#45;os/themes/SYN&#45;OS&#45;BLUE.theme</text>
<text xml:space="preserve" text-anchor="middle" x="489" y="-873.16" font-family="monospace" font-size="10.00" fill="white">(flat KEY=&quot;#hex&quot; shell vars:</text>
<text xml:space="preserve" text-anchor="middle" x="489" y="-858.91" font-family="monospace" font-size="10.00" fill="white">SYN_BG, SYN_ACCENT, SYN_TEXT, ...)</text>
</g>
<!-- apply -->
<g id="node2" class="node">
<title>apply</title>
<path fill="#4d0000" stroke="#e00000" d="M364,-787.66C364,-787.66 210,-787.66 210,-787.66 204,-787.66 198,-781.66 198,-775.66 198,-775.66 198,-763.16 198,-763.16 198,-757.16 204,-751.16 210,-751.16 210,-751.16 364,-751.16 364,-751.16 370,-751.16 376,-757.16 376,-763.16 376,-763.16 376,-775.66 376,-775.66 376,-781.66 370,-787.66 364,-787.66"/>
<text xml:space="preserve" text-anchor="middle" x="287" y="-774.16" font-family="monospace" font-size="10.00" fill="white">syn&#45;theme&#45;apply SYN&#45;OS&#45;BLUE</text>
<text xml:space="preserve" text-anchor="middle" x="287" y="-759.91" font-family="monospace" font-size="10.00" fill="white">sources the .theme file</text>
</g>
<!-- themefile&#45;&gt;apply -->
<g id="edge3" class="edge">
<title>themefile&#45;&gt;apply</title>
<path fill="none" stroke="#aaaaaa" d="M440.87,-849.72C407.6,-832.57 363.66,-809.92 331.26,-793.22"/>
<polygon fill="#aaaaaa" stroke="#aaaaaa" points="333.01,-790.19 322.52,-788.72 329.8,-796.41 333.01,-790.19"/>
</g>
<!-- resource -->
<g id="node7" class="node">
<title>resource</title>
<path fill="#4d0000" stroke="#e00000" d="M701,-388.79C701,-388.79 595,-388.79 595,-388.79 589,-388.79 583,-382.79 583,-376.79 583,-376.79 583,-364.29 583,-364.29 583,-358.29 589,-352.29 595,-352.29 595,-352.29 701,-352.29 701,-352.29 707,-352.29 713,-358.29 713,-364.29 713,-364.29 713,-376.79 713,-376.79 713,-382.79 707,-388.79 701,-388.79"/>
<text xml:space="preserve" text-anchor="middle" x="648" y="-375.29" font-family="monospace" font-size="10.00" fill="white">source the matching</text>
<text xml:space="preserve" text-anchor="middle" x="648" y="-361.04" font-family="monospace" font-size="10.00" fill="white">.theme file again</text>
</g>
<!-- themefile&#45;&gt;resource -->
<g id="edge9" class="edge">
<title>themefile&#45;&gt;resource</title>
<path fill="none" stroke="#aaaaaa" stroke-dasharray="5,2" d="M620.35,-850.52C658.93,-835.36 691,-810.65 691,-770.41 691,-770.41 691,-770.41 691,-443.04 691,-426.49 682.43,-410.47 672.95,-397.8"/>
<polygon fill="#aaaaaa" stroke="#aaaaaa" points="675.95,-395.95 666.94,-390.39 670.52,-400.36 675.95,-395.95"/>
</g>
<!-- render -->
<g id="node3" class="node">
<title>render</title>
<path fill="#4d0000" stroke="#e00000" d="M371,-714.16C371,-714.16 187,-714.16 187,-714.16 181,-714.16 175,-708.16 175,-702.16 175,-702.16 175,-675.41 175,-675.41 175,-669.41 181,-663.41 187,-663.41 187,-663.41 371,-663.41 371,-663.41 377,-663.41 383,-669.41 383,-675.41 383,-675.41 383,-702.16 383,-702.16 383,-708.16 377,-714.16 371,-714.16"/>
<text xml:space="preserve" text-anchor="middle" x="279" y="-700.66" font-family="monospace" font-size="10.00" fill="white">renders waybar/labwc/qt6ct/foot/</text>
<text xml:space="preserve" text-anchor="middle" x="279" y="-686.41" font-family="monospace" font-size="10.00" fill="white">superfile templates with the</text>
<text xml:space="preserve" text-anchor="middle" x="279" y="-672.16" font-family="monospace" font-size="10.00" fill="white">now&#45;in&#45;scope SYN_* variables</text>
</g>
<!-- apply&#45;&gt;render -->
<g id="edge1" class="edge">
<title>apply&#45;&gt;render</title>
<path fill="none" stroke="#aaaaaa" d="M285.22,-750.96C284.47,-743.53 283.56,-734.59 282.67,-725.85"/>
<polygon fill="#aaaaaa" stroke="#aaaaaa" points="286.18,-725.74 281.68,-716.15 279.21,-726.45 286.18,-725.74"/>
</g>
<!-- write -->
<g id="node4" class="node">
<title>write</title>
<path fill="#4d0000" stroke="#ff2020" d="M375,-593.35C375,-593.35 161,-593.35 161,-593.35 155,-593.35 149,-587.35 149,-581.35 149,-581.35 149,-568.85 149,-568.85 149,-562.85 155,-556.85 161,-556.85 161,-556.85 375,-556.85 375,-556.85 381,-556.85 387,-562.85 387,-568.85 387,-568.85 387,-581.35 387,-581.35 387,-587.35 381,-593.35 375,-593.35"/>
<text xml:space="preserve" text-anchor="middle" x="268" y="-579.85" font-family="monospace" font-size="10.00" fill="white">writes ~/.config/syn&#45;os/current&#45;theme</text>
<text xml:space="preserve" text-anchor="middle" x="268" y="-565.6" font-family="monospace" font-size="10.00" fill="white">= &quot;SYN&#45;OS&#45;BLUE&quot; (just the name)</text>
</g>
<!-- render&#45;&gt;write -->
<g id="edge2" class="edge">
<title>render&#45;&gt;write</title>
<path fill="none" stroke="#aaaaaa" d="M276.56,-663C274.86,-645.79 272.6,-622.81 270.83,-604.8"/>
<polygon fill="#aaaaaa" stroke="#aaaaaa" points="274.33,-604.65 269.87,-595.04 267.36,-605.33 274.33,-604.65"/>
</g>
<!-- readcurrent -->
<g id="node6" class="node">
<title>readcurrent</title>
<path fill="#4d0000" stroke="#e00000" d="M596,-462.29C596,-462.29 478,-462.29 478,-462.29 472,-462.29 466,-456.29 466,-450.29 466,-450.29 466,-437.79 466,-437.79 466,-431.79 472,-425.79 478,-425.79 478,-425.79 596,-425.79 596,-425.79 602,-425.79 608,-431.79 608,-437.79 608,-437.79 608,-450.29 608,-450.29 608,-456.29 602,-462.29 596,-462.29"/>
<text xml:space="preserve" text-anchor="middle" x="537" y="-448.79" font-family="monospace" font-size="10.00" fill="white">read current&#45;theme &#45;&gt;</text>
<text xml:space="preserve" text-anchor="middle" x="537" y="-434.54" font-family="monospace" font-size="10.00" fill="white">&quot;SYN&#45;OS&#45;BLUE&quot;</text>
</g>
<!-- write&#45;&gt;readcurrent -->
<g id="edge8" class="edge">
<title>write&#45;&gt;readcurrent</title>
<path fill="none" stroke="#aaaaaa" stroke-dasharray="5,2" d="M304.84,-556.42C353,-533.32 437.4,-492.82 490.08,-467.55"/>
<polygon fill="#aaaaaa" stroke="#aaaaaa" points="491.31,-470.84 498.81,-463.36 488.28,-464.53 491.31,-470.84"/>
<text xml:space="preserve" text-anchor="middle" x="491.64" y="-522.74" font-family="monospace" font-size="9.00" fill="white">read fresh</text>
<text xml:space="preserve" text-anchor="middle" x="491.64" y="-509.99" font-family="monospace" font-size="9.00" fill="white">on next click</text>
<text xml:space="preserve" text-anchor="middle" x="491.64" y="-497.24" font-family="monospace" font-size="9.00" fill="white">(no polling,</text>
<text xml:space="preserve" text-anchor="middle" x="491.64" y="-484.49" font-family="monospace" font-size="9.00" fill="white">no daemon)</text>
</g>
<!-- click -->
<g id="node5" class="node">
<title>click</title>
<ellipse fill="#1a0000" stroke="#e00000" cx="537" cy="-575.1" rx="125.87" ry="25.81"/>
<text xml:space="preserve" text-anchor="middle" x="537" y="-579.85" font-family="monospace" font-size="10.00" fill="white">user clicks the power icon</text>
<text xml:space="preserve" text-anchor="middle" x="537" y="-565.6" font-family="monospace" font-size="10.00" fill="white">(fresh process, every time)</text>
</g>
<!-- click&#45;&gt;readcurrent -->
<g id="edge4" class="edge">
<title>click&#45;&gt;readcurrent</title>
<path fill="none" stroke="#aaaaaa" d="M537,-548.91C537,-527.39 537,-496.44 537,-473.93"/>
<polygon fill="#aaaaaa" stroke="#aaaaaa" points="540.5,-474.22 537,-464.22 533.5,-474.22 540.5,-474.22"/>
</g>
<!-- readcurrent&#45;&gt;resource -->
<g id="edge5" class="edge">
<title>readcurrent&#45;&gt;resource</title>
<path fill="none" stroke="#aaaaaa" d="M564.44,-425.36C578.45,-416.34 595.69,-405.23 610.87,-395.46"/>
<polygon fill="#aaaaaa" stroke="#aaaaaa" points="612.71,-398.43 619.22,-390.08 608.92,-392.55 612.71,-398.43"/>
</g>
<!-- build -->
<g id="node8" class="node">
<title>build</title>
<path fill="#4d0000" stroke="#e00000" d="M725,-315.29C725,-315.29 571,-315.29 571,-315.29 565,-315.29 559,-309.29 559,-303.29 559,-303.29 559,-290.79 559,-290.79 559,-284.79 565,-278.79 571,-278.79 571,-278.79 725,-278.79 725,-278.79 731,-278.79 737,-284.79 737,-290.79 737,-290.79 737,-303.29 737,-303.29 737,-309.29 731,-315.29 725,-315.29"/>
<text xml:space="preserve" text-anchor="middle" x="648" y="-301.79" font-family="monospace" font-size="10.00" fill="white">interpolate SYN_* vars into</text>
<text xml:space="preserve" text-anchor="middle" x="648" y="-287.54" font-family="monospace" font-size="10.00" fill="white">a rofi &#45;theme&#45;str argument</text>
</g>
<!-- resource&#45;&gt;build -->
<g id="edge6" class="edge">
<title>resource&#45;&gt;build</title>
<path fill="none" stroke="#aaaaaa" d="M648,-351.86C648,-344.33 648,-335.35 648,-326.89"/>
<polygon fill="#aaaaaa" stroke="#aaaaaa" points="651.5,-327.02 648,-317.02 644.5,-327.02 651.5,-327.02"/>
</g>
<!-- launch -->
<g id="node9" class="node">
<title>launch</title>
<ellipse fill="#4d0000" stroke="#ff2020" stroke-width="2" cx="648" cy="-128.89" rx="108.89" ry="108.89"/>
<ellipse fill="none" stroke="#ff2020" stroke-width="2" cx="648" cy="-128.89" rx="112.89" ry="112.89"/>
<text xml:space="preserve" text-anchor="middle" x="648" y="-140.77" font-family="monospace" font-size="10.00" fill="white">exec rofi &#45;dmenu ...</text>
<text xml:space="preserve" text-anchor="middle" x="648" y="-126.52" font-family="monospace" font-size="10.00" fill="white">(rofi never heard of</text>
<text xml:space="preserve" text-anchor="middle" x="648" y="-112.27" font-family="monospace" font-size="10.00" fill="white">&quot;SYN&#45;OS themes&quot; at all)</text>
</g>
<!-- build&#45;&gt;launch -->
<g id="edge7" class="edge">
<title>build&#45;&gt;launch</title>
<path fill="none" stroke="#aaaaaa" d="M648,-278.57C648,-271.75 648,-263.3 648,-253.92"/>
<polygon fill="#aaaaaa" stroke="#aaaaaa" points="651.5,-254.04 648,-244.04 644.5,-254.04 651.5,-254.04"/>
</g>
<!-- note -->
<g id="node10" class="node">
<title>note</title>
<polygon fill="#1a1608" stroke="#665522" points="996,-900.91 638,-900.91 638,-850.16 1002,-850.16 1002,-894.91 996,-900.91"/>
<polyline fill="none" stroke="#665522" points="996,-900.91 996,-894.91"/>
<polyline fill="none" stroke="#665522" points="1002,-894.91 996,-894.91"/>
<text xml:space="preserve" text-anchor="middle" x="820" y="-887.41" font-family="monospace" font-size="10.00" fill="#ccaa66">Nothing watches these files. Every click re&#45;derives colors</text>
<text xml:space="preserve" text-anchor="middle" x="820" y="-873.16" font-family="monospace" font-size="10.00" fill="#ccaa66">from disk, so switching themes needs no restart of any</text>
<text xml:space="preserve" text-anchor="middle" x="820" y="-858.91" font-family="monospace" font-size="10.00" fill="#ccaa66">launcher script &#45;&#45; they&#39;re stateless by construction.</text>
</g>
</g>
</svg>
