<?xml version="1.0" encoding="UTF-8" standalone="no"?>
<!DOCTYPE svg PUBLIC "-//W3C//DTD SVG 1.1//EN"
 "http://www.w3.org/Graphics/SVG/1.1/DTD/svg11.dtd">
<!-- Generated by graphviz version 15.1.0 (0)
 -->
<!-- Title: wifi_connect_flow Pages: 1 -->
<svg width="648pt" height="1483pt"
 viewBox="0.00 0.00 648.00 1483.00" xmlns="http://www.w3.org/2000/svg" xmlns:xlink="http://www.w3.org/1999/xlink">
<g id="graph0" class="graph" transform="scale(1 1) rotate(0) translate(4 1479.23)">
<title>wifi_connect_flow</title>
<polygon fill="#000000" stroke="none" points="-4,4 -4,-1479.23 643.9,-1479.23 643.9,4 -4,4"/>
<text xml:space="preserve" text-anchor="middle" x="319.95" y="-1457.93" font-family="monospace" font-size="14.00" fill="#ff6666">syn&#45;wifi: from launch to a connected network</text>
<!-- launch -->
<g id="node1" class="node">
<title>launch</title>
<ellipse fill="#1a0000" stroke="#e00000" cx="104.65" cy="-1411.85" rx="104.65" ry="35.89"/>
<text xml:space="preserve" text-anchor="middle" x="104.65" y="-1423.72" font-family="monospace" font-size="10.00" fill="white">launch syn&#45;wifi</text>
<text xml:space="preserve" text-anchor="middle" x="104.65" y="-1409.47" font-family="monospace" font-size="10.00" fill="white">(waybar click, or</text>
<text xml:space="preserve" text-anchor="middle" x="104.65" y="-1395.22" font-family="monospace" font-size="10.00" fill="white">synos&#45;wifi live&#45;shell)</text>
</g>
<!-- device -->
<g id="node2" class="node">
<title>device</title>
<path fill="#330000" stroke="#e00000" d="M181.65,-1338.96C181.65,-1338.96 27.65,-1338.96 27.65,-1338.96 21.65,-1338.96 15.65,-1332.96 15.65,-1326.96 15.65,-1326.96 15.65,-1300.21 15.65,-1300.21 15.65,-1294.21 21.65,-1288.21 27.65,-1288.21 27.65,-1288.21 181.65,-1288.21 181.65,-1288.21 187.65,-1288.21 193.65,-1294.21 193.65,-1300.21 193.65,-1300.21 193.65,-1326.96 193.65,-1326.96 193.65,-1332.96 187.65,-1338.96 181.65,-1338.96"/>
<text xml:space="preserve" text-anchor="middle" x="104.65" y="-1325.46" font-family="monospace" font-size="10.00" fill="white">D&#45;Bus ObjectManager</text>
<text xml:space="preserve" text-anchor="middle" x="104.65" y="-1311.21" font-family="monospace" font-size="10.00" fill="white">GetManagedObjects</text>
<text xml:space="preserve" text-anchor="middle" x="104.65" y="-1296.96" font-family="monospace" font-size="10.00" fill="white">find Device.Mode==&quot;station&quot;</text>
</g>
<!-- launch&#45;&gt;device -->
<g id="edge1" class="edge">
<title>launch&#45;&gt;device</title>
<path fill="none" stroke="#aaaaaa" d="M104.65,-1375.55C104.65,-1367.48 104.65,-1358.88 104.65,-1350.77"/>
<polygon fill="#aaaaaa" stroke="#aaaaaa" points="108.15,-1350.86 104.65,-1340.86 101.15,-1350.86 108.15,-1350.86"/>
</g>
<!-- found -->
<g id="node3" class="node">
<title>found</title>
<path fill="#1a1608" stroke="#8a6a2f" d="M93.47,-1246.87C93.47,-1246.87 21.84,-1219.06 21.84,-1219.06 16.24,-1216.88 16.24,-1212.54 21.84,-1210.37 21.84,-1210.37 93.47,-1182.56 93.47,-1182.56 99.06,-1180.38 110.24,-1180.38 115.84,-1182.56 115.84,-1182.56 187.47,-1210.37 187.47,-1210.37 193.06,-1212.54 193.06,-1216.88 187.47,-1219.06 187.47,-1219.06 115.84,-1246.87 115.84,-1246.87 110.24,-1249.04 99.06,-1249.04 93.47,-1246.87"/>
<text xml:space="preserve" text-anchor="middle" x="104.65" y="-1219.46" font-family="monospace" font-size="10.00" fill="#e0c896">station&#45;mode</text>
<text xml:space="preserve" text-anchor="middle" x="104.65" y="-1205.21" font-family="monospace" font-size="10.00" fill="#e0c896">device found?</text>
</g>
<!-- device&#45;&gt;found -->
<g id="edge2" class="edge">
<title>device&#45;&gt;found</title>
<path fill="none" stroke="#aaaaaa" d="M104.65,-1287.89C104.65,-1280.25 104.65,-1271.57 104.65,-1262.93"/>
<polygon fill="#aaaaaa" stroke="#aaaaaa" points="108.15,-1263.22 104.65,-1253.22 101.15,-1263.22 108.15,-1263.22"/>
</g>
<!-- nodev -->
<g id="node4" class="node">
<title>nodev</title>
<ellipse fill="#330000" stroke="#ff2020" stroke-width="2" cx="85.65" cy="-1050.41" rx="75.05" ry="75.05"/>
<ellipse fill="none" stroke="#ff2020" stroke-width="2" cx="85.65" cy="-1050.41" rx="79.05" ry="79.05"/>
<text xml:space="preserve" text-anchor="middle" x="85.65" y="-1048.04" font-family="monospace" font-size="10.00" fill="#ff8888">print error, exit</text>
</g>
<!-- found&#45;&gt;nodev -->
<g id="edge3" class="edge">
<title>found&#45;&gt;nodev</title>
<path fill="none" stroke="#aaaaaa" d="M100.62,-1179.29C99.29,-1167.95 97.75,-1154.77 96.17,-1141.25"/>
<polygon fill="#aaaaaa" stroke="#aaaaaa" points="99.65,-1140.89 95.01,-1131.36 92.7,-1141.7 99.65,-1140.89"/>
<text xml:space="preserve" text-anchor="middle" x="105.84" y="-1151.66" font-family="monospace" font-size="9.00" fill="white"> no</text>
</g>
<!-- scan -->
<g id="node5" class="node">
<title>scan</title>
<path fill="#1a0000" stroke="#e00000" d="M354.65,-1075.79C354.65,-1075.79 194.65,-1075.79 194.65,-1075.79 188.65,-1075.79 182.65,-1069.79 182.65,-1063.79 182.65,-1063.79 182.65,-1037.04 182.65,-1037.04 182.65,-1031.04 188.65,-1025.04 194.65,-1025.04 194.65,-1025.04 354.65,-1025.04 354.65,-1025.04 360.65,-1025.04 366.65,-1031.04 366.65,-1037.04 366.65,-1037.04 366.65,-1063.79 366.65,-1063.79 366.65,-1069.79 360.65,-1075.79 354.65,-1075.79"/>
<text xml:space="preserve" text-anchor="middle" x="274.65" y="-1062.29" font-family="monospace" font-size="10.00" fill="white">Station.Scan()</text>
<text xml:space="preserve" text-anchor="middle" x="274.65" y="-1048.04" font-family="monospace" font-size="10.00" fill="white">poll Station.Scanning</text>
<text xml:space="preserve" text-anchor="middle" x="274.65" y="-1033.79" font-family="monospace" font-size="10.00" fill="white">until false (no fixed sleep)</text>
</g>
<!-- found&#45;&gt;scan -->
<g id="edge4" class="edge">
<title>found&#45;&gt;scan</title>
<path fill="none" stroke="#aaaaaa" d="M131.21,-1188.35C160.7,-1160.2 208.38,-1114.68 240.59,-1083.93"/>
<polygon fill="#aaaaaa" stroke="#aaaaaa" points="242.92,-1086.54 247.74,-1077.11 238.09,-1081.48 242.92,-1086.54"/>
<text xml:space="preserve" text-anchor="middle" x="179.93" y="-1151.66" font-family="monospace" font-size="9.00" fill="white"> yes</text>
</g>
<!-- getnet -->
<g id="node6" class="node">
<title>getnet</title>
<path fill="#330000" stroke="#e00000" d="M456.65,-934.36C456.65,-934.36 278.65,-934.36 278.65,-934.36 272.65,-934.36 266.65,-928.36 266.65,-922.36 266.65,-922.36 266.65,-895.61 266.65,-895.61 266.65,-889.61 272.65,-883.61 278.65,-883.61 278.65,-883.61 456.65,-883.61 456.65,-883.61 462.65,-883.61 468.65,-889.61 468.65,-895.61 468.65,-895.61 468.65,-922.36 468.65,-922.36 468.65,-928.36 462.65,-934.36 456.65,-934.36"/>
<text xml:space="preserve" text-anchor="middle" x="367.65" y="-920.86" font-family="monospace" font-size="10.00" fill="white">Station.GetOrderedNetworks()</text>
<text xml:space="preserve" text-anchor="middle" x="367.65" y="-906.61" font-family="monospace" font-size="10.00" fill="white">+ per&#45;network Properties.GetAll</text>
<text xml:space="preserve" text-anchor="middle" x="367.65" y="-892.36" font-family="monospace" font-size="10.00" fill="white">(Name, Type, Connected)</text>
</g>
<!-- scan&#45;&gt;getnet -->
<g id="edge5" class="edge">
<title>scan&#45;&gt;getnet</title>
<path fill="none" stroke="#aaaaaa" d="M291.06,-1024.81C305.98,-1002.45 328.13,-969.23 344.78,-944.27"/>
<polygon fill="#aaaaaa" stroke="#aaaaaa" points="347.61,-946.34 350.25,-936.07 341.79,-942.45 347.61,-946.34"/>
</g>
<!-- list -->
<g id="node7" class="node">
<title>list</title>
<path fill="#4d0000" stroke="#ff2020" stroke-width="2" d="M446.65,-846.61C446.65,-846.61 304.65,-846.61 304.65,-846.61 298.65,-846.61 292.65,-840.61 292.65,-834.61 292.65,-834.61 292.65,-807.86 292.65,-807.86 292.65,-801.86 298.65,-795.86 304.65,-795.86 304.65,-795.86 446.65,-795.86 446.65,-795.86 452.65,-795.86 458.65,-801.86 458.65,-807.86 458.65,-807.86 458.65,-834.61 458.65,-834.61 458.65,-840.61 452.65,-846.61 446.65,-846.61"/>
<text xml:space="preserve" text-anchor="middle" x="375.65" y="-833.11" font-family="monospace" font-size="10.00" fill="white">ncurses network list</text>
<text xml:space="preserve" text-anchor="middle" x="375.65" y="-818.86" font-family="monospace" font-size="10.00" fill="white">(signal bars, security,</text>
<text xml:space="preserve" text-anchor="middle" x="375.65" y="-804.61" font-family="monospace" font-size="10.00" fill="white">connected marker, themed)</text>
</g>
<!-- getnet&#45;&gt;list -->
<g id="edge6" class="edge">
<title>getnet&#45;&gt;list</title>
<path fill="none" stroke="#aaaaaa" d="M369.97,-883.18C370.67,-875.59 371.47,-867.06 372.24,-858.85"/>
<polygon fill="#aaaaaa" stroke="#aaaaaa" points="375.7,-859.37 373.15,-849.09 368.73,-858.72 375.7,-859.37"/>
</g>
<!-- key -->
<g id="node8" class="node">
<title>key</title>
<path fill="#1a1608" stroke="#8a6a2f" d="M363.95,-756.2C363.95,-756.2 308.2,-743.52 308.2,-743.52 302.35,-742.19 302.35,-739.53 308.2,-738.2 308.2,-738.2 363.95,-725.52 363.95,-725.52 369.8,-724.19 381.5,-724.19 387.35,-725.52 387.35,-725.52 443.1,-738.2 443.1,-738.2 448.95,-739.53 448.95,-742.19 443.1,-743.52 443.1,-743.52 387.35,-756.2 387.35,-756.2 381.5,-757.53 369.8,-757.53 363.95,-756.2"/>
<text xml:space="preserve" text-anchor="middle" x="375.65" y="-738.49" font-family="monospace" font-size="10.00" fill="#e0c896">key pressed?</text>
</g>
<!-- list&#45;&gt;key -->
<g id="edge7" class="edge">
<title>list&#45;&gt;key</title>
<path fill="none" stroke="#aaaaaa" d="M375.65,-795.01C375.65,-787.28 375.65,-778.72 375.65,-770.77"/>
<polygon fill="#aaaaaa" stroke="#aaaaaa" points="379.15,-770.87 375.65,-760.87 372.15,-770.87 379.15,-770.87"/>
</g>
<!-- rescan -->
<g id="node9" class="node">
<title>rescan</title>
<path fill="#330000" stroke="#e00000" d="M265.65,-635.96C265.65,-635.96 201.65,-635.96 201.65,-635.96 195.65,-635.96 189.65,-629.96 189.65,-623.96 189.65,-623.96 189.65,-611.96 189.65,-611.96 189.65,-605.96 195.65,-599.96 201.65,-599.96 201.65,-599.96 265.65,-599.96 265.65,-599.96 271.65,-599.96 277.65,-605.96 277.65,-611.96 277.65,-611.96 277.65,-623.96 277.65,-623.96 277.65,-629.96 271.65,-635.96 265.65,-635.96"/>
<text xml:space="preserve" text-anchor="middle" x="233.65" y="-615.58" font-family="monospace" font-size="10.00" fill="white">&#39;r&#39;: re&#45;scan</text>
</g>
<!-- key&#45;&gt;rescan -->
<g id="edge8" class="edge">
<title>key&#45;&gt;rescan</title>
<path fill="none" stroke="#aaaaaa" d="M356.18,-726.9C337.65,-714.24 309.31,-694.02 286.65,-674.11 276.34,-665.05 265.71,-654.32 256.71,-644.74"/>
<polygon fill="#aaaaaa" stroke="#aaaaaa" points="259.34,-642.42 249.98,-637.46 254.2,-647.18 259.34,-642.42"/>
<text xml:space="preserve" text-anchor="middle" x="329.81" y="-696.31" font-family="monospace" font-size="9.00" fill="white"> r</text>
</g>
<!-- quit -->
<g id="node10" class="node">
<title>quit</title>
<ellipse fill="#330000" stroke="#666666" stroke-width="2" cx="529.65" cy="-617.96" rx="52.15" ry="52.15"/>
<ellipse fill="none" stroke="#666666" stroke-width="2" cx="529.65" cy="-617.96" rx="56.15" ry="56.15"/>
<text xml:space="preserve" text-anchor="middle" x="529.65" y="-615.58" font-family="monospace" font-size="10.00" fill="white">Esc/q: exit</text>
</g>
<!-- key&#45;&gt;quit -->
<g id="edge10" class="edge">
<title>key&#45;&gt;quit</title>
<path fill="none" stroke="#aaaaaa" d="M394.33,-726.62C412.53,-713.59 440.86,-692.96 464.65,-674.11 469.11,-670.58 473.69,-666.87 478.25,-663.11"/>
<polygon fill="#aaaaaa" stroke="#aaaaaa" points="480.36,-665.91 485.82,-656.83 475.89,-660.53 480.36,-665.91"/>
<text xml:space="preserve" text-anchor="middle" x="456.34" y="-696.31" font-family="monospace" font-size="9.00" fill="white"> Esc/q</text>
</g>
<!-- connect -->
<g id="node11" class="node">
<title>connect</title>
<path fill="#1a0000" stroke="#e00000" d="M443.65,-635.96C443.65,-635.96 307.65,-635.96 307.65,-635.96 301.65,-635.96 295.65,-629.96 295.65,-623.96 295.65,-623.96 295.65,-611.96 295.65,-611.96 295.65,-605.96 301.65,-599.96 307.65,-599.96 307.65,-599.96 443.65,-599.96 443.65,-599.96 449.65,-599.96 455.65,-605.96 455.65,-611.96 455.65,-611.96 455.65,-623.96 455.65,-623.96 455.65,-629.96 449.65,-635.96 443.65,-635.96"/>
<text xml:space="preserve" text-anchor="middle" x="375.65" y="-615.58" font-family="monospace" font-size="10.00" fill="white">Enter: Network.Connect()</text>
</g>
<!-- key&#45;&gt;connect -->
<g id="edge11" class="edge">
<title>key&#45;&gt;connect</title>
<path fill="none" stroke="#aaaaaa" d="M375.65,-722.54C375.65,-702.97 375.65,-670.81 375.65,-647.51"/>
<polygon fill="#aaaaaa" stroke="#aaaaaa" points="379.15,-647.76 375.65,-637.76 372.15,-647.76 379.15,-647.76"/>
<text xml:space="preserve" text-anchor="middle" x="391.4" y="-696.31" font-family="monospace" font-size="9.00" fill="white"> Enter</text>
</g>
<!-- rescan&#45;&gt;scan -->
<g id="edge9" class="edge">
<title>rescan&#45;&gt;scan</title>
<path fill="none" stroke="#aaaaaa" d="M234.12,-636.17C234.71,-659.62 235.65,-702.91 235.65,-739.86 235.65,-909.99 235.65,-909.99 235.65,-909.99 235.65,-946.6 248.28,-986.69 259.16,-1014.44"/>
<polygon fill="#aaaaaa" stroke="#aaaaaa" points="255.8,-1015.46 262.8,-1023.4 262.28,-1012.82 255.8,-1015.46"/>
</g>
<!-- needpw -->
<g id="node12" class="node">
<title>needpw</title>
<path fill="#1a1608" stroke="#8a6a2f" d="M364.69,-519.92C364.69,-519.92 304.61,-493.18 304.61,-493.18 299.13,-490.74 299.13,-485.86 304.61,-483.42 304.61,-483.42 364.69,-456.68 364.69,-456.68 370.17,-454.24 381.13,-454.24 386.61,-456.68 386.61,-456.68 446.69,-483.42 446.69,-483.42 452.17,-485.86 452.17,-490.74 446.69,-493.18 446.69,-493.18 386.61,-519.92 386.61,-519.92 381.13,-522.36 370.17,-522.36 364.69,-519.92"/>
<text xml:space="preserve" text-anchor="middle" x="375.65" y="-493.05" font-family="monospace" font-size="10.00" fill="#e0c896">iwd needs a</text>
<text xml:space="preserve" text-anchor="middle" x="375.65" y="-478.8" font-family="monospace" font-size="10.00" fill="#e0c896">passphrase?</text>
</g>
<!-- connect&#45;&gt;needpw -->
<g id="edge12" class="edge">
<title>connect&#45;&gt;needpw</title>
<path fill="none" stroke="#aaaaaa" d="M375.65,-599.48C375.65,-583.33 375.65,-558.59 375.65,-536.65"/>
<polygon fill="#aaaaaa" stroke="#aaaaaa" points="379.15,-536.66 375.65,-526.66 372.15,-536.66 379.15,-536.66"/>
</g>
<!-- agent -->
<g id="node13" class="node">
<title>agent</title>
<path fill="#330000" stroke="#e00000" d="M573.65,-403.05C573.65,-403.05 389.65,-403.05 389.65,-403.05 383.65,-403.05 377.65,-397.05 377.65,-391.05 377.65,-391.05 377.65,-364.3 377.65,-364.3 377.65,-358.3 383.65,-352.3 389.65,-352.3 389.65,-352.3 573.65,-352.3 573.65,-352.3 579.65,-352.3 585.65,-358.3 585.65,-364.3 585.65,-364.3 585.65,-391.05 585.65,-391.05 585.65,-397.05 579.65,-403.05 573.65,-403.05"/>
<text xml:space="preserve" text-anchor="middle" x="481.65" y="-389.55" font-family="monospace" font-size="10.00" fill="white">iwd calls back into our</text>
<text xml:space="preserve" text-anchor="middle" x="481.65" y="-375.3" font-family="monospace" font-size="10.00" fill="white">registered net.connman.iwd.Agent</text>
<text xml:space="preserve" text-anchor="middle" x="481.65" y="-361.05" font-family="monospace" font-size="10.00" fill="white">RequestPassphrase(o) &#45;&gt; s</text>
</g>
<!-- needpw&#45;&gt;agent -->
<g id="edge13" class="edge">
<title>needpw&#45;&gt;agent</title>
<path fill="none" stroke="#aaaaaa" d="M399.97,-462.38C414.65,-447.34 433.53,-428 449.44,-411.69"/>
<polygon fill="#aaaaaa" stroke="#aaaaaa" points="451.91,-414.17 456.39,-404.57 446.9,-409.28 451.91,-414.17"/>
<text xml:space="preserve" text-anchor="middle" x="448.65" y="-425.25" font-family="monospace" font-size="9.00" fill="white"> yes</text>
</g>
<!-- result -->
<g id="node15" class="node">
<title>result</title>
<ellipse fill="#4d0000" stroke="#ff2020" stroke-width="2" cx="481.65" cy="-108.65" rx="104.65" ry="104.65"/>
<ellipse fill="none" stroke="#ff2020" stroke-width="2" cx="481.65" cy="-108.65" rx="108.65" ry="108.65"/>
<text xml:space="preserve" text-anchor="middle" x="481.65" y="-113.4" font-family="monospace" font-size="10.00" fill="white">result screen</text>
<text xml:space="preserve" text-anchor="middle" x="481.65" y="-99.15" font-family="monospace" font-size="10.00" fill="white">(back to network list)</text>
</g>
<!-- needpw&#45;&gt;result -->
<g id="edge16" class="edge">
<title>needpw&#45;&gt;result</title>
<path fill="none" stroke="#aaaaaa" d="M369.08,-454.38C361.33,-408.05 352.46,-321.76 377.65,-254.3 384.45,-236.09 394.19,-218.1 405,-201.32"/>
<polygon fill="#aaaaaa" stroke="#aaaaaa" points="407.65,-203.66 410.27,-193.39 401.82,-199.78 407.65,-203.66"/>
<text xml:space="preserve" text-anchor="middle" x="403.5" y="-325.75" font-family="monospace" font-size="9.00" fill="white"> no</text>
<text xml:space="preserve" text-anchor="middle" x="403.5" y="-313" font-family="monospace" font-size="9.00" fill="white">(already known)</text>
</g>
<!-- prompt -->
<g id="node14" class="node">
<title>prompt</title>
<path fill="#330000" stroke="#e00000" d="M564.65,-290.8C564.65,-290.8 398.65,-290.8 398.65,-290.8 392.65,-290.8 386.65,-284.8 386.65,-278.8 386.65,-278.8 386.65,-266.3 386.65,-266.3 386.65,-260.3 392.65,-254.3 398.65,-254.3 398.65,-254.3 564.65,-254.3 564.65,-254.3 570.65,-254.3 576.65,-260.3 576.65,-266.3 576.65,-266.3 576.65,-278.8 576.65,-278.8 576.65,-284.8 570.65,-290.8 564.65,-290.8"/>
<text xml:space="preserve" text-anchor="middle" x="481.65" y="-277.3" font-family="monospace" font-size="10.00" fill="white">masked password TUI</text>
<text xml:space="preserve" text-anchor="middle" x="481.65" y="-263.05" font-family="monospace" font-size="10.00" fill="white">replies with typed passphrase</text>
</g>
<!-- agent&#45;&gt;prompt -->
<g id="edge14" class="edge">
<title>agent&#45;&gt;prompt</title>
<path fill="none" stroke="#aaaaaa" d="M481.65,-351.98C481.65,-337.07 481.65,-318 481.65,-302.4"/>
<polygon fill="#aaaaaa" stroke="#aaaaaa" points="485.15,-302.79 481.65,-292.79 478.15,-302.79 485.15,-302.79"/>
</g>
<!-- prompt&#45;&gt;result -->
<g id="edge15" class="edge">
<title>prompt&#45;&gt;result</title>
<path fill="none" stroke="#aaaaaa" d="M481.65,-253.92C481.65,-247.09 481.65,-238.65 481.65,-229.32"/>
<polygon fill="#aaaaaa" stroke="#aaaaaa" points="485.15,-229.51 481.65,-219.51 478.15,-229.51 485.15,-229.51"/>
</g>
<!-- result&#45;&gt;list -->
<g id="edge17" class="edge">
<title>result&#45;&gt;list</title>
<path fill="none" stroke="#aaaaaa" d="M568.22,-175.55C593.11,-202 613.65,-234.92 613.65,-271.55 613.65,-741.86 613.65,-741.86 613.65,-741.86 613.65,-773.49 536.87,-794.47 470.53,-806.7"/>
<polygon fill="#aaaaaa" stroke="#aaaaaa" points="470.28,-803.19 461.05,-808.4 471.51,-810.08 470.28,-803.19"/>
<text xml:space="preserve" text-anchor="middle" x="626.78" y="-486.13" font-family="monospace" font-size="9.00" fill="white"> loop</text>
</g>
<!-- note -->
<g id="node16" class="node">
<title>note</title>
<polygon fill="#1a1608" stroke="#665522" points="555.65,-1437.22 227.65,-1437.22 227.65,-1386.47 561.65,-1386.47 561.65,-1431.22 555.65,-1437.22"/>
<polyline fill="none" stroke="#665522" points="555.65,-1437.22 555.65,-1431.22"/>
<polyline fill="none" stroke="#665522" points="561.65,-1431.22 555.65,-1431.22"/>
<text xml:space="preserve" text-anchor="middle" x="394.65" y="-1423.72" font-family="monospace" font-size="10.00" fill="#ccaa66">No NetworkManager applet, no standalone wifi GUI.</text>
<text xml:space="preserve" text-anchor="middle" x="394.65" y="-1409.47" font-family="monospace" font-size="10.00" fill="#ccaa66">One compiled tool talks to iwd directly over D&#45;Bus &#45;&#45;</text>
<text xml:space="preserve" text-anchor="middle" x="394.65" y="-1395.22" font-family="monospace" font-size="10.00" fill="#ccaa66">no iwctl subprocess, no intermediate config file.</text>
</g>
</g>
</svg>
